<?xml version="1.0" encoding="utf-8" standalone="no"?>
<!DOCTYPE svg PUBLIC "-//W3C//DTD SVG 1.1//EN"
  "http://www.w3.org/Graphics/SVG/1.1/DTD/svg11.dtd">
<svg xmlns:xlink="http://www.w3.org/1999/xlink" width="551.882509pt" height="413.40694pt" viewBox="0 0 551.882509 413.40694" xmlns="http://www.w3.org/2000/svg" version="1.1">
 <metadata>
  <rdf:RDF xmlns:dc="http://purl.org/dc/elements/1.1/" xmlns:cc="http://creativecommons.org/ns#" xmlns:rdf="http://www.w3.org/1999/02/22-rdf-syntax-ns#">
   <cc:Work>
    <dc:type rdf:resource="http://purl.org/dc/dcmitype/StillImage"/>
    <dc:date>2024-01-31T16:37:38.622652</dc:date>
    <dc:format>image/svg+xml</dc:format>
    <dc:creator>
     <cc:Agent>
      <dc:title>Matplotlib v3.6.3, https://matplotlib.org/</dc:title>
     </cc:Agent>
    </dc:creator>
   </cc:Work>
  </rdf:RDF>
 </metadata>
 <defs>
  <style type="text/css">*{stroke-linejoin: round; stroke-linecap: butt}</style>
 </defs>
 <g id="figure_1">
  <g id="patch_1">
   <path d="M 0 413.40694 
L 551.882509 413.40694 
L 551.882509 -0 
L 0 -0 
z
" style="fill: #ffffff"/>
  </g>
  <g id="axes_1">
   <g id="patch_2">
    <path d="M 39.827344 342.689414 
L 542.027344 342.689414 
L 542.027344 10.049414 
L 39.827344 10.049414 
z
" style="fill: #ffffff"/>
   </g>
   <g id="PathCollection_1">
    <defs>
     <path id="m4c390729c1" d="M 0 1.732051 
C 0.459345 1.732051 0.899939 1.549551 1.224745 1.224745 
C 1.549551 0.899939 1.732051 0.459345 1.732051 0 
C 1.732051 -0.459345 1.549551 -0.899939 1.224745 -1.224745 
C 0.899939 -1.549551 0.459345 -1.732051 0 -1.732051 
C -0.459345 -1.732051 -0.899939 -1.549551 -1.224745 -1.224745 
C -1.549551 -0.899939 -1.732051 -0.459345 -1.732051 0 
C -1.732051 0.459345 -1.549551 0.899939 -1.224745 1.224745 
C -0.899939 1.549551 -0.459345 1.732051 0 1.732051 
z
" style="stroke: #000000"/>
    </defs>
    <g clip-path="url(#p4b068c2b78)">
     <use xlink:href="#m4c390729c1" x="152.224487" y="326.849414" style="stroke: #000000"/>
    </g>
   </g>
   <g id="PathCollection_2">
    <g clip-path="url(#p4b068c2b78)">
     <use xlink:href="#m4c390729c1" x="287.340201" y="139.842374" style="stroke: #000000"/>
    </g>
   </g>
   <g id="PathCollection_3">
    <defs>
     <path id="m63340143c3" d="M 0 1.732051 
C 0.459345 1.732051 0.899939 1.549551 1.224745 1.224745 
C 1.549551 0.899939 1.732051 0.459345 1.732051 0 
C 1.732051 -0.459345 1.549551 -0.899939 1.224745 -1.224745 
C 0.899939 -1.549551 0.459345 -1.732051 0 -1.732051 
C -0.459345 -1.732051 -0.899939 -1.549551 -1.224745 -1.224745 
C -1.549551 -0.899939 -1.732051 -0.459345 -1.732051 0 
C -1.732051 0.459345 -1.549551 0.899939 -1.224745 1.224745 
C -0.899939 1.549551 -0.459345 1.732051 0 1.732051 
z
" style="stroke: #ff0000"/>
    </defs>
    <g clip-path="url(#p4b068c2b78)">
     <use xlink:href="#m63340143c3" x="221.575915" y="304.641734" style="fill: #ff0000; stroke: #ff0000"/>
    </g>
   </g>
   <g id="PathCollection_4">
    <g clip-path="url(#p4b068c2b78)">
     <use xlink:href="#m63340143c3" x="238.315915" y="270.680774" style="fill: #ff0000; stroke: #ff0000"/>
    </g>
   </g>
   <g id="PathCollection_5">
    <g clip-path="url(#p4b068c2b78)">
     <use xlink:href="#m63340143c3" x="255.055915" y="242.105414" style="fill: #ff0000; stroke: #ff0000"/>
    </g>
   </g>
   <g id="PathCollection_6">
    <g clip-path="url(#p4b068c2b78)">
     <use xlink:href="#m63340143c3" x="271.795915" y="169.526534" style="fill: #ff0000; stroke: #ff0000"/>
    </g>
   </g>
   <g id="PathCollection_7">
    <g clip-path="url(#p4b068c2b78)">
     <use xlink:href="#m63340143c3" x="288.535915" y="145.988294" style="fill: #ff0000; stroke: #ff0000"/>
    </g>
   </g>
   <g id="PathCollection_8">
    <g clip-path="url(#p4b068c2b78)">
     <use xlink:href="#m63340143c3" x="305.275915" y="126.029894" style="fill: #ff0000; stroke: #ff0000"/>
    </g>
   </g>
   <g id="PathCollection_9">
    <g clip-path="url(#p4b068c2b78)">
     <use xlink:href="#m4c390729c1" x="530.070201" y="93.177734" style="stroke: #000000"/>
    </g>
   </g>
   <g id="PathCollection_10">
    <g clip-path="url(#p4b068c2b78)">
     <use xlink:href="#m4c390729c1" x="530.070201" y="29.405894" style="stroke: #000000"/>
    </g>
   </g>
   <g id="matplotlib.axis_1">
    <g id="xtick_1">
     <g id="line2d_1">
      <defs>
       <path id="mefef5dc28e" d="M 0 0 
L 0 3.5 
" style="stroke: #000000; stroke-width: 0.8"/>
      </defs>
      <g>
       <use xlink:href="#mefef5dc28e" x="56.567344" y="342.689414" style="stroke: #000000; stroke-width: 0.8"/>
      </g>
     </g>
     <g id="text_1">
      <!-- 2021/7/28 -->
      <g transform="translate(42.007794 387.15624) rotate(-45) scale(0.09 -0.09)">
       <defs>
        <path id="DejaVuSans-32" d="M 1228 531 
L 3431 531 
L 3431 0 
L 469 0 
L 469 531 
Q 828 903 1448 1529 
Q 2069 2156 2228 2338 
Q 2531 2678 2651 2914 
Q 2772 3150 2772 3378 
Q 2772 3750 2511 3984 
Q 2250 4219 1831 4219 
Q 1534 4219 1204 4116 
Q 875 4013 500 3803 
L 500 4441 
Q 881 4594 1212 4672 
Q 1544 4750 1819 4750 
Q 2544 4750 2975 4387 
Q 3406 4025 3406 3419 
Q 3406 3131 3298 2873 
Q 3191 2616 2906 2266 
Q 2828 2175 2409 1742 
Q 1991 1309 1228 531 
z
" transform="scale(0.015625)"/>
        <path id="DejaVuSans-30" d="M 2034 4250 
Q 1547 4250 1301 3770 
Q 1056 3291 1056 2328 
Q 1056 1369 1301 889 
Q 1547 409 2034 409 
Q 2525 409 2770 889 
Q 3016 1369 3016 2328 
Q 3016 3291 2770 3770 
Q 2525 4250 2034 4250 
z
M 2034 4750 
Q 2819 4750 3233 4129 
Q 3647 3509 3647 2328 
Q 3647 1150 3233 529 
Q 2819 -91 2034 -91 
Q 1250 -91 836 529 
Q 422 1150 422 2328 
Q 422 3509 836 4129 
Q 1250 4750 2034 4750 
z
" transform="scale(0.015625)"/>
        <path id="DejaVuSans-31" d="M 794 531 
L 1825 531 
L 1825 4091 
L 703 3866 
L 703 4441 
L 1819 4666 
L 2450 4666 
L 2450 531 
L 3481 531 
L 3481 0 
L 794 0 
L 794 531 
z
" transform="scale(0.015625)"/>
        <path id="DejaVuSans-2f" d="M 1625 4666 
L 2156 4666 
L 531 -594 
L 0 -594 
L 1625 4666 
z
" transform="scale(0.015625)"/>
        <path id="DejaVuSans-37" d="M 525 4666 
L 3525 4666 
L 3525 4397 
L 1831 0 
L 1172 0 
L 2766 4134 
L 525 4134 
L 525 4666 
z
" transform="scale(0.015625)"/>
        <path id="DejaVuSans-38" d="M 2034 2216 
Q 1584 2216 1326 1975 
Q 1069 1734 1069 1313 
Q 1069 891 1326 650 
Q 1584 409 2034 409 
Q 2484 409 2743 651 
Q 3003 894 3003 1313 
Q 3003 1734 2745 1975 
Q 2488 2216 2034 2216 
z
M 1403 2484 
Q 997 2584 770 2862 
Q 544 3141 544 3541 
Q 544 4100 942 4425 
Q 1341 4750 2034 4750 
Q 2731 4750 3128 4425 
Q 3525 4100 3525 3541 
Q 3525 3141 3298 2862 
Q 3072 2584 2669 2484 
Q 3125 2378 3379 2068 
Q 3634 1759 3634 1313 
Q 3634 634 3220 271 
Q 2806 -91 2034 -91 
Q 1263 -91 848 271 
Q 434 634 434 1313 
Q 434 1759 690 2068 
Q 947 2378 1403 2484 
z
M 1172 3481 
Q 1172 3119 1398 2916 
Q 1625 2713 2034 2713 
Q 2441 2713 2670 2916 
Q 2900 3119 2900 3481 
Q 2900 3844 2670 4047 
Q 2441 4250 2034 4250 
Q 1625 4250 1398 4047 
Q 1172 3844 1172 3481 
z
" transform="scale(0.015625)"/>
       </defs>
       <use xlink:href="#DejaVuSans-32"/>
       <use xlink:href="#DejaVuSans-30" x="63.623047"/>
       <use xlink:href="#DejaVuSans-32" x="127.246094"/>
       <use xlink:href="#DejaVuSans-31" x="190.869141"/>
       <use xlink:href="#DejaVuSans-2f" x="254.492188"/>
       <use xlink:href="#DejaVuSans-37" x="288.183594"/>
       <use xlink:href="#DejaVuSans-2f" x="351.806641"/>
       <use xlink:href="#DejaVuSans-32" x="385.498047"/>
       <use xlink:href="#DejaVuSans-38" x="449.121094"/>
      </g>
     </g>
    </g>
    <g id="xtick_2">
     <g id="line2d_2">
      <g>
       <use xlink:href="#mefef5dc28e" x="73.307344" y="342.689414" style="stroke: #000000; stroke-width: 0.8"/>
      </g>
     </g>
     <g id="text_2">
      <!-- 2021/8/11 -->
      <g transform="translate(58.747794 387.15624) rotate(-45) scale(0.09 -0.09)">
       <use xlink:href="#DejaVuSans-32"/>
       <use xlink:href="#DejaVuSans-30" x="63.623047"/>
       <use xlink:href="#DejaVuSans-32" x="127.246094"/>
       <use xlink:href="#DejaVuSans-31" x="190.869141"/>
       <use xlink:href="#DejaVuSans-2f" x="254.492188"/>
       <use xlink:href="#DejaVuSans-38" x="288.183594"/>
       <use xlink:href="#DejaVuSans-2f" x="351.806641"/>
       <use xlink:href="#DejaVuSans-31" x="385.498047"/>
       <use xlink:href="#DejaVuSans-31" x="449.121094"/>
      </g>
     </g>
    </g>
    <g id="xtick_3">
     <g id="line2d_3">
      <g>
       <use xlink:href="#mefef5dc28e" x="90.047344" y="342.689414" style="stroke: #000000; stroke-width: 0.8"/>
      </g>
     </g>
     <g id="text_3">
      <!-- 2021/8/25 -->
      <g transform="translate(75.487794 387.15624) rotate(-45) scale(0.09 -0.09)">
       <defs>
        <path id="DejaVuSans-35" d="M 691 4666 
L 3169 4666 
L 3169 4134 
L 1269 4134 
L 1269 2991 
Q 1406 3038 1543 3061 
Q 1681 3084 1819 3084 
Q 2600 3084 3056 2656 
Q 3513 2228 3513 1497 
Q 3513 744 3044 326 
Q 2575 -91 1722 -91 
Q 1428 -91 1123 -41 
Q 819 9 494 109 
L 494 744 
Q 775 591 1075 516 
Q 1375 441 1709 441 
Q 2250 441 2565 725 
Q 2881 1009 2881 1497 
Q 2881 1984 2565 2268 
Q 2250 2553 1709 2553 
Q 1456 2553 1204 2497 
Q 953 2441 691 2322 
L 691 4666 
z
" transform="scale(0.015625)"/>
       </defs>
       <use xlink:href="#DejaVuSans-32"/>
       <use xlink:href="#DejaVuSans-30" x="63.623047"/>
       <use xlink:href="#DejaVuSans-32" x="127.246094"/>
       <use xlink:href="#DejaVuSans-31" x="190.869141"/>
       <use xlink:href="#DejaVuSans-2f" x="254.492188"/>
       <use xlink:href="#DejaVuSans-38" x="288.183594"/>
       <use xlink:href="#DejaVuSans-2f" x="351.806641"/>
       <use xlink:href="#DejaVuSans-32" x="385.498047"/>
       <use xlink:href="#DejaVuSans-35" x="449.121094"/>
      </g>
     </g>
    </g>
    <g id="xtick_4">
     <g id="line2d_4">
      <g>
       <use xlink:href="#mefef5dc28e" x="106.787344" y="342.689414" style="stroke: #000000; stroke-width: 0.8"/>
      </g>
     </g>
     <g id="text_4">
      <!-- 2021/9/8 -->
      <g transform="translate(94.252329 383.10717) rotate(-45) scale(0.09 -0.09)">
       <defs>
        <path id="DejaVuSans-39" d="M 703 97 
L 703 672 
Q 941 559 1184 500 
Q 1428 441 1663 441 
Q 2288 441 2617 861 
Q 2947 1281 2994 2138 
Q 2813 1869 2534 1725 
Q 2256 1581 1919 1581 
Q 1219 1581 811 2004 
Q 403 2428 403 3163 
Q 403 3881 828 4315 
Q 1253 4750 1959 4750 
Q 2769 4750 3195 4129 
Q 3622 3509 3622 2328 
Q 3622 1225 3098 567 
Q 2575 -91 1691 -91 
Q 1453 -91 1209 -44 
Q 966 3 703 97 
z
M 1959 2075 
Q 2384 2075 2632 2365 
Q 2881 2656 2881 3163 
Q 2881 3666 2632 3958 
Q 2384 4250 1959 4250 
Q 1534 4250 1286 3958 
Q 1038 3666 1038 3163 
Q 1038 2656 1286 2365 
Q 1534 2075 1959 2075 
z
" transform="scale(0.015625)"/>
       </defs>
       <use xlink:href="#DejaVuSans-32"/>
       <use xlink:href="#DejaVuSans-30" x="63.623047"/>
       <use xlink:href="#DejaVuSans-32" x="127.246094"/>
       <use xlink:href="#DejaVuSans-31" x="190.869141"/>
       <use xlink:href="#DejaVuSans-2f" x="254.492188"/>
       <use xlink:href="#DejaVuSans-39" x="288.183594"/>
       <use xlink:href="#DejaVuSans-2f" x="351.806641"/>
       <use xlink:href="#DejaVuSans-38" x="385.498047"/>
      </g>
     </g>
    </g>
    <g id="xtick_5">
     <g id="line2d_5">
      <g>
       <use xlink:href="#mefef5dc28e" x="123.527344" y="342.689414" style="stroke: #000000; stroke-width: 0.8"/>
      </g>
     </g>
     <g id="text_5">
      <!-- 2021/9/22 -->
      <g transform="translate(108.967794 387.15624) rotate(-45) scale(0.09 -0.09)">
       <use xlink:href="#DejaVuSans-32"/>
       <use xlink:href="#DejaVuSans-30" x="63.623047"/>
       <use xlink:href="#DejaVuSans-32" x="127.246094"/>
       <use xlink:href="#DejaVuSans-31" x="190.869141"/>
       <use xlink:href="#DejaVuSans-2f" x="254.492188"/>
       <use xlink:href="#DejaVuSans-39" x="288.183594"/>
       <use xlink:href="#DejaVuSans-2f" x="351.806641"/>
       <use xlink:href="#DejaVuSans-32" x="385.498047"/>
       <use xlink:href="#DejaVuSans-32" x="449.121094"/>
      </g>
     </g>
    </g>
    <g id="xtick_6">
     <g id="line2d_6">
      <g>
       <use xlink:href="#mefef5dc28e" x="140.267344" y="342.689414" style="stroke: #000000; stroke-width: 0.8"/>
      </g>
     </g>
     <g id="text_6">
      <!-- 2021/10/6 -->
      <g transform="translate(125.707794 387.15624) rotate(-45) scale(0.09 -0.09)">
       <defs>
        <path id="DejaVuSans-36" d="M 2113 2584 
Q 1688 2584 1439 2293 
Q 1191 2003 1191 1497 
Q 1191 994 1439 701 
Q 1688 409 2113 409 
Q 2538 409 2786 701 
Q 3034 994 3034 1497 
Q 3034 2003 2786 2293 
Q 2538 2584 2113 2584 
z
M 3366 4563 
L 3366 3988 
Q 3128 4100 2886 4159 
Q 2644 4219 2406 4219 
Q 1781 4219 1451 3797 
Q 1122 3375 1075 2522 
Q 1259 2794 1537 2939 
Q 1816 3084 2150 3084 
Q 2853 3084 3261 2657 
Q 3669 2231 3669 1497 
Q 3669 778 3244 343 
Q 2819 -91 2113 -91 
Q 1303 -91 875 529 
Q 447 1150 447 2328 
Q 447 3434 972 4092 
Q 1497 4750 2381 4750 
Q 2619 4750 2861 4703 
Q 3103 4656 3366 4563 
z
" transform="scale(0.015625)"/>
       </defs>
       <use xlink:href="#DejaVuSans-32"/>
       <use xlink:href="#DejaVuSans-30" x="63.623047"/>
       <use xlink:href="#DejaVuSans-32" x="127.246094"/>
       <use xlink:href="#DejaVuSans-31" x="190.869141"/>
       <use xlink:href="#DejaVuSans-2f" x="254.492188"/>
       <use xlink:href="#DejaVuSans-31" x="288.183594"/>
       <use xlink:href="#DejaVuSans-30" x="351.806641"/>
       <use xlink:href="#DejaVuSans-2f" x="415.429688"/>
       <use xlink:href="#DejaVuSans-36" x="449.121094"/>
      </g>
     </g>
    </g>
    <g id="xtick_7">
     <g id="line2d_7">
      <g>
       <use xlink:href="#mefef5dc28e" x="157.007344" y="342.689414" style="stroke: #000000; stroke-width: 0.8"/>
      </g>
     </g>
     <g id="text_7">
      <!-- 2021/10/20 -->
      <g transform="translate(140.423259 391.20531) rotate(-45) scale(0.09 -0.09)">
       <use xlink:href="#DejaVuSans-32"/>
       <use xlink:href="#DejaVuSans-30" x="63.623047"/>
       <use xlink:href="#DejaVuSans-32" x="127.246094"/>
       <use xlink:href="#DejaVuSans-31" x="190.869141"/>
       <use xlink:href="#DejaVuSans-2f" x="254.492188"/>
       <use xlink:href="#DejaVuSans-31" x="288.183594"/>
       <use xlink:href="#DejaVuSans-30" x="351.806641"/>
       <use xlink:href="#DejaVuSans-2f" x="415.429688"/>
       <use xlink:href="#DejaVuSans-32" x="449.121094"/>
       <use xlink:href="#DejaVuSans-30" x="512.744141"/>
      </g>
     </g>
    </g>
    <g id="xtick_8">
     <g id="line2d_8">
      <g>
       <use xlink:href="#mefef5dc28e" x="173.747344" y="342.689414" style="stroke: #000000; stroke-width: 0.8"/>
      </g>
     </g>
     <g id="text_8">
      <!-- 2021/11/3 -->
      <g transform="translate(159.187794 387.15624) rotate(-45) scale(0.09 -0.09)">
       <defs>
        <path id="DejaVuSans-33" d="M 2597 2516 
Q 3050 2419 3304 2112 
Q 3559 1806 3559 1356 
Q 3559 666 3084 287 
Q 2609 -91 1734 -91 
Q 1441 -91 1130 -33 
Q 819 25 488 141 
L 488 750 
Q 750 597 1062 519 
Q 1375 441 1716 441 
Q 2309 441 2620 675 
Q 2931 909 2931 1356 
Q 2931 1769 2642 2001 
Q 2353 2234 1838 2234 
L 1294 2234 
L 1294 2753 
L 1863 2753 
Q 2328 2753 2575 2939 
Q 2822 3125 2822 3475 
Q 2822 3834 2567 4026 
Q 2313 4219 1838 4219 
Q 1578 4219 1281 4162 
Q 984 4106 628 3988 
L 628 4550 
Q 988 4650 1302 4700 
Q 1616 4750 1894 4750 
Q 2613 4750 3031 4423 
Q 3450 4097 3450 3541 
Q 3450 3153 3228 2886 
Q 3006 2619 2597 2516 
z
" transform="scale(0.015625)"/>
       </defs>
       <use xlink:href="#DejaVuSans-32"/>
       <use xlink:href="#DejaVuSans-30" x="63.623047"/>
       <use xlink:href="#DejaVuSans-32" x="127.246094"/>
       <use xlink:href="#DejaVuSans-31" x="190.869141"/>
       <use xlink:href="#DejaVuSans-2f" x="254.492188"/>
       <use xlink:href="#DejaVuSans-31" x="288.183594"/>
       <use xlink:href="#DejaVuSans-31" x="351.806641"/>
       <use xlink:href="#DejaVuSans-2f" x="415.429688"/>
       <use xlink:href="#DejaVuSans-33" x="449.121094"/>
      </g>
     </g>
    </g>
    <g id="xtick_9">
     <g id="line2d_9">
      <g>
       <use xlink:href="#mefef5dc28e" x="190.487344" y="342.689414" style="stroke: #000000; stroke-width: 0.8"/>
      </g>
     </g>
     <g id="text_9">
      <!-- 2021/11/17 -->
      <g transform="translate(173.903259 391.20531) rotate(-45) scale(0.09 -0.09)">
       <use xlink:href="#DejaVuSans-32"/>
       <use xlink:href="#DejaVuSans-30" x="63.623047"/>
       <use xlink:href="#DejaVuSans-32" x="127.246094"/>
       <use xlink:href="#DejaVuSans-31" x="190.869141"/>
       <use xlink:href="#DejaVuSans-2f" x="254.492188"/>
       <use xlink:href="#DejaVuSans-31" x="288.183594"/>
       <use xlink:href="#DejaVuSans-31" x="351.806641"/>
       <use xlink:href="#DejaVuSans-2f" x="415.429688"/>
       <use xlink:href="#DejaVuSans-31" x="449.121094"/>
       <use xlink:href="#DejaVuSans-37" x="512.744141"/>
      </g>
     </g>
    </g>
    <g id="xtick_10">
     <g id="line2d_10">
      <g>
       <use xlink:href="#mefef5dc28e" x="207.227344" y="342.689414" style="stroke: #000000; stroke-width: 0.8"/>
      </g>
     </g>
     <g id="text_10">
      <!-- 2021/12/1 -->
      <g transform="translate(192.667794 387.15624) rotate(-45) scale(0.09 -0.09)">
       <use xlink:href="#DejaVuSans-32"/>
       <use xlink:href="#DejaVuSans-30" x="63.623047"/>
       <use xlink:href="#DejaVuSans-32" x="127.246094"/>
       <use xlink:href="#DejaVuSans-31" x="190.869141"/>
       <use xlink:href="#DejaVuSans-2f" x="254.492188"/>
       <use xlink:href="#DejaVuSans-31" x="288.183594"/>
       <use xlink:href="#DejaVuSans-32" x="351.806641"/>
       <use xlink:href="#DejaVuSans-2f" x="415.429688"/>
       <use xlink:href="#DejaVuSans-31" x="449.121094"/>
      </g>
     </g>
    </g>
    <g id="xtick_11">
     <g id="line2d_11">
      <g>
       <use xlink:href="#mefef5dc28e" x="223.967344" y="342.689414" style="stroke: #000000; stroke-width: 0.8"/>
      </g>
     </g>
     <g id="text_11">
      <!-- 2021/12/15 -->
      <g transform="translate(207.383259 391.20531) rotate(-45) scale(0.09 -0.09)">
       <use xlink:href="#DejaVuSans-32"/>
       <use xlink:href="#DejaVuSans-30" x="63.623047"/>
       <use xlink:href="#DejaVuSans-32" x="127.246094"/>
       <use xlink:href="#DejaVuSans-31" x="190.869141"/>
       <use xlink:href="#DejaVuSans-2f" x="254.492188"/>
       <use xlink:href="#DejaVuSans-31" x="288.183594"/>
       <use xlink:href="#DejaVuSans-32" x="351.806641"/>
       <use xlink:href="#DejaVuSans-2f" x="415.429688"/>
       <use xlink:href="#DejaVuSans-31" x="449.121094"/>
       <use xlink:href="#DejaVuSans-35" x="512.744141"/>
      </g>
     </g>
    </g>
    <g id="xtick_12">
     <g id="line2d_12">
      <g>
       <use xlink:href="#mefef5dc28e" x="240.707344" y="342.689414" style="stroke: #000000; stroke-width: 0.8"/>
      </g>
     </g>
     <g id="text_12">
      <!-- 2021/12/29 -->
      <g transform="translate(224.123259 391.20531) rotate(-45) scale(0.09 -0.09)">
       <use xlink:href="#DejaVuSans-32"/>
       <use xlink:href="#DejaVuSans-30" x="63.623047"/>
       <use xlink:href="#DejaVuSans-32" x="127.246094"/>
       <use xlink:href="#DejaVuSans-31" x="190.869141"/>
       <use xlink:href="#DejaVuSans-2f" x="254.492188"/>
       <use xlink:href="#DejaVuSans-31" x="288.183594"/>
       <use xlink:href="#DejaVuSans-32" x="351.806641"/>
       <use xlink:href="#DejaVuSans-2f" x="415.429688"/>
       <use xlink:href="#DejaVuSans-32" x="449.121094"/>
       <use xlink:href="#DejaVuSans-39" x="512.744141"/>
      </g>
     </g>
    </g>
    <g id="xtick_13">
     <g id="line2d_13">
      <g>
       <use xlink:href="#mefef5dc28e" x="257.447344" y="342.689414" style="stroke: #000000; stroke-width: 0.8"/>
      </g>
     </g>
     <g id="text_13">
      <!-- 2022/1/12 -->
      <g transform="translate(242.887794 387.15624) rotate(-45) scale(0.09 -0.09)">
       <use xlink:href="#DejaVuSans-32"/>
       <use xlink:href="#DejaVuSans-30" x="63.623047"/>
       <use xlink:href="#DejaVuSans-32" x="127.246094"/>
       <use xlink:href="#DejaVuSans-32" x="190.869141"/>
       <use xlink:href="#DejaVuSans-2f" x="254.492188"/>
       <use xlink:href="#DejaVuSans-31" x="288.183594"/>
       <use xlink:href="#DejaVuSans-2f" x="351.806641"/>
       <use xlink:href="#DejaVuSans-31" x="385.498047"/>
       <use xlink:href="#DejaVuSans-32" x="449.121094"/>
      </g>
     </g>
    </g>
    <g id="xtick_14">
     <g id="line2d_14">
      <g>
       <use xlink:href="#mefef5dc28e" x="274.187344" y="342.689414" style="stroke: #000000; stroke-width: 0.8"/>
      </g>
     </g>
     <g id="text_14">
      <!-- 2022/1/26 -->
      <g transform="translate(259.627794 387.15624) rotate(-45) scale(0.09 -0.09)">
       <use xlink:href="#DejaVuSans-32"/>
       <use xlink:href="#DejaVuSans-30" x="63.623047"/>
       <use xlink:href="#DejaVuSans-32" x="127.246094"/>
       <use xlink:href="#DejaVuSans-32" x="190.869141"/>
       <use xlink:href="#DejaVuSans-2f" x="254.492188"/>
       <use xlink:href="#DejaVuSans-31" x="288.183594"/>
       <use xlink:href="#DejaVuSans-2f" x="351.806641"/>
       <use xlink:href="#DejaVuSans-32" x="385.498047"/>
       <use xlink:href="#DejaVuSans-36" x="449.121094"/>
      </g>
     </g>
    </g>
    <g id="xtick_15">
     <g id="line2d_15">
      <g>
       <use xlink:href="#mefef5dc28e" x="290.927344" y="342.689414" style="stroke: #000000; stroke-width: 0.8"/>
      </g>
     </g>
     <g id="text_15">
      <!-- 2022/2/9 -->
      <g transform="translate(278.392329 383.10717) rotate(-45) scale(0.09 -0.09)">
       <use xlink:href="#DejaVuSans-32"/>
       <use xlink:href="#DejaVuSans-30" x="63.623047"/>
       <use xlink:href="#DejaVuSans-32" x="127.246094"/>
       <use xlink:href="#DejaVuSans-32" x="190.869141"/>
       <use xlink:href="#DejaVuSans-2f" x="254.492188"/>
       <use xlink:href="#DejaVuSans-32" x="288.183594"/>
       <use xlink:href="#DejaVuSans-2f" x="351.806641"/>
       <use xlink:href="#DejaVuSans-39" x="385.498047"/>
      </g>
     </g>
    </g>
    <g id="xtick_16">
     <g id="line2d_16">
      <g>
       <use xlink:href="#mefef5dc28e" x="307.667344" y="342.689414" style="stroke: #000000; stroke-width: 0.8"/>
      </g>
     </g>
     <g id="text_16">
      <!-- 2022/2/23 -->
      <g transform="translate(293.107794 387.15624) rotate(-45) scale(0.09 -0.09)">
       <use xlink:href="#DejaVuSans-32"/>
       <use xlink:href="#DejaVuSans-30" x="63.623047"/>
       <use xlink:href="#DejaVuSans-32" x="127.246094"/>
       <use xlink:href="#DejaVuSans-32" x="190.869141"/>
       <use xlink:href="#DejaVuSans-2f" x="254.492188"/>
       <use xlink:href="#DejaVuSans-32" x="288.183594"/>
       <use xlink:href="#DejaVuSans-2f" x="351.806641"/>
       <use xlink:href="#DejaVuSans-32" x="385.498047"/>
       <use xlink:href="#DejaVuSans-33" x="449.121094"/>
      </g>
     </g>
    </g>
    <g id="xtick_17">
     <g id="line2d_17">
      <g>
       <use xlink:href="#mefef5dc28e" x="324.407344" y="342.689414" style="stroke: #000000; stroke-width: 0.8"/>
      </g>
     </g>
     <g id="text_17">
      <!-- 2022/3/9 -->
      <g transform="translate(311.872329 383.10717) rotate(-45) scale(0.09 -0.09)">
       <use xlink:href="#DejaVuSans-32"/>
       <use xlink:href="#DejaVuSans-30" x="63.623047"/>
       <use xlink:href="#DejaVuSans-32" x="127.246094"/>
       <use xlink:href="#DejaVuSans-32" x="190.869141"/>
       <use xlink:href="#DejaVuSans-2f" x="254.492188"/>
       <use xlink:href="#DejaVuSans-33" x="288.183594"/>
       <use xlink:href="#DejaVuSans-2f" x="351.806641"/>
       <use xlink:href="#DejaVuSans-39" x="385.498047"/>
      </g>
     </g>
    </g>
    <g id="xtick_18">
     <g id="line2d_18">
      <g>
       <use xlink:href="#mefef5dc28e" x="341.147344" y="342.689414" style="stroke: #000000; stroke-width: 0.8"/>
      </g>
     </g>
     <g id="text_18">
      <!-- 2022/3/23 -->
      <g transform="translate(326.587794 387.15624) rotate(-45) scale(0.09 -0.09)">
       <use xlink:href="#DejaVuSans-32"/>
       <use xlink:href="#DejaVuSans-30" x="63.623047"/>
       <use xlink:href="#DejaVuSans-32" x="127.246094"/>
       <use xlink:href="#DejaVuSans-32" x="190.869141"/>
       <use xlink:href="#DejaVuSans-2f" x="254.492188"/>
       <use xlink:href="#DejaVuSans-33" x="288.183594"/>
       <use xlink:href="#DejaVuSans-2f" x="351.806641"/>
       <use xlink:href="#DejaVuSans-32" x="385.498047"/>
       <use xlink:href="#DejaVuSans-33" x="449.121094"/>
      </g>
     </g>
    </g>
    <g id="xtick_19">
     <g id="line2d_19">
      <g>
       <use xlink:href="#mefef5dc28e" x="357.887344" y="342.689414" style="stroke: #000000; stroke-width: 0.8"/>
      </g>
     </g>
     <g id="text_19">
      <!-- 2022/4/6 -->
      <g transform="translate(345.352329 383.10717) rotate(-45) scale(0.09 -0.09)">
       <defs>
        <path id="DejaVuSans-34" d="M 2419 4116 
L 825 1625 
L 2419 1625 
L 2419 4116 
z
M 2253 4666 
L 3047 4666 
L 3047 1625 
L 3713 1625 
L 3713 1100 
L 3047 1100 
L 3047 0 
L 2419 0 
L 2419 1100 
L 313 1100 
L 313 1709 
L 2253 4666 
z
" transform="scale(0.015625)"/>
       </defs>
       <use xlink:href="#DejaVuSans-32"/>
       <use xlink:href="#DejaVuSans-30" x="63.623047"/>
       <use xlink:href="#DejaVuSans-32" x="127.246094"/>
       <use xlink:href="#DejaVuSans-32" x="190.869141"/>
       <use xlink:href="#DejaVuSans-2f" x="254.492188"/>
       <use xlink:href="#DejaVuSans-34" x="288.183594"/>
       <use xlink:href="#DejaVuSans-2f" x="351.806641"/>
       <use xlink:href="#DejaVuSans-36" x="385.498047"/>
      </g>
     </g>
    </g>
    <g id="xtick_20">
     <g id="line2d_20">
      <g>
       <use xlink:href="#mefef5dc28e" x="374.627344" y="342.689414" style="stroke: #000000; stroke-width: 0.8"/>
      </g>
     </g>
     <g id="text_20">
      <!-- 2022/4/20 -->
      <g transform="translate(360.067794 387.15624) rotate(-45) scale(0.09 -0.09)">
       <use xlink:href="#DejaVuSans-32"/>
       <use xlink:href="#DejaVuSans-30" x="63.623047"/>
       <use xlink:href="#DejaVuSans-32" x="127.246094"/>
       <use xlink:href="#DejaVuSans-32" x="190.869141"/>
       <use xlink:href="#DejaVuSans-2f" x="254.492188"/>
       <use xlink:href="#DejaVuSans-34" x="288.183594"/>
       <use xlink:href="#DejaVuSans-2f" x="351.806641"/>
       <use xlink:href="#DejaVuSans-32" x="385.498047"/>
       <use xlink:href="#DejaVuSans-30" x="449.121094"/>
      </g>
     </g>
    </g>
    <g id="xtick_21">
     <g id="line2d_21">
      <g>
       <use xlink:href="#mefef5dc28e" x="391.367344" y="342.689414" style="stroke: #000000; stroke-width: 0.8"/>
      </g>
     </g>
     <g id="text_21">
      <!-- 2022/5/4 -->
      <g transform="translate(378.832329 383.10717) rotate(-45) scale(0.09 -0.09)">
       <use xlink:href="#DejaVuSans-32"/>
       <use xlink:href="#DejaVuSans-30" x="63.623047"/>
       <use xlink:href="#DejaVuSans-32" x="127.246094"/>
       <use xlink:href="#DejaVuSans-32" x="190.869141"/>
       <use xlink:href="#DejaVuSans-2f" x="254.492188"/>
       <use xlink:href="#DejaVuSans-35" x="288.183594"/>
       <use xlink:href="#DejaVuSans-2f" x="351.806641"/>
       <use xlink:href="#DejaVuSans-34" x="385.498047"/>
      </g>
     </g>
    </g>
    <g id="xtick_22">
     <g id="line2d_22">
      <g>
       <use xlink:href="#mefef5dc28e" x="408.107344" y="342.689414" style="stroke: #000000; stroke-width: 0.8"/>
      </g>
     </g>
     <g id="text_22">
      <!-- 2022/5/18 -->
      <g transform="translate(393.547794 387.15624) rotate(-45) scale(0.09 -0.09)">
       <use xlink:href="#DejaVuSans-32"/>
       <use xlink:href="#DejaVuSans-30" x="63.623047"/>
       <use xlink:href="#DejaVuSans-32" x="127.246094"/>
       <use xlink:href="#DejaVuSans-32" x="190.869141"/>
       <use xlink:href="#DejaVuSans-2f" x="254.492188"/>
       <use xlink:href="#DejaVuSans-35" x="288.183594"/>
       <use xlink:href="#DejaVuSans-2f" x="351.806641"/>
       <use xlink:href="#DejaVuSans-31" x="385.498047"/>
       <use xlink:href="#DejaVuSans-38" x="449.121094"/>
      </g>
     </g>
    </g>
    <g id="xtick_23">
     <g id="line2d_23">
      <g>
       <use xlink:href="#mefef5dc28e" x="424.847344" y="342.689414" style="stroke: #000000; stroke-width: 0.8"/>
      </g>
     </g>
     <g id="text_23">
      <!-- 2022/6/1 -->
      <g transform="translate(412.312329 383.10717) rotate(-45) scale(0.09 -0.09)">
       <use xlink:href="#DejaVuSans-32"/>
       <use xlink:href="#DejaVuSans-30" x="63.623047"/>
       <use xlink:href="#DejaVuSans-32" x="127.246094"/>
       <use xlink:href="#DejaVuSans-32" x="190.869141"/>
       <use xlink:href="#DejaVuSans-2f" x="254.492188"/>
       <use xlink:href="#DejaVuSans-36" x="288.183594"/>
       <use xlink:href="#DejaVuSans-2f" x="351.806641"/>
       <use xlink:href="#DejaVuSans-31" x="385.498047"/>
      </g>
     </g>
    </g>
    <g id="xtick_24">
     <g id="line2d_24">
      <g>
       <use xlink:href="#mefef5dc28e" x="441.587344" y="342.689414" style="stroke: #000000; stroke-width: 0.8"/>
      </g>
     </g>
     <g id="text_24">
      <!-- 2022/6/15 -->
      <g transform="translate(427.027794 387.15624) rotate(-45) scale(0.09 -0.09)">
       <use xlink:href="#DejaVuSans-32"/>
       <use xlink:href="#DejaVuSans-30" x="63.623047"/>
       <use xlink:href="#DejaVuSans-32" x="127.246094"/>
       <use xlink:href="#DejaVuSans-32" x="190.869141"/>
       <use xlink:href="#DejaVuSans-2f" x="254.492188"/>
       <use xlink:href="#DejaVuSans-36" x="288.183594"/>
       <use xlink:href="#DejaVuSans-2f" x="351.806641"/>
       <use xlink:href="#DejaVuSans-31" x="385.498047"/>
       <use xlink:href="#DejaVuSans-35" x="449.121094"/>
      </g>
     </g>
    </g>
    <g id="xtick_25">
     <g id="line2d_25">
      <g>
       <use xlink:href="#mefef5dc28e" x="458.327344" y="342.689414" style="stroke: #000000; stroke-width: 0.8"/>
      </g>
     </g>
     <g id="text_25">
      <!-- 2022/6/29 -->
      <g transform="translate(443.767794 387.15624) rotate(-45) scale(0.09 -0.09)">
       <use xlink:href="#DejaVuSans-32"/>
       <use xlink:href="#DejaVuSans-30" x="63.623047"/>
       <use xlink:href="#DejaVuSans-32" x="127.246094"/>
       <use xlink:href="#DejaVuSans-32" x="190.869141"/>
       <use xlink:href="#DejaVuSans-2f" x="254.492188"/>
       <use xlink:href="#DejaVuSans-36" x="288.183594"/>
       <use xlink:href="#DejaVuSans-2f" x="351.806641"/>
       <use xlink:href="#DejaVuSans-32" x="385.498047"/>
       <use xlink:href="#DejaVuSans-39" x="449.121094"/>
      </g>
     </g>
    </g>
    <g id="xtick_26">
     <g id="line2d_26">
      <g>
       <use xlink:href="#mefef5dc28e" x="475.067344" y="342.689414" style="stroke: #000000; stroke-width: 0.8"/>
      </g>
     </g>
     <g id="text_26">
      <!-- 2022/7/13 -->
      <g transform="translate(460.507794 387.15624) rotate(-45) scale(0.09 -0.09)">
       <use xlink:href="#DejaVuSans-32"/>
       <use xlink:href="#DejaVuSans-30" x="63.623047"/>
       <use xlink:href="#DejaVuSans-32" x="127.246094"/>
       <use xlink:href="#DejaVuSans-32" x="190.869141"/>
       <use xlink:href="#DejaVuSans-2f" x="254.492188"/>
       <use xlink:href="#DejaVuSans-37" x="288.183594"/>
       <use xlink:href="#DejaVuSans-2f" x="351.806641"/>
       <use xlink:href="#DejaVuSans-31" x="385.498047"/>
       <use xlink:href="#DejaVuSans-33" x="449.121094"/>
      </g>
     </g>
    </g>
    <g id="xtick_27">
     <g id="line2d_27">
      <g>
       <use xlink:href="#mefef5dc28e" x="491.807344" y="342.689414" style="stroke: #000000; stroke-width: 0.8"/>
      </g>
     </g>
     <g id="text_27">
      <!-- 2022/7/27 -->
      <g transform="translate(477.247794 387.15624) rotate(-45) scale(0.09 -0.09)">
       <use xlink:href="#DejaVuSans-32"/>
       <use xlink:href="#DejaVuSans-30" x="63.623047"/>
       <use xlink:href="#DejaVuSans-32" x="127.246094"/>
       <use xlink:href="#DejaVuSans-32" x="190.869141"/>
       <use xlink:href="#DejaVuSans-2f" x="254.492188"/>
       <use xlink:href="#DejaVuSans-37" x="288.183594"/>
       <use xlink:href="#DejaVuSans-2f" x="351.806641"/>
       <use xlink:href="#DejaVuSans-32" x="385.498047"/>
       <use xlink:href="#DejaVuSans-37" x="449.121094"/>
      </g>
     </g>
    </g>
    <g id="xtick_28">
     <g id="line2d_28">
      <g>
       <use xlink:href="#mefef5dc28e" x="508.547344" y="342.689414" style="stroke: #000000; stroke-width: 0.8"/>
      </g>
     </g>
     <g id="text_28">
      <!-- 2022/8/10 -->
      <g transform="translate(493.987794 387.15624) rotate(-45) scale(0.09 -0.09)">
       <use xlink:href="#DejaVuSans-32"/>
       <use xlink:href="#DejaVuSans-30" x="63.623047"/>
       <use xlink:href="#DejaVuSans-32" x="127.246094"/>
       <use xlink:href="#DejaVuSans-32" x="190.869141"/>
       <use xlink:href="#DejaVuSans-2f" x="254.492188"/>
       <use xlink:href="#DejaVuSans-38" x="288.183594"/>
       <use xlink:href="#DejaVuSans-2f" x="351.806641"/>
       <use xlink:href="#DejaVuSans-31" x="385.498047"/>
       <use xlink:href="#DejaVuSans-30" x="449.121094"/>
      </g>
     </g>
    </g>
    <g id="xtick_29">
     <g id="line2d_29">
      <g>
       <use xlink:href="#mefef5dc28e" x="525.287344" y="342.689414" style="stroke: #000000; stroke-width: 0.8"/>
      </g>
     </g>
     <g id="text_29">
      <!-- 2022/8/24 -->
      <g transform="translate(510.727794 387.15624) rotate(-45) scale(0.09 -0.09)">
       <use xlink:href="#DejaVuSans-32"/>
       <use xlink:href="#DejaVuSans-30" x="63.623047"/>
       <use xlink:href="#DejaVuSans-32" x="127.246094"/>
       <use xlink:href="#DejaVuSans-32" x="190.869141"/>
       <use xlink:href="#DejaVuSans-2f" x="254.492188"/>
       <use xlink:href="#DejaVuSans-38" x="288.183594"/>
       <use xlink:href="#DejaVuSans-2f" x="351.806641"/>
       <use xlink:href="#DejaVuSans-32" x="385.498047"/>
       <use xlink:href="#DejaVuSans-34" x="449.121094"/>
      </g>
     </g>
    </g>
    <g id="text_30">
     <!-- Timepoint in 2021–22 (weeks) -->
     <g transform="translate(215.385937 404.127253) scale(0.1 -0.1)">
      <defs>
       <path id="DejaVuSans-54" d="M -19 4666 
L 3928 4666 
L 3928 4134 
L 2272 4134 
L 2272 0 
L 1638 0 
L 1638 4134 
L -19 4134 
L -19 4666 
z
" transform="scale(0.015625)"/>
       <path id="DejaVuSans-69" d="M 603 3500 
L 1178 3500 
L 1178 0 
L 603 0 
L 603 3500 
z
M 603 4863 
L 1178 4863 
L 1178 4134 
L 603 4134 
L 603 4863 
z
" transform="scale(0.015625)"/>
       <path id="DejaVuSans-6d" d="M 3328 2828 
Q 3544 3216 3844 3400 
Q 4144 3584 4550 3584 
Q 5097 3584 5394 3201 
Q 5691 2819 5691 2113 
L 5691 0 
L 5113 0 
L 5113 2094 
Q 5113 2597 4934 2840 
Q 4756 3084 4391 3084 
Q 3944 3084 3684 2787 
Q 3425 2491 3425 1978 
L 3425 0 
L 2847 0 
L 2847 2094 
Q 2847 2600 2669 2842 
Q 2491 3084 2119 3084 
Q 1678 3084 1418 2786 
Q 1159 2488 1159 1978 
L 1159 0 
L 581 0 
L 581 3500 
L 1159 3500 
L 1159 2956 
Q 1356 3278 1631 3431 
Q 1906 3584 2284 3584 
Q 2666 3584 2933 3390 
Q 3200 3197 3328 2828 
z
" transform="scale(0.015625)"/>
       <path id="DejaVuSans-65" d="M 3597 1894 
L 3597 1613 
L 953 1613 
Q 991 1019 1311 708 
Q 1631 397 2203 397 
Q 2534 397 2845 478 
Q 3156 559 3463 722 
L 3463 178 
Q 3153 47 2828 -22 
Q 2503 -91 2169 -91 
Q 1331 -91 842 396 
Q 353 884 353 1716 
Q 353 2575 817 3079 
Q 1281 3584 2069 3584 
Q 2775 3584 3186 3129 
Q 3597 2675 3597 1894 
z
M 3022 2063 
Q 3016 2534 2758 2815 
Q 2500 3097 2075 3097 
Q 1594 3097 1305 2825 
Q 1016 2553 972 2059 
L 3022 2063 
z
" transform="scale(0.015625)"/>
       <path id="DejaVuSans-70" d="M 1159 525 
L 1159 -1331 
L 581 -1331 
L 581 3500 
L 1159 3500 
L 1159 2969 
Q 1341 3281 1617 3432 
Q 1894 3584 2278 3584 
Q 2916 3584 3314 3078 
Q 3713 2572 3713 1747 
Q 3713 922 3314 415 
Q 2916 -91 2278 -91 
Q 1894 -91 1617 61 
Q 1341 213 1159 525 
z
M 3116 1747 
Q 3116 2381 2855 2742 
Q 2594 3103 2138 3103 
Q 1681 3103 1420 2742 
Q 1159 2381 1159 1747 
Q 1159 1113 1420 752 
Q 1681 391 2138 391 
Q 2594 391 2855 752 
Q 3116 1113 3116 1747 
z
" transform="scale(0.015625)"/>
       <path id="DejaVuSans-6f" d="M 1959 3097 
Q 1497 3097 1228 2736 
Q 959 2375 959 1747 
Q 959 1119 1226 758 
Q 1494 397 1959 397 
Q 2419 397 2687 759 
Q 2956 1122 2956 1747 
Q 2956 2369 2687 2733 
Q 2419 3097 1959 3097 
z
M 1959 3584 
Q 2709 3584 3137 3096 
Q 3566 2609 3566 1747 
Q 3566 888 3137 398 
Q 2709 -91 1959 -91 
Q 1206 -91 779 398 
Q 353 888 353 1747 
Q 353 2609 779 3096 
Q 1206 3584 1959 3584 
z
" transform="scale(0.015625)"/>
       <path id="DejaVuSans-6e" d="M 3513 2113 
L 3513 0 
L 2938 0 
L 2938 2094 
Q 2938 2591 2744 2837 
Q 2550 3084 2163 3084 
Q 1697 3084 1428 2787 
Q 1159 2491 1159 1978 
L 1159 0 
L 581 0 
L 581 3500 
L 1159 3500 
L 1159 2956 
Q 1366 3272 1645 3428 
Q 1925 3584 2291 3584 
Q 2894 3584 3203 3211 
Q 3513 2838 3513 2113 
z
" transform="scale(0.015625)"/>
       <path id="DejaVuSans-74" d="M 1172 4494 
L 1172 3500 
L 2356 3500 
L 2356 3053 
L 1172 3053 
L 1172 1153 
Q 1172 725 1289 603 
Q 1406 481 1766 481 
L 2356 481 
L 2356 0 
L 1766 0 
Q 1100 0 847 248 
Q 594 497 594 1153 
L 594 3053 
L 172 3053 
L 172 3500 
L 594 3500 
L 594 4494 
L 1172 4494 
z
" transform="scale(0.015625)"/>
       <path id="DejaVuSans-20" transform="scale(0.015625)"/>
       <path id="DejaVuSans-2013" d="M 313 1978 
L 2888 1978 
L 2888 1528 
L 313 1528 
L 313 1978 
z
" transform="scale(0.015625)"/>
       <path id="DejaVuSans-28" d="M 1984 4856 
Q 1566 4138 1362 3434 
Q 1159 2731 1159 2009 
Q 1159 1288 1364 580 
Q 1569 -128 1984 -844 
L 1484 -844 
Q 1016 -109 783 600 
Q 550 1309 550 2009 
Q 550 2706 781 3412 
Q 1013 4119 1484 4856 
L 1984 4856 
z
" transform="scale(0.015625)"/>
       <path id="DejaVuSans-77" d="M 269 3500 
L 844 3500 
L 1563 769 
L 2278 3500 
L 2956 3500 
L 3675 769 
L 4391 3500 
L 4966 3500 
L 4050 0 
L 3372 0 
L 2619 2869 
L 1863 0 
L 1184 0 
L 269 3500 
z
" transform="scale(0.015625)"/>
       <path id="DejaVuSans-6b" d="M 581 4863 
L 1159 4863 
L 1159 1991 
L 2875 3500 
L 3609 3500 
L 1753 1863 
L 3688 0 
L 2938 0 
L 1159 1709 
L 1159 0 
L 581 0 
L 581 4863 
z
" transform="scale(0.015625)"/>
       <path id="DejaVuSans-73" d="M 2834 3397 
L 2834 2853 
Q 2591 2978 2328 3040 
Q 2066 3103 1784 3103 
Q 1356 3103 1142 2972 
Q 928 2841 928 2578 
Q 928 2378 1081 2264 
Q 1234 2150 1697 2047 
L 1894 2003 
Q 2506 1872 2764 1633 
Q 3022 1394 3022 966 
Q 3022 478 2636 193 
Q 2250 -91 1575 -91 
Q 1294 -91 989 -36 
Q 684 19 347 128 
L 347 722 
Q 666 556 975 473 
Q 1284 391 1588 391 
Q 1994 391 2212 530 
Q 2431 669 2431 922 
Q 2431 1156 2273 1281 
Q 2116 1406 1581 1522 
L 1381 1569 
Q 847 1681 609 1914 
Q 372 2147 372 2553 
Q 372 3047 722 3315 
Q 1072 3584 1716 3584 
Q 2034 3584 2315 3537 
Q 2597 3491 2834 3397 
z
" transform="scale(0.015625)"/>
       <path id="DejaVuSans-29" d="M 513 4856 
L 1013 4856 
Q 1481 4119 1714 3412 
Q 1947 2706 1947 2009 
Q 1947 1309 1714 600 
Q 1481 -109 1013 -844 
L 513 -844 
Q 928 -128 1133 580 
Q 1338 1288 1338 2009 
Q 1338 2731 1133 3434 
Q 928 4138 513 4856 
z
" transform="scale(0.015625)"/>
      </defs>
      <use xlink:href="#DejaVuSans-54"/>
      <use xlink:href="#DejaVuSans-69" x="57.958984"/>
      <use xlink:href="#DejaVuSans-6d" x="85.742188"/>
      <use xlink:href="#DejaVuSans-65" x="183.154297"/>
      <use xlink:href="#DejaVuSans-70" x="244.677734"/>
      <use xlink:href="#DejaVuSans-6f" x="308.154297"/>
      <use xlink:href="#DejaVuSans-69" x="369.335938"/>
      <use xlink:href="#DejaVuSans-6e" x="397.119141"/>
      <use xlink:href="#DejaVuSans-74" x="460.498047"/>
      <use xlink:href="#DejaVuSans-20" x="499.707031"/>
      <use xlink:href="#DejaVuSans-69" x="531.494141"/>
      <use xlink:href="#DejaVuSans-6e" x="559.277344"/>
      <use xlink:href="#DejaVuSans-20" x="622.65625"/>
      <use xlink:href="#DejaVuSans-32" x="654.443359"/>
      <use xlink:href="#DejaVuSans-30" x="718.066406"/>
      <use xlink:href="#DejaVuSans-32" x="781.689453"/>
      <use xlink:href="#DejaVuSans-31" x="845.3125"/>
      <use xlink:href="#DejaVuSans-2013" x="908.935547"/>
      <use xlink:href="#DejaVuSans-32" x="958.935547"/>
      <use xlink:href="#DejaVuSans-32" x="1022.558594"/>
      <use xlink:href="#DejaVuSans-20" x="1086.181641"/>
      <use xlink:href="#DejaVuSans-28" x="1117.96875"/>
      <use xlink:href="#DejaVuSans-77" x="1156.982422"/>
      <use xlink:href="#DejaVuSans-65" x="1238.769531"/>
      <use xlink:href="#DejaVuSans-65" x="1300.292969"/>
      <use xlink:href="#DejaVuSans-6b" x="1361.816406"/>
      <use xlink:href="#DejaVuSans-73" x="1419.726562"/>
      <use xlink:href="#DejaVuSans-29" x="1471.826172"/>
     </g>
    </g>
   </g>
   <g id="matplotlib.axis_2">
    <g id="ytick_1">
     <g id="line2d_30">
      <defs>
       <path id="m8022942200" d="M 0 0 
L -3.5 0 
" style="stroke: #000000; stroke-width: 0.8"/>
      </defs>
      <g>
       <use xlink:href="#m8022942200" x="39.827344" y="326.849414" style="stroke: #000000; stroke-width: 0.8"/>
      </g>
     </g>
     <g id="text_31">
      <!-- 0.0 -->
      <g transform="translate(20.9 329.698828) scale(0.075 -0.075)">
       <defs>
        <path id="DejaVuSans-2e" d="M 684 794 
L 1344 794 
L 1344 0 
L 684 0 
L 684 794 
z
" transform="scale(0.015625)"/>
       </defs>
       <use xlink:href="#DejaVuSans-30"/>
       <use xlink:href="#DejaVuSans-2e" x="63.623047"/>
       <use xlink:href="#DejaVuSans-30" x="95.410156"/>
      </g>
     </g>
    </g>
    <g id="ytick_2">
     <g id="line2d_31">
      <g>
       <use xlink:href="#m8022942200" x="39.827344" y="295.169414" style="stroke: #000000; stroke-width: 0.8"/>
      </g>
     </g>
     <g id="text_32">
      <!-- 0.1 -->
      <g transform="translate(20.9 298.018828) scale(0.075 -0.075)">
       <use xlink:href="#DejaVuSans-30"/>
       <use xlink:href="#DejaVuSans-2e" x="63.623047"/>
       <use xlink:href="#DejaVuSans-31" x="95.410156"/>
      </g>
     </g>
    </g>
    <g id="ytick_3">
     <g id="line2d_32">
      <g>
       <use xlink:href="#m8022942200" x="39.827344" y="263.489414" style="stroke: #000000; stroke-width: 0.8"/>
      </g>
     </g>
     <g id="text_33">
      <!-- 0.2 -->
      <g transform="translate(20.9 266.338828) scale(0.075 -0.075)">
       <use xlink:href="#DejaVuSans-30"/>
       <use xlink:href="#DejaVuSans-2e" x="63.623047"/>
       <use xlink:href="#DejaVuSans-32" x="95.410156"/>
      </g>
     </g>
    </g>
    <g id="ytick_4">
     <g id="line2d_33">
      <g>
       <use xlink:href="#m8022942200" x="39.827344" y="231.809414" style="stroke: #000000; stroke-width: 0.8"/>
      </g>
     </g>
     <g id="text_34">
      <!-- 0.3 -->
      <g transform="translate(20.9 234.658828) scale(0.075 -0.075)">
       <use xlink:href="#DejaVuSans-30"/>
       <use xlink:href="#DejaVuSans-2e" x="63.623047"/>
       <use xlink:href="#DejaVuSans-33" x="95.410156"/>
      </g>
     </g>
    </g>
    <g id="ytick_5">
     <g id="line2d_34">
      <g>
       <use xlink:href="#m8022942200" x="39.827344" y="200.129414" style="stroke: #000000; stroke-width: 0.8"/>
      </g>
     </g>
     <g id="text_35">
      <!-- 0.4 -->
      <g transform="translate(20.9 202.978828) scale(0.075 -0.075)">
       <use xlink:href="#DejaVuSans-30"/>
       <use xlink:href="#DejaVuSans-2e" x="63.623047"/>
       <use xlink:href="#DejaVuSans-34" x="95.410156"/>
      </g>
     </g>
    </g>
    <g id="ytick_6">
     <g id="line2d_35">
      <g>
       <use xlink:href="#m8022942200" x="39.827344" y="168.449414" style="stroke: #000000; stroke-width: 0.8"/>
      </g>
     </g>
     <g id="text_36">
      <!-- 0.5 -->
      <g transform="translate(20.9 171.298828) scale(0.075 -0.075)">
       <use xlink:href="#DejaVuSans-30"/>
       <use xlink:href="#DejaVuSans-2e" x="63.623047"/>
       <use xlink:href="#DejaVuSans-35" x="95.410156"/>
      </g>
     </g>
    </g>
    <g id="ytick_7">
     <g id="line2d_36">
      <g>
       <use xlink:href="#m8022942200" x="39.827344" y="136.769414" style="stroke: #000000; stroke-width: 0.8"/>
      </g>
     </g>
     <g id="text_37">
      <!-- 0.6 -->
      <g transform="translate(20.9 139.618828) scale(0.075 -0.075)">
       <use xlink:href="#DejaVuSans-30"/>
       <use xlink:href="#DejaVuSans-2e" x="63.623047"/>
       <use xlink:href="#DejaVuSans-36" x="95.410156"/>
      </g>
     </g>
    </g>
    <g id="ytick_8">
     <g id="line2d_37">
      <g>
       <use xlink:href="#m8022942200" x="39.827344" y="105.089414" style="stroke: #000000; stroke-width: 0.8"/>
      </g>
     </g>
     <g id="text_38">
      <!-- 0.7 -->
      <g transform="translate(20.9 107.938828) scale(0.075 -0.075)">
       <use xlink:href="#DejaVuSans-30"/>
       <use xlink:href="#DejaVuSans-2e" x="63.623047"/>
       <use xlink:href="#DejaVuSans-37" x="95.410156"/>
      </g>
     </g>
    </g>
    <g id="ytick_9">
     <g id="line2d_38">
      <g>
       <use xlink:href="#m8022942200" x="39.827344" y="73.409414" style="stroke: #000000; stroke-width: 0.8"/>
      </g>
     </g>
     <g id="text_39">
      <!-- 0.8 -->
      <g transform="translate(20.9 76.258828) scale(0.075 -0.075)">
       <use xlink:href="#DejaVuSans-30"/>
       <use xlink:href="#DejaVuSans-2e" x="63.623047"/>
       <use xlink:href="#DejaVuSans-38" x="95.410156"/>
      </g>
     </g>
    </g>
    <g id="ytick_10">
     <g id="line2d_39">
      <g>
       <use xlink:href="#m8022942200" x="39.827344" y="41.729414" style="stroke: #000000; stroke-width: 0.8"/>
      </g>
     </g>
     <g id="text_40">
      <!-- 0.9 -->
      <g transform="translate(20.9 44.578828) scale(0.075 -0.075)">
       <use xlink:href="#DejaVuSans-30"/>
       <use xlink:href="#DejaVuSans-2e" x="63.623047"/>
       <use xlink:href="#DejaVuSans-39" x="95.410156"/>
      </g>
     </g>
    </g>
    <g id="ytick_11">
     <g id="line2d_40">
      <g>
       <use xlink:href="#m8022942200" x="39.827344" y="10.049414" style="stroke: #000000; stroke-width: 0.8"/>
      </g>
     </g>
     <g id="text_41">
      <!-- 1.0 -->
      <g transform="translate(20.9 12.898828) scale(0.075 -0.075)">
       <use xlink:href="#DejaVuSans-31"/>
       <use xlink:href="#DejaVuSans-2e" x="63.623047"/>
       <use xlink:href="#DejaVuSans-30" x="95.410156"/>
      </g>
     </g>
    </g>
    <g id="text_42">
     <!-- Vaccine coverage of 1$st$/2$nd$/3$rd$ dose, 50+ -->
     <g transform="translate(14.8 284.919414) rotate(-90) scale(0.1 -0.1)">
      <defs>
       <path id="DejaVuSans-56" d="M 1831 0 
L 50 4666 
L 709 4666 
L 2188 738 
L 3669 4666 
L 4325 4666 
L 2547 0 
L 1831 0 
z
" transform="scale(0.015625)"/>
       <path id="DejaVuSans-61" d="M 2194 1759 
Q 1497 1759 1228 1600 
Q 959 1441 959 1056 
Q 959 750 1161 570 
Q 1363 391 1709 391 
Q 2188 391 2477 730 
Q 2766 1069 2766 1631 
L 2766 1759 
L 2194 1759 
z
M 3341 1997 
L 3341 0 
L 2766 0 
L 2766 531 
Q 2569 213 2275 61 
Q 1981 -91 1556 -91 
Q 1019 -91 701 211 
Q 384 513 384 1019 
Q 384 1609 779 1909 
Q 1175 2209 1959 2209 
L 2766 2209 
L 2766 2266 
Q 2766 2663 2505 2880 
Q 2244 3097 1772 3097 
Q 1472 3097 1187 3025 
Q 903 2953 641 2809 
L 641 3341 
Q 956 3463 1253 3523 
Q 1550 3584 1831 3584 
Q 2591 3584 2966 3190 
Q 3341 2797 3341 1997 
z
" transform="scale(0.015625)"/>
       <path id="DejaVuSans-63" d="M 3122 3366 
L 3122 2828 
Q 2878 2963 2633 3030 
Q 2388 3097 2138 3097 
Q 1578 3097 1268 2742 
Q 959 2388 959 1747 
Q 959 1106 1268 751 
Q 1578 397 2138 397 
Q 2388 397 2633 464 
Q 2878 531 3122 666 
L 3122 134 
Q 2881 22 2623 -34 
Q 2366 -91 2075 -91 
Q 1284 -91 818 406 
Q 353 903 353 1747 
Q 353 2603 823 3093 
Q 1294 3584 2113 3584 
Q 2378 3584 2631 3529 
Q 2884 3475 3122 3366 
z
" transform="scale(0.015625)"/>
       <path id="DejaVuSans-76" d="M 191 3500 
L 800 3500 
L 1894 563 
L 2988 3500 
L 3597 3500 
L 2284 0 
L 1503 0 
L 191 3500 
z
" transform="scale(0.015625)"/>
       <path id="DejaVuSans-72" d="M 2631 2963 
Q 2534 3019 2420 3045 
Q 2306 3072 2169 3072 
Q 1681 3072 1420 2755 
Q 1159 2438 1159 1844 
L 1159 0 
L 581 0 
L 581 3500 
L 1159 3500 
L 1159 2956 
Q 1341 3275 1631 3429 
Q 1922 3584 2338 3584 
Q 2397 3584 2469 3576 
Q 2541 3569 2628 3553 
L 2631 2963 
z
" transform="scale(0.015625)"/>
       <path id="DejaVuSans-67" d="M 2906 1791 
Q 2906 2416 2648 2759 
Q 2391 3103 1925 3103 
Q 1463 3103 1205 2759 
Q 947 2416 947 1791 
Q 947 1169 1205 825 
Q 1463 481 1925 481 
Q 2391 481 2648 825 
Q 2906 1169 2906 1791 
z
M 3481 434 
Q 3481 -459 3084 -895 
Q 2688 -1331 1869 -1331 
Q 1566 -1331 1297 -1286 
Q 1028 -1241 775 -1147 
L 775 -588 
Q 1028 -725 1275 -790 
Q 1522 -856 1778 -856 
Q 2344 -856 2625 -561 
Q 2906 -266 2906 331 
L 2906 616 
Q 2728 306 2450 153 
Q 2172 0 1784 0 
Q 1141 0 747 490 
Q 353 981 353 1791 
Q 353 2603 747 3093 
Q 1141 3584 1784 3584 
Q 2172 3584 2450 3431 
Q 2728 3278 2906 2969 
L 2906 3500 
L 3481 3500 
L 3481 434 
z
" transform="scale(0.015625)"/>
       <path id="DejaVuSans-66" d="M 2375 4863 
L 2375 4384 
L 1825 4384 
Q 1516 4384 1395 4259 
Q 1275 4134 1275 3809 
L 1275 3500 
L 2222 3500 
L 2222 3053 
L 1275 3053 
L 1275 0 
L 697 0 
L 697 3053 
L 147 3053 
L 147 3500 
L 697 3500 
L 697 3744 
Q 697 4328 969 4595 
Q 1241 4863 1831 4863 
L 2375 4863 
z
" transform="scale(0.015625)"/>
       <path id="DejaVuSans-Oblique-73" d="M 3200 3397 
L 3091 2853 
Q 2863 2978 2609 3040 
Q 2356 3103 2088 3103 
Q 1634 3103 1373 2948 
Q 1113 2794 1113 2528 
Q 1113 2219 1719 2053 
Q 1766 2041 1788 2034 
L 1972 1978 
Q 2547 1819 2739 1644 
Q 2931 1469 2931 1166 
Q 2931 609 2489 259 
Q 2047 -91 1331 -91 
Q 1053 -91 747 -37 
Q 441 16 72 128 
L 184 722 
Q 500 559 806 475 
Q 1113 391 1394 391 
Q 1816 391 2080 572 
Q 2344 753 2344 1031 
Q 2344 1331 1650 1516 
L 1591 1531 
L 1394 1581 
Q 956 1697 753 1886 
Q 550 2075 550 2369 
Q 550 2928 970 3256 
Q 1391 3584 2113 3584 
Q 2397 3584 2667 3537 
Q 2938 3491 3200 3397 
z
" transform="scale(0.015625)"/>
       <path id="DejaVuSans-Oblique-74" d="M 2706 3500 
L 2619 3053 
L 1472 3053 
L 1100 1153 
Q 1081 1047 1072 975 
Q 1063 903 1063 863 
Q 1063 663 1183 572 
Q 1303 481 1569 481 
L 2150 481 
L 2053 0 
L 1503 0 
Q 991 0 739 200 
Q 488 400 488 806 
Q 488 878 497 964 
Q 506 1050 525 1153 
L 897 3053 
L 409 3053 
L 500 3500 
L 978 3500 
L 1172 4494 
L 1747 4494 
L 1556 3500 
L 2706 3500 
z
" transform="scale(0.015625)"/>
       <path id="DejaVuSans-Oblique-6e" d="M 3566 2113 
L 3156 0 
L 2578 0 
L 2988 2091 
Q 3016 2238 3031 2350 
Q 3047 2463 3047 2528 
Q 3047 2791 2881 2937 
Q 2716 3084 2419 3084 
Q 1956 3084 1622 2776 
Q 1288 2469 1184 1941 
L 800 0 
L 225 0 
L 903 3500 
L 1478 3500 
L 1363 2950 
Q 1603 3253 1940 3418 
Q 2278 3584 2650 3584 
Q 3113 3584 3367 3334 
Q 3622 3084 3622 2631 
Q 3622 2519 3608 2391 
Q 3594 2263 3566 2113 
z
" transform="scale(0.015625)"/>
       <path id="DejaVuSans-Oblique-64" d="M 2675 525 
Q 2444 222 2128 65 
Q 1813 -91 1428 -91 
Q 903 -91 598 267 
Q 294 625 294 1247 
Q 294 1766 478 2236 
Q 663 2706 1013 3078 
Q 1244 3325 1534 3454 
Q 1825 3584 2144 3584 
Q 2481 3584 2739 3421 
Q 2997 3259 3138 2956 
L 3513 4863 
L 4091 4863 
L 3144 0 
L 2566 0 
L 2675 525 
z
M 891 1350 
Q 891 897 1095 644 
Q 1300 391 1663 391 
Q 1931 391 2161 520 
Q 2391 650 2566 903 
Q 2750 1166 2856 1509 
Q 2963 1853 2963 2188 
Q 2963 2622 2758 2865 
Q 2553 3109 2194 3109 
Q 1922 3109 1687 2981 
Q 1453 2853 1288 2613 
Q 1106 2353 998 2009 
Q 891 1666 891 1350 
z
" transform="scale(0.015625)"/>
       <path id="DejaVuSans-Oblique-72" d="M 2853 2969 
Q 2766 3016 2653 3041 
Q 2541 3066 2413 3066 
Q 1953 3066 1609 2717 
Q 1266 2369 1153 1784 
L 800 0 
L 225 0 
L 909 3500 
L 1484 3500 
L 1375 2956 
Q 1603 3259 1920 3421 
Q 2238 3584 2597 3584 
Q 2691 3584 2781 3573 
Q 2872 3563 2963 3538 
L 2853 2969 
z
" transform="scale(0.015625)"/>
       <path id="DejaVuSans-64" d="M 2906 2969 
L 2906 4863 
L 3481 4863 
L 3481 0 
L 2906 0 
L 2906 525 
Q 2725 213 2448 61 
Q 2172 -91 1784 -91 
Q 1150 -91 751 415 
Q 353 922 353 1747 
Q 353 2572 751 3078 
Q 1150 3584 1784 3584 
Q 2172 3584 2448 3432 
Q 2725 3281 2906 2969 
z
M 947 1747 
Q 947 1113 1208 752 
Q 1469 391 1925 391 
Q 2381 391 2643 752 
Q 2906 1113 2906 1747 
Q 2906 2381 2643 2742 
Q 2381 3103 1925 3103 
Q 1469 3103 1208 2742 
Q 947 2381 947 1747 
z
" transform="scale(0.015625)"/>
       <path id="DejaVuSans-2c" d="M 750 794 
L 1409 794 
L 1409 256 
L 897 -744 
L 494 -744 
L 750 256 
L 750 794 
z
" transform="scale(0.015625)"/>
       <path id="DejaVuSans-2b" d="M 2944 4013 
L 2944 2272 
L 4684 2272 
L 4684 1741 
L 2944 1741 
L 2944 0 
L 2419 0 
L 2419 1741 
L 678 1741 
L 678 2272 
L 2419 2272 
L 2419 4013 
L 2944 4013 
z
" transform="scale(0.015625)"/>
      </defs>
      <use xlink:href="#DejaVuSans-56" transform="translate(0 0.015625)"/>
      <use xlink:href="#DejaVuSans-61" transform="translate(68.408203 0.015625)"/>
      <use xlink:href="#DejaVuSans-63" transform="translate(129.6875 0.015625)"/>
      <use xlink:href="#DejaVuSans-63" transform="translate(184.667969 0.015625)"/>
      <use xlink:href="#DejaVuSans-69" transform="translate(239.648438 0.015625)"/>
      <use xlink:href="#DejaVuSans-6e" transform="translate(267.431641 0.015625)"/>
      <use xlink:href="#DejaVuSans-65" transform="translate(330.810547 0.015625)"/>
      <use xlink:href="#DejaVuSans-20" transform="translate(392.333984 0.015625)"/>
      <use xlink:href="#DejaVuSans-63" transform="translate(424.121094 0.015625)"/>
      <use xlink:href="#DejaVuSans-6f" transform="translate(479.101562 0.015625)"/>
      <use xlink:href="#DejaVuSans-76" transform="translate(540.283203 0.015625)"/>
      <use xlink:href="#DejaVuSans-65" transform="translate(599.462891 0.015625)"/>
      <use xlink:href="#DejaVuSans-72" transform="translate(660.986328 0.015625)"/>
      <use xlink:href="#DejaVuSans-61" transform="translate(702.099609 0.015625)"/>
      <use xlink:href="#DejaVuSans-67" transform="translate(763.378906 0.015625)"/>
      <use xlink:href="#DejaVuSans-65" transform="translate(826.855469 0.015625)"/>
      <use xlink:href="#DejaVuSans-20" transform="translate(888.378906 0.015625)"/>
      <use xlink:href="#DejaVuSans-6f" transform="translate(920.166016 0.015625)"/>
      <use xlink:href="#DejaVuSans-66" transform="translate(981.347656 0.015625)"/>
      <use xlink:href="#DejaVuSans-20" transform="translate(1016.552734 0.015625)"/>
      <use xlink:href="#DejaVuSans-31" transform="translate(1048.339844 0.015625)"/>
      <use xlink:href="#DejaVuSans-Oblique-73" transform="translate(1111.962891 0.015625)"/>
      <use xlink:href="#DejaVuSans-Oblique-74" transform="translate(1164.0625 0.015625)"/>
      <use xlink:href="#DejaVuSans-2f" transform="translate(1203.271484 0.015625)"/>
      <use xlink:href="#DejaVuSans-32" transform="translate(1233.337891 0.015625)"/>
      <use xlink:href="#DejaVuSans-Oblique-6e" transform="translate(1296.960938 0.015625)"/>
      <use xlink:href="#DejaVuSans-Oblique-64" transform="translate(1360.339844 0.015625)"/>
      <use xlink:href="#DejaVuSans-2f" transform="translate(1423.816406 0.015625)"/>
      <use xlink:href="#DejaVuSans-33" transform="translate(1457.507812 0.015625)"/>
      <use xlink:href="#DejaVuSans-Oblique-72" transform="translate(1521.130859 0.015625)"/>
      <use xlink:href="#DejaVuSans-Oblique-64" transform="translate(1562.244141 0.015625)"/>
      <use xlink:href="#DejaVuSans-20" transform="translate(1625.720703 0.015625)"/>
      <use xlink:href="#DejaVuSans-64" transform="translate(1657.507812 0.015625)"/>
      <use xlink:href="#DejaVuSans-6f" transform="translate(1720.984375 0.015625)"/>
      <use xlink:href="#DejaVuSans-73" transform="translate(1782.166016 0.015625)"/>
      <use xlink:href="#DejaVuSans-65" transform="translate(1834.265625 0.015625)"/>
      <use xlink:href="#DejaVuSans-2c" transform="translate(1895.789062 0.015625)"/>
      <use xlink:href="#DejaVuSans-20" transform="translate(1927.576172 0.015625)"/>
      <use xlink:href="#DejaVuSans-35" transform="translate(1959.363281 0.015625)"/>
      <use xlink:href="#DejaVuSans-30" transform="translate(2022.986328 0.015625)"/>
      <use xlink:href="#DejaVuSans-2b" transform="translate(2086.609375 0.015625)"/>
     </g>
    </g>
   </g>
   <g id="line2d_41">
    <path d="M 56.567344 131.88172 
L 64.937344 119.262415 
L 73.307344 106.171086 
L 81.677344 92.86526 
L 90.047344 79.831672 
L 98.417344 69.139106 
L 106.787344 58.153885 
L 115.157344 49.736039 
L 123.527344 43.466234 
L 131.897344 38.21249 
L 140.267344 34.149785 
L 148.637344 30.3389 
L 157.007344 27.709173 
L 165.377344 26.038865 
L 173.747344 25.090534 
L 182.117344 24.457253 
L 190.487344 23.904655 
L 198.857344 23.398271 
L 207.227344 22.991122 
L 215.597344 22.61482 
L 223.967344 22.214807 
L 232.337344 21.819513 
L 240.707344 21.569231 
L 249.077344 21.214224 
L 257.447344 20.786658 
L 265.817344 20.325391 
L 274.187344 19.876089 
L 282.557344 19.525803 
L 290.927344 19.176724 
L 299.297344 18.811289 
L 307.667344 18.424339 
L 316.037344 18.051 
L 324.407344 17.729255 
L 332.777344 17.416292 
L 341.147344 17.117489 
L 349.517344 16.859852 
L 357.887344 16.659296 
L 366.257344 16.409233 
L 374.627344 16.128433 
L 382.997344 15.858281 
L 391.367344 15.587031 
L 399.737344 15.315123 
L 408.107344 15.044642 
L 416.477344 14.782614 
L 424.847344 14.529916 
L 433.217344 14.28095 
L 441.587344 14.029899 
L 449.957344 13.771274 
" clip-path="url(#p4b068c2b78)" style="fill: none; stroke: #842a82; stroke-width: 1.5; stroke-linecap: square"/>
   </g>
   <g id="line2d_42">
    <path d="M 56.567344 247.568045 
L 64.937344 231.42557 
L 73.307344 213.12276 
L 81.677344 193.93847 
L 90.047344 174.617514 
L 98.417344 158.417189 
L 106.787344 141.142185 
L 115.157344 124.074103 
L 123.527344 108.221868 
L 131.897344 93.158684 
L 140.267344 80.615891 
L 148.637344 65.506712 
L 157.007344 53.788864 
L 165.377344 45.500002 
L 173.747344 38.727326 
L 182.117344 34.375808 
L 190.487344 31.438058 
L 198.857344 29.415268 
L 207.227344 27.973836 
L 215.597344 26.905414 
L 223.967344 26.062466 
L 232.337344 25.424135 
L 240.707344 25.126869 
L 249.077344 24.768021 
L 257.447344 24.360872 
L 265.817344 23.94077 
L 274.187344 23.521217 
L 282.557344 23.170163 
L 290.927344 22.783541 
L 299.297344 22.383637 
L 307.667344 22.047512 
L 316.037344 21.726206 
L 324.407344 21.444418 
L 332.777344 21.105878 
L 341.147344 20.774912 
L 349.517344 20.50465 
L 357.887344 20.301131 
L 366.257344 20.052275 
L 374.627344 19.775976 
L 382.997344 19.510544 
L 391.367344 19.240393 
L 399.737344 18.974083 
L 408.107344 18.715677 
L 416.477344 18.46254 
L 424.847344 18.217636 
L 433.217344 17.977452 
L 441.587344 17.73661 
L 449.957344 17.486547 
" clip-path="url(#p4b068c2b78)" style="fill: none; stroke: #b68833; stroke-width: 1.5; stroke-linecap: square"/>
   </g>
   <g id="line2d_43">
    <path d="M 157.007344 326.619024 
L 165.377344 326.089923 
L 173.747344 325.236066 
L 182.117344 323.998794 
L 190.487344 322.319484 
L 198.857344 320.470061 
L 207.227344 318.59606 
L 215.597344 316.034301 
L 223.967344 311.993259 
L 232.337344 300.358093 
L 240.707344 285.326387 
L 249.077344 273.888263 
L 257.447344 249.811038 
L 265.817344 214.101676 
L 274.187344 179.236877 
L 282.557344 151.910002 
L 290.927344 130.192303 
L 299.297344 112.053158 
L 307.667344 99.322233 
L 316.037344 90.320677 
L 324.407344 83.822335 
L 332.777344 79.385809 
L 341.147344 75.747976 
L 349.517344 72.534112 
L 357.887344 70.093369 
L 366.257344 68.308327 
L 374.627344 67.211488 
L 382.997344 66.420583 
L 391.367344 65.564573 
L 399.737344 64.750413 
L 408.107344 64.016646 
L 416.477344 63.303343 
L 424.847344 62.6459 
L 433.217344 62.057631 
L 441.587344 61.584034 
L 449.957344 61.164961 
L 458.327344 60.762195 
L 466.697344 60.430051 
L 475.067344 60.056938 
L 483.437344 59.530647 
L 491.807344 58.955889 
L 500.177344 58.452495 
L 508.547344 58.067651 
L 516.917344 57.794852 
L 525.287344 57.598429 
L 533.657344 57.447262 
" clip-path="url(#p4b068c2b78)" style="fill: none; stroke-dasharray: 5.55,2.4; stroke-dashoffset: 0; stroke: #1d5f9b; stroke-width: 1.5"/>
   </g>
   <g id="line2d_44">
    <path d="M 148.637344 326.752131 
L 157.007344 326.292067 
L 165.377344 325.548018 
L 173.747344 324.455913 
L 182.117344 322.939673 
L 190.487344 321.131401 
L 198.857344 319.323532 
L 207.227344 317.156141 
L 215.597344 313.722396 
L 223.967344 305.770205 
L 232.337344 290.356384 
L 240.707344 278.109382 
L 249.077344 261.526591 
L 257.447344 226.866456 
L 265.817344 191.90075 
L 274.187344 161.91273 
L 282.557344 140.176657 
L 290.927344 120.868283 
L 299.297344 106.772998 
L 307.667344 97.25858 
L 316.037344 90.129274 
L 324.407344 85.307954 
L 332.777344 81.681876 
L 341.147344 78.336804 
L 349.517344 75.690017 
L 357.887344 73.805725 
L 366.257344 72.494613 
L 374.627344 71.740827 
L 382.997344 70.911666 
L 391.367344 70.076389 
L 399.737344 69.337087 
L 408.107344 68.636349 
L 416.477344 67.969407 
L 424.847344 67.380195 
L 433.217344 66.867607 
L 441.587344 66.466685 
L 449.957344 66.067513 
L 458.327344 65.710043 
L 466.697344 65.374359 
L 475.067344 64.912324 
L 483.437344 64.331903 
L 491.807344 63.810221 
L 500.177344 63.391175 
L 508.547344 63.0985 
L 516.917344 62.883676 
L 525.287344 62.726606 
L 533.657344 62.597217 
" clip-path="url(#p4b068c2b78)" style="fill: none; stroke: #808080; stroke-width: 1.5; stroke-linecap: square"/>
   </g>
   <g id="patch_3">
    <path d="M 39.827344 342.689414 
L 39.827344 10.049414 
" style="fill: none; stroke: #000000; stroke-width: 0.8; stroke-linejoin: miter; stroke-linecap: square"/>
   </g>
   <g id="patch_4">
    <path d="M 39.827344 342.689414 
L 542.027344 342.689414 
" style="fill: none; stroke: #000000; stroke-width: 0.8; stroke-linejoin: miter; stroke-linecap: square"/>
   </g>
   <g id="text_43">
    <!-- NSW, 50+ -->
    <g transform="translate(147.68019 310.555289) scale(0.075 -0.075)">
     <defs>
      <path id="DejaVuSans-4e" d="M 628 4666 
L 1478 4666 
L 3547 763 
L 3547 4666 
L 4159 4666 
L 4159 0 
L 3309 0 
L 1241 3903 
L 1241 0 
L 628 0 
L 628 4666 
z
" transform="scale(0.015625)"/>
      <path id="DejaVuSans-53" d="M 3425 4513 
L 3425 3897 
Q 3066 4069 2747 4153 
Q 2428 4238 2131 4238 
Q 1616 4238 1336 4038 
Q 1056 3838 1056 3469 
Q 1056 3159 1242 3001 
Q 1428 2844 1947 2747 
L 2328 2669 
Q 3034 2534 3370 2195 
Q 3706 1856 3706 1288 
Q 3706 609 3251 259 
Q 2797 -91 1919 -91 
Q 1588 -91 1214 -16 
Q 841 59 441 206 
L 441 856 
Q 825 641 1194 531 
Q 1563 422 1919 422 
Q 2459 422 2753 634 
Q 3047 847 3047 1241 
Q 3047 1584 2836 1778 
Q 2625 1972 2144 2069 
L 1759 2144 
Q 1053 2284 737 2584 
Q 422 2884 422 3419 
Q 422 4038 858 4394 
Q 1294 4750 2059 4750 
Q 2388 4750 2728 4690 
Q 3069 4631 3425 4513 
z
" transform="scale(0.015625)"/>
      <path id="DejaVuSans-57" d="M 213 4666 
L 850 4666 
L 1831 722 
L 2809 4666 
L 3519 4666 
L 4500 722 
L 5478 4666 
L 6119 4666 
L 4947 0 
L 4153 0 
L 3169 4050 
L 2175 0 
L 1381 0 
L 213 4666 
z
" transform="scale(0.015625)"/>
     </defs>
     <use xlink:href="#DejaVuSans-4e"/>
     <use xlink:href="#DejaVuSans-53" x="74.804688"/>
     <use xlink:href="#DejaVuSans-57" x="138.28125"/>
     <use xlink:href="#DejaVuSans-2c" x="237.158203"/>
     <use xlink:href="#DejaVuSans-20" x="268.945312"/>
     <use xlink:href="#DejaVuSans-35" x="300.732422"/>
     <use xlink:href="#DejaVuSans-30" x="364.355469"/>
     <use xlink:href="#DejaVuSans-2b" x="427.978516"/>
    </g>
    <!-- ($Oct$ $16$, 0) -->
    <g transform="translate(146.696987 318.953648) scale(0.075 -0.075)">
     <defs>
      <path id="DejaVuSans-Oblique-4f" d="M 2919 4238 
Q 2400 4238 2003 3986 
Q 1606 3734 1313 3219 
Q 1125 2891 1026 2522 
Q 928 2153 928 1778 
Q 928 1128 1239 775 
Q 1550 422 2119 422 
Q 2631 422 3032 676 
Q 3434 931 3719 1434 
Q 3909 1772 4009 2142 
Q 4109 2513 4109 2881 
Q 4109 3528 3796 3883 
Q 3484 4238 2919 4238 
z
M 2100 -91 
Q 1241 -91 748 418 
Q 256 928 256 1813 
Q 256 2319 448 2847 
Q 641 3375 978 3788 
Q 1375 4272 1862 4511 
Q 2350 4750 2938 4750 
Q 3794 4750 4287 4245 
Q 4781 3741 4781 2869 
Q 4781 2331 4593 1812 
Q 4406 1294 4056 872 
Q 3656 384 3173 146 
Q 2691 -91 2100 -91 
z
" transform="scale(0.015625)"/>
      <path id="DejaVuSans-Oblique-63" d="M 3431 3366 
L 3316 2797 
Q 3109 2947 2876 3022 
Q 2644 3097 2394 3097 
Q 2119 3097 1870 3000 
Q 1622 2903 1453 2725 
Q 1184 2453 1037 2087 
Q 891 1722 891 1331 
Q 891 859 1127 628 
Q 1363 397 1844 397 
Q 2081 397 2348 469 
Q 2616 541 2906 684 
L 2797 116 
Q 2547 13 2283 -39 
Q 2019 -91 1741 -91 
Q 1044 -91 669 257 
Q 294 606 294 1253 
Q 294 1797 489 2255 
Q 684 2713 1069 3078 
Q 1331 3328 1684 3456 
Q 2038 3584 2456 3584 
Q 2700 3584 2940 3529 
Q 3181 3475 3431 3366 
z
" transform="scale(0.015625)"/>
     </defs>
     <use xlink:href="#DejaVuSans-28" transform="translate(0 0.125)"/>
     <use xlink:href="#DejaVuSans-Oblique-4f" transform="translate(39.013672 0.125)"/>
     <use xlink:href="#DejaVuSans-Oblique-63" transform="translate(117.724609 0.125)"/>
     <use xlink:href="#DejaVuSans-Oblique-74" transform="translate(172.705078 0.125)"/>
     <use xlink:href="#DejaVuSans-20" transform="translate(211.914062 0.125)"/>
     <use xlink:href="#DejaVuSans-31" transform="translate(243.701172 0.125)"/>
     <use xlink:href="#DejaVuSans-36" transform="translate(307.324219 0.125)"/>
     <use xlink:href="#DejaVuSans-2c" transform="translate(370.947266 0.125)"/>
     <use xlink:href="#DejaVuSans-20" transform="translate(402.734375 0.125)"/>
     <use xlink:href="#DejaVuSans-30" transform="translate(434.521484 0.125)"/>
     <use xlink:href="#DejaVuSans-29" transform="translate(498.144531 0.125)"/>
    </g>
   </g>
   <g id="text_44">
    <!-- NSW, 50+ -->
    <g transform="translate(314.063833 155.228249) scale(0.075 -0.075)">
     <use xlink:href="#DejaVuSans-4e"/>
     <use xlink:href="#DejaVuSans-53" x="74.804688"/>
     <use xlink:href="#DejaVuSans-57" x="138.28125"/>
     <use xlink:href="#DejaVuSans-2c" x="237.158203"/>
     <use xlink:href="#DejaVuSans-20" x="268.945312"/>
     <use xlink:href="#DejaVuSans-35" x="300.732422"/>
     <use xlink:href="#DejaVuSans-30" x="364.355469"/>
     <use xlink:href="#DejaVuSans-2b" x="427.978516"/>
    </g>
    <!-- ($Feb$ $6$, 0.5903) -->
    <g transform="translate(304.605629 163.626608) scale(0.075 -0.075)">
     <defs>
      <path id="DejaVuSans-Oblique-46" d="M 1081 4666 
L 3756 4666 
L 3653 4134 
L 1606 4134 
L 1338 2759 
L 3188 2759 
L 3084 2228 
L 1234 2228 
L 800 0 
L 172 0 
L 1081 4666 
z
" transform="scale(0.015625)"/>
      <path id="DejaVuSans-Oblique-65" d="M 3078 2063 
Q 3088 2113 3092 2166 
Q 3097 2219 3097 2272 
Q 3097 2653 2873 2875 
Q 2650 3097 2266 3097 
Q 1838 3097 1509 2826 
Q 1181 2556 1013 2059 
L 3078 2063 
z
M 3578 1613 
L 903 1613 
Q 884 1494 878 1425 
Q 872 1356 872 1306 
Q 872 872 1139 634 
Q 1406 397 1894 397 
Q 2269 397 2603 481 
Q 2938 566 3225 728 
L 3116 159 
Q 2806 34 2476 -28 
Q 2147 -91 1806 -91 
Q 1078 -91 686 257 
Q 294 606 294 1247 
Q 294 1794 489 2264 
Q 684 2734 1063 3103 
Q 1306 3334 1642 3459 
Q 1978 3584 2356 3584 
Q 2950 3584 3301 3228 
Q 3653 2872 3653 2272 
Q 3653 2128 3634 1964 
Q 3616 1800 3578 1613 
z
" transform="scale(0.015625)"/>
      <path id="DejaVuSans-Oblique-62" d="M 3169 2138 
Q 3169 2591 2961 2847 
Q 2753 3103 2388 3103 
Q 2122 3103 1889 2973 
Q 1656 2844 1484 2597 
Q 1303 2338 1198 1995 
Q 1094 1653 1094 1313 
Q 1094 881 1298 636 
Q 1503 391 1863 391 
Q 2134 391 2365 517 
Q 2597 644 2772 891 
Q 2950 1147 3059 1487 
Q 3169 1828 3169 2138 
z
M 1381 2969 
Q 1594 3256 1914 3420 
Q 2234 3584 2584 3584 
Q 3122 3584 3439 3221 
Q 3756 2859 3756 2241 
Q 3756 1734 3570 1259 
Q 3384 784 3041 416 
Q 2816 172 2522 40 
Q 2228 -91 1906 -91 
Q 1566 -91 1316 65 
Q 1066 222 909 531 
L 806 0 
L 231 0 
L 1178 4863 
L 1753 4863 
L 1381 2969 
z
" transform="scale(0.015625)"/>
     </defs>
     <use xlink:href="#DejaVuSans-28" transform="translate(0 0.015625)"/>
     <use xlink:href="#DejaVuSans-Oblique-46" transform="translate(39.013672 0.015625)"/>
     <use xlink:href="#DejaVuSans-Oblique-65" transform="translate(96.533203 0.015625)"/>
     <use xlink:href="#DejaVuSans-Oblique-62" transform="translate(158.056641 0.015625)"/>
     <use xlink:href="#DejaVuSans-20" transform="translate(221.533203 0.015625)"/>
     <use xlink:href="#DejaVuSans-36" transform="translate(253.320312 0.015625)"/>
     <use xlink:href="#DejaVuSans-2c" transform="translate(316.943359 0.015625)"/>
     <use xlink:href="#DejaVuSans-20" transform="translate(348.730469 0.015625)"/>
     <use xlink:href="#DejaVuSans-30" transform="translate(380.517578 0.015625)"/>
     <use xlink:href="#DejaVuSans-2e" transform="translate(444.140625 0.015625)"/>
     <use xlink:href="#DejaVuSans-35" transform="translate(475.927734 0.015625)"/>
     <use xlink:href="#DejaVuSans-39" transform="translate(534.050781 0.015625)"/>
     <use xlink:href="#DejaVuSans-30" transform="translate(597.673828 0.015625)"/>
     <use xlink:href="#DejaVuSans-33" transform="translate(661.296875 0.015625)"/>
     <use xlink:href="#DejaVuSans-29" transform="translate(724.919922 0.015625)"/>
    </g>
   </g>
   <g id="text_45">
    <!-- NSW, 30+ -->
    <g transform="translate(460.658404 103.985048) scale(0.075 -0.075)">
     <use xlink:href="#DejaVuSans-4e"/>
     <use xlink:href="#DejaVuSans-53" x="74.804688"/>
     <use xlink:href="#DejaVuSans-57" x="138.28125"/>
     <use xlink:href="#DejaVuSans-2c" x="237.158203"/>
     <use xlink:href="#DejaVuSans-20" x="268.945312"/>
     <use xlink:href="#DejaVuSans-33" x="300.732422"/>
     <use xlink:href="#DejaVuSans-30" x="364.355469"/>
     <use xlink:href="#DejaVuSans-2b" x="427.978516"/>
    </g>
    <!-- ($Aug$ $28$, 0.7376) -->
    <g transform="translate(448.387701 112.384814) scale(0.075 -0.075)">
     <defs>
      <path id="DejaVuSans-Oblique-41" d="M 2356 4666 
L 3072 4666 
L 3938 0 
L 3278 0 
L 3084 1197 
L 984 1197 
L 325 0 
L -341 0 
L 2356 4666 
z
M 2584 4044 
L 1275 1722 
L 2988 1722 
L 2584 4044 
z
" transform="scale(0.015625)"/>
      <path id="DejaVuSans-Oblique-75" d="M 428 1388 
L 838 3500 
L 1416 3500 
L 1006 1409 
Q 975 1256 961 1147 
Q 947 1038 947 966 
Q 947 700 1109 554 
Q 1272 409 1569 409 
Q 2031 409 2368 721 
Q 2706 1034 2809 1563 
L 3194 3500 
L 3769 3500 
L 3091 0 
L 2516 0 
L 2631 550 
Q 2388 244 2052 76 
Q 1716 -91 1338 -91 
Q 878 -91 622 161 
Q 366 413 366 863 
Q 366 956 381 1097 
Q 397 1238 428 1388 
z
" transform="scale(0.015625)"/>
      <path id="DejaVuSans-Oblique-67" d="M 3816 3500 
L 3219 434 
Q 3047 -456 2561 -893 
Q 2075 -1331 1253 -1331 
Q 950 -1331 690 -1286 
Q 431 -1241 206 -1147 
L 313 -588 
Q 525 -725 762 -790 
Q 1000 -856 1269 -856 
Q 1816 -856 2167 -557 
Q 2519 -259 2631 300 
L 2681 563 
Q 2441 288 2122 144 
Q 1803 0 1434 0 
Q 903 0 598 351 
Q 294 703 294 1319 
Q 294 1803 478 2267 
Q 663 2731 997 3091 
Q 1219 3328 1514 3456 
Q 1809 3584 2131 3584 
Q 2484 3584 2746 3420 
Q 3009 3256 3138 2956 
L 3238 3500 
L 3816 3500 
z
M 2950 2216 
Q 2950 2641 2750 2872 
Q 2550 3103 2181 3103 
Q 1953 3103 1747 3012 
Q 1541 2922 1394 2759 
Q 1156 2491 1023 2127 
Q 891 1763 891 1375 
Q 891 944 1092 712 
Q 1294 481 1672 481 
Q 2219 481 2584 976 
Q 2950 1472 2950 2216 
z
" transform="scale(0.015625)"/>
     </defs>
     <use xlink:href="#DejaVuSans-28" transform="translate(0 0.125)"/>
     <use xlink:href="#DejaVuSans-Oblique-41" transform="translate(39.013672 0.125)"/>
     <use xlink:href="#DejaVuSans-Oblique-75" transform="translate(107.421875 0.125)"/>
     <use xlink:href="#DejaVuSans-Oblique-67" transform="translate(170.800781 0.125)"/>
     <use xlink:href="#DejaVuSans-20" transform="translate(234.277344 0.125)"/>
     <use xlink:href="#DejaVuSans-32" transform="translate(266.064453 0.125)"/>
     <use xlink:href="#DejaVuSans-38" transform="translate(329.6875 0.125)"/>
     <use xlink:href="#DejaVuSans-2c" transform="translate(393.310547 0.125)"/>
     <use xlink:href="#DejaVuSans-20" transform="translate(425.097656 0.125)"/>
     <use xlink:href="#DejaVuSans-30" transform="translate(456.884766 0.125)"/>
     <use xlink:href="#DejaVuSans-2e" transform="translate(520.507812 0.125)"/>
     <use xlink:href="#DejaVuSans-37" transform="translate(544.544922 0.125)"/>
     <use xlink:href="#DejaVuSans-33" transform="translate(608.167969 0.125)"/>
     <use xlink:href="#DejaVuSans-37" transform="translate(671.791016 0.125)"/>
     <use xlink:href="#DejaVuSans-36" transform="translate(735.414062 0.125)"/>
     <use xlink:href="#DejaVuSans-29" transform="translate(799.037109 0.125)"/>
    </g>
   </g>
   <g id="text_46">
    <!-- NSW, 65+ -->
    <g transform="translate(460.658404 39.991448) scale(0.075 -0.075)">
     <use xlink:href="#DejaVuSans-4e"/>
     <use xlink:href="#DejaVuSans-53" x="74.804688"/>
     <use xlink:href="#DejaVuSans-57" x="138.28125"/>
     <use xlink:href="#DejaVuSans-2c" x="237.158203"/>
     <use xlink:href="#DejaVuSans-20" x="268.945312"/>
     <use xlink:href="#DejaVuSans-36" x="300.732422"/>
     <use xlink:href="#DejaVuSans-35" x="364.355469"/>
     <use xlink:href="#DejaVuSans-2b" x="427.978516"/>
    </g>
    <!-- ($Aug$ $28$, 0.9389) -->
    <g transform="translate(448.125201 48.391214) scale(0.075 -0.075)">
     <use xlink:href="#DejaVuSans-28" transform="translate(0 0.125)"/>
     <use xlink:href="#DejaVuSans-Oblique-41" transform="translate(39.013672 0.125)"/>
     <use xlink:href="#DejaVuSans-Oblique-75" transform="translate(107.421875 0.125)"/>
     <use xlink:href="#DejaVuSans-Oblique-67" transform="translate(170.800781 0.125)"/>
     <use xlink:href="#DejaVuSans-20" transform="translate(234.277344 0.125)"/>
     <use xlink:href="#DejaVuSans-32" transform="translate(266.064453 0.125)"/>
     <use xlink:href="#DejaVuSans-38" transform="translate(329.6875 0.125)"/>
     <use xlink:href="#DejaVuSans-2c" transform="translate(393.310547 0.125)"/>
     <use xlink:href="#DejaVuSans-20" transform="translate(425.097656 0.125)"/>
     <use xlink:href="#DejaVuSans-30" transform="translate(456.884766 0.125)"/>
     <use xlink:href="#DejaVuSans-2e" transform="translate(520.507812 0.125)"/>
     <use xlink:href="#DejaVuSans-39" transform="translate(552.294922 0.125)"/>
     <use xlink:href="#DejaVuSans-33" transform="translate(615.917969 0.125)"/>
     <use xlink:href="#DejaVuSans-38" transform="translate(679.541016 0.125)"/>
     <use xlink:href="#DejaVuSans-39" transform="translate(743.164062 0.125)"/>
     <use xlink:href="#DejaVuSans-29" transform="translate(806.787109 0.125)"/>
    </g>
   </g>
   <g id="legend_1">
    <g id="line2d_45">
     <path d="M 434.102344 297.764414 
L 441.602344 297.764414 
L 449.102344 297.764414 
" style="fill: none; stroke: #842a82; stroke-width: 1.5; stroke-linecap: square"/>
    </g>
    <g id="text_47">
     <!-- 1$st$ dose (NSW_50+) -->
     <g transform="translate(455.102344 300.389414) scale(0.075 -0.075)">
      <defs>
       <path id="DejaVuSans-5f" d="M 3263 -1063 
L 3263 -1509 
L -63 -1509 
L -63 -1063 
L 3263 -1063 
z
" transform="scale(0.015625)"/>
      </defs>
      <use xlink:href="#DejaVuSans-31" transform="translate(0 0.015625)"/>
      <use xlink:href="#DejaVuSans-Oblique-73" transform="translate(63.623047 0.015625)"/>
      <use xlink:href="#DejaVuSans-Oblique-74" transform="translate(115.722656 0.015625)"/>
      <use xlink:href="#DejaVuSans-20" transform="translate(154.931641 0.015625)"/>
      <use xlink:href="#DejaVuSans-64" transform="translate(186.71875 0.015625)"/>
      <use xlink:href="#DejaVuSans-6f" transform="translate(250.195312 0.015625)"/>
      <use xlink:href="#DejaVuSans-73" transform="translate(311.376953 0.015625)"/>
      <use xlink:href="#DejaVuSans-65" transform="translate(363.476562 0.015625)"/>
      <use xlink:href="#DejaVuSans-20" transform="translate(425 0.015625)"/>
      <use xlink:href="#DejaVuSans-28" transform="translate(456.787109 0.015625)"/>
      <use xlink:href="#DejaVuSans-4e" transform="translate(495.800781 0.015625)"/>
      <use xlink:href="#DejaVuSans-53" transform="translate(570.605469 0.015625)"/>
      <use xlink:href="#DejaVuSans-57" transform="translate(634.082031 0.015625)"/>
      <use xlink:href="#DejaVuSans-5f" transform="translate(732.958984 0.015625)"/>
      <use xlink:href="#DejaVuSans-35" transform="translate(782.958984 0.015625)"/>
      <use xlink:href="#DejaVuSans-30" transform="translate(846.582031 0.015625)"/>
      <use xlink:href="#DejaVuSans-2b" transform="translate(910.205078 0.015625)"/>
      <use xlink:href="#DejaVuSans-29" transform="translate(993.994141 0.015625)"/>
     </g>
    </g>
    <g id="line2d_46">
     <path d="M 434.102344 309.014414 
L 441.602344 309.014414 
L 449.102344 309.014414 
" style="fill: none; stroke: #b68833; stroke-width: 1.5; stroke-linecap: square"/>
    </g>
    <g id="text_48">
     <!-- 2$nd$ dose (NSW_50+) -->
     <g transform="translate(455.102344 311.639414) scale(0.075 -0.075)">
      <use xlink:href="#DejaVuSans-32" transform="translate(0 0.015625)"/>
      <use xlink:href="#DejaVuSans-Oblique-6e" transform="translate(63.623047 0.015625)"/>
      <use xlink:href="#DejaVuSans-Oblique-64" transform="translate(127.001953 0.015625)"/>
      <use xlink:href="#DejaVuSans-20" transform="translate(190.478516 0.015625)"/>
      <use xlink:href="#DejaVuSans-64" transform="translate(222.265625 0.015625)"/>
      <use xlink:href="#DejaVuSans-6f" transform="translate(285.742188 0.015625)"/>
      <use xlink:href="#DejaVuSans-73" transform="translate(346.923828 0.015625)"/>
      <use xlink:href="#DejaVuSans-65" transform="translate(399.023438 0.015625)"/>
      <use xlink:href="#DejaVuSans-20" transform="translate(460.546875 0.015625)"/>
      <use xlink:href="#DejaVuSans-28" transform="translate(492.333984 0.015625)"/>
      <use xlink:href="#DejaVuSans-4e" transform="translate(531.347656 0.015625)"/>
      <use xlink:href="#DejaVuSans-53" transform="translate(606.152344 0.015625)"/>
      <use xlink:href="#DejaVuSans-57" transform="translate(669.628906 0.015625)"/>
      <use xlink:href="#DejaVuSans-5f" transform="translate(768.505859 0.015625)"/>
      <use xlink:href="#DejaVuSans-35" transform="translate(818.505859 0.015625)"/>
      <use xlink:href="#DejaVuSans-30" transform="translate(882.128906 0.015625)"/>
      <use xlink:href="#DejaVuSans-2b" transform="translate(945.751953 0.015625)"/>
      <use xlink:href="#DejaVuSans-29" transform="translate(1029.541016 0.015625)"/>
     </g>
    </g>
    <g id="line2d_47">
     <path d="M 434.102344 320.264414 
L 441.602344 320.264414 
L 449.102344 320.264414 
" style="fill: none; stroke-dasharray: 5.55,2.4; stroke-dashoffset: 0; stroke: #1d5f9b; stroke-width: 1.5"/>
    </g>
    <g id="text_49">
     <!-- 3$rd$ dose (NSW_50+) -->
     <g transform="translate(455.102344 322.889414) scale(0.075 -0.075)">
      <use xlink:href="#DejaVuSans-33" transform="translate(0 0.015625)"/>
      <use xlink:href="#DejaVuSans-Oblique-72" transform="translate(63.623047 0.015625)"/>
      <use xlink:href="#DejaVuSans-Oblique-64" transform="translate(104.736328 0.015625)"/>
      <use xlink:href="#DejaVuSans-20" transform="translate(168.212891 0.015625)"/>
      <use xlink:href="#DejaVuSans-64" transform="translate(200 0.015625)"/>
      <use xlink:href="#DejaVuSans-6f" transform="translate(263.476562 0.015625)"/>
      <use xlink:href="#DejaVuSans-73" transform="translate(324.658203 0.015625)"/>
      <use xlink:href="#DejaVuSans-65" transform="translate(376.757812 0.015625)"/>
      <use xlink:href="#DejaVuSans-20" transform="translate(438.28125 0.015625)"/>
      <use xlink:href="#DejaVuSans-28" transform="translate(470.068359 0.015625)"/>
      <use xlink:href="#DejaVuSans-4e" transform="translate(509.082031 0.015625)"/>
      <use xlink:href="#DejaVuSans-53" transform="translate(583.886719 0.015625)"/>
      <use xlink:href="#DejaVuSans-57" transform="translate(647.363281 0.015625)"/>
      <use xlink:href="#DejaVuSans-5f" transform="translate(746.240234 0.015625)"/>
      <use xlink:href="#DejaVuSans-35" transform="translate(796.240234 0.015625)"/>
      <use xlink:href="#DejaVuSans-30" transform="translate(859.863281 0.015625)"/>
      <use xlink:href="#DejaVuSans-2b" transform="translate(923.486328 0.015625)"/>
      <use xlink:href="#DejaVuSans-29" transform="translate(1007.275391 0.015625)"/>
     </g>
    </g>
    <g id="line2d_48">
     <path d="M 434.102344 331.514414 
L 441.602344 331.514414 
L 449.102344 331.514414 
" style="fill: none; stroke: #808080; stroke-width: 1.5; stroke-linecap: square"/>
    </g>
    <g id="text_50">
     <!-- 3$rd$ dose (VIC_50+) -->
     <g transform="translate(455.102344 334.139414) scale(0.075 -0.075)">
      <defs>
       <path id="DejaVuSans-49" d="M 628 4666 
L 1259 4666 
L 1259 0 
L 628 0 
L 628 4666 
z
" transform="scale(0.015625)"/>
       <path id="DejaVuSans-43" d="M 4122 4306 
L 4122 3641 
Q 3803 3938 3442 4084 
Q 3081 4231 2675 4231 
Q 1875 4231 1450 3742 
Q 1025 3253 1025 2328 
Q 1025 1406 1450 917 
Q 1875 428 2675 428 
Q 3081 428 3442 575 
Q 3803 722 4122 1019 
L 4122 359 
Q 3791 134 3420 21 
Q 3050 -91 2638 -91 
Q 1578 -91 968 557 
Q 359 1206 359 2328 
Q 359 3453 968 4101 
Q 1578 4750 2638 4750 
Q 3056 4750 3426 4639 
Q 3797 4528 4122 4306 
z
" transform="scale(0.015625)"/>
      </defs>
      <use xlink:href="#DejaVuSans-33" transform="translate(0 0.015625)"/>
      <use xlink:href="#DejaVuSans-Oblique-72" transform="translate(63.623047 0.015625)"/>
      <use xlink:href="#DejaVuSans-Oblique-64" transform="translate(104.736328 0.015625)"/>
      <use xlink:href="#DejaVuSans-20" transform="translate(168.212891 0.015625)"/>
      <use xlink:href="#DejaVuSans-64" transform="translate(200 0.015625)"/>
      <use xlink:href="#DejaVuSans-6f" transform="translate(263.476562 0.015625)"/>
      <use xlink:href="#DejaVuSans-73" transform="translate(324.658203 0.015625)"/>
      <use xlink:href="#DejaVuSans-65" transform="translate(376.757812 0.015625)"/>
      <use xlink:href="#DejaVuSans-20" transform="translate(438.28125 0.015625)"/>
      <use xlink:href="#DejaVuSans-28" transform="translate(470.068359 0.015625)"/>
      <use xlink:href="#DejaVuSans-56" transform="translate(509.082031 0.015625)"/>
      <use xlink:href="#DejaVuSans-49" transform="translate(577.490234 0.015625)"/>
      <use xlink:href="#DejaVuSans-43" transform="translate(606.982422 0.015625)"/>
      <use xlink:href="#DejaVuSans-5f" transform="translate(676.806641 0.015625)"/>
      <use xlink:href="#DejaVuSans-35" transform="translate(726.806641 0.015625)"/>
      <use xlink:href="#DejaVuSans-30" transform="translate(790.429688 0.015625)"/>
      <use xlink:href="#DejaVuSans-2b" transform="translate(854.052734 0.015625)"/>
      <use xlink:href="#DejaVuSans-29" transform="translate(937.841797 0.015625)"/>
     </g>
    </g>
   </g>
  </g>
 </g>
 <defs>
  <clipPath id="p4b068c2b78">
   <rect x="39.827344" y="10.049414" width="502.2" height="332.64"/>
  </clipPath>
 </defs>
</svg>
