<?xml version="1.0" encoding="utf-8" standalone="no"?>
<!DOCTYPE svg PUBLIC "-//W3C//DTD SVG 1.1//EN"
  "http://www.w3.org/Graphics/SVG/1.1/DTD/svg11.dtd">
<svg xmlns:xlink="http://www.w3.org/1999/xlink" width="473.77875pt" height="362.074563pt" viewBox="0 0 473.77875 362.074563" xmlns="http://www.w3.org/2000/svg" version="1.1">
 <metadata>
  <rdf:RDF xmlns:dc="http://purl.org/dc/elements/1.1/" xmlns:cc="http://creativecommons.org/ns#" xmlns:rdf="http://www.w3.org/1999/02/22-rdf-syntax-ns#">
   <cc:Work>
    <dc:type rdf:resource="http://purl.org/dc/dcmitype/StillImage"/>
    <dc:date>2024-01-31T16:37:38.879460</dc:date>
    <dc:format>image/svg+xml</dc:format>
    <dc:creator>
     <cc:Agent>
      <dc:title>Matplotlib v3.6.3, https://matplotlib.org/</dc:title>
     </cc:Agent>
    </dc:creator>
   </cc:Work>
  </rdf:RDF>
 </metadata>
 <defs>
  <style type="text/css">*{stroke-linejoin: round; stroke-linecap: butt}</style>
 </defs>
 <g id="figure_1">
  <g id="patch_1">
   <path d="M -0 362.074563 
L 473.77875 362.074563 
L 473.77875 0 
L -0 0 
z
" style="fill: #ffffff"/>
  </g>
  <g id="axes_1">
   <g id="patch_2">
    <path d="M 42.49875 288.009258 
L 466.57875 288.009258 
L 466.57875 10.809258 
L 42.49875 10.809258 
z
" style="fill: #ffffff"/>
   </g>
   <g id="matplotlib.axis_1">
    <g id="xtick_1">
     <g id="line2d_1">
      <defs>
       <path id="me1d8af1f36" d="M 0 0 
L 0 3.5 
" style="stroke: #000000; stroke-width: 0.8"/>
      </defs>
      <g>
       <use xlink:href="#me1d8af1f36" x="61.775114" y="288.009258" style="stroke: #000000; stroke-width: 0.8"/>
      </g>
     </g>
     <g id="text_1">
      <!-- 2021/8/14 -->
      <g transform="translate(46.4067 334.557574) rotate(-45) scale(0.095 -0.095)">
       <defs>
        <path id="DejaVuSans-32" d="M 1228 531 
L 3431 531 
L 3431 0 
L 469 0 
L 469 531 
Q 828 903 1448 1529 
Q 2069 2156 2228 2338 
Q 2531 2678 2651 2914 
Q 2772 3150 2772 3378 
Q 2772 3750 2511 3984 
Q 2250 4219 1831 4219 
Q 1534 4219 1204 4116 
Q 875 4013 500 3803 
L 500 4441 
Q 881 4594 1212 4672 
Q 1544 4750 1819 4750 
Q 2544 4750 2975 4387 
Q 3406 4025 3406 3419 
Q 3406 3131 3298 2873 
Q 3191 2616 2906 2266 
Q 2828 2175 2409 1742 
Q 1991 1309 1228 531 
z
" transform="scale(0.015625)"/>
        <path id="DejaVuSans-30" d="M 2034 4250 
Q 1547 4250 1301 3770 
Q 1056 3291 1056 2328 
Q 1056 1369 1301 889 
Q 1547 409 2034 409 
Q 2525 409 2770 889 
Q 3016 1369 3016 2328 
Q 3016 3291 2770 3770 
Q 2525 4250 2034 4250 
z
M 2034 4750 
Q 2819 4750 3233 4129 
Q 3647 3509 3647 2328 
Q 3647 1150 3233 529 
Q 2819 -91 2034 -91 
Q 1250 -91 836 529 
Q 422 1150 422 2328 
Q 422 3509 836 4129 
Q 1250 4750 2034 4750 
z
" transform="scale(0.015625)"/>
        <path id="DejaVuSans-31" d="M 794 531 
L 1825 531 
L 1825 4091 
L 703 3866 
L 703 4441 
L 1819 4666 
L 2450 4666 
L 2450 531 
L 3481 531 
L 3481 0 
L 794 0 
L 794 531 
z
" transform="scale(0.015625)"/>
        <path id="DejaVuSans-2f" d="M 1625 4666 
L 2156 4666 
L 531 -594 
L 0 -594 
L 1625 4666 
z
" transform="scale(0.015625)"/>
        <path id="DejaVuSans-38" d="M 2034 2216 
Q 1584 2216 1326 1975 
Q 1069 1734 1069 1313 
Q 1069 891 1326 650 
Q 1584 409 2034 409 
Q 2484 409 2743 651 
Q 3003 894 3003 1313 
Q 3003 1734 2745 1975 
Q 2488 2216 2034 2216 
z
M 1403 2484 
Q 997 2584 770 2862 
Q 544 3141 544 3541 
Q 544 4100 942 4425 
Q 1341 4750 2034 4750 
Q 2731 4750 3128 4425 
Q 3525 4100 3525 3541 
Q 3525 3141 3298 2862 
Q 3072 2584 2669 2484 
Q 3125 2378 3379 2068 
Q 3634 1759 3634 1313 
Q 3634 634 3220 271 
Q 2806 -91 2034 -91 
Q 1263 -91 848 271 
Q 434 634 434 1313 
Q 434 1759 690 2068 
Q 947 2378 1403 2484 
z
M 1172 3481 
Q 1172 3119 1398 2916 
Q 1625 2713 2034 2713 
Q 2441 2713 2670 2916 
Q 2900 3119 2900 3481 
Q 2900 3844 2670 4047 
Q 2441 4250 2034 4250 
Q 1625 4250 1398 4047 
Q 1172 3844 1172 3481 
z
" transform="scale(0.015625)"/>
        <path id="DejaVuSans-34" d="M 2419 4116 
L 825 1625 
L 2419 1625 
L 2419 4116 
z
M 2253 4666 
L 3047 4666 
L 3047 1625 
L 3713 1625 
L 3713 1100 
L 3047 1100 
L 3047 0 
L 2419 0 
L 2419 1100 
L 313 1100 
L 313 1709 
L 2253 4666 
z
" transform="scale(0.015625)"/>
       </defs>
       <use xlink:href="#DejaVuSans-32"/>
       <use xlink:href="#DejaVuSans-30" x="63.623047"/>
       <use xlink:href="#DejaVuSans-32" x="127.246094"/>
       <use xlink:href="#DejaVuSans-31" x="190.869141"/>
       <use xlink:href="#DejaVuSans-2f" x="254.492188"/>
       <use xlink:href="#DejaVuSans-38" x="288.183594"/>
       <use xlink:href="#DejaVuSans-2f" x="351.806641"/>
       <use xlink:href="#DejaVuSans-31" x="385.498047"/>
       <use xlink:href="#DejaVuSans-34" x="449.121094"/>
      </g>
     </g>
    </g>
    <g id="xtick_2">
     <g id="line2d_2">
      <g>
       <use xlink:href="#me1d8af1f36" x="78.180529" y="288.009258" style="stroke: #000000; stroke-width: 0.8"/>
      </g>
     </g>
     <g id="text_2">
      <!-- 2021/8/28 -->
      <g transform="translate(62.812116 334.557574) rotate(-45) scale(0.095 -0.095)">
       <use xlink:href="#DejaVuSans-32"/>
       <use xlink:href="#DejaVuSans-30" x="63.623047"/>
       <use xlink:href="#DejaVuSans-32" x="127.246094"/>
       <use xlink:href="#DejaVuSans-31" x="190.869141"/>
       <use xlink:href="#DejaVuSans-2f" x="254.492188"/>
       <use xlink:href="#DejaVuSans-38" x="288.183594"/>
       <use xlink:href="#DejaVuSans-2f" x="351.806641"/>
       <use xlink:href="#DejaVuSans-32" x="385.498047"/>
       <use xlink:href="#DejaVuSans-38" x="449.121094"/>
      </g>
     </g>
    </g>
    <g id="xtick_3">
     <g id="line2d_3">
      <g>
       <use xlink:href="#me1d8af1f36" x="94.585945" y="288.009258" style="stroke: #000000; stroke-width: 0.8"/>
      </g>
     </g>
     <g id="text_3">
      <!-- 2021/9/11 -->
      <g transform="translate(79.217532 334.557574) rotate(-45) scale(0.095 -0.095)">
       <defs>
        <path id="DejaVuSans-39" d="M 703 97 
L 703 672 
Q 941 559 1184 500 
Q 1428 441 1663 441 
Q 2288 441 2617 861 
Q 2947 1281 2994 2138 
Q 2813 1869 2534 1725 
Q 2256 1581 1919 1581 
Q 1219 1581 811 2004 
Q 403 2428 403 3163 
Q 403 3881 828 4315 
Q 1253 4750 1959 4750 
Q 2769 4750 3195 4129 
Q 3622 3509 3622 2328 
Q 3622 1225 3098 567 
Q 2575 -91 1691 -91 
Q 1453 -91 1209 -44 
Q 966 3 703 97 
z
M 1959 2075 
Q 2384 2075 2632 2365 
Q 2881 2656 2881 3163 
Q 2881 3666 2632 3958 
Q 2384 4250 1959 4250 
Q 1534 4250 1286 3958 
Q 1038 3666 1038 3163 
Q 1038 2656 1286 2365 
Q 1534 2075 1959 2075 
z
" transform="scale(0.015625)"/>
       </defs>
       <use xlink:href="#DejaVuSans-32"/>
       <use xlink:href="#DejaVuSans-30" x="63.623047"/>
       <use xlink:href="#DejaVuSans-32" x="127.246094"/>
       <use xlink:href="#DejaVuSans-31" x="190.869141"/>
       <use xlink:href="#DejaVuSans-2f" x="254.492188"/>
       <use xlink:href="#DejaVuSans-39" x="288.183594"/>
       <use xlink:href="#DejaVuSans-2f" x="351.806641"/>
       <use xlink:href="#DejaVuSans-31" x="385.498047"/>
       <use xlink:href="#DejaVuSans-31" x="449.121094"/>
      </g>
     </g>
    </g>
    <g id="xtick_4">
     <g id="line2d_4">
      <g>
       <use xlink:href="#me1d8af1f36" x="110.991361" y="288.009258" style="stroke: #000000; stroke-width: 0.8"/>
      </g>
     </g>
     <g id="text_4">
      <!-- 2021/9/25 -->
      <g transform="translate(95.622948 334.557574) rotate(-45) scale(0.095 -0.095)">
       <defs>
        <path id="DejaVuSans-35" d="M 691 4666 
L 3169 4666 
L 3169 4134 
L 1269 4134 
L 1269 2991 
Q 1406 3038 1543 3061 
Q 1681 3084 1819 3084 
Q 2600 3084 3056 2656 
Q 3513 2228 3513 1497 
Q 3513 744 3044 326 
Q 2575 -91 1722 -91 
Q 1428 -91 1123 -41 
Q 819 9 494 109 
L 494 744 
Q 775 591 1075 516 
Q 1375 441 1709 441 
Q 2250 441 2565 725 
Q 2881 1009 2881 1497 
Q 2881 1984 2565 2268 
Q 2250 2553 1709 2553 
Q 1456 2553 1204 2497 
Q 953 2441 691 2322 
L 691 4666 
z
" transform="scale(0.015625)"/>
       </defs>
       <use xlink:href="#DejaVuSans-32"/>
       <use xlink:href="#DejaVuSans-30" x="63.623047"/>
       <use xlink:href="#DejaVuSans-32" x="127.246094"/>
       <use xlink:href="#DejaVuSans-31" x="190.869141"/>
       <use xlink:href="#DejaVuSans-2f" x="254.492188"/>
       <use xlink:href="#DejaVuSans-39" x="288.183594"/>
       <use xlink:href="#DejaVuSans-2f" x="351.806641"/>
       <use xlink:href="#DejaVuSans-32" x="385.498047"/>
       <use xlink:href="#DejaVuSans-35" x="449.121094"/>
      </g>
     </g>
    </g>
    <g id="xtick_5">
     <g id="line2d_5">
      <g>
       <use xlink:href="#me1d8af1f36" x="127.396777" y="288.009258" style="stroke: #000000; stroke-width: 0.8"/>
      </g>
     </g>
     <g id="text_5">
      <!-- 2021/10/9 -->
      <g transform="translate(112.028364 334.557574) rotate(-45) scale(0.095 -0.095)">
       <use xlink:href="#DejaVuSans-32"/>
       <use xlink:href="#DejaVuSans-30" x="63.623047"/>
       <use xlink:href="#DejaVuSans-32" x="127.246094"/>
       <use xlink:href="#DejaVuSans-31" x="190.869141"/>
       <use xlink:href="#DejaVuSans-2f" x="254.492188"/>
       <use xlink:href="#DejaVuSans-31" x="288.183594"/>
       <use xlink:href="#DejaVuSans-30" x="351.806641"/>
       <use xlink:href="#DejaVuSans-2f" x="415.429688"/>
       <use xlink:href="#DejaVuSans-39" x="449.121094"/>
      </g>
     </g>
    </g>
    <g id="xtick_6">
     <g id="line2d_6">
      <g>
       <use xlink:href="#me1d8af1f36" x="143.802193" y="288.009258" style="stroke: #000000; stroke-width: 0.8"/>
      </g>
     </g>
     <g id="text_6">
      <!-- 2021/10/23 -->
      <g transform="translate(126.29677 338.831593) rotate(-45) scale(0.095 -0.095)">
       <defs>
        <path id="DejaVuSans-33" d="M 2597 2516 
Q 3050 2419 3304 2112 
Q 3559 1806 3559 1356 
Q 3559 666 3084 287 
Q 2609 -91 1734 -91 
Q 1441 -91 1130 -33 
Q 819 25 488 141 
L 488 750 
Q 750 597 1062 519 
Q 1375 441 1716 441 
Q 2309 441 2620 675 
Q 2931 909 2931 1356 
Q 2931 1769 2642 2001 
Q 2353 2234 1838 2234 
L 1294 2234 
L 1294 2753 
L 1863 2753 
Q 2328 2753 2575 2939 
Q 2822 3125 2822 3475 
Q 2822 3834 2567 4026 
Q 2313 4219 1838 4219 
Q 1578 4219 1281 4162 
Q 984 4106 628 3988 
L 628 4550 
Q 988 4650 1302 4700 
Q 1616 4750 1894 4750 
Q 2613 4750 3031 4423 
Q 3450 4097 3450 3541 
Q 3450 3153 3228 2886 
Q 3006 2619 2597 2516 
z
" transform="scale(0.015625)"/>
       </defs>
       <use xlink:href="#DejaVuSans-32"/>
       <use xlink:href="#DejaVuSans-30" x="63.623047"/>
       <use xlink:href="#DejaVuSans-32" x="127.246094"/>
       <use xlink:href="#DejaVuSans-31" x="190.869141"/>
       <use xlink:href="#DejaVuSans-2f" x="254.492188"/>
       <use xlink:href="#DejaVuSans-31" x="288.183594"/>
       <use xlink:href="#DejaVuSans-30" x="351.806641"/>
       <use xlink:href="#DejaVuSans-2f" x="415.429688"/>
       <use xlink:href="#DejaVuSans-32" x="449.121094"/>
       <use xlink:href="#DejaVuSans-33" x="512.744141"/>
      </g>
     </g>
    </g>
    <g id="xtick_7">
     <g id="line2d_7">
      <g>
       <use xlink:href="#me1d8af1f36" x="160.207609" y="288.009258" style="stroke: #000000; stroke-width: 0.8"/>
      </g>
     </g>
     <g id="text_7">
      <!-- 2021/11/6 -->
      <g transform="translate(144.839195 334.557574) rotate(-45) scale(0.095 -0.095)">
       <defs>
        <path id="DejaVuSans-36" d="M 2113 2584 
Q 1688 2584 1439 2293 
Q 1191 2003 1191 1497 
Q 1191 994 1439 701 
Q 1688 409 2113 409 
Q 2538 409 2786 701 
Q 3034 994 3034 1497 
Q 3034 2003 2786 2293 
Q 2538 2584 2113 2584 
z
M 3366 4563 
L 3366 3988 
Q 3128 4100 2886 4159 
Q 2644 4219 2406 4219 
Q 1781 4219 1451 3797 
Q 1122 3375 1075 2522 
Q 1259 2794 1537 2939 
Q 1816 3084 2150 3084 
Q 2853 3084 3261 2657 
Q 3669 2231 3669 1497 
Q 3669 778 3244 343 
Q 2819 -91 2113 -91 
Q 1303 -91 875 529 
Q 447 1150 447 2328 
Q 447 3434 972 4092 
Q 1497 4750 2381 4750 
Q 2619 4750 2861 4703 
Q 3103 4656 3366 4563 
z
" transform="scale(0.015625)"/>
       </defs>
       <use xlink:href="#DejaVuSans-32"/>
       <use xlink:href="#DejaVuSans-30" x="63.623047"/>
       <use xlink:href="#DejaVuSans-32" x="127.246094"/>
       <use xlink:href="#DejaVuSans-31" x="190.869141"/>
       <use xlink:href="#DejaVuSans-2f" x="254.492188"/>
       <use xlink:href="#DejaVuSans-31" x="288.183594"/>
       <use xlink:href="#DejaVuSans-31" x="351.806641"/>
       <use xlink:href="#DejaVuSans-2f" x="415.429688"/>
       <use xlink:href="#DejaVuSans-36" x="449.121094"/>
      </g>
     </g>
    </g>
    <g id="xtick_8">
     <g id="line2d_8">
      <g>
       <use xlink:href="#me1d8af1f36" x="176.613025" y="288.009258" style="stroke: #000000; stroke-width: 0.8"/>
      </g>
     </g>
     <g id="text_8">
      <!-- 2021/11/20 -->
      <g transform="translate(159.107602 338.831593) rotate(-45) scale(0.095 -0.095)">
       <use xlink:href="#DejaVuSans-32"/>
       <use xlink:href="#DejaVuSans-30" x="63.623047"/>
       <use xlink:href="#DejaVuSans-32" x="127.246094"/>
       <use xlink:href="#DejaVuSans-31" x="190.869141"/>
       <use xlink:href="#DejaVuSans-2f" x="254.492188"/>
       <use xlink:href="#DejaVuSans-31" x="288.183594"/>
       <use xlink:href="#DejaVuSans-31" x="351.806641"/>
       <use xlink:href="#DejaVuSans-2f" x="415.429688"/>
       <use xlink:href="#DejaVuSans-32" x="449.121094"/>
       <use xlink:href="#DejaVuSans-30" x="512.744141"/>
      </g>
     </g>
    </g>
    <g id="xtick_9">
     <g id="line2d_9">
      <g>
       <use xlink:href="#me1d8af1f36" x="193.018441" y="288.009258" style="stroke: #000000; stroke-width: 0.8"/>
      </g>
     </g>
     <g id="text_9">
      <!-- 2021/12/4 -->
      <g transform="translate(177.650027 334.557574) rotate(-45) scale(0.095 -0.095)">
       <use xlink:href="#DejaVuSans-32"/>
       <use xlink:href="#DejaVuSans-30" x="63.623047"/>
       <use xlink:href="#DejaVuSans-32" x="127.246094"/>
       <use xlink:href="#DejaVuSans-31" x="190.869141"/>
       <use xlink:href="#DejaVuSans-2f" x="254.492188"/>
       <use xlink:href="#DejaVuSans-31" x="288.183594"/>
       <use xlink:href="#DejaVuSans-32" x="351.806641"/>
       <use xlink:href="#DejaVuSans-2f" x="415.429688"/>
       <use xlink:href="#DejaVuSans-34" x="449.121094"/>
      </g>
     </g>
    </g>
    <g id="xtick_10">
     <g id="line2d_10">
      <g>
       <use xlink:href="#me1d8af1f36" x="209.423856" y="288.009258" style="stroke: #000000; stroke-width: 0.8"/>
      </g>
     </g>
     <g id="text_10">
      <!-- 2021/12/18 -->
      <g transform="translate(191.918434 338.831593) rotate(-45) scale(0.095 -0.095)">
       <use xlink:href="#DejaVuSans-32"/>
       <use xlink:href="#DejaVuSans-30" x="63.623047"/>
       <use xlink:href="#DejaVuSans-32" x="127.246094"/>
       <use xlink:href="#DejaVuSans-31" x="190.869141"/>
       <use xlink:href="#DejaVuSans-2f" x="254.492188"/>
       <use xlink:href="#DejaVuSans-31" x="288.183594"/>
       <use xlink:href="#DejaVuSans-32" x="351.806641"/>
       <use xlink:href="#DejaVuSans-2f" x="415.429688"/>
       <use xlink:href="#DejaVuSans-31" x="449.121094"/>
       <use xlink:href="#DejaVuSans-38" x="512.744141"/>
      </g>
     </g>
    </g>
    <g id="xtick_11">
     <g id="line2d_11">
      <g>
       <use xlink:href="#me1d8af1f36" x="225.829272" y="288.009258" style="stroke: #000000; stroke-width: 0.8"/>
      </g>
     </g>
     <g id="text_11">
      <!-- 2022/1/1 -->
      <g transform="translate(212.597868 330.283556) rotate(-45) scale(0.095 -0.095)">
       <use xlink:href="#DejaVuSans-32"/>
       <use xlink:href="#DejaVuSans-30" x="63.623047"/>
       <use xlink:href="#DejaVuSans-32" x="127.246094"/>
       <use xlink:href="#DejaVuSans-32" x="190.869141"/>
       <use xlink:href="#DejaVuSans-2f" x="254.492188"/>
       <use xlink:href="#DejaVuSans-31" x="288.183594"/>
       <use xlink:href="#DejaVuSans-2f" x="351.806641"/>
       <use xlink:href="#DejaVuSans-31" x="385.498047"/>
      </g>
     </g>
    </g>
    <g id="xtick_12">
     <g id="line2d_12">
      <g>
       <use xlink:href="#me1d8af1f36" x="242.234688" y="288.009258" style="stroke: #000000; stroke-width: 0.8"/>
      </g>
     </g>
     <g id="text_12">
      <!-- 2022/1/15 -->
      <g transform="translate(226.866275 334.557574) rotate(-45) scale(0.095 -0.095)">
       <use xlink:href="#DejaVuSans-32"/>
       <use xlink:href="#DejaVuSans-30" x="63.623047"/>
       <use xlink:href="#DejaVuSans-32" x="127.246094"/>
       <use xlink:href="#DejaVuSans-32" x="190.869141"/>
       <use xlink:href="#DejaVuSans-2f" x="254.492188"/>
       <use xlink:href="#DejaVuSans-31" x="288.183594"/>
       <use xlink:href="#DejaVuSans-2f" x="351.806641"/>
       <use xlink:href="#DejaVuSans-31" x="385.498047"/>
       <use xlink:href="#DejaVuSans-35" x="449.121094"/>
      </g>
     </g>
    </g>
    <g id="xtick_13">
     <g id="line2d_13">
      <g>
       <use xlink:href="#me1d8af1f36" x="258.640104" y="288.009258" style="stroke: #000000; stroke-width: 0.8"/>
      </g>
     </g>
     <g id="text_13">
      <!-- 2022/1/29 -->
      <g transform="translate(243.271691 334.557574) rotate(-45) scale(0.095 -0.095)">
       <use xlink:href="#DejaVuSans-32"/>
       <use xlink:href="#DejaVuSans-30" x="63.623047"/>
       <use xlink:href="#DejaVuSans-32" x="127.246094"/>
       <use xlink:href="#DejaVuSans-32" x="190.869141"/>
       <use xlink:href="#DejaVuSans-2f" x="254.492188"/>
       <use xlink:href="#DejaVuSans-31" x="288.183594"/>
       <use xlink:href="#DejaVuSans-2f" x="351.806641"/>
       <use xlink:href="#DejaVuSans-32" x="385.498047"/>
       <use xlink:href="#DejaVuSans-39" x="449.121094"/>
      </g>
     </g>
    </g>
    <g id="xtick_14">
     <g id="line2d_14">
      <g>
       <use xlink:href="#me1d8af1f36" x="275.04552" y="288.009258" style="stroke: #000000; stroke-width: 0.8"/>
      </g>
     </g>
     <g id="text_14">
      <!-- 2022/2/12 -->
      <g transform="translate(259.677106 334.557574) rotate(-45) scale(0.095 -0.095)">
       <use xlink:href="#DejaVuSans-32"/>
       <use xlink:href="#DejaVuSans-30" x="63.623047"/>
       <use xlink:href="#DejaVuSans-32" x="127.246094"/>
       <use xlink:href="#DejaVuSans-32" x="190.869141"/>
       <use xlink:href="#DejaVuSans-2f" x="254.492188"/>
       <use xlink:href="#DejaVuSans-32" x="288.183594"/>
       <use xlink:href="#DejaVuSans-2f" x="351.806641"/>
       <use xlink:href="#DejaVuSans-31" x="385.498047"/>
       <use xlink:href="#DejaVuSans-32" x="449.121094"/>
      </g>
     </g>
    </g>
    <g id="xtick_15">
     <g id="line2d_15">
      <g>
       <use xlink:href="#me1d8af1f36" x="291.450936" y="288.009258" style="stroke: #000000; stroke-width: 0.8"/>
      </g>
     </g>
     <g id="text_15">
      <!-- 2022/2/26 -->
      <g transform="translate(276.082522 334.557574) rotate(-45) scale(0.095 -0.095)">
       <use xlink:href="#DejaVuSans-32"/>
       <use xlink:href="#DejaVuSans-30" x="63.623047"/>
       <use xlink:href="#DejaVuSans-32" x="127.246094"/>
       <use xlink:href="#DejaVuSans-32" x="190.869141"/>
       <use xlink:href="#DejaVuSans-2f" x="254.492188"/>
       <use xlink:href="#DejaVuSans-32" x="288.183594"/>
       <use xlink:href="#DejaVuSans-2f" x="351.806641"/>
       <use xlink:href="#DejaVuSans-32" x="385.498047"/>
       <use xlink:href="#DejaVuSans-36" x="449.121094"/>
      </g>
     </g>
    </g>
    <g id="xtick_16">
     <g id="line2d_16">
      <g>
       <use xlink:href="#me1d8af1f36" x="307.856352" y="288.009258" style="stroke: #000000; stroke-width: 0.8"/>
      </g>
     </g>
     <g id="text_16">
      <!-- 2022/3/12 -->
      <g transform="translate(292.487938 334.557574) rotate(-45) scale(0.095 -0.095)">
       <use xlink:href="#DejaVuSans-32"/>
       <use xlink:href="#DejaVuSans-30" x="63.623047"/>
       <use xlink:href="#DejaVuSans-32" x="127.246094"/>
       <use xlink:href="#DejaVuSans-32" x="190.869141"/>
       <use xlink:href="#DejaVuSans-2f" x="254.492188"/>
       <use xlink:href="#DejaVuSans-33" x="288.183594"/>
       <use xlink:href="#DejaVuSans-2f" x="351.806641"/>
       <use xlink:href="#DejaVuSans-31" x="385.498047"/>
       <use xlink:href="#DejaVuSans-32" x="449.121094"/>
      </g>
     </g>
    </g>
    <g id="xtick_17">
     <g id="line2d_17">
      <g>
       <use xlink:href="#me1d8af1f36" x="324.261767" y="288.009258" style="stroke: #000000; stroke-width: 0.8"/>
      </g>
     </g>
     <g id="text_17">
      <!-- 2022/3/26 -->
      <g transform="translate(308.893354 334.557574) rotate(-45) scale(0.095 -0.095)">
       <use xlink:href="#DejaVuSans-32"/>
       <use xlink:href="#DejaVuSans-30" x="63.623047"/>
       <use xlink:href="#DejaVuSans-32" x="127.246094"/>
       <use xlink:href="#DejaVuSans-32" x="190.869141"/>
       <use xlink:href="#DejaVuSans-2f" x="254.492188"/>
       <use xlink:href="#DejaVuSans-33" x="288.183594"/>
       <use xlink:href="#DejaVuSans-2f" x="351.806641"/>
       <use xlink:href="#DejaVuSans-32" x="385.498047"/>
       <use xlink:href="#DejaVuSans-36" x="449.121094"/>
      </g>
     </g>
    </g>
    <g id="xtick_18">
     <g id="line2d_18">
      <g>
       <use xlink:href="#me1d8af1f36" x="340.667183" y="288.009258" style="stroke: #000000; stroke-width: 0.8"/>
      </g>
     </g>
     <g id="text_18">
      <!-- 2022/4/9 -->
      <g transform="translate(327.435779 330.283556) rotate(-45) scale(0.095 -0.095)">
       <use xlink:href="#DejaVuSans-32"/>
       <use xlink:href="#DejaVuSans-30" x="63.623047"/>
       <use xlink:href="#DejaVuSans-32" x="127.246094"/>
       <use xlink:href="#DejaVuSans-32" x="190.869141"/>
       <use xlink:href="#DejaVuSans-2f" x="254.492188"/>
       <use xlink:href="#DejaVuSans-34" x="288.183594"/>
       <use xlink:href="#DejaVuSans-2f" x="351.806641"/>
       <use xlink:href="#DejaVuSans-39" x="385.498047"/>
      </g>
     </g>
    </g>
    <g id="xtick_19">
     <g id="line2d_19">
      <g>
       <use xlink:href="#me1d8af1f36" x="357.072599" y="288.009258" style="stroke: #000000; stroke-width: 0.8"/>
      </g>
     </g>
     <g id="text_19">
      <!-- 2022/4/23 -->
      <g transform="translate(341.704186 334.557574) rotate(-45) scale(0.095 -0.095)">
       <use xlink:href="#DejaVuSans-32"/>
       <use xlink:href="#DejaVuSans-30" x="63.623047"/>
       <use xlink:href="#DejaVuSans-32" x="127.246094"/>
       <use xlink:href="#DejaVuSans-32" x="190.869141"/>
       <use xlink:href="#DejaVuSans-2f" x="254.492188"/>
       <use xlink:href="#DejaVuSans-34" x="288.183594"/>
       <use xlink:href="#DejaVuSans-2f" x="351.806641"/>
       <use xlink:href="#DejaVuSans-32" x="385.498047"/>
       <use xlink:href="#DejaVuSans-33" x="449.121094"/>
      </g>
     </g>
    </g>
    <g id="xtick_20">
     <g id="line2d_20">
      <g>
       <use xlink:href="#me1d8af1f36" x="373.478015" y="288.009258" style="stroke: #000000; stroke-width: 0.8"/>
      </g>
     </g>
     <g id="text_20">
      <!-- 2022/5/7 -->
      <g transform="translate(360.246611 330.283556) rotate(-45) scale(0.095 -0.095)">
       <defs>
        <path id="DejaVuSans-37" d="M 525 4666 
L 3525 4666 
L 3525 4397 
L 1831 0 
L 1172 0 
L 2766 4134 
L 525 4134 
L 525 4666 
z
" transform="scale(0.015625)"/>
       </defs>
       <use xlink:href="#DejaVuSans-32"/>
       <use xlink:href="#DejaVuSans-30" x="63.623047"/>
       <use xlink:href="#DejaVuSans-32" x="127.246094"/>
       <use xlink:href="#DejaVuSans-32" x="190.869141"/>
       <use xlink:href="#DejaVuSans-2f" x="254.492188"/>
       <use xlink:href="#DejaVuSans-35" x="288.183594"/>
       <use xlink:href="#DejaVuSans-2f" x="351.806641"/>
       <use xlink:href="#DejaVuSans-37" x="385.498047"/>
      </g>
     </g>
    </g>
    <g id="xtick_21">
     <g id="line2d_21">
      <g>
       <use xlink:href="#me1d8af1f36" x="389.883431" y="288.009258" style="stroke: #000000; stroke-width: 0.8"/>
      </g>
     </g>
     <g id="text_21">
      <!-- 2022/5/21 -->
      <g transform="translate(374.515017 334.557574) rotate(-45) scale(0.095 -0.095)">
       <use xlink:href="#DejaVuSans-32"/>
       <use xlink:href="#DejaVuSans-30" x="63.623047"/>
       <use xlink:href="#DejaVuSans-32" x="127.246094"/>
       <use xlink:href="#DejaVuSans-32" x="190.869141"/>
       <use xlink:href="#DejaVuSans-2f" x="254.492188"/>
       <use xlink:href="#DejaVuSans-35" x="288.183594"/>
       <use xlink:href="#DejaVuSans-2f" x="351.806641"/>
       <use xlink:href="#DejaVuSans-32" x="385.498047"/>
       <use xlink:href="#DejaVuSans-31" x="449.121094"/>
      </g>
     </g>
    </g>
    <g id="xtick_22">
     <g id="line2d_22">
      <g>
       <use xlink:href="#me1d8af1f36" x="406.288847" y="288.009258" style="stroke: #000000; stroke-width: 0.8"/>
      </g>
     </g>
     <g id="text_22">
      <!-- 2022/6/4 -->
      <g transform="translate(393.057443 330.283556) rotate(-45) scale(0.095 -0.095)">
       <use xlink:href="#DejaVuSans-32"/>
       <use xlink:href="#DejaVuSans-30" x="63.623047"/>
       <use xlink:href="#DejaVuSans-32" x="127.246094"/>
       <use xlink:href="#DejaVuSans-32" x="190.869141"/>
       <use xlink:href="#DejaVuSans-2f" x="254.492188"/>
       <use xlink:href="#DejaVuSans-36" x="288.183594"/>
       <use xlink:href="#DejaVuSans-2f" x="351.806641"/>
       <use xlink:href="#DejaVuSans-34" x="385.498047"/>
      </g>
     </g>
    </g>
    <g id="xtick_23">
     <g id="line2d_23">
      <g>
       <use xlink:href="#me1d8af1f36" x="422.694263" y="288.009258" style="stroke: #000000; stroke-width: 0.8"/>
      </g>
     </g>
     <g id="text_23">
      <!-- 2022/6/18 -->
      <g transform="translate(407.325849 334.557574) rotate(-45) scale(0.095 -0.095)">
       <use xlink:href="#DejaVuSans-32"/>
       <use xlink:href="#DejaVuSans-30" x="63.623047"/>
       <use xlink:href="#DejaVuSans-32" x="127.246094"/>
       <use xlink:href="#DejaVuSans-32" x="190.869141"/>
       <use xlink:href="#DejaVuSans-2f" x="254.492188"/>
       <use xlink:href="#DejaVuSans-36" x="288.183594"/>
       <use xlink:href="#DejaVuSans-2f" x="351.806641"/>
       <use xlink:href="#DejaVuSans-31" x="385.498047"/>
       <use xlink:href="#DejaVuSans-38" x="449.121094"/>
      </g>
     </g>
    </g>
    <g id="xtick_24">
     <g id="line2d_24">
      <g>
       <use xlink:href="#me1d8af1f36" x="439.099678" y="288.009258" style="stroke: #000000; stroke-width: 0.8"/>
      </g>
     </g>
     <g id="text_24">
      <!-- 2022/7/2 -->
      <g transform="translate(425.868274 330.283556) rotate(-45) scale(0.095 -0.095)">
       <use xlink:href="#DejaVuSans-32"/>
       <use xlink:href="#DejaVuSans-30" x="63.623047"/>
       <use xlink:href="#DejaVuSans-32" x="127.246094"/>
       <use xlink:href="#DejaVuSans-32" x="190.869141"/>
       <use xlink:href="#DejaVuSans-2f" x="254.492188"/>
       <use xlink:href="#DejaVuSans-37" x="288.183594"/>
       <use xlink:href="#DejaVuSans-2f" x="351.806641"/>
       <use xlink:href="#DejaVuSans-32" x="385.498047"/>
      </g>
     </g>
    </g>
    <g id="text_25">
     <!-- Timepoint in 2021–22 (weeks) -->
     <g transform="translate(171.443203 352.586907) scale(0.11 -0.11)">
      <defs>
       <path id="DejaVuSans-54" d="M -19 4666 
L 3928 4666 
L 3928 4134 
L 2272 4134 
L 2272 0 
L 1638 0 
L 1638 4134 
L -19 4134 
L -19 4666 
z
" transform="scale(0.015625)"/>
       <path id="DejaVuSans-69" d="M 603 3500 
L 1178 3500 
L 1178 0 
L 603 0 
L 603 3500 
z
M 603 4863 
L 1178 4863 
L 1178 4134 
L 603 4134 
L 603 4863 
z
" transform="scale(0.015625)"/>
       <path id="DejaVuSans-6d" d="M 3328 2828 
Q 3544 3216 3844 3400 
Q 4144 3584 4550 3584 
Q 5097 3584 5394 3201 
Q 5691 2819 5691 2113 
L 5691 0 
L 5113 0 
L 5113 2094 
Q 5113 2597 4934 2840 
Q 4756 3084 4391 3084 
Q 3944 3084 3684 2787 
Q 3425 2491 3425 1978 
L 3425 0 
L 2847 0 
L 2847 2094 
Q 2847 2600 2669 2842 
Q 2491 3084 2119 3084 
Q 1678 3084 1418 2786 
Q 1159 2488 1159 1978 
L 1159 0 
L 581 0 
L 581 3500 
L 1159 3500 
L 1159 2956 
Q 1356 3278 1631 3431 
Q 1906 3584 2284 3584 
Q 2666 3584 2933 3390 
Q 3200 3197 3328 2828 
z
" transform="scale(0.015625)"/>
       <path id="DejaVuSans-65" d="M 3597 1894 
L 3597 1613 
L 953 1613 
Q 991 1019 1311 708 
Q 1631 397 2203 397 
Q 2534 397 2845 478 
Q 3156 559 3463 722 
L 3463 178 
Q 3153 47 2828 -22 
Q 2503 -91 2169 -91 
Q 1331 -91 842 396 
Q 353 884 353 1716 
Q 353 2575 817 3079 
Q 1281 3584 2069 3584 
Q 2775 3584 3186 3129 
Q 3597 2675 3597 1894 
z
M 3022 2063 
Q 3016 2534 2758 2815 
Q 2500 3097 2075 3097 
Q 1594 3097 1305 2825 
Q 1016 2553 972 2059 
L 3022 2063 
z
" transform="scale(0.015625)"/>
       <path id="DejaVuSans-70" d="M 1159 525 
L 1159 -1331 
L 581 -1331 
L 581 3500 
L 1159 3500 
L 1159 2969 
Q 1341 3281 1617 3432 
Q 1894 3584 2278 3584 
Q 2916 3584 3314 3078 
Q 3713 2572 3713 1747 
Q 3713 922 3314 415 
Q 2916 -91 2278 -91 
Q 1894 -91 1617 61 
Q 1341 213 1159 525 
z
M 3116 1747 
Q 3116 2381 2855 2742 
Q 2594 3103 2138 3103 
Q 1681 3103 1420 2742 
Q 1159 2381 1159 1747 
Q 1159 1113 1420 752 
Q 1681 391 2138 391 
Q 2594 391 2855 752 
Q 3116 1113 3116 1747 
z
" transform="scale(0.015625)"/>
       <path id="DejaVuSans-6f" d="M 1959 3097 
Q 1497 3097 1228 2736 
Q 959 2375 959 1747 
Q 959 1119 1226 758 
Q 1494 397 1959 397 
Q 2419 397 2687 759 
Q 2956 1122 2956 1747 
Q 2956 2369 2687 2733 
Q 2419 3097 1959 3097 
z
M 1959 3584 
Q 2709 3584 3137 3096 
Q 3566 2609 3566 1747 
Q 3566 888 3137 398 
Q 2709 -91 1959 -91 
Q 1206 -91 779 398 
Q 353 888 353 1747 
Q 353 2609 779 3096 
Q 1206 3584 1959 3584 
z
" transform="scale(0.015625)"/>
       <path id="DejaVuSans-6e" d="M 3513 2113 
L 3513 0 
L 2938 0 
L 2938 2094 
Q 2938 2591 2744 2837 
Q 2550 3084 2163 3084 
Q 1697 3084 1428 2787 
Q 1159 2491 1159 1978 
L 1159 0 
L 581 0 
L 581 3500 
L 1159 3500 
L 1159 2956 
Q 1366 3272 1645 3428 
Q 1925 3584 2291 3584 
Q 2894 3584 3203 3211 
Q 3513 2838 3513 2113 
z
" transform="scale(0.015625)"/>
       <path id="DejaVuSans-74" d="M 1172 4494 
L 1172 3500 
L 2356 3500 
L 2356 3053 
L 1172 3053 
L 1172 1153 
Q 1172 725 1289 603 
Q 1406 481 1766 481 
L 2356 481 
L 2356 0 
L 1766 0 
Q 1100 0 847 248 
Q 594 497 594 1153 
L 594 3053 
L 172 3053 
L 172 3500 
L 594 3500 
L 594 4494 
L 1172 4494 
z
" transform="scale(0.015625)"/>
       <path id="DejaVuSans-20" transform="scale(0.015625)"/>
       <path id="DejaVuSans-2013" d="M 313 1978 
L 2888 1978 
L 2888 1528 
L 313 1528 
L 313 1978 
z
" transform="scale(0.015625)"/>
       <path id="DejaVuSans-28" d="M 1984 4856 
Q 1566 4138 1362 3434 
Q 1159 2731 1159 2009 
Q 1159 1288 1364 580 
Q 1569 -128 1984 -844 
L 1484 -844 
Q 1016 -109 783 600 
Q 550 1309 550 2009 
Q 550 2706 781 3412 
Q 1013 4119 1484 4856 
L 1984 4856 
z
" transform="scale(0.015625)"/>
       <path id="DejaVuSans-77" d="M 269 3500 
L 844 3500 
L 1563 769 
L 2278 3500 
L 2956 3500 
L 3675 769 
L 4391 3500 
L 4966 3500 
L 4050 0 
L 3372 0 
L 2619 2869 
L 1863 0 
L 1184 0 
L 269 3500 
z
" transform="scale(0.015625)"/>
       <path id="DejaVuSans-6b" d="M 581 4863 
L 1159 4863 
L 1159 1991 
L 2875 3500 
L 3609 3500 
L 1753 1863 
L 3688 0 
L 2938 0 
L 1159 1709 
L 1159 0 
L 581 0 
L 581 4863 
z
" transform="scale(0.015625)"/>
       <path id="DejaVuSans-73" d="M 2834 3397 
L 2834 2853 
Q 2591 2978 2328 3040 
Q 2066 3103 1784 3103 
Q 1356 3103 1142 2972 
Q 928 2841 928 2578 
Q 928 2378 1081 2264 
Q 1234 2150 1697 2047 
L 1894 2003 
Q 2506 1872 2764 1633 
Q 3022 1394 3022 966 
Q 3022 478 2636 193 
Q 2250 -91 1575 -91 
Q 1294 -91 989 -36 
Q 684 19 347 128 
L 347 722 
Q 666 556 975 473 
Q 1284 391 1588 391 
Q 1994 391 2212 530 
Q 2431 669 2431 922 
Q 2431 1156 2273 1281 
Q 2116 1406 1581 1522 
L 1381 1569 
Q 847 1681 609 1914 
Q 372 2147 372 2553 
Q 372 3047 722 3315 
Q 1072 3584 1716 3584 
Q 2034 3584 2315 3537 
Q 2597 3491 2834 3397 
z
" transform="scale(0.015625)"/>
       <path id="DejaVuSans-29" d="M 513 4856 
L 1013 4856 
Q 1481 4119 1714 3412 
Q 1947 2706 1947 2009 
Q 1947 1309 1714 600 
Q 1481 -109 1013 -844 
L 513 -844 
Q 928 -128 1133 580 
Q 1338 1288 1338 2009 
Q 1338 2731 1133 3434 
Q 928 4138 513 4856 
z
" transform="scale(0.015625)"/>
      </defs>
      <use xlink:href="#DejaVuSans-54"/>
      <use xlink:href="#DejaVuSans-69" x="57.958984"/>
      <use xlink:href="#DejaVuSans-6d" x="85.742188"/>
      <use xlink:href="#DejaVuSans-65" x="183.154297"/>
      <use xlink:href="#DejaVuSans-70" x="244.677734"/>
      <use xlink:href="#DejaVuSans-6f" x="308.154297"/>
      <use xlink:href="#DejaVuSans-69" x="369.335938"/>
      <use xlink:href="#DejaVuSans-6e" x="397.119141"/>
      <use xlink:href="#DejaVuSans-74" x="460.498047"/>
      <use xlink:href="#DejaVuSans-20" x="499.707031"/>
      <use xlink:href="#DejaVuSans-69" x="531.494141"/>
      <use xlink:href="#DejaVuSans-6e" x="559.277344"/>
      <use xlink:href="#DejaVuSans-20" x="622.65625"/>
      <use xlink:href="#DejaVuSans-32" x="654.443359"/>
      <use xlink:href="#DejaVuSans-30" x="718.066406"/>
      <use xlink:href="#DejaVuSans-32" x="781.689453"/>
      <use xlink:href="#DejaVuSans-31" x="845.3125"/>
      <use xlink:href="#DejaVuSans-2013" x="908.935547"/>
      <use xlink:href="#DejaVuSans-32" x="958.935547"/>
      <use xlink:href="#DejaVuSans-32" x="1022.558594"/>
      <use xlink:href="#DejaVuSans-20" x="1086.181641"/>
      <use xlink:href="#DejaVuSans-28" x="1117.96875"/>
      <use xlink:href="#DejaVuSans-77" x="1156.982422"/>
      <use xlink:href="#DejaVuSans-65" x="1238.769531"/>
      <use xlink:href="#DejaVuSans-65" x="1300.292969"/>
      <use xlink:href="#DejaVuSans-6b" x="1361.816406"/>
      <use xlink:href="#DejaVuSans-73" x="1419.726562"/>
      <use xlink:href="#DejaVuSans-29" x="1471.826172"/>
     </g>
    </g>
   </g>
   <g id="matplotlib.axis_2">
    <g id="ytick_1">
     <g id="line2d_25">
      <defs>
       <path id="m857580d391" d="M 0 0 
L -3.5 0 
" style="stroke: #000000; stroke-width: 0.8"/>
      </defs>
      <g>
       <use xlink:href="#m857580d391" x="42.49875" y="266.686181" style="stroke: #000000; stroke-width: 0.8"/>
      </g>
     </g>
     <g id="text_26">
      <!-- 0 -->
      <g transform="translate(29.454375 270.295439) scale(0.095 -0.095)">
       <use xlink:href="#DejaVuSans-30"/>
      </g>
     </g>
    </g>
    <g id="ytick_2">
     <g id="line2d_26">
      <g>
       <use xlink:href="#m857580d391" x="42.49875" y="224.040027" style="stroke: #000000; stroke-width: 0.8"/>
      </g>
     </g>
     <g id="text_27">
      <!-- 2 -->
      <g transform="translate(29.454375 227.649285) scale(0.095 -0.095)">
       <use xlink:href="#DejaVuSans-32"/>
      </g>
     </g>
    </g>
    <g id="ytick_3">
     <g id="line2d_27">
      <g>
       <use xlink:href="#m857580d391" x="42.49875" y="181.393873" style="stroke: #000000; stroke-width: 0.8"/>
      </g>
     </g>
     <g id="text_28">
      <!-- 4 -->
      <g transform="translate(29.454375 185.003131) scale(0.095 -0.095)">
       <use xlink:href="#DejaVuSans-34"/>
      </g>
     </g>
    </g>
    <g id="ytick_4">
     <g id="line2d_28">
      <g>
       <use xlink:href="#m857580d391" x="42.49875" y="138.747719" style="stroke: #000000; stroke-width: 0.8"/>
      </g>
     </g>
     <g id="text_29">
      <!-- 6 -->
      <g transform="translate(29.454375 142.356977) scale(0.095 -0.095)">
       <use xlink:href="#DejaVuSans-36"/>
      </g>
     </g>
    </g>
    <g id="ytick_5">
     <g id="line2d_29">
      <g>
       <use xlink:href="#m857580d391" x="42.49875" y="96.101566" style="stroke: #000000; stroke-width: 0.8"/>
      </g>
     </g>
     <g id="text_30">
      <!-- 8 -->
      <g transform="translate(29.454375 99.710823) scale(0.095 -0.095)">
       <use xlink:href="#DejaVuSans-38"/>
      </g>
     </g>
    </g>
    <g id="ytick_6">
     <g id="line2d_30">
      <g>
       <use xlink:href="#m857580d391" x="42.49875" y="53.455412" style="stroke: #000000; stroke-width: 0.8"/>
      </g>
     </g>
     <g id="text_31">
      <!-- 10 -->
      <g transform="translate(23.41 57.064669) scale(0.095 -0.095)">
       <use xlink:href="#DejaVuSans-31"/>
       <use xlink:href="#DejaVuSans-30" x="63.623047"/>
      </g>
     </g>
    </g>
    <g id="ytick_7">
     <g id="line2d_31">
      <g>
       <use xlink:href="#m857580d391" x="42.49875" y="10.809258" style="stroke: #000000; stroke-width: 0.8"/>
      </g>
     </g>
     <g id="text_32">
      <!-- 12 -->
      <g transform="translate(23.41 14.418516) scale(0.095 -0.095)">
       <use xlink:href="#DejaVuSans-31"/>
       <use xlink:href="#DejaVuSans-32" x="63.623047"/>
      </g>
     </g>
    </g>
    <g id="text_33">
     <!-- Weekly COVID-19 death rates (*$10^{-5}$) -->
     <g transform="translate(17.1 253.194258) rotate(-90) scale(0.11 -0.11)">
      <defs>
       <path id="DejaVuSans-57" d="M 213 4666 
L 850 4666 
L 1831 722 
L 2809 4666 
L 3519 4666 
L 4500 722 
L 5478 4666 
L 6119 4666 
L 4947 0 
L 4153 0 
L 3169 4050 
L 2175 0 
L 1381 0 
L 213 4666 
z
" transform="scale(0.015625)"/>
       <path id="DejaVuSans-6c" d="M 603 4863 
L 1178 4863 
L 1178 0 
L 603 0 
L 603 4863 
z
" transform="scale(0.015625)"/>
       <path id="DejaVuSans-79" d="M 2059 -325 
Q 1816 -950 1584 -1140 
Q 1353 -1331 966 -1331 
L 506 -1331 
L 506 -850 
L 844 -850 
Q 1081 -850 1212 -737 
Q 1344 -625 1503 -206 
L 1606 56 
L 191 3500 
L 800 3500 
L 1894 763 
L 2988 3500 
L 3597 3500 
L 2059 -325 
z
" transform="scale(0.015625)"/>
       <path id="DejaVuSans-43" d="M 4122 4306 
L 4122 3641 
Q 3803 3938 3442 4084 
Q 3081 4231 2675 4231 
Q 1875 4231 1450 3742 
Q 1025 3253 1025 2328 
Q 1025 1406 1450 917 
Q 1875 428 2675 428 
Q 3081 428 3442 575 
Q 3803 722 4122 1019 
L 4122 359 
Q 3791 134 3420 21 
Q 3050 -91 2638 -91 
Q 1578 -91 968 557 
Q 359 1206 359 2328 
Q 359 3453 968 4101 
Q 1578 4750 2638 4750 
Q 3056 4750 3426 4639 
Q 3797 4528 4122 4306 
z
" transform="scale(0.015625)"/>
       <path id="DejaVuSans-4f" d="M 2522 4238 
Q 1834 4238 1429 3725 
Q 1025 3213 1025 2328 
Q 1025 1447 1429 934 
Q 1834 422 2522 422 
Q 3209 422 3611 934 
Q 4013 1447 4013 2328 
Q 4013 3213 3611 3725 
Q 3209 4238 2522 4238 
z
M 2522 4750 
Q 3503 4750 4090 4092 
Q 4678 3434 4678 2328 
Q 4678 1225 4090 567 
Q 3503 -91 2522 -91 
Q 1538 -91 948 565 
Q 359 1222 359 2328 
Q 359 3434 948 4092 
Q 1538 4750 2522 4750 
z
" transform="scale(0.015625)"/>
       <path id="DejaVuSans-56" d="M 1831 0 
L 50 4666 
L 709 4666 
L 2188 738 
L 3669 4666 
L 4325 4666 
L 2547 0 
L 1831 0 
z
" transform="scale(0.015625)"/>
       <path id="DejaVuSans-49" d="M 628 4666 
L 1259 4666 
L 1259 0 
L 628 0 
L 628 4666 
z
" transform="scale(0.015625)"/>
       <path id="DejaVuSans-44" d="M 1259 4147 
L 1259 519 
L 2022 519 
Q 2988 519 3436 956 
Q 3884 1394 3884 2338 
Q 3884 3275 3436 3711 
Q 2988 4147 2022 4147 
L 1259 4147 
z
M 628 4666 
L 1925 4666 
Q 3281 4666 3915 4102 
Q 4550 3538 4550 2338 
Q 4550 1131 3912 565 
Q 3275 0 1925 0 
L 628 0 
L 628 4666 
z
" transform="scale(0.015625)"/>
       <path id="DejaVuSans-2d" d="M 313 2009 
L 1997 2009 
L 1997 1497 
L 313 1497 
L 313 2009 
z
" transform="scale(0.015625)"/>
       <path id="DejaVuSans-64" d="M 2906 2969 
L 2906 4863 
L 3481 4863 
L 3481 0 
L 2906 0 
L 2906 525 
Q 2725 213 2448 61 
Q 2172 -91 1784 -91 
Q 1150 -91 751 415 
Q 353 922 353 1747 
Q 353 2572 751 3078 
Q 1150 3584 1784 3584 
Q 2172 3584 2448 3432 
Q 2725 3281 2906 2969 
z
M 947 1747 
Q 947 1113 1208 752 
Q 1469 391 1925 391 
Q 2381 391 2643 752 
Q 2906 1113 2906 1747 
Q 2906 2381 2643 2742 
Q 2381 3103 1925 3103 
Q 1469 3103 1208 2742 
Q 947 2381 947 1747 
z
" transform="scale(0.015625)"/>
       <path id="DejaVuSans-61" d="M 2194 1759 
Q 1497 1759 1228 1600 
Q 959 1441 959 1056 
Q 959 750 1161 570 
Q 1363 391 1709 391 
Q 2188 391 2477 730 
Q 2766 1069 2766 1631 
L 2766 1759 
L 2194 1759 
z
M 3341 1997 
L 3341 0 
L 2766 0 
L 2766 531 
Q 2569 213 2275 61 
Q 1981 -91 1556 -91 
Q 1019 -91 701 211 
Q 384 513 384 1019 
Q 384 1609 779 1909 
Q 1175 2209 1959 2209 
L 2766 2209 
L 2766 2266 
Q 2766 2663 2505 2880 
Q 2244 3097 1772 3097 
Q 1472 3097 1187 3025 
Q 903 2953 641 2809 
L 641 3341 
Q 956 3463 1253 3523 
Q 1550 3584 1831 3584 
Q 2591 3584 2966 3190 
Q 3341 2797 3341 1997 
z
" transform="scale(0.015625)"/>
       <path id="DejaVuSans-68" d="M 3513 2113 
L 3513 0 
L 2938 0 
L 2938 2094 
Q 2938 2591 2744 2837 
Q 2550 3084 2163 3084 
Q 1697 3084 1428 2787 
Q 1159 2491 1159 1978 
L 1159 0 
L 581 0 
L 581 4863 
L 1159 4863 
L 1159 2956 
Q 1366 3272 1645 3428 
Q 1925 3584 2291 3584 
Q 2894 3584 3203 3211 
Q 3513 2838 3513 2113 
z
" transform="scale(0.015625)"/>
       <path id="DejaVuSans-72" d="M 2631 2963 
Q 2534 3019 2420 3045 
Q 2306 3072 2169 3072 
Q 1681 3072 1420 2755 
Q 1159 2438 1159 1844 
L 1159 0 
L 581 0 
L 581 3500 
L 1159 3500 
L 1159 2956 
Q 1341 3275 1631 3429 
Q 1922 3584 2338 3584 
Q 2397 3584 2469 3576 
Q 2541 3569 2628 3553 
L 2631 2963 
z
" transform="scale(0.015625)"/>
       <path id="DejaVuSans-2a" d="M 3009 3897 
L 1888 3291 
L 3009 2681 
L 2828 2375 
L 1778 3009 
L 1778 1831 
L 1422 1831 
L 1422 3009 
L 372 2375 
L 191 2681 
L 1313 3291 
L 191 3897 
L 372 4206 
L 1422 3572 
L 1422 4750 
L 1778 4750 
L 1778 3572 
L 2828 4206 
L 3009 3897 
z
" transform="scale(0.015625)"/>
       <path id="DejaVuSans-2212" d="M 678 2272 
L 4684 2272 
L 4684 1741 
L 678 1741 
L 678 2272 
z
" transform="scale(0.015625)"/>
      </defs>
      <use xlink:href="#DejaVuSans-57" transform="translate(0 0.684375)"/>
      <use xlink:href="#DejaVuSans-65" transform="translate(98.876953 0.684375)"/>
      <use xlink:href="#DejaVuSans-65" transform="translate(160.400391 0.684375)"/>
      <use xlink:href="#DejaVuSans-6b" transform="translate(221.923828 0.684375)"/>
      <use xlink:href="#DejaVuSans-6c" transform="translate(279.833984 0.684375)"/>
      <use xlink:href="#DejaVuSans-79" transform="translate(307.617188 0.684375)"/>
      <use xlink:href="#DejaVuSans-20" transform="translate(366.796875 0.684375)"/>
      <use xlink:href="#DejaVuSans-43" transform="translate(398.583984 0.684375)"/>
      <use xlink:href="#DejaVuSans-4f" transform="translate(468.408203 0.684375)"/>
      <use xlink:href="#DejaVuSans-56" transform="translate(547.119141 0.684375)"/>
      <use xlink:href="#DejaVuSans-49" transform="translate(615.527344 0.684375)"/>
      <use xlink:href="#DejaVuSans-44" transform="translate(645.019531 0.684375)"/>
      <use xlink:href="#DejaVuSans-2d" transform="translate(722.021484 0.684375)"/>
      <use xlink:href="#DejaVuSans-31" transform="translate(758.105469 0.684375)"/>
      <use xlink:href="#DejaVuSans-39" transform="translate(821.728516 0.684375)"/>
      <use xlink:href="#DejaVuSans-20" transform="translate(885.351562 0.684375)"/>
      <use xlink:href="#DejaVuSans-64" transform="translate(917.138672 0.684375)"/>
      <use xlink:href="#DejaVuSans-65" transform="translate(980.615234 0.684375)"/>
      <use xlink:href="#DejaVuSans-61" transform="translate(1042.138672 0.684375)"/>
      <use xlink:href="#DejaVuSans-74" transform="translate(1103.417969 0.684375)"/>
      <use xlink:href="#DejaVuSans-68" transform="translate(1142.626953 0.684375)"/>
      <use xlink:href="#DejaVuSans-20" transform="translate(1206.005859 0.684375)"/>
      <use xlink:href="#DejaVuSans-72" transform="translate(1237.792969 0.684375)"/>
      <use xlink:href="#DejaVuSans-61" transform="translate(1278.90625 0.684375)"/>
      <use xlink:href="#DejaVuSans-74" transform="translate(1340.185547 0.684375)"/>
      <use xlink:href="#DejaVuSans-65" transform="translate(1379.394531 0.684375)"/>
      <use xlink:href="#DejaVuSans-73" transform="translate(1440.917969 0.684375)"/>
      <use xlink:href="#DejaVuSans-20" transform="translate(1493.017578 0.684375)"/>
      <use xlink:href="#DejaVuSans-28" transform="translate(1524.804688 0.684375)"/>
      <use xlink:href="#DejaVuSans-2a" transform="translate(1563.818359 0.684375)"/>
      <use xlink:href="#DejaVuSans-31" transform="translate(1613.818359 0.684375)"/>
      <use xlink:href="#DejaVuSans-30" transform="translate(1677.441406 0.684375)"/>
      <use xlink:href="#DejaVuSans-2212" transform="translate(1742.021484 38.965625) scale(0.7)"/>
      <use xlink:href="#DejaVuSans-35" transform="translate(1800.673828 38.965625) scale(0.7)"/>
      <use xlink:href="#DejaVuSans-29" transform="translate(1847.944336 0.684375)"/>
     </g>
    </g>
   </g>
   <g id="line2d_32">
    <path d="M 61.775114 248.971791 
L 69.977822 261.780275 
L 78.180529 258.453452 
L 86.383237 254.358443 
L 94.585945 258.998233 
L 102.788653 259.737683 
L 110.991361 260.384052 
L 119.194069 256.297186 
L 127.396777 255.979836 
L 135.599485 255.66832 
L 143.802193 260.031964 
L 152.004901 261.312313 
L 160.207609 259.822711 
L 168.410317 265.017766 
L 176.613025 263.418285 
L 184.815733 266.686181 
L 193.018441 265.881488 
L 201.221148 261.8609 
L 209.423856 265.88077 
L 217.626564 261.019188 
L 225.829272 255.225427 
L 234.03198 219.860899 
L 242.234688 189.322334 
L 250.437396 116.352234 
L 258.640104 38.27455 
L 266.842812 101.744789 
L 275.04552 150.940571 
L 283.248228 132.142022 
L 291.450936 192.591795 
L 299.653644 217.089245 
L 307.856352 187.93048 
L 316.059059 205.263398 
L 324.261767 221.656748 
L 332.464475 166.278469 
L 340.667183 164.496418 
L 348.869891 181.208967 
L 357.072599 205.573997 
L 365.275307 198.777962 
L 373.478015 182.799808 
L 381.680723 196.829437 
L 389.883431 150.470111 
L 398.086139 174.645966 
L 406.288847 209.849163 
L 414.491555 183.165755 
L 422.694263 192.927221 
L 430.896971 176.414471 
L 439.099678 175.935284 
L 447.302386 170.225186 
" clip-path="url(#p87a9e4c8ed)" style="fill: none; stroke: #ff0000; stroke-width: 1.5; stroke-linecap: square"/>
    <defs>
     <path id="m8664eb7cbf" d="M 0 1.5 
C 0.397805 1.5 0.77937 1.341951 1.06066 1.06066 
C 1.341951 0.77937 1.5 0.397805 1.5 0 
C 1.5 -0.397805 1.341951 -0.77937 1.06066 -1.06066 
C 0.77937 -1.341951 0.397805 -1.5 0 -1.5 
C -0.397805 -1.5 -0.77937 -1.341951 -1.06066 -1.06066 
C -1.341951 -0.77937 -1.5 -0.397805 -1.5 0 
C -1.5 0.397805 -1.341951 0.77937 -1.06066 1.06066 
C -0.77937 1.341951 -0.397805 1.5 0 1.5 
z
" style="stroke: #ff0000"/>
    </defs>
    <g clip-path="url(#p87a9e4c8ed)">
     <use xlink:href="#m8664eb7cbf" x="61.775114" y="248.971791" style="fill: #ff0000; stroke: #ff0000"/>
     <use xlink:href="#m8664eb7cbf" x="69.977822" y="261.780275" style="fill: #ff0000; stroke: #ff0000"/>
     <use xlink:href="#m8664eb7cbf" x="78.180529" y="258.453452" style="fill: #ff0000; stroke: #ff0000"/>
     <use xlink:href="#m8664eb7cbf" x="86.383237" y="254.358443" style="fill: #ff0000; stroke: #ff0000"/>
     <use xlink:href="#m8664eb7cbf" x="94.585945" y="258.998233" style="fill: #ff0000; stroke: #ff0000"/>
     <use xlink:href="#m8664eb7cbf" x="102.788653" y="259.737683" style="fill: #ff0000; stroke: #ff0000"/>
     <use xlink:href="#m8664eb7cbf" x="110.991361" y="260.384052" style="fill: #ff0000; stroke: #ff0000"/>
     <use xlink:href="#m8664eb7cbf" x="119.194069" y="256.297186" style="fill: #ff0000; stroke: #ff0000"/>
     <use xlink:href="#m8664eb7cbf" x="127.396777" y="255.979836" style="fill: #ff0000; stroke: #ff0000"/>
     <use xlink:href="#m8664eb7cbf" x="135.599485" y="255.66832" style="fill: #ff0000; stroke: #ff0000"/>
     <use xlink:href="#m8664eb7cbf" x="143.802193" y="260.031964" style="fill: #ff0000; stroke: #ff0000"/>
     <use xlink:href="#m8664eb7cbf" x="152.004901" y="261.312313" style="fill: #ff0000; stroke: #ff0000"/>
     <use xlink:href="#m8664eb7cbf" x="160.207609" y="259.822711" style="fill: #ff0000; stroke: #ff0000"/>
     <use xlink:href="#m8664eb7cbf" x="168.410317" y="265.017766" style="fill: #ff0000; stroke: #ff0000"/>
     <use xlink:href="#m8664eb7cbf" x="176.613025" y="263.418285" style="fill: #ff0000; stroke: #ff0000"/>
     <use xlink:href="#m8664eb7cbf" x="184.815733" y="266.686181" style="fill: #ff0000; stroke: #ff0000"/>
     <use xlink:href="#m8664eb7cbf" x="193.018441" y="265.881488" style="fill: #ff0000; stroke: #ff0000"/>
     <use xlink:href="#m8664eb7cbf" x="201.221148" y="261.8609" style="fill: #ff0000; stroke: #ff0000"/>
     <use xlink:href="#m8664eb7cbf" x="209.423856" y="265.88077" style="fill: #ff0000; stroke: #ff0000"/>
     <use xlink:href="#m8664eb7cbf" x="217.626564" y="261.019188" style="fill: #ff0000; stroke: #ff0000"/>
     <use xlink:href="#m8664eb7cbf" x="225.829272" y="255.225427" style="fill: #ff0000; stroke: #ff0000"/>
     <use xlink:href="#m8664eb7cbf" x="234.03198" y="219.860899" style="fill: #ff0000; stroke: #ff0000"/>
     <use xlink:href="#m8664eb7cbf" x="242.234688" y="189.322334" style="fill: #ff0000; stroke: #ff0000"/>
     <use xlink:href="#m8664eb7cbf" x="250.437396" y="116.352234" style="fill: #ff0000; stroke: #ff0000"/>
     <use xlink:href="#m8664eb7cbf" x="258.640104" y="38.27455" style="fill: #ff0000; stroke: #ff0000"/>
     <use xlink:href="#m8664eb7cbf" x="266.842812" y="101.744789" style="fill: #ff0000; stroke: #ff0000"/>
     <use xlink:href="#m8664eb7cbf" x="275.04552" y="150.940571" style="fill: #ff0000; stroke: #ff0000"/>
     <use xlink:href="#m8664eb7cbf" x="283.248228" y="132.142022" style="fill: #ff0000; stroke: #ff0000"/>
     <use xlink:href="#m8664eb7cbf" x="291.450936" y="192.591795" style="fill: #ff0000; stroke: #ff0000"/>
     <use xlink:href="#m8664eb7cbf" x="299.653644" y="217.089245" style="fill: #ff0000; stroke: #ff0000"/>
     <use xlink:href="#m8664eb7cbf" x="307.856352" y="187.93048" style="fill: #ff0000; stroke: #ff0000"/>
     <use xlink:href="#m8664eb7cbf" x="316.059059" y="205.263398" style="fill: #ff0000; stroke: #ff0000"/>
     <use xlink:href="#m8664eb7cbf" x="324.261767" y="221.656748" style="fill: #ff0000; stroke: #ff0000"/>
     <use xlink:href="#m8664eb7cbf" x="332.464475" y="166.278469" style="fill: #ff0000; stroke: #ff0000"/>
     <use xlink:href="#m8664eb7cbf" x="340.667183" y="164.496418" style="fill: #ff0000; stroke: #ff0000"/>
     <use xlink:href="#m8664eb7cbf" x="348.869891" y="181.208967" style="fill: #ff0000; stroke: #ff0000"/>
     <use xlink:href="#m8664eb7cbf" x="357.072599" y="205.573997" style="fill: #ff0000; stroke: #ff0000"/>
     <use xlink:href="#m8664eb7cbf" x="365.275307" y="198.777962" style="fill: #ff0000; stroke: #ff0000"/>
     <use xlink:href="#m8664eb7cbf" x="373.478015" y="182.799808" style="fill: #ff0000; stroke: #ff0000"/>
     <use xlink:href="#m8664eb7cbf" x="381.680723" y="196.829437" style="fill: #ff0000; stroke: #ff0000"/>
     <use xlink:href="#m8664eb7cbf" x="389.883431" y="150.470111" style="fill: #ff0000; stroke: #ff0000"/>
     <use xlink:href="#m8664eb7cbf" x="398.086139" y="174.645966" style="fill: #ff0000; stroke: #ff0000"/>
     <use xlink:href="#m8664eb7cbf" x="406.288847" y="209.849163" style="fill: #ff0000; stroke: #ff0000"/>
     <use xlink:href="#m8664eb7cbf" x="414.491555" y="183.165755" style="fill: #ff0000; stroke: #ff0000"/>
     <use xlink:href="#m8664eb7cbf" x="422.694263" y="192.927221" style="fill: #ff0000; stroke: #ff0000"/>
     <use xlink:href="#m8664eb7cbf" x="430.896971" y="176.414471" style="fill: #ff0000; stroke: #ff0000"/>
     <use xlink:href="#m8664eb7cbf" x="439.099678" y="175.935284" style="fill: #ff0000; stroke: #ff0000"/>
     <use xlink:href="#m8664eb7cbf" x="447.302386" y="170.225186" style="fill: #ff0000; stroke: #ff0000"/>
    </g>
   </g>
   <g id="line2d_33">
    <path d="M 61.775114 248.971791 
L 69.977822 261.780275 
L 78.180529 258.453452 
L 86.383237 254.358443 
L 94.585945 258.998233 
L 102.788653 260.188535 
L 110.991361 261.48108 
L 119.194069 258.588623 
L 127.396777 258.738104 
L 135.599485 257.286909 
L 143.802193 262.7531 
L 152.004901 263.299827 
L 160.207609 263.317044 
L 168.410317 266.686181 
L 176.613025 265.951052 
L 184.815733 266.686181 
L 193.018441 265.852305 
L 201.221148 264.524024 
L 209.423856 266.686181 
L 217.626564 260.733993 
L 225.829272 260.957502 
L 234.03198 237.086143 
L 242.234688 229.067425 
L 250.437396 171.960147 
L 258.640104 140.054853 
L 266.842812 150.490484 
L 275.04552 223.989078 
L 283.248228 188.880321 
L 291.450936 211.732126 
L 299.653644 230.086328 
L 307.856352 201.986559 
L 316.059059 232.642331 
L 324.261767 232.094418 
L 332.464475 206.176356 
L 340.667183 200.058354 
L 348.869891 245.586614 
L 357.072599 261.414673 
L 365.275307 238.039155 
L 373.478015 251.586989 
L 381.680723 252.981816 
L 389.883431 202.667021 
L 398.086139 230.31392 
L 406.288847 266.686181 
L 414.491555 240.419991 
L 422.694263 190.145671 
L 430.896971 253.413511 
L 439.099678 266.686181 
L 447.302386 256.192486 
" clip-path="url(#p87a9e4c8ed)" style="fill: none; stroke: #808080; stroke-width: 1.5; stroke-linecap: square"/>
    <defs>
     <path id="m3f60b6efde" d="M 0 1.5 
C 0.397805 1.5 0.77937 1.341951 1.06066 1.06066 
C 1.341951 0.77937 1.5 0.397805 1.5 0 
C 1.5 -0.397805 1.341951 -0.77937 1.06066 -1.06066 
C 0.77937 -1.341951 0.397805 -1.5 0 -1.5 
C -0.397805 -1.5 -0.77937 -1.341951 -1.06066 -1.06066 
C -1.341951 -0.77937 -1.5 -0.397805 -1.5 0 
C -1.5 0.397805 -1.341951 0.77937 -1.06066 1.06066 
C -0.77937 1.341951 -0.397805 1.5 0 1.5 
z
" style="stroke: #808080"/>
    </defs>
    <g clip-path="url(#p87a9e4c8ed)">
     <use xlink:href="#m3f60b6efde" x="61.775114" y="248.971791" style="fill: #808080; stroke: #808080"/>
     <use xlink:href="#m3f60b6efde" x="69.977822" y="261.780275" style="fill: #808080; stroke: #808080"/>
     <use xlink:href="#m3f60b6efde" x="78.180529" y="258.453452" style="fill: #808080; stroke: #808080"/>
     <use xlink:href="#m3f60b6efde" x="86.383237" y="254.358443" style="fill: #808080; stroke: #808080"/>
     <use xlink:href="#m3f60b6efde" x="94.585945" y="258.998233" style="fill: #808080; stroke: #808080"/>
     <use xlink:href="#m3f60b6efde" x="102.788653" y="260.188535" style="fill: #808080; stroke: #808080"/>
     <use xlink:href="#m3f60b6efde" x="110.991361" y="261.48108" style="fill: #808080; stroke: #808080"/>
     <use xlink:href="#m3f60b6efde" x="119.194069" y="258.588623" style="fill: #808080; stroke: #808080"/>
     <use xlink:href="#m3f60b6efde" x="127.396777" y="258.738104" style="fill: #808080; stroke: #808080"/>
     <use xlink:href="#m3f60b6efde" x="135.599485" y="257.286909" style="fill: #808080; stroke: #808080"/>
     <use xlink:href="#m3f60b6efde" x="143.802193" y="262.7531" style="fill: #808080; stroke: #808080"/>
     <use xlink:href="#m3f60b6efde" x="152.004901" y="263.299827" style="fill: #808080; stroke: #808080"/>
     <use xlink:href="#m3f60b6efde" x="160.207609" y="263.317044" style="fill: #808080; stroke: #808080"/>
     <use xlink:href="#m3f60b6efde" x="168.410317" y="266.686181" style="fill: #808080; stroke: #808080"/>
     <use xlink:href="#m3f60b6efde" x="176.613025" y="265.951052" style="fill: #808080; stroke: #808080"/>
     <use xlink:href="#m3f60b6efde" x="184.815733" y="266.686181" style="fill: #808080; stroke: #808080"/>
     <use xlink:href="#m3f60b6efde" x="193.018441" y="265.852305" style="fill: #808080; stroke: #808080"/>
     <use xlink:href="#m3f60b6efde" x="201.221148" y="264.524024" style="fill: #808080; stroke: #808080"/>
     <use xlink:href="#m3f60b6efde" x="209.423856" y="266.686181" style="fill: #808080; stroke: #808080"/>
     <use xlink:href="#m3f60b6efde" x="217.626564" y="260.733993" style="fill: #808080; stroke: #808080"/>
     <use xlink:href="#m3f60b6efde" x="225.829272" y="260.957502" style="fill: #808080; stroke: #808080"/>
     <use xlink:href="#m3f60b6efde" x="234.03198" y="237.086143" style="fill: #808080; stroke: #808080"/>
     <use xlink:href="#m3f60b6efde" x="242.234688" y="229.067425" style="fill: #808080; stroke: #808080"/>
     <use xlink:href="#m3f60b6efde" x="250.437396" y="171.960147" style="fill: #808080; stroke: #808080"/>
     <use xlink:href="#m3f60b6efde" x="258.640104" y="140.054853" style="fill: #808080; stroke: #808080"/>
     <use xlink:href="#m3f60b6efde" x="266.842812" y="150.490484" style="fill: #808080; stroke: #808080"/>
     <use xlink:href="#m3f60b6efde" x="275.04552" y="223.989078" style="fill: #808080; stroke: #808080"/>
     <use xlink:href="#m3f60b6efde" x="283.248228" y="188.880321" style="fill: #808080; stroke: #808080"/>
     <use xlink:href="#m3f60b6efde" x="291.450936" y="211.732126" style="fill: #808080; stroke: #808080"/>
     <use xlink:href="#m3f60b6efde" x="299.653644" y="230.086328" style="fill: #808080; stroke: #808080"/>
     <use xlink:href="#m3f60b6efde" x="307.856352" y="201.986559" style="fill: #808080; stroke: #808080"/>
     <use xlink:href="#m3f60b6efde" x="316.059059" y="232.642331" style="fill: #808080; stroke: #808080"/>
     <use xlink:href="#m3f60b6efde" x="324.261767" y="232.094418" style="fill: #808080; stroke: #808080"/>
     <use xlink:href="#m3f60b6efde" x="332.464475" y="206.176356" style="fill: #808080; stroke: #808080"/>
     <use xlink:href="#m3f60b6efde" x="340.667183" y="200.058354" style="fill: #808080; stroke: #808080"/>
     <use xlink:href="#m3f60b6efde" x="348.869891" y="245.586614" style="fill: #808080; stroke: #808080"/>
     <use xlink:href="#m3f60b6efde" x="357.072599" y="261.414673" style="fill: #808080; stroke: #808080"/>
     <use xlink:href="#m3f60b6efde" x="365.275307" y="238.039155" style="fill: #808080; stroke: #808080"/>
     <use xlink:href="#m3f60b6efde" x="373.478015" y="251.586989" style="fill: #808080; stroke: #808080"/>
     <use xlink:href="#m3f60b6efde" x="381.680723" y="252.981816" style="fill: #808080; stroke: #808080"/>
     <use xlink:href="#m3f60b6efde" x="389.883431" y="202.667021" style="fill: #808080; stroke: #808080"/>
     <use xlink:href="#m3f60b6efde" x="398.086139" y="230.31392" style="fill: #808080; stroke: #808080"/>
     <use xlink:href="#m3f60b6efde" x="406.288847" y="266.686181" style="fill: #808080; stroke: #808080"/>
     <use xlink:href="#m3f60b6efde" x="414.491555" y="240.419991" style="fill: #808080; stroke: #808080"/>
     <use xlink:href="#m3f60b6efde" x="422.694263" y="190.145671" style="fill: #808080; stroke: #808080"/>
     <use xlink:href="#m3f60b6efde" x="430.896971" y="253.413511" style="fill: #808080; stroke: #808080"/>
     <use xlink:href="#m3f60b6efde" x="439.099678" y="266.686181" style="fill: #808080; stroke: #808080"/>
     <use xlink:href="#m3f60b6efde" x="447.302386" y="256.192486" style="fill: #808080; stroke: #808080"/>
    </g>
   </g>
   <g id="patch_3">
    <path d="M 42.49875 288.009258 
L 42.49875 10.809258 
" style="fill: none; stroke: #000000; stroke-width: 0.8; stroke-linejoin: miter; stroke-linecap: square"/>
   </g>
   <g id="patch_4">
    <path d="M 42.49875 288.009258 
L 466.57875 288.009258 
" style="fill: none; stroke: #000000; stroke-width: 0.8; stroke-linejoin: miter; stroke-linecap: square"/>
   </g>
   <g id="legend_1">
    <g id="line2d_34">
     <path d="M 407.67875 23.252773 
L 417.17875 23.252773 
L 426.67875 23.252773 
" style="fill: none; stroke: #ff0000; stroke-width: 1.5; stroke-linecap: square"/>
     <g>
      <use xlink:href="#m8664eb7cbf" x="417.17875" y="23.252773" style="fill: #ff0000; stroke: #ff0000"/>
     </g>
    </g>
    <g id="text_34">
     <!-- r$_2$($t$) -->
     <g transform="translate(434.27875 26.577773) scale(0.095 -0.095)">
      <defs>
       <path id="DejaVuSans-Oblique-74" d="M 2706 3500 
L 2619 3053 
L 1472 3053 
L 1100 1153 
Q 1081 1047 1072 975 
Q 1063 903 1063 863 
Q 1063 663 1183 572 
Q 1303 481 1569 481 
L 2150 481 
L 2053 0 
L 1503 0 
Q 991 0 739 200 
Q 488 400 488 806 
Q 488 878 497 964 
Q 506 1050 525 1153 
L 897 3053 
L 409 3053 
L 500 3500 
L 978 3500 
L 1172 4494 
L 1747 4494 
L 1556 3500 
L 2706 3500 
z
" transform="scale(0.015625)"/>
      </defs>
      <use xlink:href="#DejaVuSans-72" transform="translate(0 0.125)"/>
      <use xlink:href="#DejaVuSans-32" transform="translate(42.070312 -16.28125) scale(0.7)"/>
      <use xlink:href="#DejaVuSans-28" transform="translate(89.34082 0.125)"/>
      <use xlink:href="#DejaVuSans-Oblique-74" transform="translate(128.354492 0.125)"/>
      <use xlink:href="#DejaVuSans-29" transform="translate(167.563477 0.125)"/>
     </g>
    </g>
    <g id="line2d_35">
     <path d="M 407.67875 37.196992 
L 417.17875 37.196992 
L 426.67875 37.196992 
" style="fill: none; stroke: #808080; stroke-width: 1.5; stroke-linecap: square"/>
     <g>
      <use xlink:href="#m3f60b6efde" x="417.17875" y="37.196992" style="fill: #808080; stroke: #808080"/>
     </g>
    </g>
    <g id="text_35">
     <!-- r$_{2a}$($t$) -->
     <g transform="translate(434.27875 40.521992) scale(0.095 -0.095)">
      <defs>
       <path id="DejaVuSans-Oblique-61" d="M 3438 1997 
L 3047 0 
L 2472 0 
L 2578 531 
Q 2325 219 2001 64 
Q 1678 -91 1281 -91 
Q 834 -91 548 182 
Q 263 456 263 884 
Q 263 1497 752 1853 
Q 1241 2209 2100 2209 
L 2900 2209 
L 2931 2363 
Q 2938 2388 2941 2417 
Q 2944 2447 2944 2509 
Q 2944 2788 2717 2942 
Q 2491 3097 2081 3097 
Q 1800 3097 1504 3025 
Q 1209 2953 897 2809 
L 997 3341 
Q 1322 3463 1633 3523 
Q 1944 3584 2234 3584 
Q 2853 3584 3176 3315 
Q 3500 3047 3500 2534 
Q 3500 2431 3484 2292 
Q 3469 2153 3438 1997 
z
M 2816 1759 
L 2241 1759 
Q 1534 1759 1195 1570 
Q 856 1381 856 984 
Q 856 709 1029 553 
Q 1203 397 1509 397 
Q 1978 397 2328 733 
Q 2678 1069 2791 1631 
L 2816 1759 
z
" transform="scale(0.015625)"/>
      </defs>
      <use xlink:href="#DejaVuSans-72" transform="translate(0 0.125)"/>
      <use xlink:href="#DejaVuSans-32" transform="translate(42.070312 -16.28125) scale(0.7)"/>
      <use xlink:href="#DejaVuSans-Oblique-61" transform="translate(86.606445 -16.28125) scale(0.7)"/>
      <use xlink:href="#DejaVuSans-28" transform="translate(132.236328 0.125)"/>
      <use xlink:href="#DejaVuSans-Oblique-74" transform="translate(171.25 0.125)"/>
      <use xlink:href="#DejaVuSans-29" transform="translate(210.458984 0.125)"/>
     </g>
    </g>
   </g>
  </g>
 </g>
 <defs>
  <clipPath id="p87a9e4c8ed">
   <rect x="42.49875" y="10.809258" width="424.08" height="277.2"/>
  </clipPath>
 </defs>
</svg>
