<?xml version="1.0" encoding="utf-8" standalone="no"?>
<!DOCTYPE svg PUBLIC "-//W3C//DTD SVG 1.1//EN"
  "http://www.w3.org/Graphics/SVG/1.1/DTD/svg11.dtd">
<svg xmlns:xlink="http://www.w3.org/1999/xlink" width="670.855625pt" height="430.858792pt" viewBox="0 0 670.855625 430.858792" xmlns="http://www.w3.org/2000/svg" version="1.1">
 <metadata>
  <rdf:RDF xmlns:dc="http://purl.org/dc/elements/1.1/" xmlns:cc="http://creativecommons.org/ns#" xmlns:rdf="http://www.w3.org/1999/02/22-rdf-syntax-ns#">
   <cc:Work>
    <dc:type rdf:resource="http://purl.org/dc/dcmitype/StillImage"/>
    <dc:date>2024-01-31T16:37:38.290692</dc:date>
    <dc:format>image/svg+xml</dc:format>
    <dc:creator>
     <cc:Agent>
      <dc:title>Matplotlib v3.6.3, https://matplotlib.org/</dc:title>
     </cc:Agent>
    </dc:creator>
   </cc:Work>
  </rdf:RDF>
 </metadata>
 <defs>
  <style type="text/css">*{stroke-linejoin: round; stroke-linecap: butt}</style>
 </defs>
 <g id="figure_1">
  <g id="patch_1">
   <path d="M 0 430.858792 
L 670.855625 430.858792 
L 670.855625 0 
L 0 0 
z
" style="fill: #ffffff"/>
  </g>
  <g id="axes_1">
   <g id="patch_2">
    <path d="M 49.855625 367.56 
L 663.655625 367.56 
L 663.655625 7.2 
L 49.855625 7.2 
z
" style="fill: #ffffff"/>
   </g>
   <g id="patch_3">
    <path d="M 77.755625 367.56 
L 91.041339 367.56 
L 91.041339 366.544615 
L 77.755625 366.544615 
z
" clip-path="url(#p1080a7839e)" style="fill: #9ecbe2"/>
   </g>
   <g id="patch_4">
    <path d="M 122.041339 367.56 
L 135.327054 367.56 
L 135.327054 364.513846 
L 122.041339 364.513846 
z
" clip-path="url(#p1080a7839e)" style="fill: #9ecbe2"/>
   </g>
   <g id="patch_5">
    <path d="M 166.327054 367.56 
L 179.612768 367.56 
L 179.612768 367.56 
L 166.327054 367.56 
z
" clip-path="url(#p1080a7839e)" style="fill: #9ecbe2"/>
   </g>
   <g id="patch_6">
    <path d="M 210.612768 367.56 
L 223.898482 367.56 
L 223.898482 364.513846 
L 210.612768 364.513846 
z
" clip-path="url(#p1080a7839e)" style="fill: #9ecbe2"/>
   </g>
   <g id="patch_7">
    <path d="M 254.898482 367.56 
L 268.184196 367.56 
L 268.184196 366.544615 
L 254.898482 366.544615 
z
" clip-path="url(#p1080a7839e)" style="fill: #9ecbe2"/>
   </g>
   <g id="patch_8">
    <path d="M 299.184196 367.56 
L 312.469911 367.56 
L 312.469911 366.544615 
L 299.184196 366.544615 
z
" clip-path="url(#p1080a7839e)" style="fill: #9ecbe2"/>
   </g>
   <g id="patch_9">
    <path d="M 343.469911 367.56 
L 356.755625 367.56 
L 356.755625 364.513846 
L 343.469911 364.513846 
z
" clip-path="url(#p1080a7839e)" style="fill: #9ecbe2"/>
   </g>
   <g id="patch_10">
    <path d="M 387.755625 367.56 
L 401.041339 367.56 
L 401.041339 358.421538 
L 387.755625 358.421538 
z
" clip-path="url(#p1080a7839e)" style="fill: #9ecbe2"/>
   </g>
   <g id="patch_11">
    <path d="M 432.041339 367.56 
L 445.327054 367.56 
L 445.327054 345.221538 
L 432.041339 345.221538 
z
" clip-path="url(#p1080a7839e)" style="fill: #9ecbe2"/>
   </g>
   <g id="patch_12">
    <path d="M 476.327054 367.56 
L 489.612768 367.56 
L 489.612768 340.144615 
L 476.327054 340.144615 
z
" clip-path="url(#p1080a7839e)" style="fill: #9ecbe2"/>
   </g>
   <g id="patch_13">
    <path d="M 520.612768 367.56 
L 533.898482 367.56 
L 533.898482 326.944615 
L 520.612768 326.944615 
z
" clip-path="url(#p1080a7839e)" style="fill: #9ecbe2"/>
   </g>
   <g id="patch_14">
    <path d="M 564.898482 367.56 
L 578.184196 367.56 
L 578.184196 342.175385 
L 564.898482 342.175385 
z
" clip-path="url(#p1080a7839e)" style="fill: #9ecbe2"/>
   </g>
   <g id="patch_15">
    <path d="M 609.184196 367.56 
L 622.469911 367.56 
L 622.469911 337.098462 
L 609.184196 337.098462 
z
" clip-path="url(#p1080a7839e)" style="fill: #9ecbe2"/>
   </g>
   <g id="patch_16">
    <path d="M 77.755625 366.544615 
L 91.041339 366.544615 
L 91.041339 365.529231 
L 77.755625 365.529231 
z
" clip-path="url(#p1080a7839e)" style="fill: #6bafd6"/>
   </g>
   <g id="patch_17">
    <path d="M 122.041339 364.513846 
L 135.327054 364.513846 
L 135.327054 364.513846 
L 122.041339 364.513846 
z
" clip-path="url(#p1080a7839e)" style="fill: #6bafd6"/>
   </g>
   <g id="patch_18">
    <path d="M 166.327054 367.56 
L 179.612768 367.56 
L 179.612768 367.56 
L 166.327054 367.56 
z
" clip-path="url(#p1080a7839e)" style="fill: #6bafd6"/>
   </g>
   <g id="patch_19">
    <path d="M 210.612768 364.513846 
L 223.898482 364.513846 
L 223.898482 363.498462 
L 210.612768 363.498462 
z
" clip-path="url(#p1080a7839e)" style="fill: #6bafd6"/>
   </g>
   <g id="patch_20">
    <path d="M 254.898482 366.544615 
L 268.184196 366.544615 
L 268.184196 365.529231 
L 254.898482 365.529231 
z
" clip-path="url(#p1080a7839e)" style="fill: #6bafd6"/>
   </g>
   <g id="patch_21">
    <path d="M 299.184196 366.544615 
L 312.469911 366.544615 
L 312.469911 366.544615 
L 299.184196 366.544615 
z
" clip-path="url(#p1080a7839e)" style="fill: #6bafd6"/>
   </g>
   <g id="patch_22">
    <path d="M 343.469911 364.513846 
L 356.755625 364.513846 
L 356.755625 363.498462 
L 343.469911 363.498462 
z
" clip-path="url(#p1080a7839e)" style="fill: #6bafd6"/>
   </g>
   <g id="patch_23">
    <path d="M 387.755625 358.421538 
L 401.041339 358.421538 
L 401.041339 358.421538 
L 387.755625 358.421538 
z
" clip-path="url(#p1080a7839e)" style="fill: #6bafd6"/>
   </g>
   <g id="patch_24">
    <path d="M 432.041339 345.221538 
L 445.327054 345.221538 
L 445.327054 343.190769 
L 432.041339 343.190769 
z
" clip-path="url(#p1080a7839e)" style="fill: #6bafd6"/>
   </g>
   <g id="patch_25">
    <path d="M 476.327054 340.144615 
L 489.612768 340.144615 
L 489.612768 336.083077 
L 476.327054 336.083077 
z
" clip-path="url(#p1080a7839e)" style="fill: #6bafd6"/>
   </g>
   <g id="patch_26">
    <path d="M 520.612768 326.944615 
L 533.898482 326.944615 
L 533.898482 321.867692 
L 520.612768 321.867692 
z
" clip-path="url(#p1080a7839e)" style="fill: #6bafd6"/>
   </g>
   <g id="patch_27">
    <path d="M 564.898482 342.175385 
L 578.184196 342.175385 
L 578.184196 339.129231 
L 564.898482 339.129231 
z
" clip-path="url(#p1080a7839e)" style="fill: #6bafd6"/>
   </g>
   <g id="patch_28">
    <path d="M 609.184196 337.098462 
L 622.469911 337.098462 
L 622.469911 335.067692 
L 609.184196 335.067692 
z
" clip-path="url(#p1080a7839e)" style="fill: #6bafd6"/>
   </g>
   <g id="patch_29">
    <path d="M 77.755625 365.529231 
L 91.041339 365.529231 
L 91.041339 361.467692 
L 77.755625 361.467692 
z
" clip-path="url(#p1080a7839e)" style="fill: #2271b6"/>
   </g>
   <g id="patch_30">
    <path d="M 122.041339 364.513846 
L 135.327054 364.513846 
L 135.327054 364.513846 
L 122.041339 364.513846 
z
" clip-path="url(#p1080a7839e)" style="fill: #2271b6"/>
   </g>
   <g id="patch_31">
    <path d="M 166.327054 367.56 
L 179.612768 367.56 
L 179.612768 367.56 
L 166.327054 367.56 
z
" clip-path="url(#p1080a7839e)" style="fill: #2271b6"/>
   </g>
   <g id="patch_32">
    <path d="M 210.612768 363.498462 
L 223.898482 363.498462 
L 223.898482 359.436923 
L 210.612768 359.436923 
z
" clip-path="url(#p1080a7839e)" style="fill: #2271b6"/>
   </g>
   <g id="patch_33">
    <path d="M 254.898482 365.529231 
L 268.184196 365.529231 
L 268.184196 364.513846 
L 254.898482 364.513846 
z
" clip-path="url(#p1080a7839e)" style="fill: #2271b6"/>
   </g>
   <g id="patch_34">
    <path d="M 299.184196 366.544615 
L 312.469911 366.544615 
L 312.469911 360.452308 
L 299.184196 360.452308 
z
" clip-path="url(#p1080a7839e)" style="fill: #2271b6"/>
   </g>
   <g id="patch_35">
    <path d="M 343.469911 363.498462 
L 356.755625 363.498462 
L 356.755625 351.313846 
L 343.469911 351.313846 
z
" clip-path="url(#p1080a7839e)" style="fill: #2271b6"/>
   </g>
   <g id="patch_36">
    <path d="M 387.755625 358.421538 
L 401.041339 358.421538 
L 401.041339 319.836923 
L 387.755625 319.836923 
z
" clip-path="url(#p1080a7839e)" style="fill: #2271b6"/>
   </g>
   <g id="patch_37">
    <path d="M 432.041339 343.190769 
L 445.327054 343.190769 
L 445.327054 270.083077 
L 432.041339 270.083077 
z
" clip-path="url(#p1080a7839e)" style="fill: #2271b6"/>
   </g>
   <g id="patch_38">
    <path d="M 476.327054 336.083077 
L 489.612768 336.083077 
L 489.612768 210.175385 
L 476.327054 210.175385 
z
" clip-path="url(#p1080a7839e)" style="fill: #2271b6"/>
   </g>
   <g id="patch_39">
    <path d="M 520.612768 321.867692 
L 533.898482 321.867692 
L 533.898482 168.544615 
L 520.612768 168.544615 
z
" clip-path="url(#p1080a7839e)" style="fill: #2271b6"/>
   </g>
   <g id="patch_40">
    <path d="M 564.898482 339.129231 
L 578.184196 339.129231 
L 578.184196 224.390769 
L 564.898482 224.390769 
z
" clip-path="url(#p1080a7839e)" style="fill: #2271b6"/>
   </g>
   <g id="patch_41">
    <path d="M 609.184196 335.067692 
L 622.469911 335.067692 
L 622.469911 269.067692 
L 609.184196 269.067692 
z
" clip-path="url(#p1080a7839e)" style="fill: #2271b6"/>
   </g>
   <g id="patch_42">
    <path d="M 91.041339 367.56 
L 104.327054 367.56 
L 104.327054 366.544615 
L 91.041339 366.544615 
z
" clip-path="url(#p1080a7839e)" style="fill: #fd9272"/>
   </g>
   <g id="patch_43">
    <path d="M 135.327054 367.56 
L 148.612768 367.56 
L 148.612768 363.498462 
L 135.327054 363.498462 
z
" clip-path="url(#p1080a7839e)" style="fill: #fd9272"/>
   </g>
   <g id="patch_44">
    <path d="M 179.612768 367.56 
L 192.898482 367.56 
L 192.898482 367.56 
L 179.612768 367.56 
z
" clip-path="url(#p1080a7839e)" style="fill: #fd9272"/>
   </g>
   <g id="patch_45">
    <path d="M 223.898482 367.56 
L 237.184196 367.56 
L 237.184196 363.498462 
L 223.898482 363.498462 
z
" clip-path="url(#p1080a7839e)" style="fill: #fd9272"/>
   </g>
   <g id="patch_46">
    <path d="M 268.184196 367.56 
L 281.469911 367.56 
L 281.469911 366.544615 
L 268.184196 366.544615 
z
" clip-path="url(#p1080a7839e)" style="fill: #fd9272"/>
   </g>
   <g id="patch_47">
    <path d="M 312.469911 367.56 
L 325.755625 367.56 
L 325.755625 366.544615 
L 312.469911 366.544615 
z
" clip-path="url(#p1080a7839e)" style="fill: #fd9272"/>
   </g>
   <g id="patch_48">
    <path d="M 356.755625 367.56 
L 370.041339 367.56 
L 370.041339 363.498462 
L 356.755625 363.498462 
z
" clip-path="url(#p1080a7839e)" style="fill: #fd9272"/>
   </g>
   <g id="patch_49">
    <path d="M 401.041339 367.56 
L 414.327054 367.56 
L 414.327054 355.375385 
L 401.041339 355.375385 
z
" clip-path="url(#p1080a7839e)" style="fill: #fd9272"/>
   </g>
   <g id="patch_50">
    <path d="M 445.327054 367.56 
L 458.612768 367.56 
L 458.612768 339.129231 
L 445.327054 339.129231 
z
" clip-path="url(#p1080a7839e)" style="fill: #fd9272"/>
   </g>
   <g id="patch_51">
    <path d="M 489.612768 367.56 
L 502.898482 367.56 
L 502.898482 333.036923 
L 489.612768 333.036923 
z
" clip-path="url(#p1080a7839e)" style="fill: #fd9272"/>
   </g>
   <g id="patch_52">
    <path d="M 533.898482 367.56 
L 547.184196 367.56 
L 547.184196 297.498462 
L 533.898482 297.498462 
z
" clip-path="url(#p1080a7839e)" style="fill: #fd9272"/>
   </g>
   <g id="patch_53">
    <path d="M 578.184196 367.56 
L 591.469911 367.56 
L 591.469911 333.036923 
L 578.184196 333.036923 
z
" clip-path="url(#p1080a7839e)" style="fill: #fd9272"/>
   </g>
   <g id="patch_54">
    <path d="M 622.469911 367.56 
L 635.755625 367.56 
L 635.755625 321.867692 
L 622.469911 321.867692 
z
" clip-path="url(#p1080a7839e)" style="fill: #fd9272"/>
   </g>
   <g id="patch_55">
    <path d="M 91.041339 366.544615 
L 104.327054 366.544615 
L 104.327054 365.529231 
L 91.041339 365.529231 
z
" clip-path="url(#p1080a7839e)" style="fill: #fb6a4b"/>
   </g>
   <g id="patch_56">
    <path d="M 135.327054 363.498462 
L 148.612768 363.498462 
L 148.612768 363.498462 
L 135.327054 363.498462 
z
" clip-path="url(#p1080a7839e)" style="fill: #fb6a4b"/>
   </g>
   <g id="patch_57">
    <path d="M 179.612768 367.56 
L 192.898482 367.56 
L 192.898482 367.56 
L 179.612768 367.56 
z
" clip-path="url(#p1080a7839e)" style="fill: #fb6a4b"/>
   </g>
   <g id="patch_58">
    <path d="M 223.898482 363.498462 
L 237.184196 363.498462 
L 237.184196 362.483077 
L 223.898482 362.483077 
z
" clip-path="url(#p1080a7839e)" style="fill: #fb6a4b"/>
   </g>
   <g id="patch_59">
    <path d="M 268.184196 366.544615 
L 281.469911 366.544615 
L 281.469911 365.529231 
L 268.184196 365.529231 
z
" clip-path="url(#p1080a7839e)" style="fill: #fb6a4b"/>
   </g>
   <g id="patch_60">
    <path d="M 312.469911 366.544615 
L 325.755625 366.544615 
L 325.755625 366.544615 
L 312.469911 366.544615 
z
" clip-path="url(#p1080a7839e)" style="fill: #fb6a4b"/>
   </g>
   <g id="patch_61">
    <path d="M 356.755625 363.498462 
L 370.041339 363.498462 
L 370.041339 362.483077 
L 356.755625 362.483077 
z
" clip-path="url(#p1080a7839e)" style="fill: #fb6a4b"/>
   </g>
   <g id="patch_62">
    <path d="M 401.041339 355.375385 
L 414.327054 355.375385 
L 414.327054 355.375385 
L 401.041339 355.375385 
z
" clip-path="url(#p1080a7839e)" style="fill: #fb6a4b"/>
   </g>
   <g id="patch_63">
    <path d="M 445.327054 339.129231 
L 458.612768 339.129231 
L 458.612768 336.083077 
L 445.327054 336.083077 
z
" clip-path="url(#p1080a7839e)" style="fill: #fb6a4b"/>
   </g>
   <g id="patch_64">
    <path d="M 489.612768 333.036923 
L 502.898482 333.036923 
L 502.898482 327.96 
L 489.612768 327.96 
z
" clip-path="url(#p1080a7839e)" style="fill: #fb6a4b"/>
   </g>
   <g id="patch_65">
    <path d="M 533.898482 297.498462 
L 547.184196 297.498462 
L 547.184196 288.36 
L 533.898482 288.36 
z
" clip-path="url(#p1080a7839e)" style="fill: #fb6a4b"/>
   </g>
   <g id="patch_66">
    <path d="M 578.184196 333.036923 
L 591.469911 333.036923 
L 591.469911 328.975385 
L 578.184196 328.975385 
z
" clip-path="url(#p1080a7839e)" style="fill: #fb6a4b"/>
   </g>
   <g id="patch_67">
    <path d="M 622.469911 321.867692 
L 635.755625 321.867692 
L 635.755625 318.821538 
L 622.469911 318.821538 
z
" clip-path="url(#p1080a7839e)" style="fill: #fb6a4b"/>
   </g>
   <g id="patch_68">
    <path d="M 91.041339 365.529231 
L 104.327054 365.529231 
L 104.327054 360.452308 
L 91.041339 360.452308 
z
" clip-path="url(#p1080a7839e)" style="fill: #cb181c"/>
   </g>
   <g id="patch_69">
    <path d="M 135.327054 363.498462 
L 148.612768 363.498462 
L 148.612768 363.498462 
L 135.327054 363.498462 
z
" clip-path="url(#p1080a7839e)" style="fill: #cb181c"/>
   </g>
   <g id="patch_70">
    <path d="M 179.612768 367.56 
L 192.898482 367.56 
L 192.898482 367.56 
L 179.612768 367.56 
z
" clip-path="url(#p1080a7839e)" style="fill: #cb181c"/>
   </g>
   <g id="patch_71">
    <path d="M 223.898482 362.483077 
L 237.184196 362.483077 
L 237.184196 357.406154 
L 223.898482 357.406154 
z
" clip-path="url(#p1080a7839e)" style="fill: #cb181c"/>
   </g>
   <g id="patch_72">
    <path d="M 268.184196 365.529231 
L 281.469911 365.529231 
L 281.469911 364.513846 
L 268.184196 364.513846 
z
" clip-path="url(#p1080a7839e)" style="fill: #cb181c"/>
   </g>
   <g id="patch_73">
    <path d="M 312.469911 366.544615 
L 325.755625 366.544615 
L 325.755625 359.436923 
L 312.469911 359.436923 
z
" clip-path="url(#p1080a7839e)" style="fill: #cb181c"/>
   </g>
   <g id="patch_74">
    <path d="M 356.755625 362.483077 
L 370.041339 362.483077 
L 370.041339 347.252308 
L 356.755625 347.252308 
z
" clip-path="url(#p1080a7839e)" style="fill: #cb181c"/>
   </g>
   <g id="patch_75">
    <path d="M 401.041339 355.375385 
L 414.327054 355.375385 
L 414.327054 304.606154 
L 401.041339 304.606154 
z
" clip-path="url(#p1080a7839e)" style="fill: #cb181c"/>
   </g>
   <g id="patch_76">
    <path d="M 445.327054 336.083077 
L 458.612768 336.083077 
L 458.612768 242.667692 
L 445.327054 242.667692 
z
" clip-path="url(#p1080a7839e)" style="fill: #cb181c"/>
   </g>
   <g id="patch_77">
    <path d="M 489.612768 327.96 
L 502.898482 327.96 
L 502.898482 170.575385 
L 489.612768 170.575385 
z
" clip-path="url(#p1080a7839e)" style="fill: #cb181c"/>
   </g>
   <g id="patch_78">
    <path d="M 533.898482 288.36 
L 547.184196 288.36 
L 547.184196 24.36 
L 533.898482 24.36 
z
" clip-path="url(#p1080a7839e)" style="fill: #cb181c"/>
   </g>
   <g id="patch_79">
    <path d="M 578.184196 328.975385 
L 591.469911 328.975385 
L 591.469911 171.590769 
L 578.184196 171.590769 
z
" clip-path="url(#p1080a7839e)" style="fill: #cb181c"/>
   </g>
   <g id="patch_80">
    <path d="M 622.469911 318.821538 
L 635.755625 318.821538 
L 635.755625 218.298462 
L 622.469911 218.298462 
z
" clip-path="url(#p1080a7839e)" style="fill: #cb181c"/>
   </g>
   <g id="matplotlib.axis_1">
    <g id="xtick_1">
     <g id="line2d_1">
      <defs>
       <path id="mb0fdaab91e" d="M 0 0 
L 0 3.5 
" style="stroke: #000000; stroke-width: 0.8"/>
      </defs>
      <g>
       <use xlink:href="#mb0fdaab91e" x="91.041339" y="367.56" style="stroke: #000000; stroke-width: 0.8"/>
      </g>
     </g>
     <g id="text_1">
      <!-- Nov 20 -->
      <g transform="translate(79.94037 406.500952) rotate(-45) scale(0.105 -0.105)">
       <defs>
        <path id="DejaVuSans-4e" d="M 628 4666 
L 1478 4666 
L 3547 763 
L 3547 4666 
L 4159 4666 
L 4159 0 
L 3309 0 
L 1241 3903 
L 1241 0 
L 628 0 
L 628 4666 
z
" transform="scale(0.015625)"/>
        <path id="DejaVuSans-6f" d="M 1959 3097 
Q 1497 3097 1228 2736 
Q 959 2375 959 1747 
Q 959 1119 1226 758 
Q 1494 397 1959 397 
Q 2419 397 2687 759 
Q 2956 1122 2956 1747 
Q 2956 2369 2687 2733 
Q 2419 3097 1959 3097 
z
M 1959 3584 
Q 2709 3584 3137 3096 
Q 3566 2609 3566 1747 
Q 3566 888 3137 398 
Q 2709 -91 1959 -91 
Q 1206 -91 779 398 
Q 353 888 353 1747 
Q 353 2609 779 3096 
Q 1206 3584 1959 3584 
z
" transform="scale(0.015625)"/>
        <path id="DejaVuSans-76" d="M 191 3500 
L 800 3500 
L 1894 563 
L 2988 3500 
L 3597 3500 
L 2284 0 
L 1503 0 
L 191 3500 
z
" transform="scale(0.015625)"/>
        <path id="DejaVuSans-20" transform="scale(0.015625)"/>
        <path id="DejaVuSans-32" d="M 1228 531 
L 3431 531 
L 3431 0 
L 469 0 
L 469 531 
Q 828 903 1448 1529 
Q 2069 2156 2228 2338 
Q 2531 2678 2651 2914 
Q 2772 3150 2772 3378 
Q 2772 3750 2511 3984 
Q 2250 4219 1831 4219 
Q 1534 4219 1204 4116 
Q 875 4013 500 3803 
L 500 4441 
Q 881 4594 1212 4672 
Q 1544 4750 1819 4750 
Q 2544 4750 2975 4387 
Q 3406 4025 3406 3419 
Q 3406 3131 3298 2873 
Q 3191 2616 2906 2266 
Q 2828 2175 2409 1742 
Q 1991 1309 1228 531 
z
" transform="scale(0.015625)"/>
        <path id="DejaVuSans-30" d="M 2034 4250 
Q 1547 4250 1301 3770 
Q 1056 3291 1056 2328 
Q 1056 1369 1301 889 
Q 1547 409 2034 409 
Q 2525 409 2770 889 
Q 3016 1369 3016 2328 
Q 3016 3291 2770 3770 
Q 2525 4250 2034 4250 
z
M 2034 4750 
Q 2819 4750 3233 4129 
Q 3647 3509 3647 2328 
Q 3647 1150 3233 529 
Q 2819 -91 2034 -91 
Q 1250 -91 836 529 
Q 422 1150 422 2328 
Q 422 3509 836 4129 
Q 1250 4750 2034 4750 
z
" transform="scale(0.015625)"/>
       </defs>
       <use xlink:href="#DejaVuSans-4e"/>
       <use xlink:href="#DejaVuSans-6f" x="74.804688"/>
       <use xlink:href="#DejaVuSans-76" x="135.986328"/>
       <use xlink:href="#DejaVuSans-20" x="195.166016"/>
       <use xlink:href="#DejaVuSans-32" x="226.953125"/>
       <use xlink:href="#DejaVuSans-30" x="290.576172"/>
      </g>
     </g>
    </g>
    <g id="xtick_2">
     <g id="line2d_2">
      <g>
       <use xlink:href="#mb0fdaab91e" x="135.327054" y="367.56" style="stroke: #000000; stroke-width: 0.8"/>
      </g>
     </g>
     <g id="text_2">
      <!-- Nov 27 -->
      <g transform="translate(124.226085 406.500952) rotate(-45) scale(0.105 -0.105)">
       <defs>
        <path id="DejaVuSans-37" d="M 525 4666 
L 3525 4666 
L 3525 4397 
L 1831 0 
L 1172 0 
L 2766 4134 
L 525 4134 
L 525 4666 
z
" transform="scale(0.015625)"/>
       </defs>
       <use xlink:href="#DejaVuSans-4e"/>
       <use xlink:href="#DejaVuSans-6f" x="74.804688"/>
       <use xlink:href="#DejaVuSans-76" x="135.986328"/>
       <use xlink:href="#DejaVuSans-20" x="195.166016"/>
       <use xlink:href="#DejaVuSans-32" x="226.953125"/>
       <use xlink:href="#DejaVuSans-37" x="290.576172"/>
      </g>
     </g>
    </g>
    <g id="xtick_3">
     <g id="line2d_3">
      <g>
       <use xlink:href="#mb0fdaab91e" x="179.612768" y="367.56" style="stroke: #000000; stroke-width: 0.8"/>
      </g>
     </g>
     <g id="text_3">
      <!-- Dec 4 -->
      <g transform="translate(170.935822 401.652907) rotate(-45) scale(0.105 -0.105)">
       <defs>
        <path id="DejaVuSans-44" d="M 1259 4147 
L 1259 519 
L 2022 519 
Q 2988 519 3436 956 
Q 3884 1394 3884 2338 
Q 3884 3275 3436 3711 
Q 2988 4147 2022 4147 
L 1259 4147 
z
M 628 4666 
L 1925 4666 
Q 3281 4666 3915 4102 
Q 4550 3538 4550 2338 
Q 4550 1131 3912 565 
Q 3275 0 1925 0 
L 628 0 
L 628 4666 
z
" transform="scale(0.015625)"/>
        <path id="DejaVuSans-65" d="M 3597 1894 
L 3597 1613 
L 953 1613 
Q 991 1019 1311 708 
Q 1631 397 2203 397 
Q 2534 397 2845 478 
Q 3156 559 3463 722 
L 3463 178 
Q 3153 47 2828 -22 
Q 2503 -91 2169 -91 
Q 1331 -91 842 396 
Q 353 884 353 1716 
Q 353 2575 817 3079 
Q 1281 3584 2069 3584 
Q 2775 3584 3186 3129 
Q 3597 2675 3597 1894 
z
M 3022 2063 
Q 3016 2534 2758 2815 
Q 2500 3097 2075 3097 
Q 1594 3097 1305 2825 
Q 1016 2553 972 2059 
L 3022 2063 
z
" transform="scale(0.015625)"/>
        <path id="DejaVuSans-63" d="M 3122 3366 
L 3122 2828 
Q 2878 2963 2633 3030 
Q 2388 3097 2138 3097 
Q 1578 3097 1268 2742 
Q 959 2388 959 1747 
Q 959 1106 1268 751 
Q 1578 397 2138 397 
Q 2388 397 2633 464 
Q 2878 531 3122 666 
L 3122 134 
Q 2881 22 2623 -34 
Q 2366 -91 2075 -91 
Q 1284 -91 818 406 
Q 353 903 353 1747 
Q 353 2603 823 3093 
Q 1294 3584 2113 3584 
Q 2378 3584 2631 3529 
Q 2884 3475 3122 3366 
z
" transform="scale(0.015625)"/>
        <path id="DejaVuSans-34" d="M 2419 4116 
L 825 1625 
L 2419 1625 
L 2419 4116 
z
M 2253 4666 
L 3047 4666 
L 3047 1625 
L 3713 1625 
L 3713 1100 
L 3047 1100 
L 3047 0 
L 2419 0 
L 2419 1100 
L 313 1100 
L 313 1709 
L 2253 4666 
z
" transform="scale(0.015625)"/>
       </defs>
       <use xlink:href="#DejaVuSans-44"/>
       <use xlink:href="#DejaVuSans-65" x="77.001953"/>
       <use xlink:href="#DejaVuSans-63" x="138.525391"/>
       <use xlink:href="#DejaVuSans-20" x="193.505859"/>
       <use xlink:href="#DejaVuSans-34" x="225.292969"/>
      </g>
     </g>
    </g>
    <g id="xtick_4">
     <g id="line2d_4">
      <g>
       <use xlink:href="#mb0fdaab91e" x="223.898482" y="367.56" style="stroke: #000000; stroke-width: 0.8"/>
      </g>
     </g>
     <g id="text_4">
      <!-- Dec 11 -->
      <g transform="translate(212.859579 406.376822) rotate(-45) scale(0.105 -0.105)">
       <defs>
        <path id="DejaVuSans-31" d="M 794 531 
L 1825 531 
L 1825 4091 
L 703 3866 
L 703 4441 
L 1819 4666 
L 2450 4666 
L 2450 531 
L 3481 531 
L 3481 0 
L 794 0 
L 794 531 
z
" transform="scale(0.015625)"/>
       </defs>
       <use xlink:href="#DejaVuSans-44"/>
       <use xlink:href="#DejaVuSans-65" x="77.001953"/>
       <use xlink:href="#DejaVuSans-63" x="138.525391"/>
       <use xlink:href="#DejaVuSans-20" x="193.505859"/>
       <use xlink:href="#DejaVuSans-31" x="225.292969"/>
       <use xlink:href="#DejaVuSans-31" x="288.916016"/>
      </g>
     </g>
    </g>
    <g id="xtick_5">
     <g id="line2d_5">
      <g>
       <use xlink:href="#mb0fdaab91e" x="268.184196" y="367.56" style="stroke: #000000; stroke-width: 0.8"/>
      </g>
     </g>
     <g id="text_5">
      <!-- Dec 18 -->
      <g transform="translate(257.145293 406.376822) rotate(-45) scale(0.105 -0.105)">
       <defs>
        <path id="DejaVuSans-38" d="M 2034 2216 
Q 1584 2216 1326 1975 
Q 1069 1734 1069 1313 
Q 1069 891 1326 650 
Q 1584 409 2034 409 
Q 2484 409 2743 651 
Q 3003 894 3003 1313 
Q 3003 1734 2745 1975 
Q 2488 2216 2034 2216 
z
M 1403 2484 
Q 997 2584 770 2862 
Q 544 3141 544 3541 
Q 544 4100 942 4425 
Q 1341 4750 2034 4750 
Q 2731 4750 3128 4425 
Q 3525 4100 3525 3541 
Q 3525 3141 3298 2862 
Q 3072 2584 2669 2484 
Q 3125 2378 3379 2068 
Q 3634 1759 3634 1313 
Q 3634 634 3220 271 
Q 2806 -91 2034 -91 
Q 1263 -91 848 271 
Q 434 634 434 1313 
Q 434 1759 690 2068 
Q 947 2378 1403 2484 
z
M 1172 3481 
Q 1172 3119 1398 2916 
Q 1625 2713 2034 2713 
Q 2441 2713 2670 2916 
Q 2900 3119 2900 3481 
Q 2900 3844 2670 4047 
Q 2441 4250 2034 4250 
Q 1625 4250 1398 4047 
Q 1172 3844 1172 3481 
z
" transform="scale(0.015625)"/>
       </defs>
       <use xlink:href="#DejaVuSans-44"/>
       <use xlink:href="#DejaVuSans-65" x="77.001953"/>
       <use xlink:href="#DejaVuSans-63" x="138.525391"/>
       <use xlink:href="#DejaVuSans-20" x="193.505859"/>
       <use xlink:href="#DejaVuSans-31" x="225.292969"/>
       <use xlink:href="#DejaVuSans-38" x="288.916016"/>
      </g>
     </g>
    </g>
    <g id="xtick_6">
     <g id="line2d_6">
      <g>
       <use xlink:href="#mb0fdaab91e" x="312.469911" y="367.56" style="stroke: #000000; stroke-width: 0.8"/>
      </g>
     </g>
     <g id="text_6">
      <!-- Dec 25 -->
      <g transform="translate(301.431007 406.376822) rotate(-45) scale(0.105 -0.105)">
       <defs>
        <path id="DejaVuSans-35" d="M 691 4666 
L 3169 4666 
L 3169 4134 
L 1269 4134 
L 1269 2991 
Q 1406 3038 1543 3061 
Q 1681 3084 1819 3084 
Q 2600 3084 3056 2656 
Q 3513 2228 3513 1497 
Q 3513 744 3044 326 
Q 2575 -91 1722 -91 
Q 1428 -91 1123 -41 
Q 819 9 494 109 
L 494 744 
Q 775 591 1075 516 
Q 1375 441 1709 441 
Q 2250 441 2565 725 
Q 2881 1009 2881 1497 
Q 2881 1984 2565 2268 
Q 2250 2553 1709 2553 
Q 1456 2553 1204 2497 
Q 953 2441 691 2322 
L 691 4666 
z
" transform="scale(0.015625)"/>
       </defs>
       <use xlink:href="#DejaVuSans-44"/>
       <use xlink:href="#DejaVuSans-65" x="77.001953"/>
       <use xlink:href="#DejaVuSans-63" x="138.525391"/>
       <use xlink:href="#DejaVuSans-20" x="193.505859"/>
       <use xlink:href="#DejaVuSans-32" x="225.292969"/>
       <use xlink:href="#DejaVuSans-35" x="288.916016"/>
      </g>
     </g>
    </g>
    <g id="xtick_7">
     <g id="line2d_7">
      <g>
       <use xlink:href="#mb0fdaab91e" x="356.755625" y="367.56" style="stroke: #000000; stroke-width: 0.8"/>
      </g>
     </g>
     <g id="text_7">
      <!-- Jan 1 -->
      <g transform="translate(349.539821 398.730622) rotate(-45) scale(0.105 -0.105)">
       <defs>
        <path id="DejaVuSans-4a" d="M 628 4666 
L 1259 4666 
L 1259 325 
Q 1259 -519 939 -900 
Q 619 -1281 -91 -1281 
L -331 -1281 
L -331 -750 
L -134 -750 
Q 284 -750 456 -515 
Q 628 -281 628 325 
L 628 4666 
z
" transform="scale(0.015625)"/>
        <path id="DejaVuSans-61" d="M 2194 1759 
Q 1497 1759 1228 1600 
Q 959 1441 959 1056 
Q 959 750 1161 570 
Q 1363 391 1709 391 
Q 2188 391 2477 730 
Q 2766 1069 2766 1631 
L 2766 1759 
L 2194 1759 
z
M 3341 1997 
L 3341 0 
L 2766 0 
L 2766 531 
Q 2569 213 2275 61 
Q 1981 -91 1556 -91 
Q 1019 -91 701 211 
Q 384 513 384 1019 
Q 384 1609 779 1909 
Q 1175 2209 1959 2209 
L 2766 2209 
L 2766 2266 
Q 2766 2663 2505 2880 
Q 2244 3097 1772 3097 
Q 1472 3097 1187 3025 
Q 903 2953 641 2809 
L 641 3341 
Q 956 3463 1253 3523 
Q 1550 3584 1831 3584 
Q 2591 3584 2966 3190 
Q 3341 2797 3341 1997 
z
" transform="scale(0.015625)"/>
        <path id="DejaVuSans-6e" d="M 3513 2113 
L 3513 0 
L 2938 0 
L 2938 2094 
Q 2938 2591 2744 2837 
Q 2550 3084 2163 3084 
Q 1697 3084 1428 2787 
Q 1159 2491 1159 1978 
L 1159 0 
L 581 0 
L 581 3500 
L 1159 3500 
L 1159 2956 
Q 1366 3272 1645 3428 
Q 1925 3584 2291 3584 
Q 2894 3584 3203 3211 
Q 3513 2838 3513 2113 
z
" transform="scale(0.015625)"/>
       </defs>
       <use xlink:href="#DejaVuSans-4a"/>
       <use xlink:href="#DejaVuSans-61" x="29.492188"/>
       <use xlink:href="#DejaVuSans-6e" x="90.771484"/>
       <use xlink:href="#DejaVuSans-20" x="154.150391"/>
       <use xlink:href="#DejaVuSans-31" x="185.9375"/>
      </g>
     </g>
    </g>
    <g id="xtick_8">
     <g id="line2d_8">
      <g>
       <use xlink:href="#mb0fdaab91e" x="401.041339" y="367.56" style="stroke: #000000; stroke-width: 0.8"/>
      </g>
     </g>
     <g id="text_8">
      <!-- Jan 8 -->
      <g transform="translate(393.825536 398.730622) rotate(-45) scale(0.105 -0.105)">
       <use xlink:href="#DejaVuSans-4a"/>
       <use xlink:href="#DejaVuSans-61" x="29.492188"/>
       <use xlink:href="#DejaVuSans-6e" x="90.771484"/>
       <use xlink:href="#DejaVuSans-20" x="154.150391"/>
       <use xlink:href="#DejaVuSans-38" x="185.9375"/>
      </g>
     </g>
    </g>
    <g id="xtick_9">
     <g id="line2d_9">
      <g>
       <use xlink:href="#mb0fdaab91e" x="445.327054" y="367.56" style="stroke: #000000; stroke-width: 0.8"/>
      </g>
     </g>
     <g id="text_9">
      <!-- Jan 15 -->
      <g transform="translate(435.749292 403.454538) rotate(-45) scale(0.105 -0.105)">
       <use xlink:href="#DejaVuSans-4a"/>
       <use xlink:href="#DejaVuSans-61" x="29.492188"/>
       <use xlink:href="#DejaVuSans-6e" x="90.771484"/>
       <use xlink:href="#DejaVuSans-20" x="154.150391"/>
       <use xlink:href="#DejaVuSans-31" x="185.9375"/>
       <use xlink:href="#DejaVuSans-35" x="249.560547"/>
      </g>
     </g>
    </g>
    <g id="xtick_10">
     <g id="line2d_10">
      <g>
       <use xlink:href="#mb0fdaab91e" x="489.612768" y="367.56" style="stroke: #000000; stroke-width: 0.8"/>
      </g>
     </g>
     <g id="text_10">
      <!-- Jan 22 -->
      <g transform="translate(480.035007 403.454538) rotate(-45) scale(0.105 -0.105)">
       <use xlink:href="#DejaVuSans-4a"/>
       <use xlink:href="#DejaVuSans-61" x="29.492188"/>
       <use xlink:href="#DejaVuSans-6e" x="90.771484"/>
       <use xlink:href="#DejaVuSans-20" x="154.150391"/>
       <use xlink:href="#DejaVuSans-32" x="185.9375"/>
       <use xlink:href="#DejaVuSans-32" x="249.560547"/>
      </g>
     </g>
    </g>
    <g id="xtick_11">
     <g id="line2d_11">
      <g>
       <use xlink:href="#mb0fdaab91e" x="533.898482" y="367.56" style="stroke: #000000; stroke-width: 0.8"/>
      </g>
     </g>
     <g id="text_11">
      <!-- Jan 29 -->
      <g transform="translate(524.320721 403.454538) rotate(-45) scale(0.105 -0.105)">
       <defs>
        <path id="DejaVuSans-39" d="M 703 97 
L 703 672 
Q 941 559 1184 500 
Q 1428 441 1663 441 
Q 2288 441 2617 861 
Q 2947 1281 2994 2138 
Q 2813 1869 2534 1725 
Q 2256 1581 1919 1581 
Q 1219 1581 811 2004 
Q 403 2428 403 3163 
Q 403 3881 828 4315 
Q 1253 4750 1959 4750 
Q 2769 4750 3195 4129 
Q 3622 3509 3622 2328 
Q 3622 1225 3098 567 
Q 2575 -91 1691 -91 
Q 1453 -91 1209 -44 
Q 966 3 703 97 
z
M 1959 2075 
Q 2384 2075 2632 2365 
Q 2881 2656 2881 3163 
Q 2881 3666 2632 3958 
Q 2384 4250 1959 4250 
Q 1534 4250 1286 3958 
Q 1038 3666 1038 3163 
Q 1038 2656 1286 2365 
Q 1534 2075 1959 2075 
z
" transform="scale(0.015625)"/>
       </defs>
       <use xlink:href="#DejaVuSans-4a"/>
       <use xlink:href="#DejaVuSans-61" x="29.492188"/>
       <use xlink:href="#DejaVuSans-6e" x="90.771484"/>
       <use xlink:href="#DejaVuSans-20" x="154.150391"/>
       <use xlink:href="#DejaVuSans-32" x="185.9375"/>
       <use xlink:href="#DejaVuSans-39" x="249.560547"/>
      </g>
     </g>
    </g>
    <g id="xtick_12">
     <g id="line2d_12">
      <g>
       <use xlink:href="#mb0fdaab91e" x="578.184196" y="367.56" style="stroke: #000000; stroke-width: 0.8"/>
      </g>
     </g>
     <g id="text_12">
      <!-- Feb 5 -->
      <g transform="translate(570.119202 400.429004) rotate(-45) scale(0.105 -0.105)">
       <defs>
        <path id="DejaVuSans-46" d="M 628 4666 
L 3309 4666 
L 3309 4134 
L 1259 4134 
L 1259 2759 
L 3109 2759 
L 3109 2228 
L 1259 2228 
L 1259 0 
L 628 0 
L 628 4666 
z
" transform="scale(0.015625)"/>
        <path id="DejaVuSans-62" d="M 3116 1747 
Q 3116 2381 2855 2742 
Q 2594 3103 2138 3103 
Q 1681 3103 1420 2742 
Q 1159 2381 1159 1747 
Q 1159 1113 1420 752 
Q 1681 391 2138 391 
Q 2594 391 2855 752 
Q 3116 1113 3116 1747 
z
M 1159 2969 
Q 1341 3281 1617 3432 
Q 1894 3584 2278 3584 
Q 2916 3584 3314 3078 
Q 3713 2572 3713 1747 
Q 3713 922 3314 415 
Q 2916 -91 2278 -91 
Q 1894 -91 1617 61 
Q 1341 213 1159 525 
L 1159 0 
L 581 0 
L 581 4863 
L 1159 4863 
L 1159 2969 
z
" transform="scale(0.015625)"/>
       </defs>
       <use xlink:href="#DejaVuSans-46"/>
       <use xlink:href="#DejaVuSans-65" x="52.019531"/>
       <use xlink:href="#DejaVuSans-62" x="113.542969"/>
       <use xlink:href="#DejaVuSans-20" x="177.019531"/>
       <use xlink:href="#DejaVuSans-35" x="208.806641"/>
      </g>
     </g>
    </g>
    <g id="xtick_13">
     <g id="line2d_13">
      <g>
       <use xlink:href="#mb0fdaab91e" x="622.469911" y="367.56" style="stroke: #000000; stroke-width: 0.8"/>
      </g>
     </g>
     <g id="text_13">
      <!-- Feb 12 -->
      <g transform="translate(612.042958 405.15292) rotate(-45) scale(0.105 -0.105)">
       <use xlink:href="#DejaVuSans-46"/>
       <use xlink:href="#DejaVuSans-65" x="52.019531"/>
       <use xlink:href="#DejaVuSans-62" x="113.542969"/>
       <use xlink:href="#DejaVuSans-20" x="177.019531"/>
       <use xlink:href="#DejaVuSans-31" x="208.806641"/>
       <use xlink:href="#DejaVuSans-32" x="272.429688"/>
      </g>
     </g>
    </g>
    <g id="text_14">
     <!-- Timepoint in 2021–22 (weeks) -->
     <g transform="translate(266.105938 421.163167) scale(0.12 -0.12)">
      <defs>
       <path id="DejaVuSans-54" d="M -19 4666 
L 3928 4666 
L 3928 4134 
L 2272 4134 
L 2272 0 
L 1638 0 
L 1638 4134 
L -19 4134 
L -19 4666 
z
" transform="scale(0.015625)"/>
       <path id="DejaVuSans-69" d="M 603 3500 
L 1178 3500 
L 1178 0 
L 603 0 
L 603 3500 
z
M 603 4863 
L 1178 4863 
L 1178 4134 
L 603 4134 
L 603 4863 
z
" transform="scale(0.015625)"/>
       <path id="DejaVuSans-6d" d="M 3328 2828 
Q 3544 3216 3844 3400 
Q 4144 3584 4550 3584 
Q 5097 3584 5394 3201 
Q 5691 2819 5691 2113 
L 5691 0 
L 5113 0 
L 5113 2094 
Q 5113 2597 4934 2840 
Q 4756 3084 4391 3084 
Q 3944 3084 3684 2787 
Q 3425 2491 3425 1978 
L 3425 0 
L 2847 0 
L 2847 2094 
Q 2847 2600 2669 2842 
Q 2491 3084 2119 3084 
Q 1678 3084 1418 2786 
Q 1159 2488 1159 1978 
L 1159 0 
L 581 0 
L 581 3500 
L 1159 3500 
L 1159 2956 
Q 1356 3278 1631 3431 
Q 1906 3584 2284 3584 
Q 2666 3584 2933 3390 
Q 3200 3197 3328 2828 
z
" transform="scale(0.015625)"/>
       <path id="DejaVuSans-70" d="M 1159 525 
L 1159 -1331 
L 581 -1331 
L 581 3500 
L 1159 3500 
L 1159 2969 
Q 1341 3281 1617 3432 
Q 1894 3584 2278 3584 
Q 2916 3584 3314 3078 
Q 3713 2572 3713 1747 
Q 3713 922 3314 415 
Q 2916 -91 2278 -91 
Q 1894 -91 1617 61 
Q 1341 213 1159 525 
z
M 3116 1747 
Q 3116 2381 2855 2742 
Q 2594 3103 2138 3103 
Q 1681 3103 1420 2742 
Q 1159 2381 1159 1747 
Q 1159 1113 1420 752 
Q 1681 391 2138 391 
Q 2594 391 2855 752 
Q 3116 1113 3116 1747 
z
" transform="scale(0.015625)"/>
       <path id="DejaVuSans-74" d="M 1172 4494 
L 1172 3500 
L 2356 3500 
L 2356 3053 
L 1172 3053 
L 1172 1153 
Q 1172 725 1289 603 
Q 1406 481 1766 481 
L 2356 481 
L 2356 0 
L 1766 0 
Q 1100 0 847 248 
Q 594 497 594 1153 
L 594 3053 
L 172 3053 
L 172 3500 
L 594 3500 
L 594 4494 
L 1172 4494 
z
" transform="scale(0.015625)"/>
       <path id="DejaVuSans-2013" d="M 313 1978 
L 2888 1978 
L 2888 1528 
L 313 1528 
L 313 1978 
z
" transform="scale(0.015625)"/>
       <path id="DejaVuSans-28" d="M 1984 4856 
Q 1566 4138 1362 3434 
Q 1159 2731 1159 2009 
Q 1159 1288 1364 580 
Q 1569 -128 1984 -844 
L 1484 -844 
Q 1016 -109 783 600 
Q 550 1309 550 2009 
Q 550 2706 781 3412 
Q 1013 4119 1484 4856 
L 1984 4856 
z
" transform="scale(0.015625)"/>
       <path id="DejaVuSans-77" d="M 269 3500 
L 844 3500 
L 1563 769 
L 2278 3500 
L 2956 3500 
L 3675 769 
L 4391 3500 
L 4966 3500 
L 4050 0 
L 3372 0 
L 2619 2869 
L 1863 0 
L 1184 0 
L 269 3500 
z
" transform="scale(0.015625)"/>
       <path id="DejaVuSans-6b" d="M 581 4863 
L 1159 4863 
L 1159 1991 
L 2875 3500 
L 3609 3500 
L 1753 1863 
L 3688 0 
L 2938 0 
L 1159 1709 
L 1159 0 
L 581 0 
L 581 4863 
z
" transform="scale(0.015625)"/>
       <path id="DejaVuSans-73" d="M 2834 3397 
L 2834 2853 
Q 2591 2978 2328 3040 
Q 2066 3103 1784 3103 
Q 1356 3103 1142 2972 
Q 928 2841 928 2578 
Q 928 2378 1081 2264 
Q 1234 2150 1697 2047 
L 1894 2003 
Q 2506 1872 2764 1633 
Q 3022 1394 3022 966 
Q 3022 478 2636 193 
Q 2250 -91 1575 -91 
Q 1294 -91 989 -36 
Q 684 19 347 128 
L 347 722 
Q 666 556 975 473 
Q 1284 391 1588 391 
Q 1994 391 2212 530 
Q 2431 669 2431 922 
Q 2431 1156 2273 1281 
Q 2116 1406 1581 1522 
L 1381 1569 
Q 847 1681 609 1914 
Q 372 2147 372 2553 
Q 372 3047 722 3315 
Q 1072 3584 1716 3584 
Q 2034 3584 2315 3537 
Q 2597 3491 2834 3397 
z
" transform="scale(0.015625)"/>
       <path id="DejaVuSans-29" d="M 513 4856 
L 1013 4856 
Q 1481 4119 1714 3412 
Q 1947 2706 1947 2009 
Q 1947 1309 1714 600 
Q 1481 -109 1013 -844 
L 513 -844 
Q 928 -128 1133 580 
Q 1338 1288 1338 2009 
Q 1338 2731 1133 3434 
Q 928 4138 513 4856 
z
" transform="scale(0.015625)"/>
      </defs>
      <use xlink:href="#DejaVuSans-54"/>
      <use xlink:href="#DejaVuSans-69" x="57.958984"/>
      <use xlink:href="#DejaVuSans-6d" x="85.742188"/>
      <use xlink:href="#DejaVuSans-65" x="183.154297"/>
      <use xlink:href="#DejaVuSans-70" x="244.677734"/>
      <use xlink:href="#DejaVuSans-6f" x="308.154297"/>
      <use xlink:href="#DejaVuSans-69" x="369.335938"/>
      <use xlink:href="#DejaVuSans-6e" x="397.119141"/>
      <use xlink:href="#DejaVuSans-74" x="460.498047"/>
      <use xlink:href="#DejaVuSans-20" x="499.707031"/>
      <use xlink:href="#DejaVuSans-69" x="531.494141"/>
      <use xlink:href="#DejaVuSans-6e" x="559.277344"/>
      <use xlink:href="#DejaVuSans-20" x="622.65625"/>
      <use xlink:href="#DejaVuSans-32" x="654.443359"/>
      <use xlink:href="#DejaVuSans-30" x="718.066406"/>
      <use xlink:href="#DejaVuSans-32" x="781.689453"/>
      <use xlink:href="#DejaVuSans-31" x="845.3125"/>
      <use xlink:href="#DejaVuSans-2013" x="908.935547"/>
      <use xlink:href="#DejaVuSans-32" x="958.935547"/>
      <use xlink:href="#DejaVuSans-32" x="1022.558594"/>
      <use xlink:href="#DejaVuSans-20" x="1086.181641"/>
      <use xlink:href="#DejaVuSans-28" x="1117.96875"/>
      <use xlink:href="#DejaVuSans-77" x="1156.982422"/>
      <use xlink:href="#DejaVuSans-65" x="1238.769531"/>
      <use xlink:href="#DejaVuSans-65" x="1300.292969"/>
      <use xlink:href="#DejaVuSans-6b" x="1361.816406"/>
      <use xlink:href="#DejaVuSans-73" x="1419.726562"/>
      <use xlink:href="#DejaVuSans-29" x="1471.826172"/>
     </g>
    </g>
   </g>
   <g id="matplotlib.axis_2">
    <g id="ytick_1">
     <g id="line2d_14">
      <defs>
       <path id="m9bfe452b7c" d="M 0 0 
L -3.5 0 
" style="stroke: #000000; stroke-width: 0.8"/>
      </defs>
      <g>
       <use xlink:href="#m9bfe452b7c" x="49.855625" y="367.56" style="stroke: #000000; stroke-width: 0.8"/>
      </g>
     </g>
     <g id="text_15">
      <!-- 0 -->
      <g transform="translate(36.175 371.54918) scale(0.105 -0.105)">
       <use xlink:href="#DejaVuSans-30"/>
      </g>
     </g>
    </g>
    <g id="ytick_2">
     <g id="line2d_15">
      <g>
       <use xlink:href="#m9bfe452b7c" x="49.855625" y="316.790769" style="stroke: #000000; stroke-width: 0.8"/>
      </g>
     </g>
     <g id="text_16">
      <!-- 50 -->
      <g transform="translate(29.494375 320.779949) scale(0.105 -0.105)">
       <use xlink:href="#DejaVuSans-35"/>
       <use xlink:href="#DejaVuSans-30" x="63.623047"/>
      </g>
     </g>
    </g>
    <g id="ytick_3">
     <g id="line2d_16">
      <g>
       <use xlink:href="#m9bfe452b7c" x="49.855625" y="266.021538" style="stroke: #000000; stroke-width: 0.8"/>
      </g>
     </g>
     <g id="text_17">
      <!-- 100 -->
      <g transform="translate(22.81375 270.010718) scale(0.105 -0.105)">
       <use xlink:href="#DejaVuSans-31"/>
       <use xlink:href="#DejaVuSans-30" x="63.623047"/>
       <use xlink:href="#DejaVuSans-30" x="127.246094"/>
      </g>
     </g>
    </g>
    <g id="ytick_4">
     <g id="line2d_17">
      <g>
       <use xlink:href="#m9bfe452b7c" x="49.855625" y="215.252308" style="stroke: #000000; stroke-width: 0.8"/>
      </g>
     </g>
     <g id="text_18">
      <!-- 150 -->
      <g transform="translate(22.81375 219.241487) scale(0.105 -0.105)">
       <use xlink:href="#DejaVuSans-31"/>
       <use xlink:href="#DejaVuSans-35" x="63.623047"/>
       <use xlink:href="#DejaVuSans-30" x="127.246094"/>
      </g>
     </g>
    </g>
    <g id="ytick_5">
     <g id="line2d_18">
      <g>
       <use xlink:href="#m9bfe452b7c" x="49.855625" y="164.483077" style="stroke: #000000; stroke-width: 0.8"/>
      </g>
     </g>
     <g id="text_19">
      <!-- 200 -->
      <g transform="translate(22.81375 168.472257) scale(0.105 -0.105)">
       <use xlink:href="#DejaVuSans-32"/>
       <use xlink:href="#DejaVuSans-30" x="63.623047"/>
       <use xlink:href="#DejaVuSans-30" x="127.246094"/>
      </g>
     </g>
    </g>
    <g id="ytick_6">
     <g id="line2d_19">
      <g>
       <use xlink:href="#m9bfe452b7c" x="49.855625" y="113.713846" style="stroke: #000000; stroke-width: 0.8"/>
      </g>
     </g>
     <g id="text_20">
      <!-- 250 -->
      <g transform="translate(22.81375 117.703026) scale(0.105 -0.105)">
       <use xlink:href="#DejaVuSans-32"/>
       <use xlink:href="#DejaVuSans-35" x="63.623047"/>
       <use xlink:href="#DejaVuSans-30" x="127.246094"/>
      </g>
     </g>
    </g>
    <g id="ytick_7">
     <g id="line2d_20">
      <g>
       <use xlink:href="#m9bfe452b7c" x="49.855625" y="62.944615" style="stroke: #000000; stroke-width: 0.8"/>
      </g>
     </g>
     <g id="text_21">
      <!-- 300 -->
      <g transform="translate(22.81375 66.933795) scale(0.105 -0.105)">
       <defs>
        <path id="DejaVuSans-33" d="M 2597 2516 
Q 3050 2419 3304 2112 
Q 3559 1806 3559 1356 
Q 3559 666 3084 287 
Q 2609 -91 1734 -91 
Q 1441 -91 1130 -33 
Q 819 25 488 141 
L 488 750 
Q 750 597 1062 519 
Q 1375 441 1716 441 
Q 2309 441 2620 675 
Q 2931 909 2931 1356 
Q 2931 1769 2642 2001 
Q 2353 2234 1838 2234 
L 1294 2234 
L 1294 2753 
L 1863 2753 
Q 2328 2753 2575 2939 
Q 2822 3125 2822 3475 
Q 2822 3834 2567 4026 
Q 2313 4219 1838 4219 
Q 1578 4219 1281 4162 
Q 984 4106 628 3988 
L 628 4550 
Q 988 4650 1302 4700 
Q 1616 4750 1894 4750 
Q 2613 4750 3031 4423 
Q 3450 4097 3450 3541 
Q 3450 3153 3228 2886 
Q 3006 2619 2597 2516 
z
" transform="scale(0.015625)"/>
       </defs>
       <use xlink:href="#DejaVuSans-33"/>
       <use xlink:href="#DejaVuSans-30" x="63.623047"/>
       <use xlink:href="#DejaVuSans-30" x="127.246094"/>
      </g>
     </g>
    </g>
    <g id="ytick_8">
     <g id="line2d_21">
      <g>
       <use xlink:href="#m9bfe452b7c" x="49.855625" y="12.175385" style="stroke: #000000; stroke-width: 0.8"/>
      </g>
     </g>
     <g id="text_22">
      <!-- 350 -->
      <g transform="translate(22.81375 16.164564) scale(0.105 -0.105)">
       <use xlink:href="#DejaVuSans-33"/>
       <use xlink:href="#DejaVuSans-35" x="63.623047"/>
       <use xlink:href="#DejaVuSans-30" x="127.246094"/>
      </g>
     </g>
    </g>
    <g id="text_23">
     <!-- Weekly COVID-19 deaths -->
     <g transform="translate(16.318125 262.41) rotate(-90) scale(0.12 -0.12)">
      <defs>
       <path id="DejaVuSans-57" d="M 213 4666 
L 850 4666 
L 1831 722 
L 2809 4666 
L 3519 4666 
L 4500 722 
L 5478 4666 
L 6119 4666 
L 4947 0 
L 4153 0 
L 3169 4050 
L 2175 0 
L 1381 0 
L 213 4666 
z
" transform="scale(0.015625)"/>
       <path id="DejaVuSans-6c" d="M 603 4863 
L 1178 4863 
L 1178 0 
L 603 0 
L 603 4863 
z
" transform="scale(0.015625)"/>
       <path id="DejaVuSans-79" d="M 2059 -325 
Q 1816 -950 1584 -1140 
Q 1353 -1331 966 -1331 
L 506 -1331 
L 506 -850 
L 844 -850 
Q 1081 -850 1212 -737 
Q 1344 -625 1503 -206 
L 1606 56 
L 191 3500 
L 800 3500 
L 1894 763 
L 2988 3500 
L 3597 3500 
L 2059 -325 
z
" transform="scale(0.015625)"/>
       <path id="DejaVuSans-43" d="M 4122 4306 
L 4122 3641 
Q 3803 3938 3442 4084 
Q 3081 4231 2675 4231 
Q 1875 4231 1450 3742 
Q 1025 3253 1025 2328 
Q 1025 1406 1450 917 
Q 1875 428 2675 428 
Q 3081 428 3442 575 
Q 3803 722 4122 1019 
L 4122 359 
Q 3791 134 3420 21 
Q 3050 -91 2638 -91 
Q 1578 -91 968 557 
Q 359 1206 359 2328 
Q 359 3453 968 4101 
Q 1578 4750 2638 4750 
Q 3056 4750 3426 4639 
Q 3797 4528 4122 4306 
z
" transform="scale(0.015625)"/>
       <path id="DejaVuSans-4f" d="M 2522 4238 
Q 1834 4238 1429 3725 
Q 1025 3213 1025 2328 
Q 1025 1447 1429 934 
Q 1834 422 2522 422 
Q 3209 422 3611 934 
Q 4013 1447 4013 2328 
Q 4013 3213 3611 3725 
Q 3209 4238 2522 4238 
z
M 2522 4750 
Q 3503 4750 4090 4092 
Q 4678 3434 4678 2328 
Q 4678 1225 4090 567 
Q 3503 -91 2522 -91 
Q 1538 -91 948 565 
Q 359 1222 359 2328 
Q 359 3434 948 4092 
Q 1538 4750 2522 4750 
z
" transform="scale(0.015625)"/>
       <path id="DejaVuSans-56" d="M 1831 0 
L 50 4666 
L 709 4666 
L 2188 738 
L 3669 4666 
L 4325 4666 
L 2547 0 
L 1831 0 
z
" transform="scale(0.015625)"/>
       <path id="DejaVuSans-49" d="M 628 4666 
L 1259 4666 
L 1259 0 
L 628 0 
L 628 4666 
z
" transform="scale(0.015625)"/>
       <path id="DejaVuSans-2d" d="M 313 2009 
L 1997 2009 
L 1997 1497 
L 313 1497 
L 313 2009 
z
" transform="scale(0.015625)"/>
       <path id="DejaVuSans-64" d="M 2906 2969 
L 2906 4863 
L 3481 4863 
L 3481 0 
L 2906 0 
L 2906 525 
Q 2725 213 2448 61 
Q 2172 -91 1784 -91 
Q 1150 -91 751 415 
Q 353 922 353 1747 
Q 353 2572 751 3078 
Q 1150 3584 1784 3584 
Q 2172 3584 2448 3432 
Q 2725 3281 2906 2969 
z
M 947 1747 
Q 947 1113 1208 752 
Q 1469 391 1925 391 
Q 2381 391 2643 752 
Q 2906 1113 2906 1747 
Q 2906 2381 2643 2742 
Q 2381 3103 1925 3103 
Q 1469 3103 1208 2742 
Q 947 2381 947 1747 
z
" transform="scale(0.015625)"/>
       <path id="DejaVuSans-68" d="M 3513 2113 
L 3513 0 
L 2938 0 
L 2938 2094 
Q 2938 2591 2744 2837 
Q 2550 3084 2163 3084 
Q 1697 3084 1428 2787 
Q 1159 2491 1159 1978 
L 1159 0 
L 581 0 
L 581 4863 
L 1159 4863 
L 1159 2956 
Q 1366 3272 1645 3428 
Q 1925 3584 2291 3584 
Q 2894 3584 3203 3211 
Q 3513 2838 3513 2113 
z
" transform="scale(0.015625)"/>
      </defs>
      <use xlink:href="#DejaVuSans-57"/>
      <use xlink:href="#DejaVuSans-65" x="93.001953"/>
      <use xlink:href="#DejaVuSans-65" x="154.525391"/>
      <use xlink:href="#DejaVuSans-6b" x="216.048828"/>
      <use xlink:href="#DejaVuSans-6c" x="273.958984"/>
      <use xlink:href="#DejaVuSans-79" x="301.742188"/>
      <use xlink:href="#DejaVuSans-20" x="360.921875"/>
      <use xlink:href="#DejaVuSans-43" x="392.708984"/>
      <use xlink:href="#DejaVuSans-4f" x="462.533203"/>
      <use xlink:href="#DejaVuSans-56" x="539.494141"/>
      <use xlink:href="#DejaVuSans-49" x="607.902344"/>
      <use xlink:href="#DejaVuSans-44" x="637.394531"/>
      <use xlink:href="#DejaVuSans-2d" x="714.396484"/>
      <use xlink:href="#DejaVuSans-31" x="750.480469"/>
      <use xlink:href="#DejaVuSans-39" x="814.103516"/>
      <use xlink:href="#DejaVuSans-20" x="877.726562"/>
      <use xlink:href="#DejaVuSans-64" x="909.513672"/>
      <use xlink:href="#DejaVuSans-65" x="972.990234"/>
      <use xlink:href="#DejaVuSans-61" x="1034.513672"/>
      <use xlink:href="#DejaVuSans-74" x="1095.792969"/>
      <use xlink:href="#DejaVuSans-68" x="1135.001953"/>
      <use xlink:href="#DejaVuSans-73" x="1198.380859"/>
     </g>
    </g>
   </g>
   <g id="patch_81">
    <path d="M 49.855625 367.56 
L 49.855625 7.2 
" style="fill: none; stroke: #000000; stroke-width: 0.8; stroke-linejoin: miter; stroke-linecap: square"/>
   </g>
   <g id="patch_82">
    <path d="M 663.655625 367.56 
L 663.655625 7.2 
" style="fill: none; stroke: #000000; stroke-width: 0.8; stroke-linejoin: miter; stroke-linecap: square"/>
   </g>
   <g id="patch_83">
    <path d="M 49.855625 367.56 
L 663.655625 367.56 
" style="fill: none; stroke: #000000; stroke-width: 0.8; stroke-linejoin: miter; stroke-linecap: square"/>
   </g>
   <g id="patch_84">
    <path d="M 49.855625 7.2 
L 663.655625 7.2 
" style="fill: none; stroke: #000000; stroke-width: 0.8; stroke-linejoin: miter; stroke-linecap: square"/>
   </g>
   <g id="legend_1">
    <g id="patch_85">
     <path d="M 59.305625 24.628359 
L 80.305625 24.628359 
L 80.305625 17.278359 
L 59.305625 17.278359 
z
" style="fill: #9ecbe2"/>
    </g>
    <g id="text_24">
     <!-- No dose (reported deaths) -->
     <g transform="translate(88.705625 24.628359) scale(0.105 -0.105)">
      <defs>
       <path id="DejaVuSans-72" d="M 2631 2963 
Q 2534 3019 2420 3045 
Q 2306 3072 2169 3072 
Q 1681 3072 1420 2755 
Q 1159 2438 1159 1844 
L 1159 0 
L 581 0 
L 581 3500 
L 1159 3500 
L 1159 2956 
Q 1341 3275 1631 3429 
Q 1922 3584 2338 3584 
Q 2397 3584 2469 3576 
Q 2541 3569 2628 3553 
L 2631 2963 
z
" transform="scale(0.015625)"/>
      </defs>
      <use xlink:href="#DejaVuSans-4e"/>
      <use xlink:href="#DejaVuSans-6f" x="74.804688"/>
      <use xlink:href="#DejaVuSans-20" x="135.986328"/>
      <use xlink:href="#DejaVuSans-64" x="167.773438"/>
      <use xlink:href="#DejaVuSans-6f" x="231.25"/>
      <use xlink:href="#DejaVuSans-73" x="292.431641"/>
      <use xlink:href="#DejaVuSans-65" x="344.53125"/>
      <use xlink:href="#DejaVuSans-20" x="406.054688"/>
      <use xlink:href="#DejaVuSans-28" x="437.841797"/>
      <use xlink:href="#DejaVuSans-72" x="476.855469"/>
      <use xlink:href="#DejaVuSans-65" x="515.71875"/>
      <use xlink:href="#DejaVuSans-70" x="577.242188"/>
      <use xlink:href="#DejaVuSans-6f" x="640.71875"/>
      <use xlink:href="#DejaVuSans-72" x="701.900391"/>
      <use xlink:href="#DejaVuSans-74" x="743.013672"/>
      <use xlink:href="#DejaVuSans-65" x="782.222656"/>
      <use xlink:href="#DejaVuSans-64" x="843.746094"/>
      <use xlink:href="#DejaVuSans-20" x="907.222656"/>
      <use xlink:href="#DejaVuSans-64" x="939.009766"/>
      <use xlink:href="#DejaVuSans-65" x="1002.486328"/>
      <use xlink:href="#DejaVuSans-61" x="1064.009766"/>
      <use xlink:href="#DejaVuSans-74" x="1125.289062"/>
      <use xlink:href="#DejaVuSans-68" x="1164.498047"/>
      <use xlink:href="#DejaVuSans-73" x="1227.876953"/>
      <use xlink:href="#DejaVuSans-29" x="1279.976562"/>
     </g>
    </g>
    <g id="patch_86">
     <path d="M 59.305625 40.040391 
L 80.305625 40.040391 
L 80.305625 32.690391 
L 59.305625 32.690391 
z
" style="fill: #6bafd6"/>
    </g>
    <g id="text_25">
     <!-- One dose (reported deaths) -->
     <g transform="translate(88.705625 40.040391) scale(0.105 -0.105)">
      <use xlink:href="#DejaVuSans-4f"/>
      <use xlink:href="#DejaVuSans-6e" x="78.710938"/>
      <use xlink:href="#DejaVuSans-65" x="142.089844"/>
      <use xlink:href="#DejaVuSans-20" x="203.613281"/>
      <use xlink:href="#DejaVuSans-64" x="235.400391"/>
      <use xlink:href="#DejaVuSans-6f" x="298.876953"/>
      <use xlink:href="#DejaVuSans-73" x="360.058594"/>
      <use xlink:href="#DejaVuSans-65" x="412.158203"/>
      <use xlink:href="#DejaVuSans-20" x="473.681641"/>
      <use xlink:href="#DejaVuSans-28" x="505.46875"/>
      <use xlink:href="#DejaVuSans-72" x="544.482422"/>
      <use xlink:href="#DejaVuSans-65" x="583.345703"/>
      <use xlink:href="#DejaVuSans-70" x="644.869141"/>
      <use xlink:href="#DejaVuSans-6f" x="708.345703"/>
      <use xlink:href="#DejaVuSans-72" x="769.527344"/>
      <use xlink:href="#DejaVuSans-74" x="810.640625"/>
      <use xlink:href="#DejaVuSans-65" x="849.849609"/>
      <use xlink:href="#DejaVuSans-64" x="911.373047"/>
      <use xlink:href="#DejaVuSans-20" x="974.849609"/>
      <use xlink:href="#DejaVuSans-64" x="1006.636719"/>
      <use xlink:href="#DejaVuSans-65" x="1070.113281"/>
      <use xlink:href="#DejaVuSans-61" x="1131.636719"/>
      <use xlink:href="#DejaVuSans-74" x="1192.916016"/>
      <use xlink:href="#DejaVuSans-68" x="1232.125"/>
      <use xlink:href="#DejaVuSans-73" x="1295.503906"/>
      <use xlink:href="#DejaVuSans-29" x="1347.603516"/>
     </g>
    </g>
    <g id="patch_87">
     <path d="M 59.305625 55.452422 
L 80.305625 55.452422 
L 80.305625 48.102422 
L 59.305625 48.102422 
z
" style="fill: #2271b6"/>
    </g>
    <g id="text_26">
     <!-- Two or more doses (reported deaths) -->
     <g transform="translate(88.705625 55.452422) scale(0.105 -0.105)">
      <use xlink:href="#DejaVuSans-54"/>
      <use xlink:href="#DejaVuSans-77" x="44.583984"/>
      <use xlink:href="#DejaVuSans-6f" x="126.371094"/>
      <use xlink:href="#DejaVuSans-20" x="187.552734"/>
      <use xlink:href="#DejaVuSans-6f" x="219.339844"/>
      <use xlink:href="#DejaVuSans-72" x="280.521484"/>
      <use xlink:href="#DejaVuSans-20" x="321.634766"/>
      <use xlink:href="#DejaVuSans-6d" x="353.421875"/>
      <use xlink:href="#DejaVuSans-6f" x="450.833984"/>
      <use xlink:href="#DejaVuSans-72" x="512.015625"/>
      <use xlink:href="#DejaVuSans-65" x="550.878906"/>
      <use xlink:href="#DejaVuSans-20" x="612.402344"/>
      <use xlink:href="#DejaVuSans-64" x="644.189453"/>
      <use xlink:href="#DejaVuSans-6f" x="707.666016"/>
      <use xlink:href="#DejaVuSans-73" x="768.847656"/>
      <use xlink:href="#DejaVuSans-65" x="820.947266"/>
      <use xlink:href="#DejaVuSans-73" x="882.470703"/>
      <use xlink:href="#DejaVuSans-20" x="934.570312"/>
      <use xlink:href="#DejaVuSans-28" x="966.357422"/>
      <use xlink:href="#DejaVuSans-72" x="1005.371094"/>
      <use xlink:href="#DejaVuSans-65" x="1044.234375"/>
      <use xlink:href="#DejaVuSans-70" x="1105.757812"/>
      <use xlink:href="#DejaVuSans-6f" x="1169.234375"/>
      <use xlink:href="#DejaVuSans-72" x="1230.416016"/>
      <use xlink:href="#DejaVuSans-74" x="1271.529297"/>
      <use xlink:href="#DejaVuSans-65" x="1310.738281"/>
      <use xlink:href="#DejaVuSans-64" x="1372.261719"/>
      <use xlink:href="#DejaVuSans-20" x="1435.738281"/>
      <use xlink:href="#DejaVuSans-64" x="1467.525391"/>
      <use xlink:href="#DejaVuSans-65" x="1531.001953"/>
      <use xlink:href="#DejaVuSans-61" x="1592.525391"/>
      <use xlink:href="#DejaVuSans-74" x="1653.804688"/>
      <use xlink:href="#DejaVuSans-68" x="1693.013672"/>
      <use xlink:href="#DejaVuSans-73" x="1756.392578"/>
      <use xlink:href="#DejaVuSans-29" x="1808.492188"/>
     </g>
    </g>
    <g id="patch_88">
     <path d="M 59.305625 70.864453 
L 80.305625 70.864453 
L 80.305625 63.514453 
L 59.305625 63.514453 
z
" style="fill: #fd9272"/>
    </g>
    <g id="text_27">
     <!-- No dose (total deaths) -->
     <g transform="translate(88.705625 70.864453) scale(0.105 -0.105)">
      <use xlink:href="#DejaVuSans-4e"/>
      <use xlink:href="#DejaVuSans-6f" x="74.804688"/>
      <use xlink:href="#DejaVuSans-20" x="135.986328"/>
      <use xlink:href="#DejaVuSans-64" x="167.773438"/>
      <use xlink:href="#DejaVuSans-6f" x="231.25"/>
      <use xlink:href="#DejaVuSans-73" x="292.431641"/>
      <use xlink:href="#DejaVuSans-65" x="344.53125"/>
      <use xlink:href="#DejaVuSans-20" x="406.054688"/>
      <use xlink:href="#DejaVuSans-28" x="437.841797"/>
      <use xlink:href="#DejaVuSans-74" x="476.855469"/>
      <use xlink:href="#DejaVuSans-6f" x="516.064453"/>
      <use xlink:href="#DejaVuSans-74" x="577.246094"/>
      <use xlink:href="#DejaVuSans-61" x="616.455078"/>
      <use xlink:href="#DejaVuSans-6c" x="677.734375"/>
      <use xlink:href="#DejaVuSans-20" x="705.517578"/>
      <use xlink:href="#DejaVuSans-64" x="737.304688"/>
      <use xlink:href="#DejaVuSans-65" x="800.78125"/>
      <use xlink:href="#DejaVuSans-61" x="862.304688"/>
      <use xlink:href="#DejaVuSans-74" x="923.583984"/>
      <use xlink:href="#DejaVuSans-68" x="962.792969"/>
      <use xlink:href="#DejaVuSans-73" x="1026.171875"/>
      <use xlink:href="#DejaVuSans-29" x="1078.271484"/>
     </g>
    </g>
    <g id="patch_89">
     <path d="M 59.305625 86.276484 
L 80.305625 86.276484 
L 80.305625 78.926484 
L 59.305625 78.926484 
z
" style="fill: #fb6a4b"/>
    </g>
    <g id="text_28">
     <!-- One dose (total deaths) -->
     <g transform="translate(88.705625 86.276484) scale(0.105 -0.105)">
      <use xlink:href="#DejaVuSans-4f"/>
      <use xlink:href="#DejaVuSans-6e" x="78.710938"/>
      <use xlink:href="#DejaVuSans-65" x="142.089844"/>
      <use xlink:href="#DejaVuSans-20" x="203.613281"/>
      <use xlink:href="#DejaVuSans-64" x="235.400391"/>
      <use xlink:href="#DejaVuSans-6f" x="298.876953"/>
      <use xlink:href="#DejaVuSans-73" x="360.058594"/>
      <use xlink:href="#DejaVuSans-65" x="412.158203"/>
      <use xlink:href="#DejaVuSans-20" x="473.681641"/>
      <use xlink:href="#DejaVuSans-28" x="505.46875"/>
      <use xlink:href="#DejaVuSans-74" x="544.482422"/>
      <use xlink:href="#DejaVuSans-6f" x="583.691406"/>
      <use xlink:href="#DejaVuSans-74" x="644.873047"/>
      <use xlink:href="#DejaVuSans-61" x="684.082031"/>
      <use xlink:href="#DejaVuSans-6c" x="745.361328"/>
      <use xlink:href="#DejaVuSans-20" x="773.144531"/>
      <use xlink:href="#DejaVuSans-64" x="804.931641"/>
      <use xlink:href="#DejaVuSans-65" x="868.408203"/>
      <use xlink:href="#DejaVuSans-61" x="929.931641"/>
      <use xlink:href="#DejaVuSans-74" x="991.210938"/>
      <use xlink:href="#DejaVuSans-68" x="1030.419922"/>
      <use xlink:href="#DejaVuSans-73" x="1093.798828"/>
      <use xlink:href="#DejaVuSans-29" x="1145.898438"/>
     </g>
    </g>
    <g id="patch_90">
     <path d="M 59.305625 101.688516 
L 80.305625 101.688516 
L 80.305625 94.338516 
L 59.305625 94.338516 
z
" style="fill: #cb181c"/>
    </g>
    <g id="text_29">
     <!-- Two or more doses (total deaths) -->
     <g transform="translate(88.705625 101.688516) scale(0.105 -0.105)">
      <use xlink:href="#DejaVuSans-54"/>
      <use xlink:href="#DejaVuSans-77" x="44.583984"/>
      <use xlink:href="#DejaVuSans-6f" x="126.371094"/>
      <use xlink:href="#DejaVuSans-20" x="187.552734"/>
      <use xlink:href="#DejaVuSans-6f" x="219.339844"/>
      <use xlink:href="#DejaVuSans-72" x="280.521484"/>
      <use xlink:href="#DejaVuSans-20" x="321.634766"/>
      <use xlink:href="#DejaVuSans-6d" x="353.421875"/>
      <use xlink:href="#DejaVuSans-6f" x="450.833984"/>
      <use xlink:href="#DejaVuSans-72" x="512.015625"/>
      <use xlink:href="#DejaVuSans-65" x="550.878906"/>
      <use xlink:href="#DejaVuSans-20" x="612.402344"/>
      <use xlink:href="#DejaVuSans-64" x="644.189453"/>
      <use xlink:href="#DejaVuSans-6f" x="707.666016"/>
      <use xlink:href="#DejaVuSans-73" x="768.847656"/>
      <use xlink:href="#DejaVuSans-65" x="820.947266"/>
      <use xlink:href="#DejaVuSans-73" x="882.470703"/>
      <use xlink:href="#DejaVuSans-20" x="934.570312"/>
      <use xlink:href="#DejaVuSans-28" x="966.357422"/>
      <use xlink:href="#DejaVuSans-74" x="1005.371094"/>
      <use xlink:href="#DejaVuSans-6f" x="1044.580078"/>
      <use xlink:href="#DejaVuSans-74" x="1105.761719"/>
      <use xlink:href="#DejaVuSans-61" x="1144.970703"/>
      <use xlink:href="#DejaVuSans-6c" x="1206.25"/>
      <use xlink:href="#DejaVuSans-20" x="1234.033203"/>
      <use xlink:href="#DejaVuSans-64" x="1265.820312"/>
      <use xlink:href="#DejaVuSans-65" x="1329.296875"/>
      <use xlink:href="#DejaVuSans-61" x="1390.820312"/>
      <use xlink:href="#DejaVuSans-74" x="1452.099609"/>
      <use xlink:href="#DejaVuSans-68" x="1491.308594"/>
      <use xlink:href="#DejaVuSans-73" x="1554.6875"/>
      <use xlink:href="#DejaVuSans-29" x="1606.787109"/>
     </g>
    </g>
   </g>
  </g>
 </g>
 <defs>
  <clipPath id="p1080a7839e">
   <rect x="49.855625" y="7.2" width="613.8" height="360.36"/>
  </clipPath>
 </defs>
</svg>
