<?xml version="1.0" encoding="utf-8" standalone="no"?>
<!DOCTYPE svg PUBLIC "-//W3C//DTD SVG 1.1//EN"
  "http://www.w3.org/Graphics/SVG/1.1/DTD/svg11.dtd">
<svg xmlns:xlink="http://www.w3.org/1999/xlink" width="670.855625pt" height="447.353052pt" viewBox="0 0 670.855625 447.353052" xmlns="http://www.w3.org/2000/svg" version="1.1">
 <metadata>
  <rdf:RDF xmlns:dc="http://purl.org/dc/elements/1.1/" xmlns:cc="http://creativecommons.org/ns#" xmlns:rdf="http://www.w3.org/1999/02/22-rdf-syntax-ns#">
   <cc:Work>
    <dc:type rdf:resource="http://purl.org/dc/dcmitype/StillImage"/>
    <dc:date>2024-01-31T16:37:37.769187</dc:date>
    <dc:format>image/svg+xml</dc:format>
    <dc:creator>
     <cc:Agent>
      <dc:title>Matplotlib v3.6.3, https://matplotlib.org/</dc:title>
     </cc:Agent>
    </dc:creator>
   </cc:Work>
  </rdf:RDF>
 </metadata>
 <defs>
  <style type="text/css">*{stroke-linejoin: round; stroke-linecap: butt}</style>
 </defs>
 <g id="figure_1">
  <g id="patch_1">
   <path d="M 0 447.353052 
L 670.855625 447.353052 
L 670.855625 0 
L 0 0 
z
" style="fill: #ffffff"/>
  </g>
  <g id="axes_1">
   <g id="patch_2">
    <path d="M 49.855625 367.56 
L 663.655625 367.56 
L 663.655625 7.2 
L 49.855625 7.2 
z
" style="fill: #ffffff"/>
   </g>
   <g id="patch_3">
    <path d="M 77.755625 367.56 
L 83.629309 367.56 
L 83.629309 357.212261 
L 77.755625 357.212261 
z
" clip-path="url(#p70a5098af8)" style="fill: #fee1d3"/>
   </g>
   <g id="patch_4">
    <path d="M 89.502993 367.56 
L 95.376678 367.56 
L 95.376678 357.212261 
L 89.502993 357.212261 
z
" clip-path="url(#p70a5098af8)" style="fill: #fee1d3"/>
   </g>
   <g id="patch_5">
    <path d="M 101.250362 367.56 
L 107.124046 367.56 
L 107.124046 359.511759 
L 101.250362 359.511759 
z
" clip-path="url(#p70a5098af8)" style="fill: #fee1d3"/>
   </g>
   <g id="patch_6">
    <path d="M 112.99773 367.56 
L 118.871414 367.56 
L 118.871414 349.16402 
L 112.99773 349.16402 
z
" clip-path="url(#p70a5098af8)" style="fill: #fee1d3"/>
   </g>
   <g id="patch_7">
    <path d="M 124.745099 367.56 
L 130.618783 367.56 
L 130.618783 343.990151 
L 124.745099 343.990151 
z
" clip-path="url(#p70a5098af8)" style="fill: #fee1d3"/>
   </g>
   <g id="patch_8">
    <path d="M 136.492467 367.56 
L 142.366151 367.56 
L 142.366151 334.792161 
L 136.492467 334.792161 
z
" clip-path="url(#p70a5098af8)" style="fill: #fee1d3"/>
   </g>
   <g id="patch_9">
    <path d="M 148.239836 367.56 
L 154.11352 367.56 
L 154.11352 338.816281 
L 148.239836 338.816281 
z
" clip-path="url(#p70a5098af8)" style="fill: #fee1d3"/>
   </g>
   <g id="patch_10">
    <path d="M 159.987204 367.56 
L 165.860888 367.56 
L 165.860888 329.043417 
L 159.987204 329.043417 
z
" clip-path="url(#p70a5098af8)" style="fill: #fee1d3"/>
   </g>
   <g id="patch_11">
    <path d="M 171.734572 367.56 
L 177.608257 367.56 
L 177.608257 337.091658 
L 171.734572 337.091658 
z
" clip-path="url(#p70a5098af8)" style="fill: #fee1d3"/>
   </g>
   <g id="patch_12">
    <path d="M 183.481941 367.56 
L 189.355625 367.56 
L 189.355625 350.888643 
L 183.481941 350.888643 
z
" clip-path="url(#p70a5098af8)" style="fill: #fee1d3"/>
   </g>
   <g id="patch_13">
    <path d="M 195.229309 367.56 
L 201.102993 367.56 
L 201.102993 353.763015 
L 195.229309 353.763015 
z
" clip-path="url(#p70a5098af8)" style="fill: #fee1d3"/>
   </g>
   <g id="patch_14">
    <path d="M 206.976678 367.56 
L 212.850362 367.56 
L 212.850362 358.936884 
L 206.976678 358.936884 
z
" clip-path="url(#p70a5098af8)" style="fill: #fee1d3"/>
   </g>
   <g id="patch_15">
    <path d="M 218.724046 367.56 
L 224.59773 367.56 
L 224.59773 355.487638 
L 218.724046 355.487638 
z
" clip-path="url(#p70a5098af8)" style="fill: #fee1d3"/>
   </g>
   <g id="patch_16">
    <path d="M 230.471414 367.56 
L 236.345099 367.56 
L 236.345099 361.811256 
L 230.471414 361.811256 
z
" clip-path="url(#p70a5098af8)" style="fill: #fee1d3"/>
   </g>
   <g id="patch_17">
    <path d="M 242.218783 367.56 
L 248.092467 367.56 
L 248.092467 362.386131 
L 242.218783 362.386131 
z
" clip-path="url(#p70a5098af8)" style="fill: #fee1d3"/>
   </g>
   <g id="patch_18">
    <path d="M 253.966151 367.56 
L 259.839836 367.56 
L 259.839836 364.685628 
L 253.966151 364.685628 
z
" clip-path="url(#p70a5098af8)" style="fill: #fee1d3"/>
   </g>
   <g id="patch_19">
    <path d="M 265.71352 367.56 
L 271.587204 367.56 
L 271.587204 365.260503 
L 265.71352 365.260503 
z
" clip-path="url(#p70a5098af8)" style="fill: #fee1d3"/>
   </g>
   <g id="patch_20">
    <path d="M 277.460888 367.56 
L 283.334572 367.56 
L 283.334572 362.961005 
L 277.460888 362.961005 
z
" clip-path="url(#p70a5098af8)" style="fill: #fee1d3"/>
   </g>
   <g id="patch_21">
    <path d="M 289.208257 367.56 
L 295.081941 367.56 
L 295.081941 365.260503 
L 289.208257 365.260503 
z
" clip-path="url(#p70a5098af8)" style="fill: #fee1d3"/>
   </g>
   <g id="patch_22">
    <path d="M 300.955625 367.56 
L 306.829309 367.56 
L 306.829309 363.535879 
L 300.955625 363.535879 
z
" clip-path="url(#p70a5098af8)" style="fill: #fee1d3"/>
   </g>
   <g id="patch_23">
    <path d="M 312.702993 367.56 
L 318.576678 367.56 
L 318.576678 357.212261 
L 312.702993 357.212261 
z
" clip-path="url(#p70a5098af8)" style="fill: #fee1d3"/>
   </g>
   <g id="patch_24">
    <path d="M 324.450362 367.56 
L 330.324046 367.56 
L 330.324046 335.367035 
L 324.450362 335.367035 
z
" clip-path="url(#p70a5098af8)" style="fill: #fee1d3"/>
   </g>
   <g id="patch_25">
    <path d="M 336.19773 367.56 
L 342.071414 367.56 
L 342.071414 302.599196 
L 336.19773 302.599196 
z
" clip-path="url(#p70a5098af8)" style="fill: #fee1d3"/>
   </g>
   <g id="patch_26">
    <path d="M 347.945099 367.56 
L 353.818783 367.56 
L 353.818783 261.208241 
L 347.945099 261.208241 
z
" clip-path="url(#p70a5098af8)" style="fill: #fee1d3"/>
   </g>
   <g id="patch_27">
    <path d="M 359.692467 367.56 
L 365.566151 367.56 
L 365.566151 241.662513 
L 359.692467 241.662513 
z
" clip-path="url(#p70a5098af8)" style="fill: #fee1d3"/>
   </g>
   <g id="patch_28">
    <path d="M 371.439836 367.56 
L 377.31352 367.56 
L 377.31352 275.005226 
L 371.439836 275.005226 
z
" clip-path="url(#p70a5098af8)" style="fill: #fee1d3"/>
   </g>
   <g id="patch_29">
    <path d="M 383.187204 367.56 
L 389.060888 367.56 
L 389.060888 303.17407 
L 383.187204 303.17407 
z
" clip-path="url(#p70a5098af8)" style="fill: #fee1d3"/>
   </g>
   <g id="patch_30">
    <path d="M 394.934572 367.56 
L 400.808257 367.56 
L 400.808257 299.14995 
L 394.934572 299.14995 
z
" clip-path="url(#p70a5098af8)" style="fill: #fee1d3"/>
   </g>
   <g id="patch_31">
    <path d="M 406.681941 367.56 
L 412.555625 367.56 
L 412.555625 338.816281 
L 406.681941 338.816281 
z
" clip-path="url(#p70a5098af8)" style="fill: #fee1d3"/>
   </g>
   <g id="patch_32">
    <path d="M 418.429309 367.56 
L 424.302993 367.56 
L 424.302993 342.265528 
L 418.429309 342.265528 
z
" clip-path="url(#p70a5098af8)" style="fill: #fee1d3"/>
   </g>
   <g id="patch_33">
    <path d="M 430.176678 367.56 
L 436.050362 367.56 
L 436.050362 344.565025 
L 430.176678 344.565025 
z
" clip-path="url(#p70a5098af8)" style="fill: #fee1d3"/>
   </g>
   <g id="patch_34">
    <path d="M 441.924046 367.56 
L 447.79773 367.56 
L 447.79773 346.289648 
L 441.924046 346.289648 
z
" clip-path="url(#p70a5098af8)" style="fill: #fee1d3"/>
   </g>
   <g id="patch_35">
    <path d="M 453.671414 367.56 
L 459.545099 367.56 
L 459.545099 350.313769 
L 453.671414 350.313769 
z
" clip-path="url(#p70a5098af8)" style="fill: #fee1d3"/>
   </g>
   <g id="patch_36">
    <path d="M 465.418783 367.56 
L 471.292467 367.56 
L 471.292467 326.74392 
L 465.418783 326.74392 
z
" clip-path="url(#p70a5098af8)" style="fill: #fee1d3"/>
   </g>
   <g id="patch_37">
    <path d="M 477.166151 367.56 
L 483.039836 367.56 
L 483.039836 326.169045 
L 477.166151 326.169045 
z
" clip-path="url(#p70a5098af8)" style="fill: #fee1d3"/>
   </g>
   <g id="patch_38">
    <path d="M 488.91352 367.56 
L 494.787204 367.56 
L 494.787204 319.845427 
L 488.91352 319.845427 
z
" clip-path="url(#p70a5098af8)" style="fill: #fee1d3"/>
   </g>
   <g id="patch_39">
    <path d="M 500.660888 367.56 
L 506.534572 367.56 
L 506.534572 322.719799 
L 500.660888 322.719799 
z
" clip-path="url(#p70a5098af8)" style="fill: #fee1d3"/>
   </g>
   <g id="patch_40">
    <path d="M 512.408257 367.56 
L 518.281941 367.56 
L 518.281941 320.995176 
L 512.408257 320.995176 
z
" clip-path="url(#p70a5098af8)" style="fill: #fee1d3"/>
   </g>
   <g id="patch_41">
    <path d="M 524.155625 367.56 
L 530.029309 367.56 
L 530.029309 309.497688 
L 524.155625 309.497688 
z
" clip-path="url(#p70a5098af8)" style="fill: #fee1d3"/>
   </g>
   <g id="patch_42">
    <path d="M 535.902993 367.56 
L 541.776678 367.56 
L 541.776678 316.971055 
L 535.902993 316.971055 
z
" clip-path="url(#p70a5098af8)" style="fill: #fee1d3"/>
   </g>
   <g id="patch_43">
    <path d="M 547.650362 367.56 
L 553.524046 367.56 
L 553.524046 318.695678 
L 547.650362 318.695678 
z
" clip-path="url(#p70a5098af8)" style="fill: #fee1d3"/>
   </g>
   <g id="patch_44">
    <path d="M 559.39773 367.56 
L 565.271414 367.56 
L 565.271414 312.946935 
L 559.39773 312.946935 
z
" clip-path="url(#p70a5098af8)" style="fill: #fee1d3"/>
   </g>
   <g id="patch_45">
    <path d="M 571.145099 367.56 
L 577.018783 367.56 
L 577.018783 320.995176 
L 571.145099 320.995176 
z
" clip-path="url(#p70a5098af8)" style="fill: #fee1d3"/>
   </g>
   <g id="patch_46">
    <path d="M 582.892467 367.56 
L 588.766151 367.56 
L 588.766151 323.294673 
L 582.892467 323.294673 
z
" clip-path="url(#p70a5098af8)" style="fill: #fee1d3"/>
   </g>
   <g id="patch_47">
    <path d="M 594.639836 367.56 
L 600.51352 367.56 
L 600.51352 325.594171 
L 594.639836 325.594171 
z
" clip-path="url(#p70a5098af8)" style="fill: #fee1d3"/>
   </g>
   <g id="patch_48">
    <path d="M 606.387204 367.56 
L 612.260888 367.56 
L 612.260888 310.072563 
L 606.387204 310.072563 
z
" clip-path="url(#p70a5098af8)" style="fill: #fee1d3"/>
   </g>
   <g id="patch_49">
    <path d="M 618.134572 367.56 
L 624.008257 367.56 
L 624.008257 304.898693 
L 618.134572 304.898693 
z
" clip-path="url(#p70a5098af8)" style="fill: #fee1d3"/>
   </g>
   <g id="patch_50">
    <path d="M 629.881941 367.56 
L 635.755625 367.56 
L 635.755625 314.671558 
L 629.881941 314.671558 
z
" clip-path="url(#p70a5098af8)" style="fill: #fee1d3"/>
   </g>
   <g id="patch_51">
    <path d="M 77.755625 357.212261 
L 83.629309 357.212261 
L 83.629309 357.212261 
L 77.755625 357.212261 
z
" clip-path="url(#p70a5098af8)" style="fill: #fd9272"/>
   </g>
   <g id="patch_52">
    <path d="M 89.502993 357.212261 
L 95.376678 357.212261 
L 95.376678 356.062513 
L 89.502993 356.062513 
z
" clip-path="url(#p70a5098af8)" style="fill: #fd9272"/>
   </g>
   <g id="patch_53">
    <path d="M 101.250362 359.511759 
L 107.124046 359.511759 
L 107.124046 357.787136 
L 101.250362 357.787136 
z
" clip-path="url(#p70a5098af8)" style="fill: #fd9272"/>
   </g>
   <g id="patch_54">
    <path d="M 112.99773 349.16402 
L 118.871414 349.16402 
L 118.871414 346.289648 
L 112.99773 346.289648 
z
" clip-path="url(#p70a5098af8)" style="fill: #fd9272"/>
   </g>
   <g id="patch_55">
    <path d="M 124.745099 343.990151 
L 130.618783 343.990151 
L 130.618783 343.415276 
L 124.745099 343.415276 
z
" clip-path="url(#p70a5098af8)" style="fill: #fd9272"/>
   </g>
   <g id="patch_56">
    <path d="M 136.492467 334.792161 
L 142.366151 334.792161 
L 142.366151 334.217286 
L 136.492467 334.217286 
z
" clip-path="url(#p70a5098af8)" style="fill: #fd9272"/>
   </g>
   <g id="patch_57">
    <path d="M 148.239836 338.816281 
L 154.11352 338.816281 
L 154.11352 337.666533 
L 148.239836 337.666533 
z
" clip-path="url(#p70a5098af8)" style="fill: #fd9272"/>
   </g>
   <g id="patch_58">
    <path d="M 159.987204 329.043417 
L 165.860888 329.043417 
L 165.860888 326.74392 
L 159.987204 326.74392 
z
" clip-path="url(#p70a5098af8)" style="fill: #fd9272"/>
   </g>
   <g id="patch_59">
    <path d="M 171.734572 337.091658 
L 177.608257 337.091658 
L 177.608257 333.642412 
L 171.734572 333.642412 
z
" clip-path="url(#p70a5098af8)" style="fill: #fd9272"/>
   </g>
   <g id="patch_60">
    <path d="M 183.481941 350.888643 
L 189.355625 350.888643 
L 189.355625 348.589146 
L 183.481941 348.589146 
z
" clip-path="url(#p70a5098af8)" style="fill: #fd9272"/>
   </g>
   <g id="patch_61">
    <path d="M 195.229309 353.763015 
L 201.102993 353.763015 
L 201.102993 352.613266 
L 195.229309 352.613266 
z
" clip-path="url(#p70a5098af8)" style="fill: #fd9272"/>
   </g>
   <g id="patch_62">
    <path d="M 206.976678 358.936884 
L 212.850362 358.936884 
L 212.850362 358.936884 
L 206.976678 358.936884 
z
" clip-path="url(#p70a5098af8)" style="fill: #fd9272"/>
   </g>
   <g id="patch_63">
    <path d="M 218.724046 355.487638 
L 224.59773 355.487638 
L 224.59773 354.337889 
L 218.724046 354.337889 
z
" clip-path="url(#p70a5098af8)" style="fill: #fd9272"/>
   </g>
   <g id="patch_64">
    <path d="M 230.471414 361.811256 
L 236.345099 361.811256 
L 236.345099 361.236382 
L 230.471414 361.236382 
z
" clip-path="url(#p70a5098af8)" style="fill: #fd9272"/>
   </g>
   <g id="patch_65">
    <path d="M 242.218783 362.386131 
L 248.092467 362.386131 
L 248.092467 361.811256 
L 242.218783 361.811256 
z
" clip-path="url(#p70a5098af8)" style="fill: #fd9272"/>
   </g>
   <g id="patch_66">
    <path d="M 253.966151 364.685628 
L 259.839836 364.685628 
L 259.839836 364.685628 
L 253.966151 364.685628 
z
" clip-path="url(#p70a5098af8)" style="fill: #fd9272"/>
   </g>
   <g id="patch_67">
    <path d="M 265.71352 365.260503 
L 271.587204 365.260503 
L 271.587204 365.260503 
L 265.71352 365.260503 
z
" clip-path="url(#p70a5098af8)" style="fill: #fd9272"/>
   </g>
   <g id="patch_68">
    <path d="M 277.460888 362.961005 
L 283.334572 362.961005 
L 283.334572 361.811256 
L 277.460888 361.811256 
z
" clip-path="url(#p70a5098af8)" style="fill: #fd9272"/>
   </g>
   <g id="patch_69">
    <path d="M 289.208257 365.260503 
L 295.081941 365.260503 
L 295.081941 365.260503 
L 289.208257 365.260503 
z
" clip-path="url(#p70a5098af8)" style="fill: #fd9272"/>
   </g>
   <g id="patch_70">
    <path d="M 300.955625 363.535879 
L 306.829309 363.535879 
L 306.829309 363.535879 
L 300.955625 363.535879 
z
" clip-path="url(#p70a5098af8)" style="fill: #fd9272"/>
   </g>
   <g id="patch_71">
    <path d="M 312.702993 357.212261 
L 318.576678 357.212261 
L 318.576678 356.062513 
L 312.702993 356.062513 
z
" clip-path="url(#p70a5098af8)" style="fill: #fd9272"/>
   </g>
   <g id="patch_72">
    <path d="M 324.450362 335.367035 
L 330.324046 335.367035 
L 330.324046 333.067538 
L 324.450362 333.067538 
z
" clip-path="url(#p70a5098af8)" style="fill: #fd9272"/>
   </g>
   <g id="patch_73">
    <path d="M 336.19773 302.599196 
L 342.071414 302.599196 
L 342.071414 299.14995 
L 336.19773 299.14995 
z
" clip-path="url(#p70a5098af8)" style="fill: #fd9272"/>
   </g>
   <g id="patch_74">
    <path d="M 347.945099 261.208241 
L 353.818783 261.208241 
L 353.818783 255.459497 
L 347.945099 255.459497 
z
" clip-path="url(#p70a5098af8)" style="fill: #fd9272"/>
   </g>
   <g id="patch_75">
    <path d="M 359.692467 241.662513 
L 365.566151 241.662513 
L 365.566151 187.049447 
L 359.692467 187.049447 
z
" clip-path="url(#p70a5098af8)" style="fill: #fd9272"/>
   </g>
   <g id="patch_76">
    <path d="M 371.439836 275.005226 
L 377.31352 275.005226 
L 377.31352 262.932864 
L 371.439836 262.932864 
z
" clip-path="url(#p70a5098af8)" style="fill: #fd9272"/>
   </g>
   <g id="patch_77">
    <path d="M 383.187204 303.17407 
L 389.060888 303.17407 
L 389.060888 284.77809 
L 383.187204 284.77809 
z
" clip-path="url(#p70a5098af8)" style="fill: #fd9272"/>
   </g>
   <g id="patch_78">
    <path d="M 394.934572 299.14995 
L 400.808257 299.14995 
L 400.808257 299.14995 
L 394.934572 299.14995 
z
" clip-path="url(#p70a5098af8)" style="fill: #fd9272"/>
   </g>
   <g id="patch_79">
    <path d="M 406.681941 338.816281 
L 412.555625 338.816281 
L 412.555625 338.816281 
L 406.681941 338.816281 
z
" clip-path="url(#p70a5098af8)" style="fill: #fd9272"/>
   </g>
   <g id="patch_80">
    <path d="M 418.429309 342.265528 
L 424.302993 342.265528 
L 424.302993 342.265528 
L 418.429309 342.265528 
z
" clip-path="url(#p70a5098af8)" style="fill: #fd9272"/>
   </g>
   <g id="patch_81">
    <path d="M 430.176678 344.565025 
L 436.050362 344.565025 
L 436.050362 344.565025 
L 430.176678 344.565025 
z
" clip-path="url(#p70a5098af8)" style="fill: #fd9272"/>
   </g>
   <g id="patch_82">
    <path d="M 441.924046 346.289648 
L 447.79773 346.289648 
L 447.79773 346.289648 
L 441.924046 346.289648 
z
" clip-path="url(#p70a5098af8)" style="fill: #fd9272"/>
   </g>
   <g id="patch_83">
    <path d="M 453.671414 350.313769 
L 459.545099 350.313769 
L 459.545099 350.313769 
L 453.671414 350.313769 
z
" clip-path="url(#p70a5098af8)" style="fill: #fd9272"/>
   </g>
   <g id="patch_84">
    <path d="M 465.418783 326.74392 
L 471.292467 326.74392 
L 471.292467 326.74392 
L 465.418783 326.74392 
z
" clip-path="url(#p70a5098af8)" style="fill: #fd9272"/>
   </g>
   <g id="patch_85">
    <path d="M 477.166151 326.169045 
L 483.039836 326.169045 
L 483.039836 326.169045 
L 477.166151 326.169045 
z
" clip-path="url(#p70a5098af8)" style="fill: #fd9272"/>
   </g>
   <g id="patch_86">
    <path d="M 488.91352 319.845427 
L 494.787204 319.845427 
L 494.787204 319.845427 
L 488.91352 319.845427 
z
" clip-path="url(#p70a5098af8)" style="fill: #fd9272"/>
   </g>
   <g id="patch_87">
    <path d="M 500.660888 322.719799 
L 506.534572 322.719799 
L 506.534572 322.719799 
L 500.660888 322.719799 
z
" clip-path="url(#p70a5098af8)" style="fill: #fd9272"/>
   </g>
   <g id="patch_88">
    <path d="M 512.408257 320.995176 
L 518.281941 320.995176 
L 518.281941 320.995176 
L 512.408257 320.995176 
z
" clip-path="url(#p70a5098af8)" style="fill: #fd9272"/>
   </g>
   <g id="patch_89">
    <path d="M 524.155625 309.497688 
L 530.029309 309.497688 
L 530.029309 309.497688 
L 524.155625 309.497688 
z
" clip-path="url(#p70a5098af8)" style="fill: #fd9272"/>
   </g>
   <g id="patch_90">
    <path d="M 535.902993 316.971055 
L 541.776678 316.971055 
L 541.776678 316.971055 
L 535.902993 316.971055 
z
" clip-path="url(#p70a5098af8)" style="fill: #fd9272"/>
   </g>
   <g id="patch_91">
    <path d="M 547.650362 318.695678 
L 553.524046 318.695678 
L 553.524046 318.695678 
L 547.650362 318.695678 
z
" clip-path="url(#p70a5098af8)" style="fill: #fd9272"/>
   </g>
   <g id="patch_92">
    <path d="M 559.39773 312.946935 
L 565.271414 312.946935 
L 565.271414 311.797186 
L 559.39773 311.797186 
z
" clip-path="url(#p70a5098af8)" style="fill: #fd9272"/>
   </g>
   <g id="patch_93">
    <path d="M 571.145099 320.995176 
L 577.018783 320.995176 
L 577.018783 319.845427 
L 571.145099 319.845427 
z
" clip-path="url(#p70a5098af8)" style="fill: #fd9272"/>
   </g>
   <g id="patch_94">
    <path d="M 582.892467 323.294673 
L 588.766151 323.294673 
L 588.766151 322.719799 
L 582.892467 322.719799 
z
" clip-path="url(#p70a5098af8)" style="fill: #fd9272"/>
   </g>
   <g id="patch_95">
    <path d="M 594.639836 325.594171 
L 600.51352 325.594171 
L 600.51352 324.444422 
L 594.639836 324.444422 
z
" clip-path="url(#p70a5098af8)" style="fill: #fd9272"/>
   </g>
   <g id="patch_96">
    <path d="M 606.387204 310.072563 
L 612.260888 310.072563 
L 612.260888 308.34794 
L 606.387204 308.34794 
z
" clip-path="url(#p70a5098af8)" style="fill: #fd9272"/>
   </g>
   <g id="patch_97">
    <path d="M 618.134572 304.898693 
L 624.008257 304.898693 
L 624.008257 303.17407 
L 618.134572 303.17407 
z
" clip-path="url(#p70a5098af8)" style="fill: #fd9272"/>
   </g>
   <g id="patch_98">
    <path d="M 629.881941 314.671558 
L 635.755625 314.671558 
L 635.755625 314.671558 
L 629.881941 314.671558 
z
" clip-path="url(#p70a5098af8)" style="fill: #fd9272"/>
   </g>
   <g id="patch_99">
    <path d="M 77.755625 357.212261 
L 83.629309 357.212261 
L 83.629309 356.062513 
L 77.755625 356.062513 
z
" clip-path="url(#p70a5098af8)" style="fill: #cb181c"/>
   </g>
   <g id="patch_100">
    <path d="M 89.502993 356.062513 
L 95.376678 356.062513 
L 95.376678 354.912764 
L 89.502993 354.912764 
z
" clip-path="url(#p70a5098af8)" style="fill: #cb181c"/>
   </g>
   <g id="patch_101">
    <path d="M 101.250362 357.787136 
L 107.124046 357.787136 
L 107.124046 356.637387 
L 101.250362 356.637387 
z
" clip-path="url(#p70a5098af8)" style="fill: #cb181c"/>
   </g>
   <g id="patch_102">
    <path d="M 112.99773 346.289648 
L 118.871414 346.289648 
L 118.871414 343.990151 
L 112.99773 343.990151 
z
" clip-path="url(#p70a5098af8)" style="fill: #cb181c"/>
   </g>
   <g id="patch_103">
    <path d="M 124.745099 343.415276 
L 130.618783 343.415276 
L 130.618783 341.115779 
L 124.745099 341.115779 
z
" clip-path="url(#p70a5098af8)" style="fill: #cb181c"/>
   </g>
   <g id="patch_104">
    <path d="M 136.492467 334.217286 
L 142.366151 334.217286 
L 142.366151 330.76804 
L 136.492467 330.76804 
z
" clip-path="url(#p70a5098af8)" style="fill: #cb181c"/>
   </g>
   <g id="patch_105">
    <path d="M 148.239836 337.666533 
L 154.11352 337.666533 
L 154.11352 334.792161 
L 148.239836 334.792161 
z
" clip-path="url(#p70a5098af8)" style="fill: #cb181c"/>
   </g>
   <g id="patch_106">
    <path d="M 159.987204 326.74392 
L 165.860888 326.74392 
L 165.860888 322.719799 
L 159.987204 322.719799 
z
" clip-path="url(#p70a5098af8)" style="fill: #cb181c"/>
   </g>
   <g id="patch_107">
    <path d="M 171.734572 333.642412 
L 177.608257 333.642412 
L 177.608257 330.193166 
L 171.734572 330.193166 
z
" clip-path="url(#p70a5098af8)" style="fill: #cb181c"/>
   </g>
   <g id="patch_108">
    <path d="M 183.481941 348.589146 
L 189.355625 348.589146 
L 189.355625 346.864523 
L 183.481941 346.864523 
z
" clip-path="url(#p70a5098af8)" style="fill: #cb181c"/>
   </g>
   <g id="patch_109">
    <path d="M 195.229309 352.613266 
L 201.102993 352.613266 
L 201.102993 350.888643 
L 195.229309 350.888643 
z
" clip-path="url(#p70a5098af8)" style="fill: #cb181c"/>
   </g>
   <g id="patch_110">
    <path d="M 206.976678 358.936884 
L 212.850362 358.936884 
L 212.850362 357.787136 
L 206.976678 357.787136 
z
" clip-path="url(#p70a5098af8)" style="fill: #cb181c"/>
   </g>
   <g id="patch_111">
    <path d="M 218.724046 354.337889 
L 224.59773 354.337889 
L 224.59773 353.188141 
L 218.724046 353.188141 
z
" clip-path="url(#p70a5098af8)" style="fill: #cb181c"/>
   </g>
   <g id="patch_112">
    <path d="M 230.471414 361.236382 
L 236.345099 361.236382 
L 236.345099 360.661508 
L 230.471414 360.661508 
z
" clip-path="url(#p70a5098af8)" style="fill: #cb181c"/>
   </g>
   <g id="patch_113">
    <path d="M 242.218783 361.811256 
L 248.092467 361.811256 
L 248.092467 361.236382 
L 242.218783 361.236382 
z
" clip-path="url(#p70a5098af8)" style="fill: #cb181c"/>
   </g>
   <g id="patch_114">
    <path d="M 253.966151 364.685628 
L 259.839836 364.685628 
L 259.839836 364.110754 
L 253.966151 364.110754 
z
" clip-path="url(#p70a5098af8)" style="fill: #cb181c"/>
   </g>
   <g id="patch_115">
    <path d="M 265.71352 365.260503 
L 271.587204 365.260503 
L 271.587204 365.260503 
L 265.71352 365.260503 
z
" clip-path="url(#p70a5098af8)" style="fill: #cb181c"/>
   </g>
   <g id="patch_116">
    <path d="M 277.460888 361.811256 
L 283.334572 361.811256 
L 283.334572 361.236382 
L 277.460888 361.236382 
z
" clip-path="url(#p70a5098af8)" style="fill: #cb181c"/>
   </g>
   <g id="patch_117">
    <path d="M 289.208257 365.260503 
L 295.081941 365.260503 
L 295.081941 365.260503 
L 289.208257 365.260503 
z
" clip-path="url(#p70a5098af8)" style="fill: #cb181c"/>
   </g>
   <g id="patch_118">
    <path d="M 300.955625 363.535879 
L 306.829309 363.535879 
L 306.829309 362.961005 
L 300.955625 362.961005 
z
" clip-path="url(#p70a5098af8)" style="fill: #cb181c"/>
   </g>
   <g id="patch_119">
    <path d="M 312.702993 356.062513 
L 318.576678 356.062513 
L 318.576678 354.912764 
L 312.702993 354.912764 
z
" clip-path="url(#p70a5098af8)" style="fill: #cb181c"/>
   </g>
   <g id="patch_120">
    <path d="M 324.450362 333.067538 
L 330.324046 333.067538 
L 330.324046 326.169045 
L 324.450362 326.169045 
z
" clip-path="url(#p70a5098af8)" style="fill: #cb181c"/>
   </g>
   <g id="patch_121">
    <path d="M 336.19773 299.14995 
L 342.071414 299.14995 
L 342.071414 285.352965 
L 336.19773 285.352965 
z
" clip-path="url(#p70a5098af8)" style="fill: #cb181c"/>
   </g>
   <g id="patch_122">
    <path d="M 347.945099 255.459497 
L 353.818783 255.459497 
L 353.818783 233.039397 
L 347.945099 233.039397 
z
" clip-path="url(#p70a5098af8)" style="fill: #cb181c"/>
   </g>
   <g id="patch_123">
    <path d="M 359.692467 187.049447 
L 365.566151 187.049447 
L 365.566151 151.407236 
L 359.692467 151.407236 
z
" clip-path="url(#p70a5098af8)" style="fill: #cb181c"/>
   </g>
   <g id="patch_124">
    <path d="M 371.439836 262.932864 
L 377.31352 262.932864 
L 377.31352 242.237387 
L 371.439836 242.237387 
z
" clip-path="url(#p70a5098af8)" style="fill: #cb181c"/>
   </g>
   <g id="patch_125">
    <path d="M 383.187204 284.77809 
L 389.060888 284.77809 
L 389.060888 268.681608 
L 383.187204 268.681608 
z
" clip-path="url(#p70a5098af8)" style="fill: #cb181c"/>
   </g>
   <g id="patch_126">
    <path d="M 394.934572 299.14995 
L 400.808257 299.14995 
L 400.808257 285.352965 
L 394.934572 285.352965 
z
" clip-path="url(#p70a5098af8)" style="fill: #cb181c"/>
   </g>
   <g id="patch_127">
    <path d="M 406.681941 338.816281 
L 412.555625 338.816281 
L 412.555625 333.067538 
L 406.681941 333.067538 
z
" clip-path="url(#p70a5098af8)" style="fill: #cb181c"/>
   </g>
   <g id="patch_128">
    <path d="M 418.429309 342.265528 
L 424.302993 342.265528 
L 424.302993 337.091658 
L 418.429309 337.091658 
z
" clip-path="url(#p70a5098af8)" style="fill: #cb181c"/>
   </g>
   <g id="patch_129">
    <path d="M 430.176678 344.565025 
L 436.050362 344.565025 
L 436.050362 339.96603 
L 430.176678 339.96603 
z
" clip-path="url(#p70a5098af8)" style="fill: #cb181c"/>
   </g>
   <g id="patch_130">
    <path d="M 441.924046 346.289648 
L 447.79773 346.289648 
L 447.79773 342.265528 
L 441.924046 342.265528 
z
" clip-path="url(#p70a5098af8)" style="fill: #cb181c"/>
   </g>
   <g id="patch_131">
    <path d="M 453.671414 350.313769 
L 459.545099 350.313769 
L 459.545099 346.864523 
L 453.671414 346.864523 
z
" clip-path="url(#p70a5098af8)" style="fill: #cb181c"/>
   </g>
   <g id="patch_132">
    <path d="M 465.418783 326.74392 
L 471.292467 326.74392 
L 471.292467 326.74392 
L 465.418783 326.74392 
z
" clip-path="url(#p70a5098af8)" style="fill: #cb181c"/>
   </g>
   <g id="patch_133">
    <path d="M 477.166151 326.169045 
L 483.039836 326.169045 
L 483.039836 326.169045 
L 477.166151 326.169045 
z
" clip-path="url(#p70a5098af8)" style="fill: #cb181c"/>
   </g>
   <g id="patch_134">
    <path d="M 488.91352 319.845427 
L 494.787204 319.845427 
L 494.787204 319.845427 
L 488.91352 319.845427 
z
" clip-path="url(#p70a5098af8)" style="fill: #cb181c"/>
   </g>
   <g id="patch_135">
    <path d="M 500.660888 322.719799 
L 506.534572 322.719799 
L 506.534572 322.719799 
L 500.660888 322.719799 
z
" clip-path="url(#p70a5098af8)" style="fill: #cb181c"/>
   </g>
   <g id="patch_136">
    <path d="M 512.408257 320.995176 
L 518.281941 320.995176 
L 518.281941 320.995176 
L 512.408257 320.995176 
z
" clip-path="url(#p70a5098af8)" style="fill: #cb181c"/>
   </g>
   <g id="patch_137">
    <path d="M 524.155625 309.497688 
L 530.029309 309.497688 
L 530.029309 309.497688 
L 524.155625 309.497688 
z
" clip-path="url(#p70a5098af8)" style="fill: #cb181c"/>
   </g>
   <g id="patch_138">
    <path d="M 535.902993 316.971055 
L 541.776678 316.971055 
L 541.776678 316.971055 
L 535.902993 316.971055 
z
" clip-path="url(#p70a5098af8)" style="fill: #cb181c"/>
   </g>
   <g id="patch_139">
    <path d="M 547.650362 318.695678 
L 553.524046 318.695678 
L 553.524046 318.695678 
L 547.650362 318.695678 
z
" clip-path="url(#p70a5098af8)" style="fill: #cb181c"/>
   </g>
   <g id="patch_140">
    <path d="M 559.39773 311.797186 
L 565.271414 311.797186 
L 565.271414 311.797186 
L 559.39773 311.797186 
z
" clip-path="url(#p70a5098af8)" style="fill: #cb181c"/>
   </g>
   <g id="patch_141">
    <path d="M 571.145099 319.845427 
L 577.018783 319.845427 
L 577.018783 319.845427 
L 571.145099 319.845427 
z
" clip-path="url(#p70a5098af8)" style="fill: #cb181c"/>
   </g>
   <g id="patch_142">
    <path d="M 582.892467 322.719799 
L 588.766151 322.719799 
L 588.766151 322.719799 
L 582.892467 322.719799 
z
" clip-path="url(#p70a5098af8)" style="fill: #cb181c"/>
   </g>
   <g id="patch_143">
    <path d="M 594.639836 324.444422 
L 600.51352 324.444422 
L 600.51352 324.444422 
L 594.639836 324.444422 
z
" clip-path="url(#p70a5098af8)" style="fill: #cb181c"/>
   </g>
   <g id="patch_144">
    <path d="M 606.387204 308.34794 
L 612.260888 308.34794 
L 612.260888 308.34794 
L 606.387204 308.34794 
z
" clip-path="url(#p70a5098af8)" style="fill: #cb181c"/>
   </g>
   <g id="patch_145">
    <path d="M 618.134572 303.17407 
L 624.008257 303.17407 
L 624.008257 303.17407 
L 618.134572 303.17407 
z
" clip-path="url(#p70a5098af8)" style="fill: #cb181c"/>
   </g>
   <g id="patch_146">
    <path d="M 629.881941 314.671558 
L 635.755625 314.671558 
L 635.755625 314.671558 
L 629.881941 314.671558 
z
" clip-path="url(#p70a5098af8)" style="fill: #cb181c"/>
   </g>
   <g id="matplotlib.axis_1">
    <g id="xtick_1">
     <g id="line2d_1">
      <defs>
       <path id="m988f999a33" d="M 0 0 
L 0 3.5 
" style="stroke: #000000; stroke-width: 0.8"/>
      </defs>
      <g>
       <use xlink:href="#m988f999a33" x="80.692467" y="367.56" style="stroke: #000000; stroke-width: 0.8"/>
      </g>
     </g>
     <g id="text_1">
      <!-- 2021/8/14 -->
      <g transform="translate(63.706326 418.271297) rotate(-45) scale(0.105 -0.105)">
       <defs>
        <path id="DejaVuSans-32" d="M 1228 531 
L 3431 531 
L 3431 0 
L 469 0 
L 469 531 
Q 828 903 1448 1529 
Q 2069 2156 2228 2338 
Q 2531 2678 2651 2914 
Q 2772 3150 2772 3378 
Q 2772 3750 2511 3984 
Q 2250 4219 1831 4219 
Q 1534 4219 1204 4116 
Q 875 4013 500 3803 
L 500 4441 
Q 881 4594 1212 4672 
Q 1544 4750 1819 4750 
Q 2544 4750 2975 4387 
Q 3406 4025 3406 3419 
Q 3406 3131 3298 2873 
Q 3191 2616 2906 2266 
Q 2828 2175 2409 1742 
Q 1991 1309 1228 531 
z
" transform="scale(0.015625)"/>
        <path id="DejaVuSans-30" d="M 2034 4250 
Q 1547 4250 1301 3770 
Q 1056 3291 1056 2328 
Q 1056 1369 1301 889 
Q 1547 409 2034 409 
Q 2525 409 2770 889 
Q 3016 1369 3016 2328 
Q 3016 3291 2770 3770 
Q 2525 4250 2034 4250 
z
M 2034 4750 
Q 2819 4750 3233 4129 
Q 3647 3509 3647 2328 
Q 3647 1150 3233 529 
Q 2819 -91 2034 -91 
Q 1250 -91 836 529 
Q 422 1150 422 2328 
Q 422 3509 836 4129 
Q 1250 4750 2034 4750 
z
" transform="scale(0.015625)"/>
        <path id="DejaVuSans-31" d="M 794 531 
L 1825 531 
L 1825 4091 
L 703 3866 
L 703 4441 
L 1819 4666 
L 2450 4666 
L 2450 531 
L 3481 531 
L 3481 0 
L 794 0 
L 794 531 
z
" transform="scale(0.015625)"/>
        <path id="DejaVuSans-2f" d="M 1625 4666 
L 2156 4666 
L 531 -594 
L 0 -594 
L 1625 4666 
z
" transform="scale(0.015625)"/>
        <path id="DejaVuSans-38" d="M 2034 2216 
Q 1584 2216 1326 1975 
Q 1069 1734 1069 1313 
Q 1069 891 1326 650 
Q 1584 409 2034 409 
Q 2484 409 2743 651 
Q 3003 894 3003 1313 
Q 3003 1734 2745 1975 
Q 2488 2216 2034 2216 
z
M 1403 2484 
Q 997 2584 770 2862 
Q 544 3141 544 3541 
Q 544 4100 942 4425 
Q 1341 4750 2034 4750 
Q 2731 4750 3128 4425 
Q 3525 4100 3525 3541 
Q 3525 3141 3298 2862 
Q 3072 2584 2669 2484 
Q 3125 2378 3379 2068 
Q 3634 1759 3634 1313 
Q 3634 634 3220 271 
Q 2806 -91 2034 -91 
Q 1263 -91 848 271 
Q 434 634 434 1313 
Q 434 1759 690 2068 
Q 947 2378 1403 2484 
z
M 1172 3481 
Q 1172 3119 1398 2916 
Q 1625 2713 2034 2713 
Q 2441 2713 2670 2916 
Q 2900 3119 2900 3481 
Q 2900 3844 2670 4047 
Q 2441 4250 2034 4250 
Q 1625 4250 1398 4047 
Q 1172 3844 1172 3481 
z
" transform="scale(0.015625)"/>
        <path id="DejaVuSans-34" d="M 2419 4116 
L 825 1625 
L 2419 1625 
L 2419 4116 
z
M 2253 4666 
L 3047 4666 
L 3047 1625 
L 3713 1625 
L 3713 1100 
L 3047 1100 
L 3047 0 
L 2419 0 
L 2419 1100 
L 313 1100 
L 313 1709 
L 2253 4666 
z
" transform="scale(0.015625)"/>
       </defs>
       <use xlink:href="#DejaVuSans-32"/>
       <use xlink:href="#DejaVuSans-30" x="63.623047"/>
       <use xlink:href="#DejaVuSans-32" x="127.246094"/>
       <use xlink:href="#DejaVuSans-31" x="190.869141"/>
       <use xlink:href="#DejaVuSans-2f" x="254.492188"/>
       <use xlink:href="#DejaVuSans-38" x="288.183594"/>
       <use xlink:href="#DejaVuSans-2f" x="351.806641"/>
       <use xlink:href="#DejaVuSans-31" x="385.498047"/>
       <use xlink:href="#DejaVuSans-34" x="449.121094"/>
      </g>
     </g>
    </g>
    <g id="xtick_2">
     <g id="line2d_2">
      <g>
       <use xlink:href="#m988f999a33" x="104.187204" y="367.56" style="stroke: #000000; stroke-width: 0.8"/>
      </g>
     </g>
     <g id="text_2">
      <!-- 2021/8/28 -->
      <g transform="translate(87.201063 418.271297) rotate(-45) scale(0.105 -0.105)">
       <use xlink:href="#DejaVuSans-32"/>
       <use xlink:href="#DejaVuSans-30" x="63.623047"/>
       <use xlink:href="#DejaVuSans-32" x="127.246094"/>
       <use xlink:href="#DejaVuSans-31" x="190.869141"/>
       <use xlink:href="#DejaVuSans-2f" x="254.492188"/>
       <use xlink:href="#DejaVuSans-38" x="288.183594"/>
       <use xlink:href="#DejaVuSans-2f" x="351.806641"/>
       <use xlink:href="#DejaVuSans-32" x="385.498047"/>
       <use xlink:href="#DejaVuSans-38" x="449.121094"/>
      </g>
     </g>
    </g>
    <g id="xtick_3">
     <g id="line2d_3">
      <g>
       <use xlink:href="#m988f999a33" x="127.681941" y="367.56" style="stroke: #000000; stroke-width: 0.8"/>
      </g>
     </g>
     <g id="text_3">
      <!-- 2021/9/11 -->
      <g transform="translate(110.6958 418.271297) rotate(-45) scale(0.105 -0.105)">
       <defs>
        <path id="DejaVuSans-39" d="M 703 97 
L 703 672 
Q 941 559 1184 500 
Q 1428 441 1663 441 
Q 2288 441 2617 861 
Q 2947 1281 2994 2138 
Q 2813 1869 2534 1725 
Q 2256 1581 1919 1581 
Q 1219 1581 811 2004 
Q 403 2428 403 3163 
Q 403 3881 828 4315 
Q 1253 4750 1959 4750 
Q 2769 4750 3195 4129 
Q 3622 3509 3622 2328 
Q 3622 1225 3098 567 
Q 2575 -91 1691 -91 
Q 1453 -91 1209 -44 
Q 966 3 703 97 
z
M 1959 2075 
Q 2384 2075 2632 2365 
Q 2881 2656 2881 3163 
Q 2881 3666 2632 3958 
Q 2384 4250 1959 4250 
Q 1534 4250 1286 3958 
Q 1038 3666 1038 3163 
Q 1038 2656 1286 2365 
Q 1534 2075 1959 2075 
z
" transform="scale(0.015625)"/>
       </defs>
       <use xlink:href="#DejaVuSans-32"/>
       <use xlink:href="#DejaVuSans-30" x="63.623047"/>
       <use xlink:href="#DejaVuSans-32" x="127.246094"/>
       <use xlink:href="#DejaVuSans-31" x="190.869141"/>
       <use xlink:href="#DejaVuSans-2f" x="254.492188"/>
       <use xlink:href="#DejaVuSans-39" x="288.183594"/>
       <use xlink:href="#DejaVuSans-2f" x="351.806641"/>
       <use xlink:href="#DejaVuSans-31" x="385.498047"/>
       <use xlink:href="#DejaVuSans-31" x="449.121094"/>
      </g>
     </g>
    </g>
    <g id="xtick_4">
     <g id="line2d_4">
      <g>
       <use xlink:href="#m988f999a33" x="151.176678" y="367.56" style="stroke: #000000; stroke-width: 0.8"/>
      </g>
     </g>
     <g id="text_4">
      <!-- 2021/9/25 -->
      <g transform="translate(134.190536 418.271297) rotate(-45) scale(0.105 -0.105)">
       <defs>
        <path id="DejaVuSans-35" d="M 691 4666 
L 3169 4666 
L 3169 4134 
L 1269 4134 
L 1269 2991 
Q 1406 3038 1543 3061 
Q 1681 3084 1819 3084 
Q 2600 3084 3056 2656 
Q 3513 2228 3513 1497 
Q 3513 744 3044 326 
Q 2575 -91 1722 -91 
Q 1428 -91 1123 -41 
Q 819 9 494 109 
L 494 744 
Q 775 591 1075 516 
Q 1375 441 1709 441 
Q 2250 441 2565 725 
Q 2881 1009 2881 1497 
Q 2881 1984 2565 2268 
Q 2250 2553 1709 2553 
Q 1456 2553 1204 2497 
Q 953 2441 691 2322 
L 691 4666 
z
" transform="scale(0.015625)"/>
       </defs>
       <use xlink:href="#DejaVuSans-32"/>
       <use xlink:href="#DejaVuSans-30" x="63.623047"/>
       <use xlink:href="#DejaVuSans-32" x="127.246094"/>
       <use xlink:href="#DejaVuSans-31" x="190.869141"/>
       <use xlink:href="#DejaVuSans-2f" x="254.492188"/>
       <use xlink:href="#DejaVuSans-39" x="288.183594"/>
       <use xlink:href="#DejaVuSans-2f" x="351.806641"/>
       <use xlink:href="#DejaVuSans-32" x="385.498047"/>
       <use xlink:href="#DejaVuSans-35" x="449.121094"/>
      </g>
     </g>
    </g>
    <g id="xtick_5">
     <g id="line2d_5">
      <g>
       <use xlink:href="#m988f999a33" x="174.671414" y="367.56" style="stroke: #000000; stroke-width: 0.8"/>
      </g>
     </g>
     <g id="text_5">
      <!-- 2021/10/9 -->
      <g transform="translate(157.685273 418.271297) rotate(-45) scale(0.105 -0.105)">
       <use xlink:href="#DejaVuSans-32"/>
       <use xlink:href="#DejaVuSans-30" x="63.623047"/>
       <use xlink:href="#DejaVuSans-32" x="127.246094"/>
       <use xlink:href="#DejaVuSans-31" x="190.869141"/>
       <use xlink:href="#DejaVuSans-2f" x="254.492188"/>
       <use xlink:href="#DejaVuSans-31" x="288.183594"/>
       <use xlink:href="#DejaVuSans-30" x="351.806641"/>
       <use xlink:href="#DejaVuSans-2f" x="415.429688"/>
       <use xlink:href="#DejaVuSans-39" x="449.121094"/>
      </g>
     </g>
    </g>
    <g id="xtick_6">
     <g id="line2d_6">
      <g>
       <use xlink:href="#m988f999a33" x="198.166151" y="367.56" style="stroke: #000000; stroke-width: 0.8"/>
      </g>
     </g>
     <g id="text_6">
      <!-- 2021/10/23 -->
      <g transform="translate(178.818053 422.995212) rotate(-45) scale(0.105 -0.105)">
       <defs>
        <path id="DejaVuSans-33" d="M 2597 2516 
Q 3050 2419 3304 2112 
Q 3559 1806 3559 1356 
Q 3559 666 3084 287 
Q 2609 -91 1734 -91 
Q 1441 -91 1130 -33 
Q 819 25 488 141 
L 488 750 
Q 750 597 1062 519 
Q 1375 441 1716 441 
Q 2309 441 2620 675 
Q 2931 909 2931 1356 
Q 2931 1769 2642 2001 
Q 2353 2234 1838 2234 
L 1294 2234 
L 1294 2753 
L 1863 2753 
Q 2328 2753 2575 2939 
Q 2822 3125 2822 3475 
Q 2822 3834 2567 4026 
Q 2313 4219 1838 4219 
Q 1578 4219 1281 4162 
Q 984 4106 628 3988 
L 628 4550 
Q 988 4650 1302 4700 
Q 1616 4750 1894 4750 
Q 2613 4750 3031 4423 
Q 3450 4097 3450 3541 
Q 3450 3153 3228 2886 
Q 3006 2619 2597 2516 
z
" transform="scale(0.015625)"/>
       </defs>
       <use xlink:href="#DejaVuSans-32"/>
       <use xlink:href="#DejaVuSans-30" x="63.623047"/>
       <use xlink:href="#DejaVuSans-32" x="127.246094"/>
       <use xlink:href="#DejaVuSans-31" x="190.869141"/>
       <use xlink:href="#DejaVuSans-2f" x="254.492188"/>
       <use xlink:href="#DejaVuSans-31" x="288.183594"/>
       <use xlink:href="#DejaVuSans-30" x="351.806641"/>
       <use xlink:href="#DejaVuSans-2f" x="415.429688"/>
       <use xlink:href="#DejaVuSans-32" x="449.121094"/>
       <use xlink:href="#DejaVuSans-33" x="512.744141"/>
      </g>
     </g>
    </g>
    <g id="xtick_7">
     <g id="line2d_7">
      <g>
       <use xlink:href="#m988f999a33" x="221.660888" y="367.56" style="stroke: #000000; stroke-width: 0.8"/>
      </g>
     </g>
     <g id="text_7">
      <!-- 2021/11/6 -->
      <g transform="translate(204.674747 418.271297) rotate(-45) scale(0.105 -0.105)">
       <defs>
        <path id="DejaVuSans-36" d="M 2113 2584 
Q 1688 2584 1439 2293 
Q 1191 2003 1191 1497 
Q 1191 994 1439 701 
Q 1688 409 2113 409 
Q 2538 409 2786 701 
Q 3034 994 3034 1497 
Q 3034 2003 2786 2293 
Q 2538 2584 2113 2584 
z
M 3366 4563 
L 3366 3988 
Q 3128 4100 2886 4159 
Q 2644 4219 2406 4219 
Q 1781 4219 1451 3797 
Q 1122 3375 1075 2522 
Q 1259 2794 1537 2939 
Q 1816 3084 2150 3084 
Q 2853 3084 3261 2657 
Q 3669 2231 3669 1497 
Q 3669 778 3244 343 
Q 2819 -91 2113 -91 
Q 1303 -91 875 529 
Q 447 1150 447 2328 
Q 447 3434 972 4092 
Q 1497 4750 2381 4750 
Q 2619 4750 2861 4703 
Q 3103 4656 3366 4563 
z
" transform="scale(0.015625)"/>
       </defs>
       <use xlink:href="#DejaVuSans-32"/>
       <use xlink:href="#DejaVuSans-30" x="63.623047"/>
       <use xlink:href="#DejaVuSans-32" x="127.246094"/>
       <use xlink:href="#DejaVuSans-31" x="190.869141"/>
       <use xlink:href="#DejaVuSans-2f" x="254.492188"/>
       <use xlink:href="#DejaVuSans-31" x="288.183594"/>
       <use xlink:href="#DejaVuSans-31" x="351.806641"/>
       <use xlink:href="#DejaVuSans-2f" x="415.429688"/>
       <use xlink:href="#DejaVuSans-36" x="449.121094"/>
      </g>
     </g>
    </g>
    <g id="xtick_8">
     <g id="line2d_8">
      <g>
       <use xlink:href="#m988f999a33" x="245.155625" y="367.56" style="stroke: #000000; stroke-width: 0.8"/>
      </g>
     </g>
     <g id="text_8">
      <!-- 2021/11/20 -->
      <g transform="translate(225.807526 422.995212) rotate(-45) scale(0.105 -0.105)">
       <use xlink:href="#DejaVuSans-32"/>
       <use xlink:href="#DejaVuSans-30" x="63.623047"/>
       <use xlink:href="#DejaVuSans-32" x="127.246094"/>
       <use xlink:href="#DejaVuSans-31" x="190.869141"/>
       <use xlink:href="#DejaVuSans-2f" x="254.492188"/>
       <use xlink:href="#DejaVuSans-31" x="288.183594"/>
       <use xlink:href="#DejaVuSans-31" x="351.806641"/>
       <use xlink:href="#DejaVuSans-2f" x="415.429688"/>
       <use xlink:href="#DejaVuSans-32" x="449.121094"/>
       <use xlink:href="#DejaVuSans-30" x="512.744141"/>
      </g>
     </g>
    </g>
    <g id="xtick_9">
     <g id="line2d_9">
      <g>
       <use xlink:href="#m988f999a33" x="268.650362" y="367.56" style="stroke: #000000; stroke-width: 0.8"/>
      </g>
     </g>
     <g id="text_9">
      <!-- 2021/12/4 -->
      <g transform="translate(251.664221 418.271297) rotate(-45) scale(0.105 -0.105)">
       <use xlink:href="#DejaVuSans-32"/>
       <use xlink:href="#DejaVuSans-30" x="63.623047"/>
       <use xlink:href="#DejaVuSans-32" x="127.246094"/>
       <use xlink:href="#DejaVuSans-31" x="190.869141"/>
       <use xlink:href="#DejaVuSans-2f" x="254.492188"/>
       <use xlink:href="#DejaVuSans-31" x="288.183594"/>
       <use xlink:href="#DejaVuSans-32" x="351.806641"/>
       <use xlink:href="#DejaVuSans-2f" x="415.429688"/>
       <use xlink:href="#DejaVuSans-34" x="449.121094"/>
      </g>
     </g>
    </g>
    <g id="xtick_10">
     <g id="line2d_10">
      <g>
       <use xlink:href="#m988f999a33" x="292.145099" y="367.56" style="stroke: #000000; stroke-width: 0.8"/>
      </g>
     </g>
     <g id="text_10">
      <!-- 2021/12/18 -->
      <g transform="translate(272.797 422.995212) rotate(-45) scale(0.105 -0.105)">
       <use xlink:href="#DejaVuSans-32"/>
       <use xlink:href="#DejaVuSans-30" x="63.623047"/>
       <use xlink:href="#DejaVuSans-32" x="127.246094"/>
       <use xlink:href="#DejaVuSans-31" x="190.869141"/>
       <use xlink:href="#DejaVuSans-2f" x="254.492188"/>
       <use xlink:href="#DejaVuSans-31" x="288.183594"/>
       <use xlink:href="#DejaVuSans-32" x="351.806641"/>
       <use xlink:href="#DejaVuSans-2f" x="415.429688"/>
       <use xlink:href="#DejaVuSans-31" x="449.121094"/>
       <use xlink:href="#DejaVuSans-38" x="512.744141"/>
      </g>
     </g>
    </g>
    <g id="xtick_11">
     <g id="line2d_11">
      <g>
       <use xlink:href="#m988f999a33" x="315.639836" y="367.56" style="stroke: #000000; stroke-width: 0.8"/>
      </g>
     </g>
     <g id="text_11">
      <!-- 2022/1/1 -->
      <g transform="translate(301.015652 413.547382) rotate(-45) scale(0.105 -0.105)">
       <use xlink:href="#DejaVuSans-32"/>
       <use xlink:href="#DejaVuSans-30" x="63.623047"/>
       <use xlink:href="#DejaVuSans-32" x="127.246094"/>
       <use xlink:href="#DejaVuSans-32" x="190.869141"/>
       <use xlink:href="#DejaVuSans-2f" x="254.492188"/>
       <use xlink:href="#DejaVuSans-31" x="288.183594"/>
       <use xlink:href="#DejaVuSans-2f" x="351.806641"/>
       <use xlink:href="#DejaVuSans-31" x="385.498047"/>
      </g>
     </g>
    </g>
    <g id="xtick_12">
     <g id="line2d_12">
      <g>
       <use xlink:href="#m988f999a33" x="339.134572" y="367.56" style="stroke: #000000; stroke-width: 0.8"/>
      </g>
     </g>
     <g id="text_12">
      <!-- 2022/1/15 -->
      <g transform="translate(322.148431 418.271297) rotate(-45) scale(0.105 -0.105)">
       <use xlink:href="#DejaVuSans-32"/>
       <use xlink:href="#DejaVuSans-30" x="63.623047"/>
       <use xlink:href="#DejaVuSans-32" x="127.246094"/>
       <use xlink:href="#DejaVuSans-32" x="190.869141"/>
       <use xlink:href="#DejaVuSans-2f" x="254.492188"/>
       <use xlink:href="#DejaVuSans-31" x="288.183594"/>
       <use xlink:href="#DejaVuSans-2f" x="351.806641"/>
       <use xlink:href="#DejaVuSans-31" x="385.498047"/>
       <use xlink:href="#DejaVuSans-35" x="449.121094"/>
      </g>
     </g>
    </g>
    <g id="xtick_13">
     <g id="line2d_13">
      <g>
       <use xlink:href="#m988f999a33" x="362.629309" y="367.56" style="stroke: #000000; stroke-width: 0.8"/>
      </g>
     </g>
     <g id="text_13">
      <!-- 2022/1/29 -->
      <g transform="translate(345.643168 418.271297) rotate(-45) scale(0.105 -0.105)">
       <use xlink:href="#DejaVuSans-32"/>
       <use xlink:href="#DejaVuSans-30" x="63.623047"/>
       <use xlink:href="#DejaVuSans-32" x="127.246094"/>
       <use xlink:href="#DejaVuSans-32" x="190.869141"/>
       <use xlink:href="#DejaVuSans-2f" x="254.492188"/>
       <use xlink:href="#DejaVuSans-31" x="288.183594"/>
       <use xlink:href="#DejaVuSans-2f" x="351.806641"/>
       <use xlink:href="#DejaVuSans-32" x="385.498047"/>
       <use xlink:href="#DejaVuSans-39" x="449.121094"/>
      </g>
     </g>
    </g>
    <g id="xtick_14">
     <g id="line2d_14">
      <g>
       <use xlink:href="#m988f999a33" x="386.124046" y="367.56" style="stroke: #000000; stroke-width: 0.8"/>
      </g>
     </g>
     <g id="text_14">
      <!-- 2022/2/12 -->
      <g transform="translate(369.137905 418.271297) rotate(-45) scale(0.105 -0.105)">
       <use xlink:href="#DejaVuSans-32"/>
       <use xlink:href="#DejaVuSans-30" x="63.623047"/>
       <use xlink:href="#DejaVuSans-32" x="127.246094"/>
       <use xlink:href="#DejaVuSans-32" x="190.869141"/>
       <use xlink:href="#DejaVuSans-2f" x="254.492188"/>
       <use xlink:href="#DejaVuSans-32" x="288.183594"/>
       <use xlink:href="#DejaVuSans-2f" x="351.806641"/>
       <use xlink:href="#DejaVuSans-31" x="385.498047"/>
       <use xlink:href="#DejaVuSans-32" x="449.121094"/>
      </g>
     </g>
    </g>
    <g id="xtick_15">
     <g id="line2d_15">
      <g>
       <use xlink:href="#m988f999a33" x="409.618783" y="367.56" style="stroke: #000000; stroke-width: 0.8"/>
      </g>
     </g>
     <g id="text_15">
      <!-- 2022/2/26 -->
      <g transform="translate(392.632642 418.271297) rotate(-45) scale(0.105 -0.105)">
       <use xlink:href="#DejaVuSans-32"/>
       <use xlink:href="#DejaVuSans-30" x="63.623047"/>
       <use xlink:href="#DejaVuSans-32" x="127.246094"/>
       <use xlink:href="#DejaVuSans-32" x="190.869141"/>
       <use xlink:href="#DejaVuSans-2f" x="254.492188"/>
       <use xlink:href="#DejaVuSans-32" x="288.183594"/>
       <use xlink:href="#DejaVuSans-2f" x="351.806641"/>
       <use xlink:href="#DejaVuSans-32" x="385.498047"/>
       <use xlink:href="#DejaVuSans-36" x="449.121094"/>
      </g>
     </g>
    </g>
    <g id="xtick_16">
     <g id="line2d_16">
      <g>
       <use xlink:href="#m988f999a33" x="433.11352" y="367.56" style="stroke: #000000; stroke-width: 0.8"/>
      </g>
     </g>
     <g id="text_16">
      <!-- 2022/3/12 -->
      <g transform="translate(416.127379 418.271297) rotate(-45) scale(0.105 -0.105)">
       <use xlink:href="#DejaVuSans-32"/>
       <use xlink:href="#DejaVuSans-30" x="63.623047"/>
       <use xlink:href="#DejaVuSans-32" x="127.246094"/>
       <use xlink:href="#DejaVuSans-32" x="190.869141"/>
       <use xlink:href="#DejaVuSans-2f" x="254.492188"/>
       <use xlink:href="#DejaVuSans-33" x="288.183594"/>
       <use xlink:href="#DejaVuSans-2f" x="351.806641"/>
       <use xlink:href="#DejaVuSans-31" x="385.498047"/>
       <use xlink:href="#DejaVuSans-32" x="449.121094"/>
      </g>
     </g>
    </g>
    <g id="xtick_17">
     <g id="line2d_17">
      <g>
       <use xlink:href="#m988f999a33" x="456.608257" y="367.56" style="stroke: #000000; stroke-width: 0.8"/>
      </g>
     </g>
     <g id="text_17">
      <!-- 2022/3/26 -->
      <g transform="translate(439.622115 418.271297) rotate(-45) scale(0.105 -0.105)">
       <use xlink:href="#DejaVuSans-32"/>
       <use xlink:href="#DejaVuSans-30" x="63.623047"/>
       <use xlink:href="#DejaVuSans-32" x="127.246094"/>
       <use xlink:href="#DejaVuSans-32" x="190.869141"/>
       <use xlink:href="#DejaVuSans-2f" x="254.492188"/>
       <use xlink:href="#DejaVuSans-33" x="288.183594"/>
       <use xlink:href="#DejaVuSans-2f" x="351.806641"/>
       <use xlink:href="#DejaVuSans-32" x="385.498047"/>
       <use xlink:href="#DejaVuSans-36" x="449.121094"/>
      </g>
     </g>
    </g>
    <g id="xtick_18">
     <g id="line2d_18">
      <g>
       <use xlink:href="#m988f999a33" x="480.102993" y="367.56" style="stroke: #000000; stroke-width: 0.8"/>
      </g>
     </g>
     <g id="text_18">
      <!-- 2022/4/9 -->
      <g transform="translate(465.47881 413.547382) rotate(-45) scale(0.105 -0.105)">
       <use xlink:href="#DejaVuSans-32"/>
       <use xlink:href="#DejaVuSans-30" x="63.623047"/>
       <use xlink:href="#DejaVuSans-32" x="127.246094"/>
       <use xlink:href="#DejaVuSans-32" x="190.869141"/>
       <use xlink:href="#DejaVuSans-2f" x="254.492188"/>
       <use xlink:href="#DejaVuSans-34" x="288.183594"/>
       <use xlink:href="#DejaVuSans-2f" x="351.806641"/>
       <use xlink:href="#DejaVuSans-39" x="385.498047"/>
      </g>
     </g>
    </g>
    <g id="xtick_19">
     <g id="line2d_19">
      <g>
       <use xlink:href="#m988f999a33" x="503.59773" y="367.56" style="stroke: #000000; stroke-width: 0.8"/>
      </g>
     </g>
     <g id="text_19">
      <!-- 2022/4/23 -->
      <g transform="translate(486.611589 418.271297) rotate(-45) scale(0.105 -0.105)">
       <use xlink:href="#DejaVuSans-32"/>
       <use xlink:href="#DejaVuSans-30" x="63.623047"/>
       <use xlink:href="#DejaVuSans-32" x="127.246094"/>
       <use xlink:href="#DejaVuSans-32" x="190.869141"/>
       <use xlink:href="#DejaVuSans-2f" x="254.492188"/>
       <use xlink:href="#DejaVuSans-34" x="288.183594"/>
       <use xlink:href="#DejaVuSans-2f" x="351.806641"/>
       <use xlink:href="#DejaVuSans-32" x="385.498047"/>
       <use xlink:href="#DejaVuSans-33" x="449.121094"/>
      </g>
     </g>
    </g>
    <g id="xtick_20">
     <g id="line2d_20">
      <g>
       <use xlink:href="#m988f999a33" x="527.092467" y="367.56" style="stroke: #000000; stroke-width: 0.8"/>
      </g>
     </g>
     <g id="text_20">
      <!-- 2022/5/7 -->
      <g transform="translate(512.468284 413.547382) rotate(-45) scale(0.105 -0.105)">
       <defs>
        <path id="DejaVuSans-37" d="M 525 4666 
L 3525 4666 
L 3525 4397 
L 1831 0 
L 1172 0 
L 2766 4134 
L 525 4134 
L 525 4666 
z
" transform="scale(0.015625)"/>
       </defs>
       <use xlink:href="#DejaVuSans-32"/>
       <use xlink:href="#DejaVuSans-30" x="63.623047"/>
       <use xlink:href="#DejaVuSans-32" x="127.246094"/>
       <use xlink:href="#DejaVuSans-32" x="190.869141"/>
       <use xlink:href="#DejaVuSans-2f" x="254.492188"/>
       <use xlink:href="#DejaVuSans-35" x="288.183594"/>
       <use xlink:href="#DejaVuSans-2f" x="351.806641"/>
       <use xlink:href="#DejaVuSans-37" x="385.498047"/>
      </g>
     </g>
    </g>
    <g id="xtick_21">
     <g id="line2d_21">
      <g>
       <use xlink:href="#m988f999a33" x="550.587204" y="367.56" style="stroke: #000000; stroke-width: 0.8"/>
      </g>
     </g>
     <g id="text_21">
      <!-- 2022/5/21 -->
      <g transform="translate(533.601063 418.271297) rotate(-45) scale(0.105 -0.105)">
       <use xlink:href="#DejaVuSans-32"/>
       <use xlink:href="#DejaVuSans-30" x="63.623047"/>
       <use xlink:href="#DejaVuSans-32" x="127.246094"/>
       <use xlink:href="#DejaVuSans-32" x="190.869141"/>
       <use xlink:href="#DejaVuSans-2f" x="254.492188"/>
       <use xlink:href="#DejaVuSans-35" x="288.183594"/>
       <use xlink:href="#DejaVuSans-2f" x="351.806641"/>
       <use xlink:href="#DejaVuSans-32" x="385.498047"/>
       <use xlink:href="#DejaVuSans-31" x="449.121094"/>
      </g>
     </g>
    </g>
    <g id="xtick_22">
     <g id="line2d_22">
      <g>
       <use xlink:href="#m988f999a33" x="574.081941" y="367.56" style="stroke: #000000; stroke-width: 0.8"/>
      </g>
     </g>
     <g id="text_22">
      <!-- 2022/6/4 -->
      <g transform="translate(559.457757 413.547382) rotate(-45) scale(0.105 -0.105)">
       <use xlink:href="#DejaVuSans-32"/>
       <use xlink:href="#DejaVuSans-30" x="63.623047"/>
       <use xlink:href="#DejaVuSans-32" x="127.246094"/>
       <use xlink:href="#DejaVuSans-32" x="190.869141"/>
       <use xlink:href="#DejaVuSans-2f" x="254.492188"/>
       <use xlink:href="#DejaVuSans-36" x="288.183594"/>
       <use xlink:href="#DejaVuSans-2f" x="351.806641"/>
       <use xlink:href="#DejaVuSans-34" x="385.498047"/>
      </g>
     </g>
    </g>
    <g id="xtick_23">
     <g id="line2d_23">
      <g>
       <use xlink:href="#m988f999a33" x="597.576678" y="367.56" style="stroke: #000000; stroke-width: 0.8"/>
      </g>
     </g>
     <g id="text_23">
      <!-- 2022/6/18 -->
      <g transform="translate(580.590536 418.271297) rotate(-45) scale(0.105 -0.105)">
       <use xlink:href="#DejaVuSans-32"/>
       <use xlink:href="#DejaVuSans-30" x="63.623047"/>
       <use xlink:href="#DejaVuSans-32" x="127.246094"/>
       <use xlink:href="#DejaVuSans-32" x="190.869141"/>
       <use xlink:href="#DejaVuSans-2f" x="254.492188"/>
       <use xlink:href="#DejaVuSans-36" x="288.183594"/>
       <use xlink:href="#DejaVuSans-2f" x="351.806641"/>
       <use xlink:href="#DejaVuSans-31" x="385.498047"/>
       <use xlink:href="#DejaVuSans-38" x="449.121094"/>
      </g>
     </g>
    </g>
    <g id="xtick_24">
     <g id="line2d_24">
      <g>
       <use xlink:href="#m988f999a33" x="621.071414" y="367.56" style="stroke: #000000; stroke-width: 0.8"/>
      </g>
     </g>
     <g id="text_24">
      <!-- 2022/7/2 -->
      <g transform="translate(606.447231 413.547382) rotate(-45) scale(0.105 -0.105)">
       <use xlink:href="#DejaVuSans-32"/>
       <use xlink:href="#DejaVuSans-30" x="63.623047"/>
       <use xlink:href="#DejaVuSans-32" x="127.246094"/>
       <use xlink:href="#DejaVuSans-32" x="190.869141"/>
       <use xlink:href="#DejaVuSans-2f" x="254.492188"/>
       <use xlink:href="#DejaVuSans-37" x="288.183594"/>
       <use xlink:href="#DejaVuSans-2f" x="351.806641"/>
       <use xlink:href="#DejaVuSans-32" x="385.498047"/>
      </g>
     </g>
    </g>
    <g id="text_25">
     <!-- Timepoint in 202122 (weeks) -->
     <g transform="translate(266.105938 437.657427) scale(0.12 -0.12)">
      <defs>
       <path id="DejaVuSans-54" d="M -19 4666 
L 3928 4666 
L 3928 4134 
L 2272 4134 
L 2272 0 
L 1638 0 
L 1638 4134 
L -19 4134 
L -19 4666 
z
" transform="scale(0.015625)"/>
       <path id="DejaVuSans-69" d="M 603 3500 
L 1178 3500 
L 1178 0 
L 603 0 
L 603 3500 
z
M 603 4863 
L 1178 4863 
L 1178 4134 
L 603 4134 
L 603 4863 
z
" transform="scale(0.015625)"/>
       <path id="DejaVuSans-6d" d="M 3328 2828 
Q 3544 3216 3844 3400 
Q 4144 3584 4550 3584 
Q 5097 3584 5394 3201 
Q 5691 2819 5691 2113 
L 5691 0 
L 5113 0 
L 5113 2094 
Q 5113 2597 4934 2840 
Q 4756 3084 4391 3084 
Q 3944 3084 3684 2787 
Q 3425 2491 3425 1978 
L 3425 0 
L 2847 0 
L 2847 2094 
Q 2847 2600 2669 2842 
Q 2491 3084 2119 3084 
Q 1678 3084 1418 2786 
Q 1159 2488 1159 1978 
L 1159 0 
L 581 0 
L 581 3500 
L 1159 3500 
L 1159 2956 
Q 1356 3278 1631 3431 
Q 1906 3584 2284 3584 
Q 2666 3584 2933 3390 
Q 3200 3197 3328 2828 
z
" transform="scale(0.015625)"/>
       <path id="DejaVuSans-65" d="M 3597 1894 
L 3597 1613 
L 953 1613 
Q 991 1019 1311 708 
Q 1631 397 2203 397 
Q 2534 397 2845 478 
Q 3156 559 3463 722 
L 3463 178 
Q 3153 47 2828 -22 
Q 2503 -91 2169 -91 
Q 1331 -91 842 396 
Q 353 884 353 1716 
Q 353 2575 817 3079 
Q 1281 3584 2069 3584 
Q 2775 3584 3186 3129 
Q 3597 2675 3597 1894 
z
M 3022 2063 
Q 3016 2534 2758 2815 
Q 2500 3097 2075 3097 
Q 1594 3097 1305 2825 
Q 1016 2553 972 2059 
L 3022 2063 
z
" transform="scale(0.015625)"/>
       <path id="DejaVuSans-70" d="M 1159 525 
L 1159 -1331 
L 581 -1331 
L 581 3500 
L 1159 3500 
L 1159 2969 
Q 1341 3281 1617 3432 
Q 1894 3584 2278 3584 
Q 2916 3584 3314 3078 
Q 3713 2572 3713 1747 
Q 3713 922 3314 415 
Q 2916 -91 2278 -91 
Q 1894 -91 1617 61 
Q 1341 213 1159 525 
z
M 3116 1747 
Q 3116 2381 2855 2742 
Q 2594 3103 2138 3103 
Q 1681 3103 1420 2742 
Q 1159 2381 1159 1747 
Q 1159 1113 1420 752 
Q 1681 391 2138 391 
Q 2594 391 2855 752 
Q 3116 1113 3116 1747 
z
" transform="scale(0.015625)"/>
       <path id="DejaVuSans-6f" d="M 1959 3097 
Q 1497 3097 1228 2736 
Q 959 2375 959 1747 
Q 959 1119 1226 758 
Q 1494 397 1959 397 
Q 2419 397 2687 759 
Q 2956 1122 2956 1747 
Q 2956 2369 2687 2733 
Q 2419 3097 1959 3097 
z
M 1959 3584 
Q 2709 3584 3137 3096 
Q 3566 2609 3566 1747 
Q 3566 888 3137 398 
Q 2709 -91 1959 -91 
Q 1206 -91 779 398 
Q 353 888 353 1747 
Q 353 2609 779 3096 
Q 1206 3584 1959 3584 
z
" transform="scale(0.015625)"/>
       <path id="DejaVuSans-6e" d="M 3513 2113 
L 3513 0 
L 2938 0 
L 2938 2094 
Q 2938 2591 2744 2837 
Q 2550 3084 2163 3084 
Q 1697 3084 1428 2787 
Q 1159 2491 1159 1978 
L 1159 0 
L 581 0 
L 581 3500 
L 1159 3500 
L 1159 2956 
Q 1366 3272 1645 3428 
Q 1925 3584 2291 3584 
Q 2894 3584 3203 3211 
Q 3513 2838 3513 2113 
z
" transform="scale(0.015625)"/>
       <path id="DejaVuSans-74" d="M 1172 4494 
L 1172 3500 
L 2356 3500 
L 2356 3053 
L 1172 3053 
L 1172 1153 
Q 1172 725 1289 603 
Q 1406 481 1766 481 
L 2356 481 
L 2356 0 
L 1766 0 
Q 1100 0 847 248 
Q 594 497 594 1153 
L 594 3053 
L 172 3053 
L 172 3500 
L 594 3500 
L 594 4494 
L 1172 4494 
z
" transform="scale(0.015625)"/>
       <path id="DejaVuSans-20" transform="scale(0.015625)"/>
       <path id="DejaVuSans-2013" d="M 313 1978 
L 2888 1978 
L 2888 1528 
L 313 1528 
L 313 1978 
z
" transform="scale(0.015625)"/>
       <path id="DejaVuSans-28" d="M 1984 4856 
Q 1566 4138 1362 3434 
Q 1159 2731 1159 2009 
Q 1159 1288 1364 580 
Q 1569 -128 1984 -844 
L 1484 -844 
Q 1016 -109 783 600 
Q 550 1309 550 2009 
Q 550 2706 781 3412 
Q 1013 4119 1484 4856 
L 1984 4856 
z
" transform="scale(0.015625)"/>
       <path id="DejaVuSans-77" d="M 269 3500 
L 844 3500 
L 1563 769 
L 2278 3500 
L 2956 3500 
L 3675 769 
L 4391 3500 
L 4966 3500 
L 4050 0 
L 3372 0 
L 2619 2869 
L 1863 0 
L 1184 0 
L 269 3500 
z
" transform="scale(0.015625)"/>
       <path id="DejaVuSans-6b" d="M 581 4863 
L 1159 4863 
L 1159 1991 
L 2875 3500 
L 3609 3500 
L 1753 1863 
L 3688 0 
L 2938 0 
L 1159 1709 
L 1159 0 
L 581 0 
L 581 4863 
z
" transform="scale(0.015625)"/>
       <path id="DejaVuSans-73" d="M 2834 3397 
L 2834 2853 
Q 2591 2978 2328 3040 
Q 2066 3103 1784 3103 
Q 1356 3103 1142 2972 
Q 928 2841 928 2578 
Q 928 2378 1081 2264 
Q 1234 2150 1697 2047 
L 1894 2003 
Q 2506 1872 2764 1633 
Q 3022 1394 3022 966 
Q 3022 478 2636 193 
Q 2250 -91 1575 -91 
Q 1294 -91 989 -36 
Q 684 19 347 128 
L 347 722 
Q 666 556 975 473 
Q 1284 391 1588 391 
Q 1994 391 2212 530 
Q 2431 669 2431 922 
Q 2431 1156 2273 1281 
Q 2116 1406 1581 1522 
L 1381 1569 
Q 847 1681 609 1914 
Q 372 2147 372 2553 
Q 372 3047 722 3315 
Q 1072 3584 1716 3584 
Q 2034 3584 2315 3537 
Q 2597 3491 2834 3397 
z
" transform="scale(0.015625)"/>
       <path id="DejaVuSans-29" d="M 513 4856 
L 1013 4856 
Q 1481 4119 1714 3412 
Q 1947 2706 1947 2009 
Q 1947 1309 1714 600 
Q 1481 -109 1013 -844 
L 513 -844 
Q 928 -128 1133 580 
Q 1338 1288 1338 2009 
Q 1338 2731 1133 3434 
Q 928 4138 513 4856 
z
" transform="scale(0.015625)"/>
      </defs>
      <use xlink:href="#DejaVuSans-54"/>
      <use xlink:href="#DejaVuSans-69" x="57.958984"/>
      <use xlink:href="#DejaVuSans-6d" x="85.742188"/>
      <use xlink:href="#DejaVuSans-65" x="183.154297"/>
      <use xlink:href="#DejaVuSans-70" x="244.677734"/>
      <use xlink:href="#DejaVuSans-6f" x="308.154297"/>
      <use xlink:href="#DejaVuSans-69" x="369.335938"/>
      <use xlink:href="#DejaVuSans-6e" x="397.119141"/>
      <use xlink:href="#DejaVuSans-74" x="460.498047"/>
      <use xlink:href="#DejaVuSans-20" x="499.707031"/>
      <use xlink:href="#DejaVuSans-69" x="531.494141"/>
      <use xlink:href="#DejaVuSans-6e" x="559.277344"/>
      <use xlink:href="#DejaVuSans-20" x="622.65625"/>
      <use xlink:href="#DejaVuSans-32" x="654.443359"/>
      <use xlink:href="#DejaVuSans-30" x="718.066406"/>
      <use xlink:href="#DejaVuSans-32" x="781.689453"/>
      <use xlink:href="#DejaVuSans-31" x="845.3125"/>
      <use xlink:href="#DejaVuSans-2013" x="908.935547"/>
      <use xlink:href="#DejaVuSans-32" x="958.935547"/>
      <use xlink:href="#DejaVuSans-32" x="1022.558594"/>
      <use xlink:href="#DejaVuSans-20" x="1086.181641"/>
      <use xlink:href="#DejaVuSans-28" x="1117.96875"/>
      <use xlink:href="#DejaVuSans-77" x="1156.982422"/>
      <use xlink:href="#DejaVuSans-65" x="1238.769531"/>
      <use xlink:href="#DejaVuSans-65" x="1300.292969"/>
      <use xlink:href="#DejaVuSans-6b" x="1361.816406"/>
      <use xlink:href="#DejaVuSans-73" x="1419.726562"/>
      <use xlink:href="#DejaVuSans-29" x="1471.826172"/>
     </g>
    </g>
   </g>
   <g id="matplotlib.axis_2">
    <g id="ytick_1">
     <g id="line2d_25">
      <defs>
       <path id="m82cd605e62" d="M 0 0 
L -3.5 0 
" style="stroke: #000000; stroke-width: 0.8"/>
      </defs>
      <g>
       <use xlink:href="#m82cd605e62" x="49.855625" y="367.56" style="stroke: #000000; stroke-width: 0.8"/>
      </g>
     </g>
     <g id="text_26">
      <!-- 0 -->
      <g transform="translate(36.175 371.54918) scale(0.105 -0.105)">
       <use xlink:href="#DejaVuSans-30"/>
      </g>
     </g>
    </g>
    <g id="ytick_2">
     <g id="line2d_26">
      <g>
       <use xlink:href="#m82cd605e62" x="49.855625" y="310.072563" style="stroke: #000000; stroke-width: 0.8"/>
      </g>
     </g>
     <g id="text_27">
      <!-- 100 -->
      <g transform="translate(22.81375 314.061743) scale(0.105 -0.105)">
       <use xlink:href="#DejaVuSans-31"/>
       <use xlink:href="#DejaVuSans-30" x="63.623047"/>
       <use xlink:href="#DejaVuSans-30" x="127.246094"/>
      </g>
     </g>
    </g>
    <g id="ytick_3">
     <g id="line2d_27">
      <g>
       <use xlink:href="#m82cd605e62" x="49.855625" y="252.585126" style="stroke: #000000; stroke-width: 0.8"/>
      </g>
     </g>
     <g id="text_28">
      <!-- 200 -->
      <g transform="translate(22.81375 256.574305) scale(0.105 -0.105)">
       <use xlink:href="#DejaVuSans-32"/>
       <use xlink:href="#DejaVuSans-30" x="63.623047"/>
       <use xlink:href="#DejaVuSans-30" x="127.246094"/>
      </g>
     </g>
    </g>
    <g id="ytick_4">
     <g id="line2d_28">
      <g>
       <use xlink:href="#m82cd605e62" x="49.855625" y="195.097688" style="stroke: #000000; stroke-width: 0.8"/>
      </g>
     </g>
     <g id="text_29">
      <!-- 300 -->
      <g transform="translate(22.81375 199.086868) scale(0.105 -0.105)">
       <use xlink:href="#DejaVuSans-33"/>
       <use xlink:href="#DejaVuSans-30" x="63.623047"/>
       <use xlink:href="#DejaVuSans-30" x="127.246094"/>
      </g>
     </g>
    </g>
    <g id="ytick_5">
     <g id="line2d_29">
      <g>
       <use xlink:href="#m82cd605e62" x="49.855625" y="137.610251" style="stroke: #000000; stroke-width: 0.8"/>
      </g>
     </g>
     <g id="text_30">
      <!-- 400 -->
      <g transform="translate(22.81375 141.599431) scale(0.105 -0.105)">
       <use xlink:href="#DejaVuSans-34"/>
       <use xlink:href="#DejaVuSans-30" x="63.623047"/>
       <use xlink:href="#DejaVuSans-30" x="127.246094"/>
      </g>
     </g>
    </g>
    <g id="ytick_6">
     <g id="line2d_30">
      <g>
       <use xlink:href="#m82cd605e62" x="49.855625" y="80.122814" style="stroke: #000000; stroke-width: 0.8"/>
      </g>
     </g>
     <g id="text_31">
      <!-- 500 -->
      <g transform="translate(22.81375 84.111994) scale(0.105 -0.105)">
       <use xlink:href="#DejaVuSans-35"/>
       <use xlink:href="#DejaVuSans-30" x="63.623047"/>
       <use xlink:href="#DejaVuSans-30" x="127.246094"/>
      </g>
     </g>
    </g>
    <g id="ytick_7">
     <g id="line2d_31">
      <g>
       <use xlink:href="#m82cd605e62" x="49.855625" y="22.635377" style="stroke: #000000; stroke-width: 0.8"/>
      </g>
     </g>
     <g id="text_32">
      <!-- 600 -->
      <g transform="translate(22.81375 26.624557) scale(0.105 -0.105)">
       <use xlink:href="#DejaVuSans-36"/>
       <use xlink:href="#DejaVuSans-30" x="63.623047"/>
       <use xlink:href="#DejaVuSans-30" x="127.246094"/>
      </g>
     </g>
    </g>
    <g id="text_33">
     <!-- Weekly COVID-19 deaths -->
     <g transform="translate(16.318125 262.41) rotate(-90) scale(0.12 -0.12)">
      <defs>
       <path id="DejaVuSans-57" d="M 213 4666 
L 850 4666 
L 1831 722 
L 2809 4666 
L 3519 4666 
L 4500 722 
L 5478 4666 
L 6119 4666 
L 4947 0 
L 4153 0 
L 3169 4050 
L 2175 0 
L 1381 0 
L 213 4666 
z
" transform="scale(0.015625)"/>
       <path id="DejaVuSans-6c" d="M 603 4863 
L 1178 4863 
L 1178 0 
L 603 0 
L 603 4863 
z
" transform="scale(0.015625)"/>
       <path id="DejaVuSans-79" d="M 2059 -325 
Q 1816 -950 1584 -1140 
Q 1353 -1331 966 -1331 
L 506 -1331 
L 506 -850 
L 844 -850 
Q 1081 -850 1212 -737 
Q 1344 -625 1503 -206 
L 1606 56 
L 191 3500 
L 800 3500 
L 1894 763 
L 2988 3500 
L 3597 3500 
L 2059 -325 
z
" transform="scale(0.015625)"/>
       <path id="DejaVuSans-43" d="M 4122 4306 
L 4122 3641 
Q 3803 3938 3442 4084 
Q 3081 4231 2675 4231 
Q 1875 4231 1450 3742 
Q 1025 3253 1025 2328 
Q 1025 1406 1450 917 
Q 1875 428 2675 428 
Q 3081 428 3442 575 
Q 3803 722 4122 1019 
L 4122 359 
Q 3791 134 3420 21 
Q 3050 -91 2638 -91 
Q 1578 -91 968 557 
Q 359 1206 359 2328 
Q 359 3453 968 4101 
Q 1578 4750 2638 4750 
Q 3056 4750 3426 4639 
Q 3797 4528 4122 4306 
z
" transform="scale(0.015625)"/>
       <path id="DejaVuSans-4f" d="M 2522 4238 
Q 1834 4238 1429 3725 
Q 1025 3213 1025 2328 
Q 1025 1447 1429 934 
Q 1834 422 2522 422 
Q 3209 422 3611 934 
Q 4013 1447 4013 2328 
Q 4013 3213 3611 3725 
Q 3209 4238 2522 4238 
z
M 2522 4750 
Q 3503 4750 4090 4092 
Q 4678 3434 4678 2328 
Q 4678 1225 4090 567 
Q 3503 -91 2522 -91 
Q 1538 -91 948 565 
Q 359 1222 359 2328 
Q 359 3434 948 4092 
Q 1538 4750 2522 4750 
z
" transform="scale(0.015625)"/>
       <path id="DejaVuSans-56" d="M 1831 0 
L 50 4666 
L 709 4666 
L 2188 738 
L 3669 4666 
L 4325 4666 
L 2547 0 
L 1831 0 
z
" transform="scale(0.015625)"/>
       <path id="DejaVuSans-49" d="M 628 4666 
L 1259 4666 
L 1259 0 
L 628 0 
L 628 4666 
z
" transform="scale(0.015625)"/>
       <path id="DejaVuSans-44" d="M 1259 4147 
L 1259 519 
L 2022 519 
Q 2988 519 3436 956 
Q 3884 1394 3884 2338 
Q 3884 3275 3436 3711 
Q 2988 4147 2022 4147 
L 1259 4147 
z
M 628 4666 
L 1925 4666 
Q 3281 4666 3915 4102 
Q 4550 3538 4550 2338 
Q 4550 1131 3912 565 
Q 3275 0 1925 0 
L 628 0 
L 628 4666 
z
" transform="scale(0.015625)"/>
       <path id="DejaVuSans-2d" d="M 313 2009 
L 1997 2009 
L 1997 1497 
L 313 1497 
L 313 2009 
z
" transform="scale(0.015625)"/>
       <path id="DejaVuSans-64" d="M 2906 2969 
L 2906 4863 
L 3481 4863 
L 3481 0 
L 2906 0 
L 2906 525 
Q 2725 213 2448 61 
Q 2172 -91 1784 -91 
Q 1150 -91 751 415 
Q 353 922 353 1747 
Q 353 2572 751 3078 
Q 1150 3584 1784 3584 
Q 2172 3584 2448 3432 
Q 2725 3281 2906 2969 
z
M 947 1747 
Q 947 1113 1208 752 
Q 1469 391 1925 391 
Q 2381 391 2643 752 
Q 2906 1113 2906 1747 
Q 2906 2381 2643 2742 
Q 2381 3103 1925 3103 
Q 1469 3103 1208 2742 
Q 947 2381 947 1747 
z
" transform="scale(0.015625)"/>
       <path id="DejaVuSans-61" d="M 2194 1759 
Q 1497 1759 1228 1600 
Q 959 1441 959 1056 
Q 959 750 1161 570 
Q 1363 391 1709 391 
Q 2188 391 2477 730 
Q 2766 1069 2766 1631 
L 2766 1759 
L 2194 1759 
z
M 3341 1997 
L 3341 0 
L 2766 0 
L 2766 531 
Q 2569 213 2275 61 
Q 1981 -91 1556 -91 
Q 1019 -91 701 211 
Q 384 513 384 1019 
Q 384 1609 779 1909 
Q 1175 2209 1959 2209 
L 2766 2209 
L 2766 2266 
Q 2766 2663 2505 2880 
Q 2244 3097 1772 3097 
Q 1472 3097 1187 3025 
Q 903 2953 641 2809 
L 641 3341 
Q 956 3463 1253 3523 
Q 1550 3584 1831 3584 
Q 2591 3584 2966 3190 
Q 3341 2797 3341 1997 
z
" transform="scale(0.015625)"/>
       <path id="DejaVuSans-68" d="M 3513 2113 
L 3513 0 
L 2938 0 
L 2938 2094 
Q 2938 2591 2744 2837 
Q 2550 3084 2163 3084 
Q 1697 3084 1428 2787 
Q 1159 2491 1159 1978 
L 1159 0 
L 581 0 
L 581 4863 
L 1159 4863 
L 1159 2956 
Q 1366 3272 1645 3428 
Q 1925 3584 2291 3584 
Q 2894 3584 3203 3211 
Q 3513 2838 3513 2113 
z
" transform="scale(0.015625)"/>
      </defs>
      <use xlink:href="#DejaVuSans-57"/>
      <use xlink:href="#DejaVuSans-65" x="93.001953"/>
      <use xlink:href="#DejaVuSans-65" x="154.525391"/>
      <use xlink:href="#DejaVuSans-6b" x="216.048828"/>
      <use xlink:href="#DejaVuSans-6c" x="273.958984"/>
      <use xlink:href="#DejaVuSans-79" x="301.742188"/>
      <use xlink:href="#DejaVuSans-20" x="360.921875"/>
      <use xlink:href="#DejaVuSans-43" x="392.708984"/>
      <use xlink:href="#DejaVuSans-4f" x="462.533203"/>
      <use xlink:href="#DejaVuSans-56" x="539.494141"/>
      <use xlink:href="#DejaVuSans-49" x="607.902344"/>
      <use xlink:href="#DejaVuSans-44" x="637.394531"/>
      <use xlink:href="#DejaVuSans-2d" x="714.396484"/>
      <use xlink:href="#DejaVuSans-31" x="750.480469"/>
      <use xlink:href="#DejaVuSans-39" x="814.103516"/>
      <use xlink:href="#DejaVuSans-20" x="877.726562"/>
      <use xlink:href="#DejaVuSans-64" x="909.513672"/>
      <use xlink:href="#DejaVuSans-65" x="972.990234"/>
      <use xlink:href="#DejaVuSans-61" x="1034.513672"/>
      <use xlink:href="#DejaVuSans-74" x="1095.792969"/>
      <use xlink:href="#DejaVuSans-68" x="1135.001953"/>
      <use xlink:href="#DejaVuSans-73" x="1198.380859"/>
     </g>
    </g>
   </g>
   <g id="line2d_32">
    <path d="M 80.692467 356.062513 
L 92.439836 354.337889 
L 104.187204 357.212261 
L 115.934572 344.565025 
L 127.681941 337.666533 
L 139.429309 326.74392 
L 151.176678 327.893668 
L 162.924046 308.34794 
L 174.671414 311.222312 
L 186.418783 310.072563 
L 198.166151 307.198191 
L 209.91352 311.222312 
L 221.660888 321.57005 
L 233.408257 329.043417 
L 245.155625 331.917789 
L 256.902993 338.816281 
L 268.650362 335.367035 
L 280.39773 336.516784 
L 292.145099 343.415276 
L 303.892467 342.265528 
L 315.639836 329.043417 
L 327.387204 304.898693 
L 339.134572 191.073568 
L 350.881941 110.016281 
L 362.629309 24.36 
L 374.376678 90.470553 
L 386.124046 141.634372 
L 397.871414 184.175075 
L 409.618783 226.715779 
L 421.366151 218.667538 
L 433.11352 269.256482 
L 444.860888 288.227337 
L 456.608257 270.981106 
L 468.355625 291.101709 
L 480.102993 264.657487 
L 491.850362 242.812261 
L 503.59773 250.285628 
L 515.345099 214.068543 
L 527.092467 215.218291 
L 538.839836 203.720804 
L 550.587204 193.373065 
L 562.334572 158.880603 
L 574.081941 201.421307 
L 585.829309 195.672563 
L 597.576678 181.300704 
L 609.324046 189.348945 
L 621.071414 176.701709 
L 632.818783 195.097688 
" clip-path="url(#p70a5098af8)" style="fill: none; stroke: #630000; stroke-width: 1.5; stroke-linecap: square"/>
    <defs>
     <path id="mfc71ca47d7" d="M 0 2 
C 0.530406 2 1.03916 1.789267 1.414214 1.414214 
C 1.789267 1.03916 2 0.530406 2 0 
C 2 -0.530406 1.789267 -1.03916 1.414214 -1.414214 
C 1.03916 -1.789267 0.530406 -2 0 -2 
C -0.530406 -2 -1.03916 -1.789267 -1.414214 -1.414214 
C -1.789267 -1.03916 -2 -0.530406 -2 0 
C -2 0.530406 -1.789267 1.03916 -1.414214 1.414214 
C -1.03916 1.789267 -0.530406 2 0 2 
z
" style="stroke: #630000"/>
    </defs>
    <g clip-path="url(#p70a5098af8)">
     <use xlink:href="#mfc71ca47d7" x="80.692467" y="356.062513" style="fill: #630000; stroke: #630000"/>
     <use xlink:href="#mfc71ca47d7" x="92.439836" y="354.337889" style="fill: #630000; stroke: #630000"/>
     <use xlink:href="#mfc71ca47d7" x="104.187204" y="357.212261" style="fill: #630000; stroke: #630000"/>
     <use xlink:href="#mfc71ca47d7" x="115.934572" y="344.565025" style="fill: #630000; stroke: #630000"/>
     <use xlink:href="#mfc71ca47d7" x="127.681941" y="337.666533" style="fill: #630000; stroke: #630000"/>
     <use xlink:href="#mfc71ca47d7" x="139.429309" y="326.74392" style="fill: #630000; stroke: #630000"/>
     <use xlink:href="#mfc71ca47d7" x="151.176678" y="327.893668" style="fill: #630000; stroke: #630000"/>
     <use xlink:href="#mfc71ca47d7" x="162.924046" y="308.34794" style="fill: #630000; stroke: #630000"/>
     <use xlink:href="#mfc71ca47d7" x="174.671414" y="311.222312" style="fill: #630000; stroke: #630000"/>
     <use xlink:href="#mfc71ca47d7" x="186.418783" y="310.072563" style="fill: #630000; stroke: #630000"/>
     <use xlink:href="#mfc71ca47d7" x="198.166151" y="307.198191" style="fill: #630000; stroke: #630000"/>
     <use xlink:href="#mfc71ca47d7" x="209.91352" y="311.222312" style="fill: #630000; stroke: #630000"/>
     <use xlink:href="#mfc71ca47d7" x="221.660888" y="321.57005" style="fill: #630000; stroke: #630000"/>
     <use xlink:href="#mfc71ca47d7" x="233.408257" y="329.043417" style="fill: #630000; stroke: #630000"/>
     <use xlink:href="#mfc71ca47d7" x="245.155625" y="331.917789" style="fill: #630000; stroke: #630000"/>
     <use xlink:href="#mfc71ca47d7" x="256.902993" y="338.816281" style="fill: #630000; stroke: #630000"/>
     <use xlink:href="#mfc71ca47d7" x="268.650362" y="335.367035" style="fill: #630000; stroke: #630000"/>
     <use xlink:href="#mfc71ca47d7" x="280.39773" y="336.516784" style="fill: #630000; stroke: #630000"/>
     <use xlink:href="#mfc71ca47d7" x="292.145099" y="343.415276" style="fill: #630000; stroke: #630000"/>
     <use xlink:href="#mfc71ca47d7" x="303.892467" y="342.265528" style="fill: #630000; stroke: #630000"/>
     <use xlink:href="#mfc71ca47d7" x="315.639836" y="329.043417" style="fill: #630000; stroke: #630000"/>
     <use xlink:href="#mfc71ca47d7" x="327.387204" y="304.898693" style="fill: #630000; stroke: #630000"/>
     <use xlink:href="#mfc71ca47d7" x="339.134572" y="191.073568" style="fill: #630000; stroke: #630000"/>
     <use xlink:href="#mfc71ca47d7" x="350.881941" y="110.016281" style="fill: #630000; stroke: #630000"/>
     <use xlink:href="#mfc71ca47d7" x="362.629309" y="24.36" style="fill: #630000; stroke: #630000"/>
     <use xlink:href="#mfc71ca47d7" x="374.376678" y="90.470553" style="fill: #630000; stroke: #630000"/>
     <use xlink:href="#mfc71ca47d7" x="386.124046" y="141.634372" style="fill: #630000; stroke: #630000"/>
     <use xlink:href="#mfc71ca47d7" x="397.871414" y="184.175075" style="fill: #630000; stroke: #630000"/>
     <use xlink:href="#mfc71ca47d7" x="409.618783" y="226.715779" style="fill: #630000; stroke: #630000"/>
     <use xlink:href="#mfc71ca47d7" x="421.366151" y="218.667538" style="fill: #630000; stroke: #630000"/>
     <use xlink:href="#mfc71ca47d7" x="433.11352" y="269.256482" style="fill: #630000; stroke: #630000"/>
     <use xlink:href="#mfc71ca47d7" x="444.860888" y="288.227337" style="fill: #630000; stroke: #630000"/>
     <use xlink:href="#mfc71ca47d7" x="456.608257" y="270.981106" style="fill: #630000; stroke: #630000"/>
     <use xlink:href="#mfc71ca47d7" x="468.355625" y="291.101709" style="fill: #630000; stroke: #630000"/>
     <use xlink:href="#mfc71ca47d7" x="480.102993" y="264.657487" style="fill: #630000; stroke: #630000"/>
     <use xlink:href="#mfc71ca47d7" x="491.850362" y="242.812261" style="fill: #630000; stroke: #630000"/>
     <use xlink:href="#mfc71ca47d7" x="503.59773" y="250.285628" style="fill: #630000; stroke: #630000"/>
     <use xlink:href="#mfc71ca47d7" x="515.345099" y="214.068543" style="fill: #630000; stroke: #630000"/>
     <use xlink:href="#mfc71ca47d7" x="527.092467" y="215.218291" style="fill: #630000; stroke: #630000"/>
     <use xlink:href="#mfc71ca47d7" x="538.839836" y="203.720804" style="fill: #630000; stroke: #630000"/>
     <use xlink:href="#mfc71ca47d7" x="550.587204" y="193.373065" style="fill: #630000; stroke: #630000"/>
     <use xlink:href="#mfc71ca47d7" x="562.334572" y="158.880603" style="fill: #630000; stroke: #630000"/>
     <use xlink:href="#mfc71ca47d7" x="574.081941" y="201.421307" style="fill: #630000; stroke: #630000"/>
     <use xlink:href="#mfc71ca47d7" x="585.829309" y="195.672563" style="fill: #630000; stroke: #630000"/>
     <use xlink:href="#mfc71ca47d7" x="597.576678" y="181.300704" style="fill: #630000; stroke: #630000"/>
     <use xlink:href="#mfc71ca47d7" x="609.324046" y="189.348945" style="fill: #630000; stroke: #630000"/>
     <use xlink:href="#mfc71ca47d7" x="621.071414" y="176.701709" style="fill: #630000; stroke: #630000"/>
     <use xlink:href="#mfc71ca47d7" x="632.818783" y="195.097688" style="fill: #630000; stroke: #630000"/>
    </g>
   </g>
   <g id="patch_147">
    <path d="M 49.855625 367.56 
L 49.855625 7.2 
" style="fill: none; stroke: #000000; stroke-width: 0.8; stroke-linejoin: miter; stroke-linecap: square"/>
   </g>
   <g id="patch_148">
    <path d="M 663.655625 367.56 
L 663.655625 7.2 
" style="fill: none; stroke: #000000; stroke-width: 0.8; stroke-linejoin: miter; stroke-linecap: square"/>
   </g>
   <g id="patch_149">
    <path d="M 49.855625 367.56 
L 663.655625 367.56 
" style="fill: none; stroke: #000000; stroke-width: 0.8; stroke-linejoin: miter; stroke-linecap: square"/>
   </g>
   <g id="patch_150">
    <path d="M 49.855625 7.2 
L 663.655625 7.2 
" style="fill: none; stroke: #000000; stroke-width: 0.8; stroke-linejoin: miter; stroke-linecap: square"/>
   </g>
   <g id="legend_1">
    <g id="line2d_33">
     <path d="M 506.605156 20.953359 
L 517.105156 20.953359 
L 527.605156 20.953359 
" style="fill: none; stroke: #630000; stroke-width: 1.5; stroke-linecap: square"/>
     <g>
      <use xlink:href="#mfc71ca47d7" x="517.105156" y="20.953359" style="fill: #630000; stroke: #630000"/>
     </g>
    </g>
    <g id="text_34">
     <!-- deaths (AUS) -->
     <g transform="translate(536.005156 24.628359) scale(0.105 -0.105)">
      <defs>
       <path id="DejaVuSans-41" d="M 2188 4044 
L 1331 1722 
L 3047 1722 
L 2188 4044 
z
M 1831 4666 
L 2547 4666 
L 4325 0 
L 3669 0 
L 3244 1197 
L 1141 1197 
L 716 0 
L 50 0 
L 1831 4666 
z
" transform="scale(0.015625)"/>
       <path id="DejaVuSans-55" d="M 556 4666 
L 1191 4666 
L 1191 1831 
Q 1191 1081 1462 751 
Q 1734 422 2344 422 
Q 2950 422 3222 751 
Q 3494 1081 3494 1831 
L 3494 4666 
L 4128 4666 
L 4128 1753 
Q 4128 841 3676 375 
Q 3225 -91 2344 -91 
Q 1459 -91 1007 375 
Q 556 841 556 1753 
L 556 4666 
z
" transform="scale(0.015625)"/>
       <path id="DejaVuSans-53" d="M 3425 4513 
L 3425 3897 
Q 3066 4069 2747 4153 
Q 2428 4238 2131 4238 
Q 1616 4238 1336 4038 
Q 1056 3838 1056 3469 
Q 1056 3159 1242 3001 
Q 1428 2844 1947 2747 
L 2328 2669 
Q 3034 2534 3370 2195 
Q 3706 1856 3706 1288 
Q 3706 609 3251 259 
Q 2797 -91 1919 -91 
Q 1588 -91 1214 -16 
Q 841 59 441 206 
L 441 856 
Q 825 641 1194 531 
Q 1563 422 1919 422 
Q 2459 422 2753 634 
Q 3047 847 3047 1241 
Q 3047 1584 2836 1778 
Q 2625 1972 2144 2069 
L 1759 2144 
Q 1053 2284 737 2584 
Q 422 2884 422 3419 
Q 422 4038 858 4394 
Q 1294 4750 2059 4750 
Q 2388 4750 2728 4690 
Q 3069 4631 3425 4513 
z
" transform="scale(0.015625)"/>
      </defs>
      <use xlink:href="#DejaVuSans-64"/>
      <use xlink:href="#DejaVuSans-65" x="63.476562"/>
      <use xlink:href="#DejaVuSans-61" x="125"/>
      <use xlink:href="#DejaVuSans-74" x="186.279297"/>
      <use xlink:href="#DejaVuSans-68" x="225.488281"/>
      <use xlink:href="#DejaVuSans-73" x="288.867188"/>
      <use xlink:href="#DejaVuSans-20" x="340.966797"/>
      <use xlink:href="#DejaVuSans-28" x="372.753906"/>
      <use xlink:href="#DejaVuSans-41" x="411.767578"/>
      <use xlink:href="#DejaVuSans-55" x="480.175781"/>
      <use xlink:href="#DejaVuSans-53" x="553.369141"/>
      <use xlink:href="#DejaVuSans-29" x="616.845703"/>
     </g>
    </g>
    <g id="patch_151">
     <path d="M 506.605156 40.040391 
L 527.605156 40.040391 
L 527.605156 32.690391 
L 506.605156 32.690391 
z
" style="fill: #fee1d3"/>
    </g>
    <g id="text_35">
     <!-- reported deaths -->
     <g transform="translate(536.005156 40.040391) scale(0.105 -0.105)">
      <defs>
       <path id="DejaVuSans-72" d="M 2631 2963 
Q 2534 3019 2420 3045 
Q 2306 3072 2169 3072 
Q 1681 3072 1420 2755 
Q 1159 2438 1159 1844 
L 1159 0 
L 581 0 
L 581 3500 
L 1159 3500 
L 1159 2956 
Q 1341 3275 1631 3429 
Q 1922 3584 2338 3584 
Q 2397 3584 2469 3576 
Q 2541 3569 2628 3553 
L 2631 2963 
z
" transform="scale(0.015625)"/>
      </defs>
      <use xlink:href="#DejaVuSans-72"/>
      <use xlink:href="#DejaVuSans-65" x="38.863281"/>
      <use xlink:href="#DejaVuSans-70" x="100.386719"/>
      <use xlink:href="#DejaVuSans-6f" x="163.863281"/>
      <use xlink:href="#DejaVuSans-72" x="225.044922"/>
      <use xlink:href="#DejaVuSans-74" x="266.158203"/>
      <use xlink:href="#DejaVuSans-65" x="305.367188"/>
      <use xlink:href="#DejaVuSans-64" x="366.890625"/>
      <use xlink:href="#DejaVuSans-20" x="430.367188"/>
      <use xlink:href="#DejaVuSans-64" x="462.154297"/>
      <use xlink:href="#DejaVuSans-65" x="525.630859"/>
      <use xlink:href="#DejaVuSans-61" x="587.154297"/>
      <use xlink:href="#DejaVuSans-74" x="648.433594"/>
      <use xlink:href="#DejaVuSans-68" x="687.642578"/>
      <use xlink:href="#DejaVuSans-73" x="751.021484"/>
     </g>
    </g>
    <g id="patch_152">
     <path d="M 506.605156 55.452422 
L 527.605156 55.452422 
L 527.605156 48.102422 
L 506.605156 48.102422 
z
" style="fill: #fd9272"/>
    </g>
    <g id="text_36">
     <!-- under-reported deaths -->
     <g transform="translate(536.005156 55.452422) scale(0.105 -0.105)">
      <defs>
       <path id="DejaVuSans-75" d="M 544 1381 
L 544 3500 
L 1119 3500 
L 1119 1403 
Q 1119 906 1312 657 
Q 1506 409 1894 409 
Q 2359 409 2629 706 
Q 2900 1003 2900 1516 
L 2900 3500 
L 3475 3500 
L 3475 0 
L 2900 0 
L 2900 538 
Q 2691 219 2414 64 
Q 2138 -91 1772 -91 
Q 1169 -91 856 284 
Q 544 659 544 1381 
z
M 1991 3584 
L 1991 3584 
z
" transform="scale(0.015625)"/>
      </defs>
      <use xlink:href="#DejaVuSans-75"/>
      <use xlink:href="#DejaVuSans-6e" x="63.378906"/>
      <use xlink:href="#DejaVuSans-64" x="126.757812"/>
      <use xlink:href="#DejaVuSans-65" x="190.234375"/>
      <use xlink:href="#DejaVuSans-72" x="251.757812"/>
      <use xlink:href="#DejaVuSans-2d" x="286.496094"/>
      <use xlink:href="#DejaVuSans-72" x="322.580078"/>
      <use xlink:href="#DejaVuSans-65" x="361.443359"/>
      <use xlink:href="#DejaVuSans-70" x="422.966797"/>
      <use xlink:href="#DejaVuSans-6f" x="486.443359"/>
      <use xlink:href="#DejaVuSans-72" x="547.625"/>
      <use xlink:href="#DejaVuSans-74" x="588.738281"/>
      <use xlink:href="#DejaVuSans-65" x="627.947266"/>
      <use xlink:href="#DejaVuSans-64" x="689.470703"/>
      <use xlink:href="#DejaVuSans-20" x="752.947266"/>
      <use xlink:href="#DejaVuSans-64" x="784.734375"/>
      <use xlink:href="#DejaVuSans-65" x="848.210938"/>
      <use xlink:href="#DejaVuSans-61" x="909.734375"/>
      <use xlink:href="#DejaVuSans-74" x="971.013672"/>
      <use xlink:href="#DejaVuSans-68" x="1010.222656"/>
      <use xlink:href="#DejaVuSans-73" x="1073.601562"/>
     </g>
    </g>
    <g id="patch_153">
     <path d="M 506.605156 70.864453 
L 527.605156 70.864453 
L 527.605156 63.514453 
L 506.605156 63.514453 
z
" style="fill: #cb181c"/>
    </g>
    <g id="text_37">
     <!-- unreported deaths -->
     <g transform="translate(536.005156 70.864453) scale(0.105 -0.105)">
      <use xlink:href="#DejaVuSans-75"/>
      <use xlink:href="#DejaVuSans-6e" x="63.378906"/>
      <use xlink:href="#DejaVuSans-72" x="126.757812"/>
      <use xlink:href="#DejaVuSans-65" x="165.621094"/>
      <use xlink:href="#DejaVuSans-70" x="227.144531"/>
      <use xlink:href="#DejaVuSans-6f" x="290.621094"/>
      <use xlink:href="#DejaVuSans-72" x="351.802734"/>
      <use xlink:href="#DejaVuSans-74" x="392.916016"/>
      <use xlink:href="#DejaVuSans-65" x="432.125"/>
      <use xlink:href="#DejaVuSans-64" x="493.648438"/>
      <use xlink:href="#DejaVuSans-20" x="557.125"/>
      <use xlink:href="#DejaVuSans-64" x="588.912109"/>
      <use xlink:href="#DejaVuSans-65" x="652.388672"/>
      <use xlink:href="#DejaVuSans-61" x="713.912109"/>
      <use xlink:href="#DejaVuSans-74" x="775.191406"/>
      <use xlink:href="#DejaVuSans-68" x="814.400391"/>
      <use xlink:href="#DejaVuSans-73" x="877.779297"/>
     </g>
    </g>
   </g>
  </g>
 </g>
 <defs>
  <clipPath id="p70a5098af8">
   <rect x="49.855625" y="7.2" width="613.8" height="360.36"/>
  </clipPath>
 </defs>
</svg>
