<?xml version="1.0" encoding="utf-8" standalone="no"?>
<!DOCTYPE svg PUBLIC "-//W3C//DTD SVG 1.1//EN"
  "http://www.w3.org/Graphics/SVG/1.1/DTD/svg11.dtd">
<svg xmlns:xlink="http://www.w3.org/1999/xlink" width="428.19875pt" height="672.619089pt" viewBox="0 0 428.19875 672.619089" xmlns="http://www.w3.org/2000/svg" version="1.1">
 <metadata>
  <rdf:RDF xmlns:dc="http://purl.org/dc/elements/1.1/" xmlns:cc="http://creativecommons.org/ns#" xmlns:rdf="http://www.w3.org/1999/02/22-rdf-syntax-ns#">
   <cc:Work>
    <dc:type rdf:resource="http://purl.org/dc/dcmitype/StillImage"/>
    <dc:date>2024-02-02T13:20:01.976477</dc:date>
    <dc:format>image/svg+xml</dc:format>
    <dc:creator>
     <cc:Agent>
      <dc:title>Matplotlib v3.6.3, https://matplotlib.org/</dc:title>
     </cc:Agent>
    </dc:creator>
   </cc:Work>
  </rdf:RDF>
 </metadata>
 <defs>
  <style type="text/css">*{stroke-linejoin: round; stroke-linecap: butt}</style>
 </defs>
 <g id="figure_1">
  <g id="patch_1">
   <path d="M 0 672.619089 
L 428.19875 672.619089 
L 428.19875 0 
L 0 0 
z
" style="fill: #ffffff"/>
  </g>
  <g id="axes_1">
   <g id="patch_2">
    <path d="M 52.71875 199.758437 
L 420.99875 199.758437 
L 420.99875 17.845937 
L 52.71875 17.845937 
z
" style="fill: #ffffff"/>
   </g>
   <g id="PolyCollection_1">
    <defs>
     <path id="m3262d21867" d="M 69.45875 -474.419901 
L 69.45875 -473.796201 
L 76.582154 -473.952126 
L 83.705559 -474.315951 
L 90.828963 -474.939651 
L 97.952367 -475.251501 
L 105.075771 -475.563351 
L 112.199176 -475.875201 
L 119.32258 -476.498901 
L 126.445984 -477.174576 
L 133.569388 -477.798276 
L 140.692793 -478.214076 
L 147.816197 -478.525926 
L 154.939601 -478.993701 
L 162.063005 -479.201601 
L 169.18641 -479.409501 
L 176.309814 -479.565426 
L 183.433218 -479.565426 
L 190.556622 -479.825301 
L 197.680027 -479.877276 
L 204.803431 -480.085176 
L 211.926835 -480.760851 
L 219.050239 -483.827376 
L 226.173644 -490.012401 
L 233.297048 -500.563326 
L 240.420452 -517.922976 
L 247.543856 -528.006126 
L 254.667261 -535.542501 
L 261.790665 -542.039376 
L 268.914069 -544.586151 
L 276.037473 -546.717126 
L 283.160878 -548.744151 
L 290.284282 -550.407351 
L 297.407686 -551.862651 
L 304.53109 -554.825226 
L 311.654495 -557.735826 
L 318.777899 -561.270126 
L 325.901303 -564.284676 
L 333.024707 -567.715026 
L 340.148112 -572.080926 
L 347.271516 -575.927076 
L 354.39492 -579.721251 
L 361.518324 -584.087151 
L 368.641729 -588.245151 
L 375.765133 -591.779451 
L 382.888537 -595.053876 
L 390.011941 -599.887551 
L 397.135346 -605.500851 
L 404.25875 -609.762801 
L 404.25875 -654.201426 
L 404.25875 -654.201426 
L 397.135346 -648.640101 
L 390.011941 -641.571501 
L 382.888537 -635.386476 
L 375.765133 -630.968601 
L 368.641729 -626.290851 
L 361.518324 -620.885451 
L 354.39492 -615.168201 
L 347.271516 -610.178601 
L 340.148112 -605.085051 
L 333.024707 -599.419776 
L 325.901303 -594.794001 
L 318.777899 -590.636001 
L 311.654495 -585.906276 
L 304.53109 -581.904201 
L 297.407686 -577.850151 
L 290.284282 -575.615226 
L 283.160878 -573.068451 
L 276.037473 -570.157851 
L 268.914069 -567.091326 
L 261.790665 -563.505051 
L 254.667261 -555.448926 
L 247.543856 -546.249351 
L 240.420452 -534.191151 
L 233.297048 -514.284726 
L 226.173644 -501.758751 
L 219.050239 -494.066451 
L 211.926835 -489.908451 
L 204.803431 -488.661051 
L 197.680027 -488.089326 
L 190.556622 -487.777476 
L 183.433218 -487.101801 
L 176.309814 -486.997851 
L 169.18641 -486.530076 
L 162.063005 -485.958351 
L 154.939601 -485.386626 
L 147.816197 -484.399101 
L 140.692793 -483.671451 
L 133.569388 -482.787876 
L 126.445984 -481.592451 
L 119.32258 -480.345051 
L 112.199176 -479.149626 
L 105.075771 -478.421976 
L 97.952367 -477.694326 
L 90.828963 -476.914701 
L 83.705559 -475.771251 
L 76.582154 -474.939651 
L 69.45875 -474.419901 
z
" style="stroke: #ffa500; stroke-opacity: 0.5"/>
    </defs>
    <g clip-path="url(#p16084b49a8)">
     <use xlink:href="#m3262d21867" x="0" y="672.619089" style="fill: #ffa500; fill-opacity: 0.5; stroke: #ffa500; stroke-opacity: 0.5"/>
    </g>
   </g>
   <g id="matplotlib.axis_1">
    <g id="xtick_1">
     <g id="line2d_1">
      <defs>
       <path id="m14ad7416f5" d="M 0 0 
L 0 3.5 
" style="stroke: #000000; stroke-width: 0.8"/>
      </defs>
      <g>
       <use xlink:href="#m14ad7416f5" x="69.45875" y="199.758437" style="stroke: #000000; stroke-width: 0.8"/>
      </g>
     </g>
    </g>
    <g id="xtick_2">
     <g id="line2d_2">
      <g>
       <use xlink:href="#m14ad7416f5" x="83.705559" y="199.758437" style="stroke: #000000; stroke-width: 0.8"/>
      </g>
     </g>
    </g>
    <g id="xtick_3">
     <g id="line2d_3">
      <g>
       <use xlink:href="#m14ad7416f5" x="97.952367" y="199.758437" style="stroke: #000000; stroke-width: 0.8"/>
      </g>
     </g>
    </g>
    <g id="xtick_4">
     <g id="line2d_4">
      <g>
       <use xlink:href="#m14ad7416f5" x="112.199176" y="199.758437" style="stroke: #000000; stroke-width: 0.8"/>
      </g>
     </g>
    </g>
    <g id="xtick_5">
     <g id="line2d_5">
      <g>
       <use xlink:href="#m14ad7416f5" x="126.445984" y="199.758437" style="stroke: #000000; stroke-width: 0.8"/>
      </g>
     </g>
    </g>
    <g id="xtick_6">
     <g id="line2d_6">
      <g>
       <use xlink:href="#m14ad7416f5" x="140.692793" y="199.758437" style="stroke: #000000; stroke-width: 0.8"/>
      </g>
     </g>
    </g>
    <g id="xtick_7">
     <g id="line2d_7">
      <g>
       <use xlink:href="#m14ad7416f5" x="154.939601" y="199.758437" style="stroke: #000000; stroke-width: 0.8"/>
      </g>
     </g>
    </g>
    <g id="xtick_8">
     <g id="line2d_8">
      <g>
       <use xlink:href="#m14ad7416f5" x="169.18641" y="199.758437" style="stroke: #000000; stroke-width: 0.8"/>
      </g>
     </g>
    </g>
    <g id="xtick_9">
     <g id="line2d_9">
      <g>
       <use xlink:href="#m14ad7416f5" x="183.433218" y="199.758437" style="stroke: #000000; stroke-width: 0.8"/>
      </g>
     </g>
    </g>
    <g id="xtick_10">
     <g id="line2d_10">
      <g>
       <use xlink:href="#m14ad7416f5" x="197.680027" y="199.758437" style="stroke: #000000; stroke-width: 0.8"/>
      </g>
     </g>
    </g>
    <g id="xtick_11">
     <g id="line2d_11">
      <g>
       <use xlink:href="#m14ad7416f5" x="211.926835" y="199.758437" style="stroke: #000000; stroke-width: 0.8"/>
      </g>
     </g>
    </g>
    <g id="xtick_12">
     <g id="line2d_12">
      <g>
       <use xlink:href="#m14ad7416f5" x="226.173644" y="199.758437" style="stroke: #000000; stroke-width: 0.8"/>
      </g>
     </g>
    </g>
    <g id="xtick_13">
     <g id="line2d_13">
      <g>
       <use xlink:href="#m14ad7416f5" x="240.420452" y="199.758437" style="stroke: #000000; stroke-width: 0.8"/>
      </g>
     </g>
    </g>
    <g id="xtick_14">
     <g id="line2d_14">
      <g>
       <use xlink:href="#m14ad7416f5" x="254.667261" y="199.758437" style="stroke: #000000; stroke-width: 0.8"/>
      </g>
     </g>
    </g>
    <g id="xtick_15">
     <g id="line2d_15">
      <g>
       <use xlink:href="#m14ad7416f5" x="268.914069" y="199.758437" style="stroke: #000000; stroke-width: 0.8"/>
      </g>
     </g>
    </g>
    <g id="xtick_16">
     <g id="line2d_16">
      <g>
       <use xlink:href="#m14ad7416f5" x="283.160878" y="199.758437" style="stroke: #000000; stroke-width: 0.8"/>
      </g>
     </g>
    </g>
    <g id="xtick_17">
     <g id="line2d_17">
      <g>
       <use xlink:href="#m14ad7416f5" x="297.407686" y="199.758437" style="stroke: #000000; stroke-width: 0.8"/>
      </g>
     </g>
    </g>
    <g id="xtick_18">
     <g id="line2d_18">
      <g>
       <use xlink:href="#m14ad7416f5" x="311.654495" y="199.758437" style="stroke: #000000; stroke-width: 0.8"/>
      </g>
     </g>
    </g>
    <g id="xtick_19">
     <g id="line2d_19">
      <g>
       <use xlink:href="#m14ad7416f5" x="325.901303" y="199.758437" style="stroke: #000000; stroke-width: 0.8"/>
      </g>
     </g>
    </g>
    <g id="xtick_20">
     <g id="line2d_20">
      <g>
       <use xlink:href="#m14ad7416f5" x="340.148112" y="199.758437" style="stroke: #000000; stroke-width: 0.8"/>
      </g>
     </g>
    </g>
    <g id="xtick_21">
     <g id="line2d_21">
      <g>
       <use xlink:href="#m14ad7416f5" x="354.39492" y="199.758437" style="stroke: #000000; stroke-width: 0.8"/>
      </g>
     </g>
    </g>
    <g id="xtick_22">
     <g id="line2d_22">
      <g>
       <use xlink:href="#m14ad7416f5" x="368.641729" y="199.758437" style="stroke: #000000; stroke-width: 0.8"/>
      </g>
     </g>
    </g>
    <g id="xtick_23">
     <g id="line2d_23">
      <g>
       <use xlink:href="#m14ad7416f5" x="382.888537" y="199.758437" style="stroke: #000000; stroke-width: 0.8"/>
      </g>
     </g>
    </g>
    <g id="xtick_24">
     <g id="line2d_24">
      <g>
       <use xlink:href="#m14ad7416f5" x="397.135346" y="199.758437" style="stroke: #000000; stroke-width: 0.8"/>
      </g>
     </g>
    </g>
   </g>
   <g id="matplotlib.axis_2">
    <g id="ytick_1">
     <g id="line2d_25">
      <defs>
       <path id="m04d4ffd2d1" d="M 0 0 
L -3.5 0 
" style="stroke: #000000; stroke-width: 0.8"/>
      </defs>
      <g>
       <use xlink:href="#m04d4ffd2d1" x="52.71875" y="199.758437" style="stroke: #000000; stroke-width: 0.8"/>
      </g>
     </g>
     <g id="text_1">
      <!-- 0 -->
      <g transform="translate(39.9925 203.177734) scale(0.09 -0.09)">
       <defs>
        <path id="DejaVuSans-30" d="M 2034 4250 
Q 1547 4250 1301 3770 
Q 1056 3291 1056 2328 
Q 1056 1369 1301 889 
Q 1547 409 2034 409 
Q 2525 409 2770 889 
Q 3016 1369 3016 2328 
Q 3016 3291 2770 3770 
Q 2525 4250 2034 4250 
z
M 2034 4750 
Q 2819 4750 3233 4129 
Q 3647 3509 3647 2328 
Q 3647 1150 3233 529 
Q 2819 -91 2034 -91 
Q 1250 -91 836 529 
Q 422 1150 422 2328 
Q 422 3509 836 4129 
Q 1250 4750 2034 4750 
z
" transform="scale(0.015625)"/>
       </defs>
       <use xlink:href="#DejaVuSans-30"/>
      </g>
     </g>
    </g>
    <g id="ytick_2">
     <g id="line2d_26">
      <g>
       <use xlink:href="#m04d4ffd2d1" x="52.71875" y="173.770937" style="stroke: #000000; stroke-width: 0.8"/>
      </g>
     </g>
     <g id="text_2">
      <!-- 500 -->
      <g transform="translate(28.54 177.190234) scale(0.09 -0.09)">
       <defs>
        <path id="DejaVuSans-35" d="M 691 4666 
L 3169 4666 
L 3169 4134 
L 1269 4134 
L 1269 2991 
Q 1406 3038 1543 3061 
Q 1681 3084 1819 3084 
Q 2600 3084 3056 2656 
Q 3513 2228 3513 1497 
Q 3513 744 3044 326 
Q 2575 -91 1722 -91 
Q 1428 -91 1123 -41 
Q 819 9 494 109 
L 494 744 
Q 775 591 1075 516 
Q 1375 441 1709 441 
Q 2250 441 2565 725 
Q 2881 1009 2881 1497 
Q 2881 1984 2565 2268 
Q 2250 2553 1709 2553 
Q 1456 2553 1204 2497 
Q 953 2441 691 2322 
L 691 4666 
z
" transform="scale(0.015625)"/>
       </defs>
       <use xlink:href="#DejaVuSans-35"/>
       <use xlink:href="#DejaVuSans-30" x="63.623047"/>
       <use xlink:href="#DejaVuSans-30" x="127.246094"/>
      </g>
     </g>
    </g>
    <g id="ytick_3">
     <g id="line2d_27">
      <g>
       <use xlink:href="#m04d4ffd2d1" x="52.71875" y="147.783437" style="stroke: #000000; stroke-width: 0.8"/>
      </g>
     </g>
     <g id="text_3">
      <!-- 1000 -->
      <g transform="translate(22.81375 151.202734) scale(0.09 -0.09)">
       <defs>
        <path id="DejaVuSans-31" d="M 794 531 
L 1825 531 
L 1825 4091 
L 703 3866 
L 703 4441 
L 1819 4666 
L 2450 4666 
L 2450 531 
L 3481 531 
L 3481 0 
L 794 0 
L 794 531 
z
" transform="scale(0.015625)"/>
       </defs>
       <use xlink:href="#DejaVuSans-31"/>
       <use xlink:href="#DejaVuSans-30" x="63.623047"/>
       <use xlink:href="#DejaVuSans-30" x="127.246094"/>
       <use xlink:href="#DejaVuSans-30" x="190.869141"/>
      </g>
     </g>
    </g>
    <g id="ytick_4">
     <g id="line2d_28">
      <g>
       <use xlink:href="#m04d4ffd2d1" x="52.71875" y="121.795937" style="stroke: #000000; stroke-width: 0.8"/>
      </g>
     </g>
     <g id="text_4">
      <!-- 1500 -->
      <g transform="translate(22.81375 125.215234) scale(0.09 -0.09)">
       <use xlink:href="#DejaVuSans-31"/>
       <use xlink:href="#DejaVuSans-35" x="63.623047"/>
       <use xlink:href="#DejaVuSans-30" x="127.246094"/>
       <use xlink:href="#DejaVuSans-30" x="190.869141"/>
      </g>
     </g>
    </g>
    <g id="ytick_5">
     <g id="line2d_29">
      <g>
       <use xlink:href="#m04d4ffd2d1" x="52.71875" y="95.808437" style="stroke: #000000; stroke-width: 0.8"/>
      </g>
     </g>
     <g id="text_5">
      <!-- 2000 -->
      <g transform="translate(22.81375 99.227734) scale(0.09 -0.09)">
       <defs>
        <path id="DejaVuSans-32" d="M 1228 531 
L 3431 531 
L 3431 0 
L 469 0 
L 469 531 
Q 828 903 1448 1529 
Q 2069 2156 2228 2338 
Q 2531 2678 2651 2914 
Q 2772 3150 2772 3378 
Q 2772 3750 2511 3984 
Q 2250 4219 1831 4219 
Q 1534 4219 1204 4116 
Q 875 4013 500 3803 
L 500 4441 
Q 881 4594 1212 4672 
Q 1544 4750 1819 4750 
Q 2544 4750 2975 4387 
Q 3406 4025 3406 3419 
Q 3406 3131 3298 2873 
Q 3191 2616 2906 2266 
Q 2828 2175 2409 1742 
Q 1991 1309 1228 531 
z
" transform="scale(0.015625)"/>
       </defs>
       <use xlink:href="#DejaVuSans-32"/>
       <use xlink:href="#DejaVuSans-30" x="63.623047"/>
       <use xlink:href="#DejaVuSans-30" x="127.246094"/>
       <use xlink:href="#DejaVuSans-30" x="190.869141"/>
      </g>
     </g>
    </g>
    <g id="ytick_6">
     <g id="line2d_30">
      <g>
       <use xlink:href="#m04d4ffd2d1" x="52.71875" y="69.820937" style="stroke: #000000; stroke-width: 0.8"/>
      </g>
     </g>
     <g id="text_6">
      <!-- 2500 -->
      <g transform="translate(22.81375 73.240234) scale(0.09 -0.09)">
       <use xlink:href="#DejaVuSans-32"/>
       <use xlink:href="#DejaVuSans-35" x="63.623047"/>
       <use xlink:href="#DejaVuSans-30" x="127.246094"/>
       <use xlink:href="#DejaVuSans-30" x="190.869141"/>
      </g>
     </g>
    </g>
    <g id="ytick_7">
     <g id="line2d_31">
      <g>
       <use xlink:href="#m04d4ffd2d1" x="52.71875" y="43.833437" style="stroke: #000000; stroke-width: 0.8"/>
      </g>
     </g>
     <g id="text_7">
      <!-- 3000 -->
      <g transform="translate(22.81375 47.252734) scale(0.09 -0.09)">
       <defs>
        <path id="DejaVuSans-33" d="M 2597 2516 
Q 3050 2419 3304 2112 
Q 3559 1806 3559 1356 
Q 3559 666 3084 287 
Q 2609 -91 1734 -91 
Q 1441 -91 1130 -33 
Q 819 25 488 141 
L 488 750 
Q 750 597 1062 519 
Q 1375 441 1716 441 
Q 2309 441 2620 675 
Q 2931 909 2931 1356 
Q 2931 1769 2642 2001 
Q 2353 2234 1838 2234 
L 1294 2234 
L 1294 2753 
L 1863 2753 
Q 2328 2753 2575 2939 
Q 2822 3125 2822 3475 
Q 2822 3834 2567 4026 
Q 2313 4219 1838 4219 
Q 1578 4219 1281 4162 
Q 984 4106 628 3988 
L 628 4550 
Q 988 4650 1302 4700 
Q 1616 4750 1894 4750 
Q 2613 4750 3031 4423 
Q 3450 4097 3450 3541 
Q 3450 3153 3228 2886 
Q 3006 2619 2597 2516 
z
" transform="scale(0.015625)"/>
       </defs>
       <use xlink:href="#DejaVuSans-33"/>
       <use xlink:href="#DejaVuSans-30" x="63.623047"/>
       <use xlink:href="#DejaVuSans-30" x="127.246094"/>
       <use xlink:href="#DejaVuSans-30" x="190.869141"/>
      </g>
     </g>
    </g>
    <g id="ytick_8">
     <g id="line2d_32">
      <g>
       <use xlink:href="#m04d4ffd2d1" x="52.71875" y="17.845937" style="stroke: #000000; stroke-width: 0.8"/>
      </g>
     </g>
     <g id="text_8">
      <!-- 3500 -->
      <g transform="translate(22.81375 21.265234) scale(0.09 -0.09)">
       <use xlink:href="#DejaVuSans-33"/>
       <use xlink:href="#DejaVuSans-35" x="63.623047"/>
       <use xlink:href="#DejaVuSans-30" x="127.246094"/>
       <use xlink:href="#DejaVuSans-30" x="190.869141"/>
      </g>
     </g>
    </g>
   </g>
   <g id="line2d_33">
    <path d="M 69.45875 198.718937 
L 76.582154 197.575487 
L 83.705559 196.587962 
L 90.828963 194.456987 
L 97.952367 192.066137 
L 105.075771 188.739737 
L 112.199176 185.777162 
L 119.32258 181.723112 
L 126.445984 178.344737 
L 133.569388 176.473637 
L 140.692793 174.966362 
L 147.816197 174.082787 
L 154.939601 172.783412 
L 162.063005 172.159712 
L 169.18641 171.587987 
L 176.309814 171.276137 
L 183.433218 171.068237 
L 190.556622 170.496512 
L 197.680027 170.288612 
L 204.803431 169.872812 
L 211.926835 168.729362 
L 219.050239 164.987162 
L 226.173644 157.554737 
L 233.297048 145.392587 
L 240.420452 125.849987 
L 247.543856 114.519437 
L 254.667261 105.579737 
L 261.790665 98.147312 
L 268.914069 95.028812 
L 276.037473 92.274137 
L 283.160878 89.779337 
L 290.284282 87.492437 
L 297.407686 85.621337 
L 304.53109 81.931112 
L 311.654495 78.188912 
L 318.777899 73.874987 
L 325.901303 69.820937 
L 333.024707 65.610962 
L 340.148112 60.361487 
L 347.271516 55.787687 
L 354.39492 51.369812 
L 361.518324 46.328237 
L 368.641729 42.014312 
L 375.765133 37.960262 
L 382.888537 34.062137 
L 390.011941 28.708712 
L 397.135346 22.887512 
L 404.25875 18.105812 
" clip-path="url(#p16084b49a8)" style="fill: none; stroke: #808080; stroke-width: 1.5; stroke-linecap: square"/>
   </g>
   <g id="line2d_34">
    <path d="M 69.45875 198.510864 
L 76.582154 198.166559 
L 83.705559 197.587592 
L 90.828963 196.7206 
L 97.952367 196.179494 
L 105.075771 195.654077 
L 112.199176 195.124111 
L 119.32258 194.214007 
L 126.445984 193.251086 
L 133.569388 192.357031 
L 140.692793 191.700342 
L 147.816197 191.186042 
L 154.939601 190.474955 
L 162.063005 190.105519 
L 169.18641 189.729879 
L 176.309814 189.418078 
L 183.433218 189.363718 
L 190.556622 188.910707 
L 197.680027 188.736371 
L 204.803431 188.362763 
L 211.926835 187.39146 
L 219.050239 183.790499 
L 226.173644 176.854128 
L 233.297048 165.309197 
L 240.420452 146.688951 
L 247.543856 135.621067 
L 254.667261 127.24924 
L 261.790665 119.992408 
L 268.914069 116.929358 
L 276.037473 114.321961 
L 283.160878 111.863473 
L 290.284282 109.761461 
L 297.407686 107.920138 
L 304.53109 104.427494 
L 311.654495 100.991611 
L 318.777899 96.886084 
L 325.901303 93.313344 
L 333.024707 89.279057 
L 340.148112 84.289191 
L 347.271516 79.814644 
L 354.39492 75.417449 
L 361.518324 70.382555 
L 368.641729 65.608466 
L 375.765133 61.510558 
L 382.888537 57.659416 
L 390.011941 52.167748 
L 397.135346 45.848274 
L 404.25875 40.946987 
" clip-path="url(#p16084b49a8)" style="fill: none; stroke: #ffa500; stroke-width: 1.5; stroke-linecap: square"/>
   </g>
   <g id="patch_3">
    <path d="M 52.71875 199.758437 
L 52.71875 17.845937 
" style="fill: none; stroke: #000000; stroke-width: 0.8; stroke-linejoin: miter; stroke-linecap: square"/>
   </g>
   <g id="patch_4">
    <path d="M 52.71875 199.758437 
L 420.99875 199.758437 
" style="fill: none; stroke: #000000; stroke-width: 0.8; stroke-linejoin: miter; stroke-linecap: square"/>
   </g>
   <g id="text_9">
    <!-- a -->
    <g transform="translate(49.36328 15.558281) scale(0.11 -0.11)">
     <defs>
      <path id="DejaVuSans-Bold-61" d="M 2106 1575 
Q 1756 1575 1579 1456 
Q 1403 1338 1403 1106 
Q 1403 894 1545 773 
Q 1688 653 1941 653 
Q 2256 653 2472 879 
Q 2688 1106 2688 1447 
L 2688 1575 
L 2106 1575 
z
M 3816 1997 
L 3816 0 
L 2688 0 
L 2688 519 
Q 2463 200 2181 54 
Q 1900 -91 1497 -91 
Q 953 -91 614 226 
Q 275 544 275 1050 
Q 275 1666 698 1953 
Q 1122 2241 2028 2241 
L 2688 2241 
L 2688 2328 
Q 2688 2594 2478 2717 
Q 2269 2841 1825 2841 
Q 1466 2841 1156 2769 
Q 847 2697 581 2553 
L 581 3406 
Q 941 3494 1303 3539 
Q 1666 3584 2028 3584 
Q 2975 3584 3395 3211 
Q 3816 2838 3816 1997 
z
" transform="scale(0.015625)"/>
     </defs>
     <use xlink:href="#DejaVuSans-Bold-61"/>
    </g>
   </g>
   <g id="legend_1">
    <g id="line2d_35">
     <path d="M 78.9209 29.634531 
L 87.9209 29.634531 
L 96.9209 29.634531 
" style="fill: none; stroke: #808080; stroke-width: 1.5; stroke-linecap: square"/>
    </g>
    <g id="text_10">
     <!-- actual -->
     <g transform="translate(104.1209 32.784531) scale(0.09 -0.09)">
      <defs>
       <path id="DejaVuSans-61" d="M 2194 1759 
Q 1497 1759 1228 1600 
Q 959 1441 959 1056 
Q 959 750 1161 570 
Q 1363 391 1709 391 
Q 2188 391 2477 730 
Q 2766 1069 2766 1631 
L 2766 1759 
L 2194 1759 
z
M 3341 1997 
L 3341 0 
L 2766 0 
L 2766 531 
Q 2569 213 2275 61 
Q 1981 -91 1556 -91 
Q 1019 -91 701 211 
Q 384 513 384 1019 
Q 384 1609 779 1909 
Q 1175 2209 1959 2209 
L 2766 2209 
L 2766 2266 
Q 2766 2663 2505 2880 
Q 2244 3097 1772 3097 
Q 1472 3097 1187 3025 
Q 903 2953 641 2809 
L 641 3341 
Q 956 3463 1253 3523 
Q 1550 3584 1831 3584 
Q 2591 3584 2966 3190 
Q 3341 2797 3341 1997 
z
" transform="scale(0.015625)"/>
       <path id="DejaVuSans-63" d="M 3122 3366 
L 3122 2828 
Q 2878 2963 2633 3030 
Q 2388 3097 2138 3097 
Q 1578 3097 1268 2742 
Q 959 2388 959 1747 
Q 959 1106 1268 751 
Q 1578 397 2138 397 
Q 2388 397 2633 464 
Q 2878 531 3122 666 
L 3122 134 
Q 2881 22 2623 -34 
Q 2366 -91 2075 -91 
Q 1284 -91 818 406 
Q 353 903 353 1747 
Q 353 2603 823 3093 
Q 1294 3584 2113 3584 
Q 2378 3584 2631 3529 
Q 2884 3475 3122 3366 
z
" transform="scale(0.015625)"/>
       <path id="DejaVuSans-74" d="M 1172 4494 
L 1172 3500 
L 2356 3500 
L 2356 3053 
L 1172 3053 
L 1172 1153 
Q 1172 725 1289 603 
Q 1406 481 1766 481 
L 2356 481 
L 2356 0 
L 1766 0 
Q 1100 0 847 248 
Q 594 497 594 1153 
L 594 3053 
L 172 3053 
L 172 3500 
L 594 3500 
L 594 4494 
L 1172 4494 
z
" transform="scale(0.015625)"/>
       <path id="DejaVuSans-75" d="M 544 1381 
L 544 3500 
L 1119 3500 
L 1119 1403 
Q 1119 906 1312 657 
Q 1506 409 1894 409 
Q 2359 409 2629 706 
Q 2900 1003 2900 1516 
L 2900 3500 
L 3475 3500 
L 3475 0 
L 2900 0 
L 2900 538 
Q 2691 219 2414 64 
Q 2138 -91 1772 -91 
Q 1169 -91 856 284 
Q 544 659 544 1381 
z
M 1991 3584 
L 1991 3584 
z
" transform="scale(0.015625)"/>
       <path id="DejaVuSans-6c" d="M 603 4863 
L 1178 4863 
L 1178 0 
L 603 0 
L 603 4863 
z
" transform="scale(0.015625)"/>
      </defs>
      <use xlink:href="#DejaVuSans-61"/>
      <use xlink:href="#DejaVuSans-63" x="61.279297"/>
      <use xlink:href="#DejaVuSans-74" x="116.259766"/>
      <use xlink:href="#DejaVuSans-75" x="155.46875"/>
      <use xlink:href="#DejaVuSans-61" x="218.847656"/>
      <use xlink:href="#DejaVuSans-6c" x="280.126953"/>
     </g>
    </g>
    <g id="line2d_36">
     <path d="M 78.9209 42.844844 
L 87.9209 42.844844 
L 96.9209 42.844844 
" style="fill: none; stroke: #ffa500; stroke-width: 1.5; stroke-linecap: square"/>
    </g>
    <g id="text_11">
     <!-- scenario I -->
     <g transform="translate(104.1209 45.994844) scale(0.09 -0.09)">
      <defs>
       <path id="DejaVuSans-73" d="M 2834 3397 
L 2834 2853 
Q 2591 2978 2328 3040 
Q 2066 3103 1784 3103 
Q 1356 3103 1142 2972 
Q 928 2841 928 2578 
Q 928 2378 1081 2264 
Q 1234 2150 1697 2047 
L 1894 2003 
Q 2506 1872 2764 1633 
Q 3022 1394 3022 966 
Q 3022 478 2636 193 
Q 2250 -91 1575 -91 
Q 1294 -91 989 -36 
Q 684 19 347 128 
L 347 722 
Q 666 556 975 473 
Q 1284 391 1588 391 
Q 1994 391 2212 530 
Q 2431 669 2431 922 
Q 2431 1156 2273 1281 
Q 2116 1406 1581 1522 
L 1381 1569 
Q 847 1681 609 1914 
Q 372 2147 372 2553 
Q 372 3047 722 3315 
Q 1072 3584 1716 3584 
Q 2034 3584 2315 3537 
Q 2597 3491 2834 3397 
z
" transform="scale(0.015625)"/>
       <path id="DejaVuSans-65" d="M 3597 1894 
L 3597 1613 
L 953 1613 
Q 991 1019 1311 708 
Q 1631 397 2203 397 
Q 2534 397 2845 478 
Q 3156 559 3463 722 
L 3463 178 
Q 3153 47 2828 -22 
Q 2503 -91 2169 -91 
Q 1331 -91 842 396 
Q 353 884 353 1716 
Q 353 2575 817 3079 
Q 1281 3584 2069 3584 
Q 2775 3584 3186 3129 
Q 3597 2675 3597 1894 
z
M 3022 2063 
Q 3016 2534 2758 2815 
Q 2500 3097 2075 3097 
Q 1594 3097 1305 2825 
Q 1016 2553 972 2059 
L 3022 2063 
z
" transform="scale(0.015625)"/>
       <path id="DejaVuSans-6e" d="M 3513 2113 
L 3513 0 
L 2938 0 
L 2938 2094 
Q 2938 2591 2744 2837 
Q 2550 3084 2163 3084 
Q 1697 3084 1428 2787 
Q 1159 2491 1159 1978 
L 1159 0 
L 581 0 
L 581 3500 
L 1159 3500 
L 1159 2956 
Q 1366 3272 1645 3428 
Q 1925 3584 2291 3584 
Q 2894 3584 3203 3211 
Q 3513 2838 3513 2113 
z
" transform="scale(0.015625)"/>
       <path id="DejaVuSans-72" d="M 2631 2963 
Q 2534 3019 2420 3045 
Q 2306 3072 2169 3072 
Q 1681 3072 1420 2755 
Q 1159 2438 1159 1844 
L 1159 0 
L 581 0 
L 581 3500 
L 1159 3500 
L 1159 2956 
Q 1341 3275 1631 3429 
Q 1922 3584 2338 3584 
Q 2397 3584 2469 3576 
Q 2541 3569 2628 3553 
L 2631 2963 
z
" transform="scale(0.015625)"/>
       <path id="DejaVuSans-69" d="M 603 3500 
L 1178 3500 
L 1178 0 
L 603 0 
L 603 3500 
z
M 603 4863 
L 1178 4863 
L 1178 4134 
L 603 4134 
L 603 4863 
z
" transform="scale(0.015625)"/>
       <path id="DejaVuSans-6f" d="M 1959 3097 
Q 1497 3097 1228 2736 
Q 959 2375 959 1747 
Q 959 1119 1226 758 
Q 1494 397 1959 397 
Q 2419 397 2687 759 
Q 2956 1122 2956 1747 
Q 2956 2369 2687 2733 
Q 2419 3097 1959 3097 
z
M 1959 3584 
Q 2709 3584 3137 3096 
Q 3566 2609 3566 1747 
Q 3566 888 3137 398 
Q 2709 -91 1959 -91 
Q 1206 -91 779 398 
Q 353 888 353 1747 
Q 353 2609 779 3096 
Q 1206 3584 1959 3584 
z
" transform="scale(0.015625)"/>
       <path id="DejaVuSans-20" transform="scale(0.015625)"/>
       <path id="DejaVuSans-49" d="M 628 4666 
L 1259 4666 
L 1259 0 
L 628 0 
L 628 4666 
z
" transform="scale(0.015625)"/>
      </defs>
      <use xlink:href="#DejaVuSans-73"/>
      <use xlink:href="#DejaVuSans-63" x="52.099609"/>
      <use xlink:href="#DejaVuSans-65" x="107.080078"/>
      <use xlink:href="#DejaVuSans-6e" x="168.603516"/>
      <use xlink:href="#DejaVuSans-61" x="231.982422"/>
      <use xlink:href="#DejaVuSans-72" x="293.261719"/>
      <use xlink:href="#DejaVuSans-69" x="334.375"/>
      <use xlink:href="#DejaVuSans-6f" x="362.158203"/>
      <use xlink:href="#DejaVuSans-20" x="423.339844"/>
      <use xlink:href="#DejaVuSans-49" x="455.126953"/>
     </g>
    </g>
   </g>
  </g>
  <g id="axes_2">
   <g id="patch_5">
    <path d="M 52.71875 399.862188 
L 420.99875 399.862188 
L 420.99875 217.949688 
L 52.71875 217.949688 
z
" style="fill: #ffffff"/>
   </g>
   <g id="PolyCollection_2">
    <defs>
     <path id="m9c7049c1e5" d="M 69.45875 -273.545189 
L 69.45875 -273.181364 
L 76.582154 -273.666464 
L 83.705559 -274.090926 
L 90.828963 -275.091445 
L 97.952367 -276.213239 
L 105.075771 -277.850451 
L 112.199176 -279.275433 
L 119.32258 -281.306789 
L 126.445984 -282.97432 
L 133.569388 -283.823245 
L 140.692793 -284.490258 
L 147.816197 -284.854083 
L 154.939601 -285.430139 
L 162.063005 -285.672689 
L 169.18641 -285.88492 
L 176.309814 -285.975876 
L 183.433218 -286.036514 
L 190.556622 -286.248745 
L 197.680027 -286.309383 
L 204.803431 -286.460976 
L 211.926835 -286.976395 
L 219.050239 -289.007751 
L 226.173644 -292.858233 
L 233.297048 -299.95282 
L 240.420452 -311.473945 
L 247.543856 -319.053633 
L 254.667261 -325.602483 
L 261.790665 -332.484839 
L 268.914069 -335.759264 
L 276.037473 -337.972533 
L 283.160878 -341.277276 
L 290.284282 -344.400108 
L 297.407686 -346.27987 
L 304.53109 -351.282464 
L 311.654495 -356.254739 
L 318.777899 -361.31797 
L 325.901303 -365.289726 
L 333.024707 -368.867339 
L 340.148112 -373.869933 
L 347.271516 -377.872008 
L 354.39492 -383.480976 
L 361.518324 -388.210701 
L 368.641729 -393.728714 
L 375.765133 -398.064295 
L 382.888537 -400.671708 
L 390.011941 -405.643983 
L 397.135346 -412.192833 
L 404.25875 -417.528933 
L 404.25875 -452.941233 
L 404.25875 -452.941233 
L 397.135346 -446.513658 
L 390.011941 -438.752058 
L 382.888537 -432.748945 
L 375.765133 -429.383564 
L 368.641729 -424.047464 
L 361.518324 -417.437976 
L 354.39492 -411.677414 
L 347.271516 -404.946651 
L 340.148112 -400.004695 
L 333.024707 -393.940945 
L 325.901303 -389.45377 
L 318.777899 -384.542133 
L 311.654495 -378.417745 
L 304.53109 -372.414633 
L 297.407686 -366.381201 
L 290.284282 -363.834426 
L 283.160878 -359.86267 
L 276.037473 -355.709001 
L 268.914069 -352.798401 
L 261.790665 -348.675051 
L 254.667261 -340.549626 
L 247.543856 -332.788026 
L 240.420452 -323.934951 
L 233.297048 -310.86757 
L 226.173644 -302.529914 
L 219.050239 -297.739551 
L 211.926835 -295.010864 
L 204.803431 -294.13162 
L 197.680027 -293.767795 
L 190.556622 -293.555564 
L 183.433218 -293.070464 
L 176.309814 -292.858233 
L 169.18641 -292.585364 
L 162.063005 -292.130583 
L 154.939601 -291.615164 
L 147.816197 -290.644964 
L 140.692793 -289.977951 
L 133.569388 -288.886476 
L 126.445984 -287.552451 
L 119.32258 -285.278545 
L 112.199176 -282.580176 
L 105.075771 -280.54882 
L 97.952367 -278.305233 
L 90.828963 -276.637701 
L 83.705559 -275.152083 
L 76.582154 -274.394114 
L 69.45875 -273.545189 
z
" style="stroke: #ff0000; stroke-opacity: 0.5"/>
    </defs>
    <g clip-path="url(#peea35bab62)">
     <use xlink:href="#m9c7049c1e5" x="0" y="672.619089" style="fill: #ff0000; fill-opacity: 0.5; stroke: #ff0000; stroke-opacity: 0.5"/>
    </g>
   </g>
   <g id="matplotlib.axis_3">
    <g id="xtick_25">
     <g id="line2d_37">
      <g>
       <use xlink:href="#m14ad7416f5" x="69.45875" y="399.862188" style="stroke: #000000; stroke-width: 0.8"/>
      </g>
     </g>
    </g>
    <g id="xtick_26">
     <g id="line2d_38">
      <g>
       <use xlink:href="#m14ad7416f5" x="83.705559" y="399.862188" style="stroke: #000000; stroke-width: 0.8"/>
      </g>
     </g>
    </g>
    <g id="xtick_27">
     <g id="line2d_39">
      <g>
       <use xlink:href="#m14ad7416f5" x="97.952367" y="399.862188" style="stroke: #000000; stroke-width: 0.8"/>
      </g>
     </g>
    </g>
    <g id="xtick_28">
     <g id="line2d_40">
      <g>
       <use xlink:href="#m14ad7416f5" x="112.199176" y="399.862188" style="stroke: #000000; stroke-width: 0.8"/>
      </g>
     </g>
    </g>
    <g id="xtick_29">
     <g id="line2d_41">
      <g>
       <use xlink:href="#m14ad7416f5" x="126.445984" y="399.862188" style="stroke: #000000; stroke-width: 0.8"/>
      </g>
     </g>
    </g>
    <g id="xtick_30">
     <g id="line2d_42">
      <g>
       <use xlink:href="#m14ad7416f5" x="140.692793" y="399.862188" style="stroke: #000000; stroke-width: 0.8"/>
      </g>
     </g>
    </g>
    <g id="xtick_31">
     <g id="line2d_43">
      <g>
       <use xlink:href="#m14ad7416f5" x="154.939601" y="399.862188" style="stroke: #000000; stroke-width: 0.8"/>
      </g>
     </g>
    </g>
    <g id="xtick_32">
     <g id="line2d_44">
      <g>
       <use xlink:href="#m14ad7416f5" x="169.18641" y="399.862188" style="stroke: #000000; stroke-width: 0.8"/>
      </g>
     </g>
    </g>
    <g id="xtick_33">
     <g id="line2d_45">
      <g>
       <use xlink:href="#m14ad7416f5" x="183.433218" y="399.862188" style="stroke: #000000; stroke-width: 0.8"/>
      </g>
     </g>
    </g>
    <g id="xtick_34">
     <g id="line2d_46">
      <g>
       <use xlink:href="#m14ad7416f5" x="197.680027" y="399.862188" style="stroke: #000000; stroke-width: 0.8"/>
      </g>
     </g>
    </g>
    <g id="xtick_35">
     <g id="line2d_47">
      <g>
       <use xlink:href="#m14ad7416f5" x="211.926835" y="399.862188" style="stroke: #000000; stroke-width: 0.8"/>
      </g>
     </g>
    </g>
    <g id="xtick_36">
     <g id="line2d_48">
      <g>
       <use xlink:href="#m14ad7416f5" x="226.173644" y="399.862188" style="stroke: #000000; stroke-width: 0.8"/>
      </g>
     </g>
    </g>
    <g id="xtick_37">
     <g id="line2d_49">
      <g>
       <use xlink:href="#m14ad7416f5" x="240.420452" y="399.862188" style="stroke: #000000; stroke-width: 0.8"/>
      </g>
     </g>
    </g>
    <g id="xtick_38">
     <g id="line2d_50">
      <g>
       <use xlink:href="#m14ad7416f5" x="254.667261" y="399.862188" style="stroke: #000000; stroke-width: 0.8"/>
      </g>
     </g>
    </g>
    <g id="xtick_39">
     <g id="line2d_51">
      <g>
       <use xlink:href="#m14ad7416f5" x="268.914069" y="399.862188" style="stroke: #000000; stroke-width: 0.8"/>
      </g>
     </g>
    </g>
    <g id="xtick_40">
     <g id="line2d_52">
      <g>
       <use xlink:href="#m14ad7416f5" x="283.160878" y="399.862188" style="stroke: #000000; stroke-width: 0.8"/>
      </g>
     </g>
    </g>
    <g id="xtick_41">
     <g id="line2d_53">
      <g>
       <use xlink:href="#m14ad7416f5" x="297.407686" y="399.862188" style="stroke: #000000; stroke-width: 0.8"/>
      </g>
     </g>
    </g>
    <g id="xtick_42">
     <g id="line2d_54">
      <g>
       <use xlink:href="#m14ad7416f5" x="311.654495" y="399.862188" style="stroke: #000000; stroke-width: 0.8"/>
      </g>
     </g>
    </g>
    <g id="xtick_43">
     <g id="line2d_55">
      <g>
       <use xlink:href="#m14ad7416f5" x="325.901303" y="399.862188" style="stroke: #000000; stroke-width: 0.8"/>
      </g>
     </g>
    </g>
    <g id="xtick_44">
     <g id="line2d_56">
      <g>
       <use xlink:href="#m14ad7416f5" x="340.148112" y="399.862188" style="stroke: #000000; stroke-width: 0.8"/>
      </g>
     </g>
    </g>
    <g id="xtick_45">
     <g id="line2d_57">
      <g>
       <use xlink:href="#m14ad7416f5" x="354.39492" y="399.862188" style="stroke: #000000; stroke-width: 0.8"/>
      </g>
     </g>
    </g>
    <g id="xtick_46">
     <g id="line2d_58">
      <g>
       <use xlink:href="#m14ad7416f5" x="368.641729" y="399.862188" style="stroke: #000000; stroke-width: 0.8"/>
      </g>
     </g>
    </g>
    <g id="xtick_47">
     <g id="line2d_59">
      <g>
       <use xlink:href="#m14ad7416f5" x="382.888537" y="399.862188" style="stroke: #000000; stroke-width: 0.8"/>
      </g>
     </g>
    </g>
    <g id="xtick_48">
     <g id="line2d_60">
      <g>
       <use xlink:href="#m14ad7416f5" x="397.135346" y="399.862188" style="stroke: #000000; stroke-width: 0.8"/>
      </g>
     </g>
    </g>
   </g>
   <g id="matplotlib.axis_4">
    <g id="ytick_9">
     <g id="line2d_61">
      <g>
       <use xlink:href="#m04d4ffd2d1" x="52.71875" y="399.862188" style="stroke: #000000; stroke-width: 0.8"/>
      </g>
     </g>
     <g id="text_12">
      <!-- 0 -->
      <g transform="translate(39.9925 403.281484) scale(0.09 -0.09)">
       <use xlink:href="#DejaVuSans-30"/>
      </g>
     </g>
    </g>
    <g id="ytick_10">
     <g id="line2d_62">
      <g>
       <use xlink:href="#m04d4ffd2d1" x="52.71875" y="369.543437" style="stroke: #000000; stroke-width: 0.8"/>
      </g>
     </g>
     <g id="text_13">
      <!-- 1000 -->
      <g transform="translate(22.81375 372.962734) scale(0.09 -0.09)">
       <use xlink:href="#DejaVuSans-31"/>
       <use xlink:href="#DejaVuSans-30" x="63.623047"/>
       <use xlink:href="#DejaVuSans-30" x="127.246094"/>
       <use xlink:href="#DejaVuSans-30" x="190.869141"/>
      </g>
     </g>
    </g>
    <g id="ytick_11">
     <g id="line2d_63">
      <g>
       <use xlink:href="#m04d4ffd2d1" x="52.71875" y="339.224688" style="stroke: #000000; stroke-width: 0.8"/>
      </g>
     </g>
     <g id="text_14">
      <!-- 2000 -->
      <g transform="translate(22.81375 342.643984) scale(0.09 -0.09)">
       <use xlink:href="#DejaVuSans-32"/>
       <use xlink:href="#DejaVuSans-30" x="63.623047"/>
       <use xlink:href="#DejaVuSans-30" x="127.246094"/>
       <use xlink:href="#DejaVuSans-30" x="190.869141"/>
      </g>
     </g>
    </g>
    <g id="ytick_12">
     <g id="line2d_64">
      <g>
       <use xlink:href="#m04d4ffd2d1" x="52.71875" y="308.905938" style="stroke: #000000; stroke-width: 0.8"/>
      </g>
     </g>
     <g id="text_15">
      <!-- 3000 -->
      <g transform="translate(22.81375 312.325234) scale(0.09 -0.09)">
       <use xlink:href="#DejaVuSans-33"/>
       <use xlink:href="#DejaVuSans-30" x="63.623047"/>
       <use xlink:href="#DejaVuSans-30" x="127.246094"/>
       <use xlink:href="#DejaVuSans-30" x="190.869141"/>
      </g>
     </g>
    </g>
    <g id="ytick_13">
     <g id="line2d_65">
      <g>
       <use xlink:href="#m04d4ffd2d1" x="52.71875" y="278.587188" style="stroke: #000000; stroke-width: 0.8"/>
      </g>
     </g>
     <g id="text_16">
      <!-- 4000 -->
      <g transform="translate(22.81375 282.006484) scale(0.09 -0.09)">
       <defs>
        <path id="DejaVuSans-34" d="M 2419 4116 
L 825 1625 
L 2419 1625 
L 2419 4116 
z
M 2253 4666 
L 3047 4666 
L 3047 1625 
L 3713 1625 
L 3713 1100 
L 3047 1100 
L 3047 0 
L 2419 0 
L 2419 1100 
L 313 1100 
L 313 1709 
L 2253 4666 
z
" transform="scale(0.015625)"/>
       </defs>
       <use xlink:href="#DejaVuSans-34"/>
       <use xlink:href="#DejaVuSans-30" x="63.623047"/>
       <use xlink:href="#DejaVuSans-30" x="127.246094"/>
       <use xlink:href="#DejaVuSans-30" x="190.869141"/>
      </g>
     </g>
    </g>
    <g id="ytick_14">
     <g id="line2d_66">
      <g>
       <use xlink:href="#m04d4ffd2d1" x="52.71875" y="248.268438" style="stroke: #000000; stroke-width: 0.8"/>
      </g>
     </g>
     <g id="text_17">
      <!-- 5000 -->
      <g transform="translate(22.81375 251.687734) scale(0.09 -0.09)">
       <use xlink:href="#DejaVuSans-35"/>
       <use xlink:href="#DejaVuSans-30" x="63.623047"/>
       <use xlink:href="#DejaVuSans-30" x="127.246094"/>
       <use xlink:href="#DejaVuSans-30" x="190.869141"/>
      </g>
     </g>
    </g>
    <g id="ytick_15">
     <g id="line2d_67">
      <g>
       <use xlink:href="#m04d4ffd2d1" x="52.71875" y="217.949688" style="stroke: #000000; stroke-width: 0.8"/>
      </g>
     </g>
     <g id="text_18">
      <!-- 6000 -->
      <g transform="translate(22.81375 221.368984) scale(0.09 -0.09)">
       <defs>
        <path id="DejaVuSans-36" d="M 2113 2584 
Q 1688 2584 1439 2293 
Q 1191 2003 1191 1497 
Q 1191 994 1439 701 
Q 1688 409 2113 409 
Q 2538 409 2786 701 
Q 3034 994 3034 1497 
Q 3034 2003 2786 2293 
Q 2538 2584 2113 2584 
z
M 3366 4563 
L 3366 3988 
Q 3128 4100 2886 4159 
Q 2644 4219 2406 4219 
Q 1781 4219 1451 3797 
Q 1122 3375 1075 2522 
Q 1259 2794 1537 2939 
Q 1816 3084 2150 3084 
Q 2853 3084 3261 2657 
Q 3669 2231 3669 1497 
Q 3669 778 3244 343 
Q 2819 -91 2113 -91 
Q 1303 -91 875 529 
Q 447 1150 447 2328 
Q 447 3434 972 4092 
Q 1497 4750 2381 4750 
Q 2619 4750 2861 4703 
Q 3103 4656 3366 4563 
z
" transform="scale(0.015625)"/>
       </defs>
       <use xlink:href="#DejaVuSans-36"/>
       <use xlink:href="#DejaVuSans-30" x="63.623047"/>
       <use xlink:href="#DejaVuSans-30" x="127.246094"/>
       <use xlink:href="#DejaVuSans-30" x="190.869141"/>
      </g>
     </g>
    </g>
    <g id="text_19">
     <!-- Cumulative COVID-19 Deaths -->
     <g transform="translate(16.318125 397.335625) rotate(-90) scale(0.12 -0.12)">
      <defs>
       <path id="DejaVuSans-43" d="M 4122 4306 
L 4122 3641 
Q 3803 3938 3442 4084 
Q 3081 4231 2675 4231 
Q 1875 4231 1450 3742 
Q 1025 3253 1025 2328 
Q 1025 1406 1450 917 
Q 1875 428 2675 428 
Q 3081 428 3442 575 
Q 3803 722 4122 1019 
L 4122 359 
Q 3791 134 3420 21 
Q 3050 -91 2638 -91 
Q 1578 -91 968 557 
Q 359 1206 359 2328 
Q 359 3453 968 4101 
Q 1578 4750 2638 4750 
Q 3056 4750 3426 4639 
Q 3797 4528 4122 4306 
z
" transform="scale(0.015625)"/>
       <path id="DejaVuSans-6d" d="M 3328 2828 
Q 3544 3216 3844 3400 
Q 4144 3584 4550 3584 
Q 5097 3584 5394 3201 
Q 5691 2819 5691 2113 
L 5691 0 
L 5113 0 
L 5113 2094 
Q 5113 2597 4934 2840 
Q 4756 3084 4391 3084 
Q 3944 3084 3684 2787 
Q 3425 2491 3425 1978 
L 3425 0 
L 2847 0 
L 2847 2094 
Q 2847 2600 2669 2842 
Q 2491 3084 2119 3084 
Q 1678 3084 1418 2786 
Q 1159 2488 1159 1978 
L 1159 0 
L 581 0 
L 581 3500 
L 1159 3500 
L 1159 2956 
Q 1356 3278 1631 3431 
Q 1906 3584 2284 3584 
Q 2666 3584 2933 3390 
Q 3200 3197 3328 2828 
z
" transform="scale(0.015625)"/>
       <path id="DejaVuSans-76" d="M 191 3500 
L 800 3500 
L 1894 563 
L 2988 3500 
L 3597 3500 
L 2284 0 
L 1503 0 
L 191 3500 
z
" transform="scale(0.015625)"/>
       <path id="DejaVuSans-4f" d="M 2522 4238 
Q 1834 4238 1429 3725 
Q 1025 3213 1025 2328 
Q 1025 1447 1429 934 
Q 1834 422 2522 422 
Q 3209 422 3611 934 
Q 4013 1447 4013 2328 
Q 4013 3213 3611 3725 
Q 3209 4238 2522 4238 
z
M 2522 4750 
Q 3503 4750 4090 4092 
Q 4678 3434 4678 2328 
Q 4678 1225 4090 567 
Q 3503 -91 2522 -91 
Q 1538 -91 948 565 
Q 359 1222 359 2328 
Q 359 3434 948 4092 
Q 1538 4750 2522 4750 
z
" transform="scale(0.015625)"/>
       <path id="DejaVuSans-56" d="M 1831 0 
L 50 4666 
L 709 4666 
L 2188 738 
L 3669 4666 
L 4325 4666 
L 2547 0 
L 1831 0 
z
" transform="scale(0.015625)"/>
       <path id="DejaVuSans-44" d="M 1259 4147 
L 1259 519 
L 2022 519 
Q 2988 519 3436 956 
Q 3884 1394 3884 2338 
Q 3884 3275 3436 3711 
Q 2988 4147 2022 4147 
L 1259 4147 
z
M 628 4666 
L 1925 4666 
Q 3281 4666 3915 4102 
Q 4550 3538 4550 2338 
Q 4550 1131 3912 565 
Q 3275 0 1925 0 
L 628 0 
L 628 4666 
z
" transform="scale(0.015625)"/>
       <path id="DejaVuSans-2d" d="M 313 2009 
L 1997 2009 
L 1997 1497 
L 313 1497 
L 313 2009 
z
" transform="scale(0.015625)"/>
       <path id="DejaVuSans-39" d="M 703 97 
L 703 672 
Q 941 559 1184 500 
Q 1428 441 1663 441 
Q 2288 441 2617 861 
Q 2947 1281 2994 2138 
Q 2813 1869 2534 1725 
Q 2256 1581 1919 1581 
Q 1219 1581 811 2004 
Q 403 2428 403 3163 
Q 403 3881 828 4315 
Q 1253 4750 1959 4750 
Q 2769 4750 3195 4129 
Q 3622 3509 3622 2328 
Q 3622 1225 3098 567 
Q 2575 -91 1691 -91 
Q 1453 -91 1209 -44 
Q 966 3 703 97 
z
M 1959 2075 
Q 2384 2075 2632 2365 
Q 2881 2656 2881 3163 
Q 2881 3666 2632 3958 
Q 2384 4250 1959 4250 
Q 1534 4250 1286 3958 
Q 1038 3666 1038 3163 
Q 1038 2656 1286 2365 
Q 1534 2075 1959 2075 
z
" transform="scale(0.015625)"/>
       <path id="DejaVuSans-68" d="M 3513 2113 
L 3513 0 
L 2938 0 
L 2938 2094 
Q 2938 2591 2744 2837 
Q 2550 3084 2163 3084 
Q 1697 3084 1428 2787 
Q 1159 2491 1159 1978 
L 1159 0 
L 581 0 
L 581 4863 
L 1159 4863 
L 1159 2956 
Q 1366 3272 1645 3428 
Q 1925 3584 2291 3584 
Q 2894 3584 3203 3211 
Q 3513 2838 3513 2113 
z
" transform="scale(0.015625)"/>
      </defs>
      <use xlink:href="#DejaVuSans-43"/>
      <use xlink:href="#DejaVuSans-75" x="69.824219"/>
      <use xlink:href="#DejaVuSans-6d" x="133.203125"/>
      <use xlink:href="#DejaVuSans-75" x="230.615234"/>
      <use xlink:href="#DejaVuSans-6c" x="293.994141"/>
      <use xlink:href="#DejaVuSans-61" x="321.777344"/>
      <use xlink:href="#DejaVuSans-74" x="383.056641"/>
      <use xlink:href="#DejaVuSans-69" x="422.265625"/>
      <use xlink:href="#DejaVuSans-76" x="450.048828"/>
      <use xlink:href="#DejaVuSans-65" x="509.228516"/>
      <use xlink:href="#DejaVuSans-20" x="570.751953"/>
      <use xlink:href="#DejaVuSans-43" x="602.539062"/>
      <use xlink:href="#DejaVuSans-4f" x="672.363281"/>
      <use xlink:href="#DejaVuSans-56" x="749.324219"/>
      <use xlink:href="#DejaVuSans-49" x="817.732422"/>
      <use xlink:href="#DejaVuSans-44" x="847.224609"/>
      <use xlink:href="#DejaVuSans-2d" x="924.226562"/>
      <use xlink:href="#DejaVuSans-31" x="960.310547"/>
      <use xlink:href="#DejaVuSans-39" x="1023.933594"/>
      <use xlink:href="#DejaVuSans-20" x="1087.556641"/>
      <use xlink:href="#DejaVuSans-44" x="1119.34375"/>
      <use xlink:href="#DejaVuSans-65" x="1196.345703"/>
      <use xlink:href="#DejaVuSans-61" x="1257.869141"/>
      <use xlink:href="#DejaVuSans-74" x="1319.148438"/>
      <use xlink:href="#DejaVuSans-68" x="1358.357422"/>
      <use xlink:href="#DejaVuSans-73" x="1421.736328"/>
     </g>
    </g>
   </g>
   <g id="line2d_68">
    <path d="M 69.45875 399.255812 
L 76.582154 398.5888 
L 83.705559 398.012744 
L 90.828963 396.769675 
L 97.952367 395.375013 
L 105.075771 393.434613 
L 112.199176 391.706444 
L 119.32258 389.341581 
L 126.445984 387.370862 
L 133.569388 386.279387 
L 140.692793 385.400144 
L 147.816197 384.884725 
L 154.939601 384.126756 
L 162.063005 383.762931 
L 169.18641 383.429425 
L 176.309814 383.247513 
L 183.433218 383.126238 
L 190.556622 382.792731 
L 197.680027 382.671456 
L 204.803431 382.428906 
L 211.926835 381.761894 
L 219.050239 379.578944 
L 226.173644 375.243362 
L 233.297048 368.148775 
L 240.420452 356.748925 
L 247.543856 350.139437 
L 254.667261 344.924613 
L 261.790665 340.589031 
L 268.914069 338.769906 
L 276.037473 337.163013 
L 283.160878 335.707713 
L 290.284282 334.373688 
L 297.407686 333.282213 
L 304.53109 331.129581 
L 311.654495 328.946631 
L 318.777899 326.430175 
L 325.901303 324.065313 
L 333.024707 321.609494 
L 340.148112 318.5473 
L 347.271516 315.87925 
L 354.39492 313.302156 
L 361.518324 310.361238 
L 368.641729 307.844781 
L 375.765133 305.479919 
L 382.888537 303.206013 
L 390.011941 300.083181 
L 397.135346 296.687481 
L 404.25875 293.898156 
" clip-path="url(#peea35bab62)" style="fill: none; stroke: #808080; stroke-width: 1.5; stroke-linecap: square"/>
   </g>
   <g id="line2d_69">
    <path d="M 69.45875 399.255956 
L 76.582154 398.587176 
L 83.705559 398.011184 
L 90.828963 396.768486 
L 97.952367 395.373742 
L 105.075771 393.432631 
L 112.199176 391.704149 
L 119.32258 389.338423 
L 126.445984 387.367746 
L 133.569388 386.276469 
L 140.692793 385.39726 
L 147.816197 384.88236 
L 154.939601 384.12438 
L 162.063005 383.759608 
L 169.18641 383.42528 
L 176.309814 383.242176 
L 183.433218 383.120696 
L 190.556622 382.782305 
L 197.680027 382.658062 
L 204.803431 382.407477 
L 211.926835 381.712335 
L 219.050239 379.33416 
L 226.173644 375.015812 
L 233.297048 367.297507 
L 240.420452 355.010018 
L 247.543856 346.786697 
L 254.667261 339.629392 
L 261.790665 332.130755 
L 268.914069 328.43369 
L 276.037473 325.870904 
L 283.160878 322.149317 
L 290.284282 318.603924 
L 297.407686 316.398582 
L 304.53109 310.880721 
L 311.654495 305.402863 
L 318.777899 299.802405 
L 325.901303 295.351922 
L 333.024707 291.32681 
L 340.148112 285.792902 
L 347.271516 281.329242 
L 354.39492 275.156281 
L 361.518324 269.918726 
L 368.641729 263.864135 
L 375.765133 259.030332 
L 382.888537 256.045204 
L 390.011941 250.565475 
L 397.135346 243.411803 
L 404.25875 237.527012 
" clip-path="url(#peea35bab62)" style="fill: none; stroke: #ff0000; stroke-width: 1.5; stroke-linecap: square"/>
   </g>
   <g id="patch_6">
    <path d="M 52.71875 399.862188 
L 52.71875 217.949688 
" style="fill: none; stroke: #000000; stroke-width: 0.8; stroke-linejoin: miter; stroke-linecap: square"/>
   </g>
   <g id="patch_7">
    <path d="M 52.71875 399.862188 
L 420.99875 399.862188 
" style="fill: none; stroke: #000000; stroke-width: 0.8; stroke-linejoin: miter; stroke-linecap: square"/>
   </g>
   <g id="text_20">
    <!-- b -->
    <g transform="translate(49.138123 215.662031) scale(0.11 -0.11)">
     <defs>
      <path id="DejaVuSans-Bold-62" d="M 2400 722 
Q 2759 722 2948 984 
Q 3138 1247 3138 1747 
Q 3138 2247 2948 2509 
Q 2759 2772 2400 2772 
Q 2041 2772 1848 2508 
Q 1656 2244 1656 1747 
Q 1656 1250 1848 986 
Q 2041 722 2400 722 
z
M 1656 2988 
Q 1888 3294 2169 3439 
Q 2450 3584 2816 3584 
Q 3463 3584 3878 3070 
Q 4294 2556 4294 1747 
Q 4294 938 3878 423 
Q 3463 -91 2816 -91 
Q 2450 -91 2169 54 
Q 1888 200 1656 506 
L 1656 0 
L 538 0 
L 538 4863 
L 1656 4863 
L 1656 2988 
z
" transform="scale(0.015625)"/>
     </defs>
     <use xlink:href="#DejaVuSans-Bold-62"/>
    </g>
   </g>
   <g id="legend_2">
    <g id="line2d_70">
     <path d="M 76.2659 229.738281 
L 85.2659 229.738281 
L 94.2659 229.738281 
" style="fill: none; stroke: #808080; stroke-width: 1.5; stroke-linecap: square"/>
    </g>
    <g id="text_21">
     <!-- actual -->
     <g transform="translate(101.4659 232.888281) scale(0.09 -0.09)">
      <use xlink:href="#DejaVuSans-61"/>
      <use xlink:href="#DejaVuSans-63" x="61.279297"/>
      <use xlink:href="#DejaVuSans-74" x="116.259766"/>
      <use xlink:href="#DejaVuSans-75" x="155.46875"/>
      <use xlink:href="#DejaVuSans-61" x="218.847656"/>
      <use xlink:href="#DejaVuSans-6c" x="280.126953"/>
     </g>
    </g>
    <g id="line2d_71">
     <path d="M 76.2659 242.948594 
L 85.2659 242.948594 
L 94.2659 242.948594 
" style="fill: none; stroke: #ff0000; stroke-width: 1.5; stroke-linecap: square"/>
    </g>
    <g id="text_22">
     <!-- scenario II -->
     <g transform="translate(101.4659 246.098594) scale(0.09 -0.09)">
      <use xlink:href="#DejaVuSans-73"/>
      <use xlink:href="#DejaVuSans-63" x="52.099609"/>
      <use xlink:href="#DejaVuSans-65" x="107.080078"/>
      <use xlink:href="#DejaVuSans-6e" x="168.603516"/>
      <use xlink:href="#DejaVuSans-61" x="231.982422"/>
      <use xlink:href="#DejaVuSans-72" x="293.261719"/>
      <use xlink:href="#DejaVuSans-69" x="334.375"/>
      <use xlink:href="#DejaVuSans-6f" x="362.158203"/>
      <use xlink:href="#DejaVuSans-20" x="423.339844"/>
      <use xlink:href="#DejaVuSans-49" x="455.126953"/>
      <use xlink:href="#DejaVuSans-49" x="484.619141"/>
     </g>
    </g>
   </g>
  </g>
  <g id="axes_3">
   <g id="patch_8">
    <path d="M 52.71875 599.965937 
L 420.99875 599.965937 
L 420.99875 418.053437 
L 52.71875 418.053437 
z
" style="fill: #ffffff"/>
   </g>
   <g id="PolyCollection_3">
    <defs>
     <path id="ma9f33a2f8d" d="M 69.45875 -72.915105 
L 69.45875 -72.813234 
L 76.582154 -72.973317 
L 83.705559 -73.097018 
L 90.828963 -73.700967 
L 97.952367 -74.705124 
L 105.075771 -76.50242 
L 112.199176 -78.670817 
L 119.32258 -81.705117 
L 126.445984 -84.390146 
L 133.569388 -85.634427 
L 140.692793 -87.278916 
L 147.816197 -88.283073 
L 154.939601 -89.811138 
L 162.063005 -90.822572 
L 169.18641 -91.622987 
L 176.309814 -92.306978 
L 183.433218 -92.306978 
L 190.556622 -92.896374 
L 197.680027 -93.180158 
L 204.803431 -93.180158 
L 211.926835 -94.177038 
L 219.050239 -97.262274 
L 226.173644 -103.803848 
L 233.297048 -112.703007 
L 240.420452 -127.859957 
L 247.543856 -135.12918 
L 254.667261 -144.821478 
L 261.790665 -152.345379 
L 268.914069 -154.913984 
L 276.037473 -156.587579 
L 283.160878 -158.523128 
L 290.284282 -161.586534 
L 297.407686 -162.80171 
L 304.53109 -166.963868 
L 311.654495 -170.529353 
L 318.777899 -176.037663 
L 325.901303 -180.381734 
L 333.024707 -183.365099 
L 340.148112 -188.153036 
L 347.271516 -191.784009 
L 354.39492 -195.262176 
L 361.518324 -198.587537 
L 368.641729 -203.666534 
L 375.765133 -206.635346 
L 382.888537 -206.87547 
L 390.011941 -210.440955 
L 397.135346 -215.425358 
L 404.25875 -218.939907 
L 404.25875 -235.654028 
L 404.25875 -235.654028 
L 397.135346 -231.717441 
L 390.011941 -226.23096 
L 382.888537 -222.243438 
L 375.765133 -221.88689 
L 368.641729 -218.532423 
L 361.518324 -212.944071 
L 354.39492 -209.20395 
L 347.271516 -205.303746 
L 340.148112 -201.243459 
L 333.024707 -195.96072 
L 325.901303 -192.584424 
L 318.777899 -187.774658 
L 311.654495 -181.742439 
L 304.53109 -177.754917 
L 297.407686 -173.13434 
L 290.284282 -171.664487 
L 283.160878 -168.208149 
L 276.037473 -165.952434 
L 268.914069 -163.987779 
L 261.790665 -161.05535 
L 254.667261 -152.920223 
L 247.543856 -142.536657 
L 240.420452 -134.663484 
L 233.297048 -118.640631 
L 226.173644 -109.07931 
L 219.050239 -101.97017 
L 211.926835 -98.492003 
L 204.803431 -97.269551 
L 197.680027 -97.269551 
L 190.556622 -96.85479 
L 183.433218 -96.090758 
L 176.309814 -96.090758 
L 169.18641 -95.210301 
L 162.063005 -94.206144 
L 154.939601 -92.961863 
L 147.816197 -91.157291 
L 140.692793 -89.927562 
L 133.569388 -87.992013 
L 126.445984 -86.493054 
L 119.32258 -83.444201 
L 112.199176 -80.016969 
L 105.075771 -77.513853 
L 97.952367 -75.410945 
L 90.828963 -74.17394 
L 83.705559 -73.388078 
L 76.582154 -73.177059 
L 69.45875 -72.915105 
z
" style="stroke: #000000; stroke-opacity: 0.5"/>
    </defs>
    <g clip-path="url(#p6ba396b240)">
     <use xlink:href="#ma9f33a2f8d" x="0" y="672.619089" style="fill-opacity: 0.5; stroke: #000000; stroke-opacity: 0.5"/>
    </g>
   </g>
   <g id="matplotlib.axis_5">
    <g id="xtick_49">
     <g id="line2d_72">
      <g>
       <use xlink:href="#m14ad7416f5" x="69.45875" y="599.965937" style="stroke: #000000; stroke-width: 0.8"/>
      </g>
     </g>
     <g id="text_23">
      <!-- 2021/8/14 -->
      <g transform="translate(54.8992 644.432764) rotate(-45) scale(0.09 -0.09)">
       <defs>
        <path id="DejaVuSans-2f" d="M 1625 4666 
L 2156 4666 
L 531 -594 
L 0 -594 
L 1625 4666 
z
" transform="scale(0.015625)"/>
        <path id="DejaVuSans-38" d="M 2034 2216 
Q 1584 2216 1326 1975 
Q 1069 1734 1069 1313 
Q 1069 891 1326 650 
Q 1584 409 2034 409 
Q 2484 409 2743 651 
Q 3003 894 3003 1313 
Q 3003 1734 2745 1975 
Q 2488 2216 2034 2216 
z
M 1403 2484 
Q 997 2584 770 2862 
Q 544 3141 544 3541 
Q 544 4100 942 4425 
Q 1341 4750 2034 4750 
Q 2731 4750 3128 4425 
Q 3525 4100 3525 3541 
Q 3525 3141 3298 2862 
Q 3072 2584 2669 2484 
Q 3125 2378 3379 2068 
Q 3634 1759 3634 1313 
Q 3634 634 3220 271 
Q 2806 -91 2034 -91 
Q 1263 -91 848 271 
Q 434 634 434 1313 
Q 434 1759 690 2068 
Q 947 2378 1403 2484 
z
M 1172 3481 
Q 1172 3119 1398 2916 
Q 1625 2713 2034 2713 
Q 2441 2713 2670 2916 
Q 2900 3119 2900 3481 
Q 2900 3844 2670 4047 
Q 2441 4250 2034 4250 
Q 1625 4250 1398 4047 
Q 1172 3844 1172 3481 
z
" transform="scale(0.015625)"/>
       </defs>
       <use xlink:href="#DejaVuSans-32"/>
       <use xlink:href="#DejaVuSans-30" x="63.623047"/>
       <use xlink:href="#DejaVuSans-32" x="127.246094"/>
       <use xlink:href="#DejaVuSans-31" x="190.869141"/>
       <use xlink:href="#DejaVuSans-2f" x="254.492188"/>
       <use xlink:href="#DejaVuSans-38" x="288.183594"/>
       <use xlink:href="#DejaVuSans-2f" x="351.806641"/>
       <use xlink:href="#DejaVuSans-31" x="385.498047"/>
       <use xlink:href="#DejaVuSans-34" x="449.121094"/>
      </g>
     </g>
    </g>
    <g id="xtick_50">
     <g id="line2d_73">
      <g>
       <use xlink:href="#m14ad7416f5" x="83.705559" y="599.965937" style="stroke: #000000; stroke-width: 0.8"/>
      </g>
     </g>
     <g id="text_24">
      <!-- 2021/8/28 -->
      <g transform="translate(69.146009 644.432764) rotate(-45) scale(0.09 -0.09)">
       <use xlink:href="#DejaVuSans-32"/>
       <use xlink:href="#DejaVuSans-30" x="63.623047"/>
       <use xlink:href="#DejaVuSans-32" x="127.246094"/>
       <use xlink:href="#DejaVuSans-31" x="190.869141"/>
       <use xlink:href="#DejaVuSans-2f" x="254.492188"/>
       <use xlink:href="#DejaVuSans-38" x="288.183594"/>
       <use xlink:href="#DejaVuSans-2f" x="351.806641"/>
       <use xlink:href="#DejaVuSans-32" x="385.498047"/>
       <use xlink:href="#DejaVuSans-38" x="449.121094"/>
      </g>
     </g>
    </g>
    <g id="xtick_51">
     <g id="line2d_74">
      <g>
       <use xlink:href="#m14ad7416f5" x="97.952367" y="599.965937" style="stroke: #000000; stroke-width: 0.8"/>
      </g>
     </g>
     <g id="text_25">
      <!-- 2021/9/11 -->
      <g transform="translate(83.392817 644.432764) rotate(-45) scale(0.09 -0.09)">
       <use xlink:href="#DejaVuSans-32"/>
       <use xlink:href="#DejaVuSans-30" x="63.623047"/>
       <use xlink:href="#DejaVuSans-32" x="127.246094"/>
       <use xlink:href="#DejaVuSans-31" x="190.869141"/>
       <use xlink:href="#DejaVuSans-2f" x="254.492188"/>
       <use xlink:href="#DejaVuSans-39" x="288.183594"/>
       <use xlink:href="#DejaVuSans-2f" x="351.806641"/>
       <use xlink:href="#DejaVuSans-31" x="385.498047"/>
       <use xlink:href="#DejaVuSans-31" x="449.121094"/>
      </g>
     </g>
    </g>
    <g id="xtick_52">
     <g id="line2d_75">
      <g>
       <use xlink:href="#m14ad7416f5" x="112.199176" y="599.965937" style="stroke: #000000; stroke-width: 0.8"/>
      </g>
     </g>
     <g id="text_26">
      <!-- 2021/9/25 -->
      <g transform="translate(97.639626 644.432764) rotate(-45) scale(0.09 -0.09)">
       <use xlink:href="#DejaVuSans-32"/>
       <use xlink:href="#DejaVuSans-30" x="63.623047"/>
       <use xlink:href="#DejaVuSans-32" x="127.246094"/>
       <use xlink:href="#DejaVuSans-31" x="190.869141"/>
       <use xlink:href="#DejaVuSans-2f" x="254.492188"/>
       <use xlink:href="#DejaVuSans-39" x="288.183594"/>
       <use xlink:href="#DejaVuSans-2f" x="351.806641"/>
       <use xlink:href="#DejaVuSans-32" x="385.498047"/>
       <use xlink:href="#DejaVuSans-35" x="449.121094"/>
      </g>
     </g>
    </g>
    <g id="xtick_53">
     <g id="line2d_76">
      <g>
       <use xlink:href="#m14ad7416f5" x="126.445984" y="599.965937" style="stroke: #000000; stroke-width: 0.8"/>
      </g>
     </g>
     <g id="text_27">
      <!-- 2021/10/9 -->
      <g transform="translate(111.886434 644.432764) rotate(-45) scale(0.09 -0.09)">
       <use xlink:href="#DejaVuSans-32"/>
       <use xlink:href="#DejaVuSans-30" x="63.623047"/>
       <use xlink:href="#DejaVuSans-32" x="127.246094"/>
       <use xlink:href="#DejaVuSans-31" x="190.869141"/>
       <use xlink:href="#DejaVuSans-2f" x="254.492188"/>
       <use xlink:href="#DejaVuSans-31" x="288.183594"/>
       <use xlink:href="#DejaVuSans-30" x="351.806641"/>
       <use xlink:href="#DejaVuSans-2f" x="415.429688"/>
       <use xlink:href="#DejaVuSans-39" x="449.121094"/>
      </g>
     </g>
    </g>
    <g id="xtick_54">
     <g id="line2d_77">
      <g>
       <use xlink:href="#m14ad7416f5" x="140.692793" y="599.965937" style="stroke: #000000; stroke-width: 0.8"/>
      </g>
     </g>
     <g id="text_28">
      <!-- 2021/10/23 -->
      <g transform="translate(124.108708 648.481834) rotate(-45) scale(0.09 -0.09)">
       <use xlink:href="#DejaVuSans-32"/>
       <use xlink:href="#DejaVuSans-30" x="63.623047"/>
       <use xlink:href="#DejaVuSans-32" x="127.246094"/>
       <use xlink:href="#DejaVuSans-31" x="190.869141"/>
       <use xlink:href="#DejaVuSans-2f" x="254.492188"/>
       <use xlink:href="#DejaVuSans-31" x="288.183594"/>
       <use xlink:href="#DejaVuSans-30" x="351.806641"/>
       <use xlink:href="#DejaVuSans-2f" x="415.429688"/>
       <use xlink:href="#DejaVuSans-32" x="449.121094"/>
       <use xlink:href="#DejaVuSans-33" x="512.744141"/>
      </g>
     </g>
    </g>
    <g id="xtick_55">
     <g id="line2d_78">
      <g>
       <use xlink:href="#m14ad7416f5" x="154.939601" y="599.965937" style="stroke: #000000; stroke-width: 0.8"/>
      </g>
     </g>
     <g id="text_29">
      <!-- 2021/11/6 -->
      <g transform="translate(140.380051 644.432764) rotate(-45) scale(0.09 -0.09)">
       <use xlink:href="#DejaVuSans-32"/>
       <use xlink:href="#DejaVuSans-30" x="63.623047"/>
       <use xlink:href="#DejaVuSans-32" x="127.246094"/>
       <use xlink:href="#DejaVuSans-31" x="190.869141"/>
       <use xlink:href="#DejaVuSans-2f" x="254.492188"/>
       <use xlink:href="#DejaVuSans-31" x="288.183594"/>
       <use xlink:href="#DejaVuSans-31" x="351.806641"/>
       <use xlink:href="#DejaVuSans-2f" x="415.429688"/>
       <use xlink:href="#DejaVuSans-36" x="449.121094"/>
      </g>
     </g>
    </g>
    <g id="xtick_56">
     <g id="line2d_79">
      <g>
       <use xlink:href="#m14ad7416f5" x="169.18641" y="599.965937" style="stroke: #000000; stroke-width: 0.8"/>
      </g>
     </g>
     <g id="text_30">
      <!-- 2021/11/20 -->
      <g transform="translate(152.602325 648.481834) rotate(-45) scale(0.09 -0.09)">
       <use xlink:href="#DejaVuSans-32"/>
       <use xlink:href="#DejaVuSans-30" x="63.623047"/>
       <use xlink:href="#DejaVuSans-32" x="127.246094"/>
       <use xlink:href="#DejaVuSans-31" x="190.869141"/>
       <use xlink:href="#DejaVuSans-2f" x="254.492188"/>
       <use xlink:href="#DejaVuSans-31" x="288.183594"/>
       <use xlink:href="#DejaVuSans-31" x="351.806641"/>
       <use xlink:href="#DejaVuSans-2f" x="415.429688"/>
       <use xlink:href="#DejaVuSans-32" x="449.121094"/>
       <use xlink:href="#DejaVuSans-30" x="512.744141"/>
      </g>
     </g>
    </g>
    <g id="xtick_57">
     <g id="line2d_80">
      <g>
       <use xlink:href="#m14ad7416f5" x="183.433218" y="599.965937" style="stroke: #000000; stroke-width: 0.8"/>
      </g>
     </g>
     <g id="text_31">
      <!-- 2021/12/4 -->
      <g transform="translate(168.873668 644.432764) rotate(-45) scale(0.09 -0.09)">
       <use xlink:href="#DejaVuSans-32"/>
       <use xlink:href="#DejaVuSans-30" x="63.623047"/>
       <use xlink:href="#DejaVuSans-32" x="127.246094"/>
       <use xlink:href="#DejaVuSans-31" x="190.869141"/>
       <use xlink:href="#DejaVuSans-2f" x="254.492188"/>
       <use xlink:href="#DejaVuSans-31" x="288.183594"/>
       <use xlink:href="#DejaVuSans-32" x="351.806641"/>
       <use xlink:href="#DejaVuSans-2f" x="415.429688"/>
       <use xlink:href="#DejaVuSans-34" x="449.121094"/>
      </g>
     </g>
    </g>
    <g id="xtick_58">
     <g id="line2d_81">
      <g>
       <use xlink:href="#m14ad7416f5" x="197.680027" y="599.965937" style="stroke: #000000; stroke-width: 0.8"/>
      </g>
     </g>
     <g id="text_32">
      <!-- 2021/12/18 -->
      <g transform="translate(181.095942 648.481834) rotate(-45) scale(0.09 -0.09)">
       <use xlink:href="#DejaVuSans-32"/>
       <use xlink:href="#DejaVuSans-30" x="63.623047"/>
       <use xlink:href="#DejaVuSans-32" x="127.246094"/>
       <use xlink:href="#DejaVuSans-31" x="190.869141"/>
       <use xlink:href="#DejaVuSans-2f" x="254.492188"/>
       <use xlink:href="#DejaVuSans-31" x="288.183594"/>
       <use xlink:href="#DejaVuSans-32" x="351.806641"/>
       <use xlink:href="#DejaVuSans-2f" x="415.429688"/>
       <use xlink:href="#DejaVuSans-31" x="449.121094"/>
       <use xlink:href="#DejaVuSans-38" x="512.744141"/>
      </g>
     </g>
    </g>
    <g id="xtick_59">
     <g id="line2d_82">
      <g>
       <use xlink:href="#m14ad7416f5" x="211.926835" y="599.965937" style="stroke: #000000; stroke-width: 0.8"/>
      </g>
     </g>
     <g id="text_33">
      <!-- 2022/1/1 -->
      <g transform="translate(199.391821 640.383693) rotate(-45) scale(0.09 -0.09)">
       <use xlink:href="#DejaVuSans-32"/>
       <use xlink:href="#DejaVuSans-30" x="63.623047"/>
       <use xlink:href="#DejaVuSans-32" x="127.246094"/>
       <use xlink:href="#DejaVuSans-32" x="190.869141"/>
       <use xlink:href="#DejaVuSans-2f" x="254.492188"/>
       <use xlink:href="#DejaVuSans-31" x="288.183594"/>
       <use xlink:href="#DejaVuSans-2f" x="351.806641"/>
       <use xlink:href="#DejaVuSans-31" x="385.498047"/>
      </g>
     </g>
    </g>
    <g id="xtick_60">
     <g id="line2d_83">
      <g>
       <use xlink:href="#m14ad7416f5" x="226.173644" y="599.965937" style="stroke: #000000; stroke-width: 0.8"/>
      </g>
     </g>
     <g id="text_34">
      <!-- 2022/1/15 -->
      <g transform="translate(211.614094 644.432764) rotate(-45) scale(0.09 -0.09)">
       <use xlink:href="#DejaVuSans-32"/>
       <use xlink:href="#DejaVuSans-30" x="63.623047"/>
       <use xlink:href="#DejaVuSans-32" x="127.246094"/>
       <use xlink:href="#DejaVuSans-32" x="190.869141"/>
       <use xlink:href="#DejaVuSans-2f" x="254.492188"/>
       <use xlink:href="#DejaVuSans-31" x="288.183594"/>
       <use xlink:href="#DejaVuSans-2f" x="351.806641"/>
       <use xlink:href="#DejaVuSans-31" x="385.498047"/>
       <use xlink:href="#DejaVuSans-35" x="449.121094"/>
      </g>
     </g>
    </g>
    <g id="xtick_61">
     <g id="line2d_84">
      <g>
       <use xlink:href="#m14ad7416f5" x="240.420452" y="599.965937" style="stroke: #000000; stroke-width: 0.8"/>
      </g>
     </g>
     <g id="text_35">
      <!-- 2022/1/29 -->
      <g transform="translate(225.860903 644.432764) rotate(-45) scale(0.09 -0.09)">
       <use xlink:href="#DejaVuSans-32"/>
       <use xlink:href="#DejaVuSans-30" x="63.623047"/>
       <use xlink:href="#DejaVuSans-32" x="127.246094"/>
       <use xlink:href="#DejaVuSans-32" x="190.869141"/>
       <use xlink:href="#DejaVuSans-2f" x="254.492188"/>
       <use xlink:href="#DejaVuSans-31" x="288.183594"/>
       <use xlink:href="#DejaVuSans-2f" x="351.806641"/>
       <use xlink:href="#DejaVuSans-32" x="385.498047"/>
       <use xlink:href="#DejaVuSans-39" x="449.121094"/>
      </g>
     </g>
    </g>
    <g id="xtick_62">
     <g id="line2d_85">
      <g>
       <use xlink:href="#m14ad7416f5" x="254.667261" y="599.965937" style="stroke: #000000; stroke-width: 0.8"/>
      </g>
     </g>
     <g id="text_36">
      <!-- 2022/2/12 -->
      <g transform="translate(240.107711 644.432764) rotate(-45) scale(0.09 -0.09)">
       <use xlink:href="#DejaVuSans-32"/>
       <use xlink:href="#DejaVuSans-30" x="63.623047"/>
       <use xlink:href="#DejaVuSans-32" x="127.246094"/>
       <use xlink:href="#DejaVuSans-32" x="190.869141"/>
       <use xlink:href="#DejaVuSans-2f" x="254.492188"/>
       <use xlink:href="#DejaVuSans-32" x="288.183594"/>
       <use xlink:href="#DejaVuSans-2f" x="351.806641"/>
       <use xlink:href="#DejaVuSans-31" x="385.498047"/>
       <use xlink:href="#DejaVuSans-32" x="449.121094"/>
      </g>
     </g>
    </g>
    <g id="xtick_63">
     <g id="line2d_86">
      <g>
       <use xlink:href="#m14ad7416f5" x="268.914069" y="599.965937" style="stroke: #000000; stroke-width: 0.8"/>
      </g>
     </g>
     <g id="text_37">
      <!-- 2022/2/26 -->
      <g transform="translate(254.35452 644.432764) rotate(-45) scale(0.09 -0.09)">
       <use xlink:href="#DejaVuSans-32"/>
       <use xlink:href="#DejaVuSans-30" x="63.623047"/>
       <use xlink:href="#DejaVuSans-32" x="127.246094"/>
       <use xlink:href="#DejaVuSans-32" x="190.869141"/>
       <use xlink:href="#DejaVuSans-2f" x="254.492188"/>
       <use xlink:href="#DejaVuSans-32" x="288.183594"/>
       <use xlink:href="#DejaVuSans-2f" x="351.806641"/>
       <use xlink:href="#DejaVuSans-32" x="385.498047"/>
       <use xlink:href="#DejaVuSans-36" x="449.121094"/>
      </g>
     </g>
    </g>
    <g id="xtick_64">
     <g id="line2d_87">
      <g>
       <use xlink:href="#m14ad7416f5" x="283.160878" y="599.965937" style="stroke: #000000; stroke-width: 0.8"/>
      </g>
     </g>
     <g id="text_38">
      <!-- 2022/3/12 -->
      <g transform="translate(268.601328 644.432764) rotate(-45) scale(0.09 -0.09)">
       <use xlink:href="#DejaVuSans-32"/>
       <use xlink:href="#DejaVuSans-30" x="63.623047"/>
       <use xlink:href="#DejaVuSans-32" x="127.246094"/>
       <use xlink:href="#DejaVuSans-32" x="190.869141"/>
       <use xlink:href="#DejaVuSans-2f" x="254.492188"/>
       <use xlink:href="#DejaVuSans-33" x="288.183594"/>
       <use xlink:href="#DejaVuSans-2f" x="351.806641"/>
       <use xlink:href="#DejaVuSans-31" x="385.498047"/>
       <use xlink:href="#DejaVuSans-32" x="449.121094"/>
      </g>
     </g>
    </g>
    <g id="xtick_65">
     <g id="line2d_88">
      <g>
       <use xlink:href="#m14ad7416f5" x="297.407686" y="599.965937" style="stroke: #000000; stroke-width: 0.8"/>
      </g>
     </g>
     <g id="text_39">
      <!-- 2022/3/26 -->
      <g transform="translate(282.848137 644.432764) rotate(-45) scale(0.09 -0.09)">
       <use xlink:href="#DejaVuSans-32"/>
       <use xlink:href="#DejaVuSans-30" x="63.623047"/>
       <use xlink:href="#DejaVuSans-32" x="127.246094"/>
       <use xlink:href="#DejaVuSans-32" x="190.869141"/>
       <use xlink:href="#DejaVuSans-2f" x="254.492188"/>
       <use xlink:href="#DejaVuSans-33" x="288.183594"/>
       <use xlink:href="#DejaVuSans-2f" x="351.806641"/>
       <use xlink:href="#DejaVuSans-32" x="385.498047"/>
       <use xlink:href="#DejaVuSans-36" x="449.121094"/>
      </g>
     </g>
    </g>
    <g id="xtick_66">
     <g id="line2d_89">
      <g>
       <use xlink:href="#m14ad7416f5" x="311.654495" y="599.965937" style="stroke: #000000; stroke-width: 0.8"/>
      </g>
     </g>
     <g id="text_40">
      <!-- 2022/4/9 -->
      <g transform="translate(299.11948 640.383693) rotate(-45) scale(0.09 -0.09)">
       <use xlink:href="#DejaVuSans-32"/>
       <use xlink:href="#DejaVuSans-30" x="63.623047"/>
       <use xlink:href="#DejaVuSans-32" x="127.246094"/>
       <use xlink:href="#DejaVuSans-32" x="190.869141"/>
       <use xlink:href="#DejaVuSans-2f" x="254.492188"/>
       <use xlink:href="#DejaVuSans-34" x="288.183594"/>
       <use xlink:href="#DejaVuSans-2f" x="351.806641"/>
       <use xlink:href="#DejaVuSans-39" x="385.498047"/>
      </g>
     </g>
    </g>
    <g id="xtick_67">
     <g id="line2d_90">
      <g>
       <use xlink:href="#m14ad7416f5" x="325.901303" y="599.965937" style="stroke: #000000; stroke-width: 0.8"/>
      </g>
     </g>
     <g id="text_41">
      <!-- 2022/4/23 -->
      <g transform="translate(311.341754 644.432764) rotate(-45) scale(0.09 -0.09)">
       <use xlink:href="#DejaVuSans-32"/>
       <use xlink:href="#DejaVuSans-30" x="63.623047"/>
       <use xlink:href="#DejaVuSans-32" x="127.246094"/>
       <use xlink:href="#DejaVuSans-32" x="190.869141"/>
       <use xlink:href="#DejaVuSans-2f" x="254.492188"/>
       <use xlink:href="#DejaVuSans-34" x="288.183594"/>
       <use xlink:href="#DejaVuSans-2f" x="351.806641"/>
       <use xlink:href="#DejaVuSans-32" x="385.498047"/>
       <use xlink:href="#DejaVuSans-33" x="449.121094"/>
      </g>
     </g>
    </g>
    <g id="xtick_68">
     <g id="line2d_91">
      <g>
       <use xlink:href="#m14ad7416f5" x="340.148112" y="599.965937" style="stroke: #000000; stroke-width: 0.8"/>
      </g>
     </g>
     <g id="text_42">
      <!-- 2022/5/7 -->
      <g transform="translate(327.613097 640.383693) rotate(-45) scale(0.09 -0.09)">
       <defs>
        <path id="DejaVuSans-37" d="M 525 4666 
L 3525 4666 
L 3525 4397 
L 1831 0 
L 1172 0 
L 2766 4134 
L 525 4134 
L 525 4666 
z
" transform="scale(0.015625)"/>
       </defs>
       <use xlink:href="#DejaVuSans-32"/>
       <use xlink:href="#DejaVuSans-30" x="63.623047"/>
       <use xlink:href="#DejaVuSans-32" x="127.246094"/>
       <use xlink:href="#DejaVuSans-32" x="190.869141"/>
       <use xlink:href="#DejaVuSans-2f" x="254.492188"/>
       <use xlink:href="#DejaVuSans-35" x="288.183594"/>
       <use xlink:href="#DejaVuSans-2f" x="351.806641"/>
       <use xlink:href="#DejaVuSans-37" x="385.498047"/>
      </g>
     </g>
    </g>
    <g id="xtick_69">
     <g id="line2d_92">
      <g>
       <use xlink:href="#m14ad7416f5" x="354.39492" y="599.965937" style="stroke: #000000; stroke-width: 0.8"/>
      </g>
     </g>
     <g id="text_43">
      <!-- 2022/5/21 -->
      <g transform="translate(339.835371 644.432764) rotate(-45) scale(0.09 -0.09)">
       <use xlink:href="#DejaVuSans-32"/>
       <use xlink:href="#DejaVuSans-30" x="63.623047"/>
       <use xlink:href="#DejaVuSans-32" x="127.246094"/>
       <use xlink:href="#DejaVuSans-32" x="190.869141"/>
       <use xlink:href="#DejaVuSans-2f" x="254.492188"/>
       <use xlink:href="#DejaVuSans-35" x="288.183594"/>
       <use xlink:href="#DejaVuSans-2f" x="351.806641"/>
       <use xlink:href="#DejaVuSans-32" x="385.498047"/>
       <use xlink:href="#DejaVuSans-31" x="449.121094"/>
      </g>
     </g>
    </g>
    <g id="xtick_70">
     <g id="line2d_93">
      <g>
       <use xlink:href="#m14ad7416f5" x="368.641729" y="599.965937" style="stroke: #000000; stroke-width: 0.8"/>
      </g>
     </g>
     <g id="text_44">
      <!-- 2022/6/4 -->
      <g transform="translate(356.106714 640.383693) rotate(-45) scale(0.09 -0.09)">
       <use xlink:href="#DejaVuSans-32"/>
       <use xlink:href="#DejaVuSans-30" x="63.623047"/>
       <use xlink:href="#DejaVuSans-32" x="127.246094"/>
       <use xlink:href="#DejaVuSans-32" x="190.869141"/>
       <use xlink:href="#DejaVuSans-2f" x="254.492188"/>
       <use xlink:href="#DejaVuSans-36" x="288.183594"/>
       <use xlink:href="#DejaVuSans-2f" x="351.806641"/>
       <use xlink:href="#DejaVuSans-34" x="385.498047"/>
      </g>
     </g>
    </g>
    <g id="xtick_71">
     <g id="line2d_94">
      <g>
       <use xlink:href="#m14ad7416f5" x="382.888537" y="599.965937" style="stroke: #000000; stroke-width: 0.8"/>
      </g>
     </g>
     <g id="text_45">
      <!-- 2022/6/18 -->
      <g transform="translate(368.328988 644.432764) rotate(-45) scale(0.09 -0.09)">
       <use xlink:href="#DejaVuSans-32"/>
       <use xlink:href="#DejaVuSans-30" x="63.623047"/>
       <use xlink:href="#DejaVuSans-32" x="127.246094"/>
       <use xlink:href="#DejaVuSans-32" x="190.869141"/>
       <use xlink:href="#DejaVuSans-2f" x="254.492188"/>
       <use xlink:href="#DejaVuSans-36" x="288.183594"/>
       <use xlink:href="#DejaVuSans-2f" x="351.806641"/>
       <use xlink:href="#DejaVuSans-31" x="385.498047"/>
       <use xlink:href="#DejaVuSans-38" x="449.121094"/>
      </g>
     </g>
    </g>
    <g id="xtick_72">
     <g id="line2d_95">
      <g>
       <use xlink:href="#m14ad7416f5" x="397.135346" y="599.965937" style="stroke: #000000; stroke-width: 0.8"/>
      </g>
     </g>
     <g id="text_46">
      <!-- 2022/7/2 -->
      <g transform="translate(384.600331 640.383693) rotate(-45) scale(0.09 -0.09)">
       <use xlink:href="#DejaVuSans-32"/>
       <use xlink:href="#DejaVuSans-30" x="63.623047"/>
       <use xlink:href="#DejaVuSans-32" x="127.246094"/>
       <use xlink:href="#DejaVuSans-32" x="190.869141"/>
       <use xlink:href="#DejaVuSans-2f" x="254.492188"/>
       <use xlink:href="#DejaVuSans-37" x="288.183594"/>
       <use xlink:href="#DejaVuSans-2f" x="351.806641"/>
       <use xlink:href="#DejaVuSans-32" x="385.498047"/>
      </g>
     </g>
    </g>
    <g id="text_47">
     <!-- Timepoint in 202122 (weeks) -->
     <g transform="translate(146.209063 662.923464) scale(0.12 -0.12)">
      <defs>
       <path id="DejaVuSans-54" d="M -19 4666 
L 3928 4666 
L 3928 4134 
L 2272 4134 
L 2272 0 
L 1638 0 
L 1638 4134 
L -19 4134 
L -19 4666 
z
" transform="scale(0.015625)"/>
       <path id="DejaVuSans-70" d="M 1159 525 
L 1159 -1331 
L 581 -1331 
L 581 3500 
L 1159 3500 
L 1159 2969 
Q 1341 3281 1617 3432 
Q 1894 3584 2278 3584 
Q 2916 3584 3314 3078 
Q 3713 2572 3713 1747 
Q 3713 922 3314 415 
Q 2916 -91 2278 -91 
Q 1894 -91 1617 61 
Q 1341 213 1159 525 
z
M 3116 1747 
Q 3116 2381 2855 2742 
Q 2594 3103 2138 3103 
Q 1681 3103 1420 2742 
Q 1159 2381 1159 1747 
Q 1159 1113 1420 752 
Q 1681 391 2138 391 
Q 2594 391 2855 752 
Q 3116 1113 3116 1747 
z
" transform="scale(0.015625)"/>
       <path id="DejaVuSans-2013" d="M 313 1978 
L 2888 1978 
L 2888 1528 
L 313 1528 
L 313 1978 
z
" transform="scale(0.015625)"/>
       <path id="DejaVuSans-28" d="M 1984 4856 
Q 1566 4138 1362 3434 
Q 1159 2731 1159 2009 
Q 1159 1288 1364 580 
Q 1569 -128 1984 -844 
L 1484 -844 
Q 1016 -109 783 600 
Q 550 1309 550 2009 
Q 550 2706 781 3412 
Q 1013 4119 1484 4856 
L 1984 4856 
z
" transform="scale(0.015625)"/>
       <path id="DejaVuSans-77" d="M 269 3500 
L 844 3500 
L 1563 769 
L 2278 3500 
L 2956 3500 
L 3675 769 
L 4391 3500 
L 4966 3500 
L 4050 0 
L 3372 0 
L 2619 2869 
L 1863 0 
L 1184 0 
L 269 3500 
z
" transform="scale(0.015625)"/>
       <path id="DejaVuSans-6b" d="M 581 4863 
L 1159 4863 
L 1159 1991 
L 2875 3500 
L 3609 3500 
L 1753 1863 
L 3688 0 
L 2938 0 
L 1159 1709 
L 1159 0 
L 581 0 
L 581 4863 
z
" transform="scale(0.015625)"/>
       <path id="DejaVuSans-29" d="M 513 4856 
L 1013 4856 
Q 1481 4119 1714 3412 
Q 1947 2706 1947 2009 
Q 1947 1309 1714 600 
Q 1481 -109 1013 -844 
L 513 -844 
Q 928 -128 1133 580 
Q 1338 1288 1338 2009 
Q 1338 2731 1133 3434 
Q 928 4138 513 4856 
z
" transform="scale(0.015625)"/>
      </defs>
      <use xlink:href="#DejaVuSans-54"/>
      <use xlink:href="#DejaVuSans-69" x="57.958984"/>
      <use xlink:href="#DejaVuSans-6d" x="85.742188"/>
      <use xlink:href="#DejaVuSans-65" x="183.154297"/>
      <use xlink:href="#DejaVuSans-70" x="244.677734"/>
      <use xlink:href="#DejaVuSans-6f" x="308.154297"/>
      <use xlink:href="#DejaVuSans-69" x="369.335938"/>
      <use xlink:href="#DejaVuSans-6e" x="397.119141"/>
      <use xlink:href="#DejaVuSans-74" x="460.498047"/>
      <use xlink:href="#DejaVuSans-20" x="499.707031"/>
      <use xlink:href="#DejaVuSans-69" x="531.494141"/>
      <use xlink:href="#DejaVuSans-6e" x="559.277344"/>
      <use xlink:href="#DejaVuSans-20" x="622.65625"/>
      <use xlink:href="#DejaVuSans-32" x="654.443359"/>
      <use xlink:href="#DejaVuSans-30" x="718.066406"/>
      <use xlink:href="#DejaVuSans-32" x="781.689453"/>
      <use xlink:href="#DejaVuSans-31" x="845.3125"/>
      <use xlink:href="#DejaVuSans-2013" x="908.935547"/>
      <use xlink:href="#DejaVuSans-32" x="958.935547"/>
      <use xlink:href="#DejaVuSans-32" x="1022.558594"/>
      <use xlink:href="#DejaVuSans-20" x="1086.181641"/>
      <use xlink:href="#DejaVuSans-28" x="1117.96875"/>
      <use xlink:href="#DejaVuSans-77" x="1156.982422"/>
      <use xlink:href="#DejaVuSans-65" x="1238.769531"/>
      <use xlink:href="#DejaVuSans-65" x="1300.292969"/>
      <use xlink:href="#DejaVuSans-6b" x="1361.816406"/>
      <use xlink:href="#DejaVuSans-73" x="1419.726562"/>
      <use xlink:href="#DejaVuSans-29" x="1471.826172"/>
     </g>
    </g>
   </g>
   <g id="matplotlib.axis_6">
    <g id="ytick_16">
     <g id="line2d_96">
      <g>
       <use xlink:href="#m04d4ffd2d1" x="52.71875" y="599.965937" style="stroke: #000000; stroke-width: 0.8"/>
      </g>
     </g>
     <g id="text_48">
      <!-- 0 -->
      <g transform="translate(39.9925 603.385234) scale(0.09 -0.09)">
       <use xlink:href="#DejaVuSans-30"/>
      </g>
     </g>
    </g>
    <g id="ytick_17">
     <g id="line2d_97">
      <g>
       <use xlink:href="#m04d4ffd2d1" x="52.71875" y="563.583437" style="stroke: #000000; stroke-width: 0.8"/>
      </g>
     </g>
     <g id="text_49">
      <!-- 5000 -->
      <g transform="translate(22.81375 567.002734) scale(0.09 -0.09)">
       <use xlink:href="#DejaVuSans-35"/>
       <use xlink:href="#DejaVuSans-30" x="63.623047"/>
       <use xlink:href="#DejaVuSans-30" x="127.246094"/>
       <use xlink:href="#DejaVuSans-30" x="190.869141"/>
      </g>
     </g>
    </g>
    <g id="ytick_18">
     <g id="line2d_98">
      <g>
       <use xlink:href="#m04d4ffd2d1" x="52.71875" y="527.200938" style="stroke: #000000; stroke-width: 0.8"/>
      </g>
     </g>
     <g id="text_50">
      <!-- 10000 -->
      <g transform="translate(17.0875 530.620234) scale(0.09 -0.09)">
       <use xlink:href="#DejaVuSans-31"/>
       <use xlink:href="#DejaVuSans-30" x="63.623047"/>
       <use xlink:href="#DejaVuSans-30" x="127.246094"/>
       <use xlink:href="#DejaVuSans-30" x="190.869141"/>
       <use xlink:href="#DejaVuSans-30" x="254.492188"/>
      </g>
     </g>
    </g>
    <g id="ytick_19">
     <g id="line2d_99">
      <g>
       <use xlink:href="#m04d4ffd2d1" x="52.71875" y="490.818437" style="stroke: #000000; stroke-width: 0.8"/>
      </g>
     </g>
     <g id="text_51">
      <!-- 15000 -->
      <g transform="translate(17.0875 494.237734) scale(0.09 -0.09)">
       <use xlink:href="#DejaVuSans-31"/>
       <use xlink:href="#DejaVuSans-35" x="63.623047"/>
       <use xlink:href="#DejaVuSans-30" x="127.246094"/>
       <use xlink:href="#DejaVuSans-30" x="190.869141"/>
       <use xlink:href="#DejaVuSans-30" x="254.492188"/>
      </g>
     </g>
    </g>
    <g id="ytick_20">
     <g id="line2d_100">
      <g>
       <use xlink:href="#m04d4ffd2d1" x="52.71875" y="454.435937" style="stroke: #000000; stroke-width: 0.8"/>
      </g>
     </g>
     <g id="text_52">
      <!-- 20000 -->
      <g transform="translate(17.0875 457.855234) scale(0.09 -0.09)">
       <use xlink:href="#DejaVuSans-32"/>
       <use xlink:href="#DejaVuSans-30" x="63.623047"/>
       <use xlink:href="#DejaVuSans-30" x="127.246094"/>
       <use xlink:href="#DejaVuSans-30" x="190.869141"/>
       <use xlink:href="#DejaVuSans-30" x="254.492188"/>
      </g>
     </g>
    </g>
    <g id="ytick_21">
     <g id="line2d_101">
      <g>
       <use xlink:href="#m04d4ffd2d1" x="52.71875" y="418.053437" style="stroke: #000000; stroke-width: 0.8"/>
      </g>
     </g>
     <g id="text_53">
      <!-- 25000 -->
      <g transform="translate(17.0875 421.472734) scale(0.09 -0.09)">
       <use xlink:href="#DejaVuSans-32"/>
       <use xlink:href="#DejaVuSans-35" x="63.623047"/>
       <use xlink:href="#DejaVuSans-30" x="127.246094"/>
       <use xlink:href="#DejaVuSans-30" x="190.869141"/>
       <use xlink:href="#DejaVuSans-30" x="254.492188"/>
      </g>
     </g>
    </g>
   </g>
   <g id="line2d_102">
    <path d="M 69.45875 599.820407 
L 76.582154 599.660325 
L 83.705559 599.522071 
L 90.828963 599.223734 
L 97.952367 598.889016 
L 105.075771 598.42332 
L 112.199176 598.008559 
L 119.32258 597.440992 
L 126.445984 596.968019 
L 133.569388 596.706066 
L 140.692793 596.495047 
L 147.816197 596.371346 
L 154.939601 596.189434 
L 162.063005 596.102116 
L 169.18641 596.022075 
L 176.309814 595.978415 
L 183.433218 595.94931 
L 190.556622 595.869268 
L 197.680027 595.840162 
L 204.803431 595.78195 
L 211.926835 595.621867 
L 219.050239 595.097959 
L 226.173644 594.05742 
L 233.297048 592.354718 
L 240.420452 589.618755 
L 247.543856 588.032478 
L 254.667261 586.780919 
L 261.790665 585.74038 
L 268.914069 585.30379 
L 276.037473 584.918135 
L 283.160878 584.568864 
L 290.284282 584.248697 
L 297.407686 583.986743 
L 304.53109 583.470112 
L 311.654495 582.946204 
L 318.777899 582.342254 
L 325.901303 581.774688 
L 333.024707 581.185291 
L 340.148112 580.450364 
L 347.271516 579.810033 
L 354.39492 579.19153 
L 361.518324 578.485709 
L 368.641729 577.88176 
L 375.765133 577.314193 
L 382.888537 576.768455 
L 390.011941 576.018976 
L 397.135346 575.204008 
L 404.25875 574.53457 
" clip-path="url(#p6ba396b240)" style="fill: none; stroke: #808080; stroke-width: 1.5; stroke-linecap: square"/>
   </g>
   <g id="line2d_103">
    <path d="M 69.45875 599.757679 
L 76.582154 599.545176 
L 83.705559 599.377496 
L 90.828963 598.682915 
L 97.952367 597.561367 
L 105.075771 595.615576 
L 112.199176 593.278591 
L 119.32258 590.049365 
L 126.445984 587.182989 
L 133.569388 585.809427 
L 140.692793 584.020934 
L 147.816197 582.90434 
L 154.939601 581.238672 
L 162.063005 580.108642 
L 169.18641 579.208759 
L 176.309814 578.426022 
L 183.433218 578.426022 
L 190.556622 577.751073 
L 197.680027 577.402396 
L 204.803431 577.402396 
L 211.926835 576.29362 
L 219.050239 573.011657 
L 226.173644 566.186944 
L 233.297048 556.960116 
L 240.420452 541.370965 
L 247.543856 533.79997 
L 254.667261 523.761507 
L 261.790665 515.933718 
L 268.914069 513.184951 
L 276.037473 511.366505 
L 283.160878 509.270968 
L 290.284282 506.011213 
L 297.407686 504.671916 
L 304.53109 500.280803 
L 311.654495 496.506147 
L 318.777899 490.735651 
L 325.901303 486.160388 
L 333.024707 482.981128 
L 340.148112 477.947315 
L 347.271516 474.099657 
L 354.39492 470.410253 
L 361.518324 466.879936 
L 368.641729 461.54712 
L 375.765133 458.387923 
L 382.888537 458.090087 
L 390.011941 454.313361 
L 397.135346 449.080254 
L 404.25875 445.355633 
" clip-path="url(#p6ba396b240)" style="fill: none; stroke: #000000; stroke-width: 1.5; stroke-linecap: square"/>
   </g>
   <g id="patch_9">
    <path d="M 52.71875 599.965937 
L 52.71875 418.053437 
" style="fill: none; stroke: #000000; stroke-width: 0.8; stroke-linejoin: miter; stroke-linecap: square"/>
   </g>
   <g id="patch_10">
    <path d="M 52.71875 599.965937 
L 420.99875 599.965937 
" style="fill: none; stroke: #000000; stroke-width: 0.8; stroke-linejoin: miter; stroke-linecap: square"/>
   </g>
   <g id="text_54">
    <!-- c -->
    <g transform="translate(49.814451 415.765781) scale(0.11 -0.11)">
     <defs>
      <path id="DejaVuSans-Bold-63" d="M 3366 3391 
L 3366 2478 
Q 3138 2634 2908 2709 
Q 2678 2784 2431 2784 
Q 1963 2784 1702 2511 
Q 1441 2238 1441 1747 
Q 1441 1256 1702 982 
Q 1963 709 2431 709 
Q 2694 709 2930 787 
Q 3166 866 3366 1019 
L 3366 103 
Q 3103 6 2833 -42 
Q 2563 -91 2291 -91 
Q 1344 -91 809 395 
Q 275 881 275 1747 
Q 275 2613 809 3098 
Q 1344 3584 2291 3584 
Q 2566 3584 2833 3536 
Q 3100 3488 3366 3391 
z
" transform="scale(0.015625)"/>
     </defs>
     <use xlink:href="#DejaVuSans-Bold-63"/>
    </g>
   </g>
   <g id="legend_3">
    <g id="line2d_104">
     <path d="M 73.6109 429.842031 
L 82.6109 429.842031 
L 91.6109 429.842031 
" style="fill: none; stroke: #808080; stroke-width: 1.5; stroke-linecap: square"/>
    </g>
    <g id="text_55">
     <!-- actual -->
     <g transform="translate(98.8109 432.992031) scale(0.09 -0.09)">
      <use xlink:href="#DejaVuSans-61"/>
      <use xlink:href="#DejaVuSans-63" x="61.279297"/>
      <use xlink:href="#DejaVuSans-74" x="116.259766"/>
      <use xlink:href="#DejaVuSans-75" x="155.46875"/>
      <use xlink:href="#DejaVuSans-61" x="218.847656"/>
      <use xlink:href="#DejaVuSans-6c" x="280.126953"/>
     </g>
    </g>
    <g id="line2d_105">
     <path d="M 73.6109 443.052344 
L 82.6109 443.052344 
L 91.6109 443.052344 
" style="fill: none; stroke: #000000; stroke-width: 1.5; stroke-linecap: square"/>
    </g>
    <g id="text_56">
     <!-- scenario III -->
     <g transform="translate(98.8109 446.202344) scale(0.09 -0.09)">
      <use xlink:href="#DejaVuSans-73"/>
      <use xlink:href="#DejaVuSans-63" x="52.099609"/>
      <use xlink:href="#DejaVuSans-65" x="107.080078"/>
      <use xlink:href="#DejaVuSans-6e" x="168.603516"/>
      <use xlink:href="#DejaVuSans-61" x="231.982422"/>
      <use xlink:href="#DejaVuSans-72" x="293.261719"/>
      <use xlink:href="#DejaVuSans-69" x="334.375"/>
      <use xlink:href="#DejaVuSans-6f" x="362.158203"/>
      <use xlink:href="#DejaVuSans-20" x="423.339844"/>
      <use xlink:href="#DejaVuSans-49" x="455.126953"/>
      <use xlink:href="#DejaVuSans-49" x="484.619141"/>
      <use xlink:href="#DejaVuSans-49" x="514.111328"/>
     </g>
    </g>
   </g>
  </g>
 </g>
 <defs>
  <clipPath id="p16084b49a8">
   <rect x="52.71875" y="17.845937" width="368.28" height="181.9125"/>
  </clipPath>
  <clipPath id="peea35bab62">
   <rect x="52.71875" y="217.949688" width="368.28" height="181.9125"/>
  </clipPath>
  <clipPath id="p6ba396b240">
   <rect x="52.71875" y="418.053437" width="368.28" height="181.9125"/>
  </clipPath>
 </defs>
</svg>
