<?xml version="1.0" encoding="utf-8" standalone="no"?>
<!DOCTYPE svg PUBLIC "-//W3C//DTD SVG 1.1//EN"
  "http://www.w3.org/Graphics/SVG/1.1/DTD/svg11.dtd">
<svg xmlns:xlink="http://www.w3.org/1999/xlink" width="556.379062pt" height="417.514563pt" viewBox="0 0 556.379062 417.514563" xmlns="http://www.w3.org/2000/svg" version="1.1">
 <metadata>
  <rdf:RDF xmlns:dc="http://purl.org/dc/elements/1.1/" xmlns:cc="http://creativecommons.org/ns#" xmlns:rdf="http://www.w3.org/1999/02/22-rdf-syntax-ns#">
   <cc:Work>
    <dc:type rdf:resource="http://purl.org/dc/dcmitype/StillImage"/>
    <dc:date>2024-02-02T13:44:07.951338</dc:date>
    <dc:format>image/svg+xml</dc:format>
    <dc:creator>
     <cc:Agent>
      <dc:title>Matplotlib v3.6.3, https://matplotlib.org/</dc:title>
     </cc:Agent>
    </dc:creator>
   </cc:Work>
  </rdf:RDF>
 </metadata>
 <defs>
  <style type="text/css">*{stroke-linejoin: round; stroke-linecap: butt}</style>
 </defs>
 <g id="figure_1">
  <g id="patch_1">
   <path d="M 0 417.514563 
L 556.379062 417.514563 
L 556.379062 0 
L 0 0 
z
" style="fill: #ffffff"/>
  </g>
  <g id="axes_1">
   <g id="patch_2">
    <path d="M 46.979063 343.449258 
L 549.179063 343.449258 
L 549.179063 10.809258 
L 46.979063 10.809258 
z
" style="fill: #ffffff"/>
   </g>
   <g id="PolyCollection_1">
    <defs>
     <path id="mff18d86f35" d="M 69.806335 -106.517989 
L 69.806335 -96.782184 
L 79.520068 -84.612428 
L 89.233801 -87.857696 
L 98.947534 -91.914281 
L 108.661268 -87.046379 
L 118.375001 -87.046379 
L 128.088734 -87.046379 
L 137.802467 -91.914281 
L 147.5162 -92.725598 
L 157.229933 -91.914281 
L 166.943666 -88.669013 
L 176.657399 -87.046379 
L 186.371132 -89.48033 
L 196.084865 -85.423745 
L 205.798598 -85.423745 
L 215.512331 -84.612428 
L 225.226064 -82.178476 
L 234.939798 -86.235062 
L 244.653531 -82.989793 
L 254.367264 -85.423745 
L 264.080997 -92.725598 
L 273.79473 -130.046184 
L 283.508463 -178.725208 
L 293.222196 -246.875842 
L 302.935929 -353.158379 
L 312.649662 -239.573989 
L 322.363395 -199.819452 
L 332.077128 -183.593111 
L 341.790861 -121.933013 
L 351.504594 -115.442476 
L 361.218327 -113.819842 
L 370.932061 -108.140623 
L 380.645794 -104.895354 
L 390.359527 -128.42355 
L 400.07326 -127.612233 
L 409.786993 -137.348037 
L 419.500726 -129.234867 
L 429.214459 -135.725403 
L 438.928192 -150.329111 
L 448.641925 -142.21594 
L 458.355658 -141.404623 
L 468.069391 -150.329111 
L 477.783124 -147.083842 
L 487.496857 -137.348037 
L 497.210591 -133.291452 
L 506.924324 -157.630964 
L 516.638057 -169.80072 
L 526.35179 -148.706476 
L 526.35179 -168.989403 
L 526.35179 -168.989403 
L 516.638057 -192.517598 
L 506.924324 -178.725208 
L 497.210591 -151.140428 
L 487.496857 -155.197013 
L 477.783124 -166.555452 
L 468.069391 -171.423354 
L 458.355658 -160.064915 
L 448.641925 -161.68755 
L 438.928192 -170.612037 
L 429.214459 -154.385696 
L 419.500726 -147.083842 
L 409.786993 -156.00833 
L 400.07326 -144.649891 
L 390.359527 -145.461208 
L 380.645794 -117.065111 
L 370.932061 -121.933013 
L 361.218327 -127.612233 
L 351.504594 -130.046184 
L 341.790861 -138.159354 
L 332.077128 -207.932623 
L 322.363395 -225.781598 
L 312.649662 -270.404037 
L 302.935929 -392.912915 
L 293.222196 -277.705891 
L 283.508463 -202.253403 
L 273.79473 -147.083842 
L 264.080997 -101.650086 
L 254.367264 -91.102964 
L 244.653531 -87.046379 
L 234.939798 -92.725598 
L 225.226064 -83.801111 
L 215.512331 -89.48033 
L 205.798598 -91.102964 
L 196.084865 -91.102964 
L 186.371132 -97.593501 
L 176.657399 -93.536915 
L 166.943666 -95.970867 
L 157.229933 -100.838769 
L 147.5162 -101.650086 
L 137.802467 -100.838769 
L 128.088734 -93.536915 
L 118.375001 -93.536915 
L 108.661268 -94.348233 
L 98.947534 -100.027452 
L 89.233801 -95.15955 
L 79.520068 -90.291647 
L 69.806335 -106.517989 
z
" style="stroke: #808080; stroke-opacity: 0.5"/>
    </defs>
    <g clip-path="url(#pcb42a8c9eb)">
     <use xlink:href="#mff18d86f35" x="0" y="417.514563" style="fill: #808080; fill-opacity: 0.5; stroke: #808080; stroke-opacity: 0.5"/>
    </g>
   </g>
   <g id="matplotlib.axis_1">
    <g id="xtick_1">
     <g id="line2d_1">
      <defs>
       <path id="m3420c91639" d="M 0 0 
L 0 3.5 
" style="stroke: #000000; stroke-width: 0.8"/>
      </defs>
      <g>
       <use xlink:href="#m3420c91639" x="69.806335" y="343.449258" style="stroke: #000000; stroke-width: 0.8"/>
      </g>
     </g>
     <g id="text_1">
      <!-- 2021/8/14 -->
      <g transform="translate(54.437922 389.997574) rotate(-45) scale(0.095 -0.095)">
       <defs>
        <path id="DejaVuSans-32" d="M 1228 531 
L 3431 531 
L 3431 0 
L 469 0 
L 469 531 
Q 828 903 1448 1529 
Q 2069 2156 2228 2338 
Q 2531 2678 2651 2914 
Q 2772 3150 2772 3378 
Q 2772 3750 2511 3984 
Q 2250 4219 1831 4219 
Q 1534 4219 1204 4116 
Q 875 4013 500 3803 
L 500 4441 
Q 881 4594 1212 4672 
Q 1544 4750 1819 4750 
Q 2544 4750 2975 4387 
Q 3406 4025 3406 3419 
Q 3406 3131 3298 2873 
Q 3191 2616 2906 2266 
Q 2828 2175 2409 1742 
Q 1991 1309 1228 531 
z
" transform="scale(0.015625)"/>
        <path id="DejaVuSans-30" d="M 2034 4250 
Q 1547 4250 1301 3770 
Q 1056 3291 1056 2328 
Q 1056 1369 1301 889 
Q 1547 409 2034 409 
Q 2525 409 2770 889 
Q 3016 1369 3016 2328 
Q 3016 3291 2770 3770 
Q 2525 4250 2034 4250 
z
M 2034 4750 
Q 2819 4750 3233 4129 
Q 3647 3509 3647 2328 
Q 3647 1150 3233 529 
Q 2819 -91 2034 -91 
Q 1250 -91 836 529 
Q 422 1150 422 2328 
Q 422 3509 836 4129 
Q 1250 4750 2034 4750 
z
" transform="scale(0.015625)"/>
        <path id="DejaVuSans-31" d="M 794 531 
L 1825 531 
L 1825 4091 
L 703 3866 
L 703 4441 
L 1819 4666 
L 2450 4666 
L 2450 531 
L 3481 531 
L 3481 0 
L 794 0 
L 794 531 
z
" transform="scale(0.015625)"/>
        <path id="DejaVuSans-2f" d="M 1625 4666 
L 2156 4666 
L 531 -594 
L 0 -594 
L 1625 4666 
z
" transform="scale(0.015625)"/>
        <path id="DejaVuSans-38" d="M 2034 2216 
Q 1584 2216 1326 1975 
Q 1069 1734 1069 1313 
Q 1069 891 1326 650 
Q 1584 409 2034 409 
Q 2484 409 2743 651 
Q 3003 894 3003 1313 
Q 3003 1734 2745 1975 
Q 2488 2216 2034 2216 
z
M 1403 2484 
Q 997 2584 770 2862 
Q 544 3141 544 3541 
Q 544 4100 942 4425 
Q 1341 4750 2034 4750 
Q 2731 4750 3128 4425 
Q 3525 4100 3525 3541 
Q 3525 3141 3298 2862 
Q 3072 2584 2669 2484 
Q 3125 2378 3379 2068 
Q 3634 1759 3634 1313 
Q 3634 634 3220 271 
Q 2806 -91 2034 -91 
Q 1263 -91 848 271 
Q 434 634 434 1313 
Q 434 1759 690 2068 
Q 947 2378 1403 2484 
z
M 1172 3481 
Q 1172 3119 1398 2916 
Q 1625 2713 2034 2713 
Q 2441 2713 2670 2916 
Q 2900 3119 2900 3481 
Q 2900 3844 2670 4047 
Q 2441 4250 2034 4250 
Q 1625 4250 1398 4047 
Q 1172 3844 1172 3481 
z
" transform="scale(0.015625)"/>
        <path id="DejaVuSans-34" d="M 2419 4116 
L 825 1625 
L 2419 1625 
L 2419 4116 
z
M 2253 4666 
L 3047 4666 
L 3047 1625 
L 3713 1625 
L 3713 1100 
L 3047 1100 
L 3047 0 
L 2419 0 
L 2419 1100 
L 313 1100 
L 313 1709 
L 2253 4666 
z
" transform="scale(0.015625)"/>
       </defs>
       <use xlink:href="#DejaVuSans-32"/>
       <use xlink:href="#DejaVuSans-30" x="63.623047"/>
       <use xlink:href="#DejaVuSans-32" x="127.246094"/>
       <use xlink:href="#DejaVuSans-31" x="190.869141"/>
       <use xlink:href="#DejaVuSans-2f" x="254.492188"/>
       <use xlink:href="#DejaVuSans-38" x="288.183594"/>
       <use xlink:href="#DejaVuSans-2f" x="351.806641"/>
       <use xlink:href="#DejaVuSans-31" x="385.498047"/>
       <use xlink:href="#DejaVuSans-34" x="449.121094"/>
      </g>
     </g>
    </g>
    <g id="xtick_2">
     <g id="line2d_2">
      <g>
       <use xlink:href="#m3420c91639" x="89.233801" y="343.449258" style="stroke: #000000; stroke-width: 0.8"/>
      </g>
     </g>
     <g id="text_2">
      <!-- 2021/8/28 -->
      <g transform="translate(73.865388 389.997574) rotate(-45) scale(0.095 -0.095)">
       <use xlink:href="#DejaVuSans-32"/>
       <use xlink:href="#DejaVuSans-30" x="63.623047"/>
       <use xlink:href="#DejaVuSans-32" x="127.246094"/>
       <use xlink:href="#DejaVuSans-31" x="190.869141"/>
       <use xlink:href="#DejaVuSans-2f" x="254.492188"/>
       <use xlink:href="#DejaVuSans-38" x="288.183594"/>
       <use xlink:href="#DejaVuSans-2f" x="351.806641"/>
       <use xlink:href="#DejaVuSans-32" x="385.498047"/>
       <use xlink:href="#DejaVuSans-38" x="449.121094"/>
      </g>
     </g>
    </g>
    <g id="xtick_3">
     <g id="line2d_3">
      <g>
       <use xlink:href="#m3420c91639" x="108.661268" y="343.449258" style="stroke: #000000; stroke-width: 0.8"/>
      </g>
     </g>
     <g id="text_3">
      <!-- 2021/9/11 -->
      <g transform="translate(93.292854 389.997574) rotate(-45) scale(0.095 -0.095)">
       <defs>
        <path id="DejaVuSans-39" d="M 703 97 
L 703 672 
Q 941 559 1184 500 
Q 1428 441 1663 441 
Q 2288 441 2617 861 
Q 2947 1281 2994 2138 
Q 2813 1869 2534 1725 
Q 2256 1581 1919 1581 
Q 1219 1581 811 2004 
Q 403 2428 403 3163 
Q 403 3881 828 4315 
Q 1253 4750 1959 4750 
Q 2769 4750 3195 4129 
Q 3622 3509 3622 2328 
Q 3622 1225 3098 567 
Q 2575 -91 1691 -91 
Q 1453 -91 1209 -44 
Q 966 3 703 97 
z
M 1959 2075 
Q 2384 2075 2632 2365 
Q 2881 2656 2881 3163 
Q 2881 3666 2632 3958 
Q 2384 4250 1959 4250 
Q 1534 4250 1286 3958 
Q 1038 3666 1038 3163 
Q 1038 2656 1286 2365 
Q 1534 2075 1959 2075 
z
" transform="scale(0.015625)"/>
       </defs>
       <use xlink:href="#DejaVuSans-32"/>
       <use xlink:href="#DejaVuSans-30" x="63.623047"/>
       <use xlink:href="#DejaVuSans-32" x="127.246094"/>
       <use xlink:href="#DejaVuSans-31" x="190.869141"/>
       <use xlink:href="#DejaVuSans-2f" x="254.492188"/>
       <use xlink:href="#DejaVuSans-39" x="288.183594"/>
       <use xlink:href="#DejaVuSans-2f" x="351.806641"/>
       <use xlink:href="#DejaVuSans-31" x="385.498047"/>
       <use xlink:href="#DejaVuSans-31" x="449.121094"/>
      </g>
     </g>
    </g>
    <g id="xtick_4">
     <g id="line2d_4">
      <g>
       <use xlink:href="#m3420c91639" x="128.088734" y="343.449258" style="stroke: #000000; stroke-width: 0.8"/>
      </g>
     </g>
     <g id="text_4">
      <!-- 2021/9/25 -->
      <g transform="translate(112.72032 389.997574) rotate(-45) scale(0.095 -0.095)">
       <defs>
        <path id="DejaVuSans-35" d="M 691 4666 
L 3169 4666 
L 3169 4134 
L 1269 4134 
L 1269 2991 
Q 1406 3038 1543 3061 
Q 1681 3084 1819 3084 
Q 2600 3084 3056 2656 
Q 3513 2228 3513 1497 
Q 3513 744 3044 326 
Q 2575 -91 1722 -91 
Q 1428 -91 1123 -41 
Q 819 9 494 109 
L 494 744 
Q 775 591 1075 516 
Q 1375 441 1709 441 
Q 2250 441 2565 725 
Q 2881 1009 2881 1497 
Q 2881 1984 2565 2268 
Q 2250 2553 1709 2553 
Q 1456 2553 1204 2497 
Q 953 2441 691 2322 
L 691 4666 
z
" transform="scale(0.015625)"/>
       </defs>
       <use xlink:href="#DejaVuSans-32"/>
       <use xlink:href="#DejaVuSans-30" x="63.623047"/>
       <use xlink:href="#DejaVuSans-32" x="127.246094"/>
       <use xlink:href="#DejaVuSans-31" x="190.869141"/>
       <use xlink:href="#DejaVuSans-2f" x="254.492188"/>
       <use xlink:href="#DejaVuSans-39" x="288.183594"/>
       <use xlink:href="#DejaVuSans-2f" x="351.806641"/>
       <use xlink:href="#DejaVuSans-32" x="385.498047"/>
       <use xlink:href="#DejaVuSans-35" x="449.121094"/>
      </g>
     </g>
    </g>
    <g id="xtick_5">
     <g id="line2d_5">
      <g>
       <use xlink:href="#m3420c91639" x="147.5162" y="343.449258" style="stroke: #000000; stroke-width: 0.8"/>
      </g>
     </g>
     <g id="text_5">
      <!-- 2021/10/9 -->
      <g transform="translate(132.147786 389.997574) rotate(-45) scale(0.095 -0.095)">
       <use xlink:href="#DejaVuSans-32"/>
       <use xlink:href="#DejaVuSans-30" x="63.623047"/>
       <use xlink:href="#DejaVuSans-32" x="127.246094"/>
       <use xlink:href="#DejaVuSans-31" x="190.869141"/>
       <use xlink:href="#DejaVuSans-2f" x="254.492188"/>
       <use xlink:href="#DejaVuSans-31" x="288.183594"/>
       <use xlink:href="#DejaVuSans-30" x="351.806641"/>
       <use xlink:href="#DejaVuSans-2f" x="415.429688"/>
       <use xlink:href="#DejaVuSans-39" x="449.121094"/>
      </g>
     </g>
    </g>
    <g id="xtick_6">
     <g id="line2d_6">
      <g>
       <use xlink:href="#m3420c91639" x="166.943666" y="343.449258" style="stroke: #000000; stroke-width: 0.8"/>
      </g>
     </g>
     <g id="text_6">
      <!-- 2021/10/23 -->
      <g transform="translate(149.438243 394.271593) rotate(-45) scale(0.095 -0.095)">
       <defs>
        <path id="DejaVuSans-33" d="M 2597 2516 
Q 3050 2419 3304 2112 
Q 3559 1806 3559 1356 
Q 3559 666 3084 287 
Q 2609 -91 1734 -91 
Q 1441 -91 1130 -33 
Q 819 25 488 141 
L 488 750 
Q 750 597 1062 519 
Q 1375 441 1716 441 
Q 2309 441 2620 675 
Q 2931 909 2931 1356 
Q 2931 1769 2642 2001 
Q 2353 2234 1838 2234 
L 1294 2234 
L 1294 2753 
L 1863 2753 
Q 2328 2753 2575 2939 
Q 2822 3125 2822 3475 
Q 2822 3834 2567 4026 
Q 2313 4219 1838 4219 
Q 1578 4219 1281 4162 
Q 984 4106 628 3988 
L 628 4550 
Q 988 4650 1302 4700 
Q 1616 4750 1894 4750 
Q 2613 4750 3031 4423 
Q 3450 4097 3450 3541 
Q 3450 3153 3228 2886 
Q 3006 2619 2597 2516 
z
" transform="scale(0.015625)"/>
       </defs>
       <use xlink:href="#DejaVuSans-32"/>
       <use xlink:href="#DejaVuSans-30" x="63.623047"/>
       <use xlink:href="#DejaVuSans-32" x="127.246094"/>
       <use xlink:href="#DejaVuSans-31" x="190.869141"/>
       <use xlink:href="#DejaVuSans-2f" x="254.492188"/>
       <use xlink:href="#DejaVuSans-31" x="288.183594"/>
       <use xlink:href="#DejaVuSans-30" x="351.806641"/>
       <use xlink:href="#DejaVuSans-2f" x="415.429688"/>
       <use xlink:href="#DejaVuSans-32" x="449.121094"/>
       <use xlink:href="#DejaVuSans-33" x="512.744141"/>
      </g>
     </g>
    </g>
    <g id="xtick_7">
     <g id="line2d_7">
      <g>
       <use xlink:href="#m3420c91639" x="186.371132" y="343.449258" style="stroke: #000000; stroke-width: 0.8"/>
      </g>
     </g>
     <g id="text_7">
      <!-- 2021/11/6 -->
      <g transform="translate(171.002719 389.997574) rotate(-45) scale(0.095 -0.095)">
       <defs>
        <path id="DejaVuSans-36" d="M 2113 2584 
Q 1688 2584 1439 2293 
Q 1191 2003 1191 1497 
Q 1191 994 1439 701 
Q 1688 409 2113 409 
Q 2538 409 2786 701 
Q 3034 994 3034 1497 
Q 3034 2003 2786 2293 
Q 2538 2584 2113 2584 
z
M 3366 4563 
L 3366 3988 
Q 3128 4100 2886 4159 
Q 2644 4219 2406 4219 
Q 1781 4219 1451 3797 
Q 1122 3375 1075 2522 
Q 1259 2794 1537 2939 
Q 1816 3084 2150 3084 
Q 2853 3084 3261 2657 
Q 3669 2231 3669 1497 
Q 3669 778 3244 343 
Q 2819 -91 2113 -91 
Q 1303 -91 875 529 
Q 447 1150 447 2328 
Q 447 3434 972 4092 
Q 1497 4750 2381 4750 
Q 2619 4750 2861 4703 
Q 3103 4656 3366 4563 
z
" transform="scale(0.015625)"/>
       </defs>
       <use xlink:href="#DejaVuSans-32"/>
       <use xlink:href="#DejaVuSans-30" x="63.623047"/>
       <use xlink:href="#DejaVuSans-32" x="127.246094"/>
       <use xlink:href="#DejaVuSans-31" x="190.869141"/>
       <use xlink:href="#DejaVuSans-2f" x="254.492188"/>
       <use xlink:href="#DejaVuSans-31" x="288.183594"/>
       <use xlink:href="#DejaVuSans-31" x="351.806641"/>
       <use xlink:href="#DejaVuSans-2f" x="415.429688"/>
       <use xlink:href="#DejaVuSans-36" x="449.121094"/>
      </g>
     </g>
    </g>
    <g id="xtick_8">
     <g id="line2d_8">
      <g>
       <use xlink:href="#m3420c91639" x="205.798598" y="343.449258" style="stroke: #000000; stroke-width: 0.8"/>
      </g>
     </g>
     <g id="text_8">
      <!-- 2021/11/20 -->
      <g transform="translate(188.293176 394.271593) rotate(-45) scale(0.095 -0.095)">
       <use xlink:href="#DejaVuSans-32"/>
       <use xlink:href="#DejaVuSans-30" x="63.623047"/>
       <use xlink:href="#DejaVuSans-32" x="127.246094"/>
       <use xlink:href="#DejaVuSans-31" x="190.869141"/>
       <use xlink:href="#DejaVuSans-2f" x="254.492188"/>
       <use xlink:href="#DejaVuSans-31" x="288.183594"/>
       <use xlink:href="#DejaVuSans-31" x="351.806641"/>
       <use xlink:href="#DejaVuSans-2f" x="415.429688"/>
       <use xlink:href="#DejaVuSans-32" x="449.121094"/>
       <use xlink:href="#DejaVuSans-30" x="512.744141"/>
      </g>
     </g>
    </g>
    <g id="xtick_9">
     <g id="line2d_9">
      <g>
       <use xlink:href="#m3420c91639" x="225.226064" y="343.449258" style="stroke: #000000; stroke-width: 0.8"/>
      </g>
     </g>
     <g id="text_9">
      <!-- 2021/12/4 -->
      <g transform="translate(209.857651 389.997574) rotate(-45) scale(0.095 -0.095)">
       <use xlink:href="#DejaVuSans-32"/>
       <use xlink:href="#DejaVuSans-30" x="63.623047"/>
       <use xlink:href="#DejaVuSans-32" x="127.246094"/>
       <use xlink:href="#DejaVuSans-31" x="190.869141"/>
       <use xlink:href="#DejaVuSans-2f" x="254.492188"/>
       <use xlink:href="#DejaVuSans-31" x="288.183594"/>
       <use xlink:href="#DejaVuSans-32" x="351.806641"/>
       <use xlink:href="#DejaVuSans-2f" x="415.429688"/>
       <use xlink:href="#DejaVuSans-34" x="449.121094"/>
      </g>
     </g>
    </g>
    <g id="xtick_10">
     <g id="line2d_10">
      <g>
       <use xlink:href="#m3420c91639" x="244.653531" y="343.449258" style="stroke: #000000; stroke-width: 0.8"/>
      </g>
     </g>
     <g id="text_10">
      <!-- 2021/12/18 -->
      <g transform="translate(227.148108 394.271593) rotate(-45) scale(0.095 -0.095)">
       <use xlink:href="#DejaVuSans-32"/>
       <use xlink:href="#DejaVuSans-30" x="63.623047"/>
       <use xlink:href="#DejaVuSans-32" x="127.246094"/>
       <use xlink:href="#DejaVuSans-31" x="190.869141"/>
       <use xlink:href="#DejaVuSans-2f" x="254.492188"/>
       <use xlink:href="#DejaVuSans-31" x="288.183594"/>
       <use xlink:href="#DejaVuSans-32" x="351.806641"/>
       <use xlink:href="#DejaVuSans-2f" x="415.429688"/>
       <use xlink:href="#DejaVuSans-31" x="449.121094"/>
       <use xlink:href="#DejaVuSans-38" x="512.744141"/>
      </g>
     </g>
    </g>
    <g id="xtick_11">
     <g id="line2d_11">
      <g>
       <use xlink:href="#m3420c91639" x="264.080997" y="343.449258" style="stroke: #000000; stroke-width: 0.8"/>
      </g>
     </g>
     <g id="text_11">
      <!-- 2022/1/1 -->
      <g transform="translate(250.849593 385.723556) rotate(-45) scale(0.095 -0.095)">
       <use xlink:href="#DejaVuSans-32"/>
       <use xlink:href="#DejaVuSans-30" x="63.623047"/>
       <use xlink:href="#DejaVuSans-32" x="127.246094"/>
       <use xlink:href="#DejaVuSans-32" x="190.869141"/>
       <use xlink:href="#DejaVuSans-2f" x="254.492188"/>
       <use xlink:href="#DejaVuSans-31" x="288.183594"/>
       <use xlink:href="#DejaVuSans-2f" x="351.806641"/>
       <use xlink:href="#DejaVuSans-31" x="385.498047"/>
      </g>
     </g>
    </g>
    <g id="xtick_12">
     <g id="line2d_12">
      <g>
       <use xlink:href="#m3420c91639" x="283.508463" y="343.449258" style="stroke: #000000; stroke-width: 0.8"/>
      </g>
     </g>
     <g id="text_12">
      <!-- 2022/1/15 -->
      <g transform="translate(268.140049 389.997574) rotate(-45) scale(0.095 -0.095)">
       <use xlink:href="#DejaVuSans-32"/>
       <use xlink:href="#DejaVuSans-30" x="63.623047"/>
       <use xlink:href="#DejaVuSans-32" x="127.246094"/>
       <use xlink:href="#DejaVuSans-32" x="190.869141"/>
       <use xlink:href="#DejaVuSans-2f" x="254.492188"/>
       <use xlink:href="#DejaVuSans-31" x="288.183594"/>
       <use xlink:href="#DejaVuSans-2f" x="351.806641"/>
       <use xlink:href="#DejaVuSans-31" x="385.498047"/>
       <use xlink:href="#DejaVuSans-35" x="449.121094"/>
      </g>
     </g>
    </g>
    <g id="xtick_13">
     <g id="line2d_13">
      <g>
       <use xlink:href="#m3420c91639" x="302.935929" y="343.449258" style="stroke: #000000; stroke-width: 0.8"/>
      </g>
     </g>
     <g id="text_13">
      <!-- 2022/1/29 -->
      <g transform="translate(287.567516 389.997574) rotate(-45) scale(0.095 -0.095)">
       <use xlink:href="#DejaVuSans-32"/>
       <use xlink:href="#DejaVuSans-30" x="63.623047"/>
       <use xlink:href="#DejaVuSans-32" x="127.246094"/>
       <use xlink:href="#DejaVuSans-32" x="190.869141"/>
       <use xlink:href="#DejaVuSans-2f" x="254.492188"/>
       <use xlink:href="#DejaVuSans-31" x="288.183594"/>
       <use xlink:href="#DejaVuSans-2f" x="351.806641"/>
       <use xlink:href="#DejaVuSans-32" x="385.498047"/>
       <use xlink:href="#DejaVuSans-39" x="449.121094"/>
      </g>
     </g>
    </g>
    <g id="xtick_14">
     <g id="line2d_14">
      <g>
       <use xlink:href="#m3420c91639" x="322.363395" y="343.449258" style="stroke: #000000; stroke-width: 0.8"/>
      </g>
     </g>
     <g id="text_14">
      <!-- 2022/2/12 -->
      <g transform="translate(306.994982 389.997574) rotate(-45) scale(0.095 -0.095)">
       <use xlink:href="#DejaVuSans-32"/>
       <use xlink:href="#DejaVuSans-30" x="63.623047"/>
       <use xlink:href="#DejaVuSans-32" x="127.246094"/>
       <use xlink:href="#DejaVuSans-32" x="190.869141"/>
       <use xlink:href="#DejaVuSans-2f" x="254.492188"/>
       <use xlink:href="#DejaVuSans-32" x="288.183594"/>
       <use xlink:href="#DejaVuSans-2f" x="351.806641"/>
       <use xlink:href="#DejaVuSans-31" x="385.498047"/>
       <use xlink:href="#DejaVuSans-32" x="449.121094"/>
      </g>
     </g>
    </g>
    <g id="xtick_15">
     <g id="line2d_15">
      <g>
       <use xlink:href="#m3420c91639" x="341.790861" y="343.449258" style="stroke: #000000; stroke-width: 0.8"/>
      </g>
     </g>
     <g id="text_15">
      <!-- 2022/2/26 -->
      <g transform="translate(326.422448 389.997574) rotate(-45) scale(0.095 -0.095)">
       <use xlink:href="#DejaVuSans-32"/>
       <use xlink:href="#DejaVuSans-30" x="63.623047"/>
       <use xlink:href="#DejaVuSans-32" x="127.246094"/>
       <use xlink:href="#DejaVuSans-32" x="190.869141"/>
       <use xlink:href="#DejaVuSans-2f" x="254.492188"/>
       <use xlink:href="#DejaVuSans-32" x="288.183594"/>
       <use xlink:href="#DejaVuSans-2f" x="351.806641"/>
       <use xlink:href="#DejaVuSans-32" x="385.498047"/>
       <use xlink:href="#DejaVuSans-36" x="449.121094"/>
      </g>
     </g>
    </g>
    <g id="xtick_16">
     <g id="line2d_16">
      <g>
       <use xlink:href="#m3420c91639" x="361.218327" y="343.449258" style="stroke: #000000; stroke-width: 0.8"/>
      </g>
     </g>
     <g id="text_16">
      <!-- 2022/3/12 -->
      <g transform="translate(345.849914 389.997574) rotate(-45) scale(0.095 -0.095)">
       <use xlink:href="#DejaVuSans-32"/>
       <use xlink:href="#DejaVuSans-30" x="63.623047"/>
       <use xlink:href="#DejaVuSans-32" x="127.246094"/>
       <use xlink:href="#DejaVuSans-32" x="190.869141"/>
       <use xlink:href="#DejaVuSans-2f" x="254.492188"/>
       <use xlink:href="#DejaVuSans-33" x="288.183594"/>
       <use xlink:href="#DejaVuSans-2f" x="351.806641"/>
       <use xlink:href="#DejaVuSans-31" x="385.498047"/>
       <use xlink:href="#DejaVuSans-32" x="449.121094"/>
      </g>
     </g>
    </g>
    <g id="xtick_17">
     <g id="line2d_17">
      <g>
       <use xlink:href="#m3420c91639" x="380.645794" y="343.449258" style="stroke: #000000; stroke-width: 0.8"/>
      </g>
     </g>
     <g id="text_17">
      <!-- 2022/3/26 -->
      <g transform="translate(365.27738 389.997574) rotate(-45) scale(0.095 -0.095)">
       <use xlink:href="#DejaVuSans-32"/>
       <use xlink:href="#DejaVuSans-30" x="63.623047"/>
       <use xlink:href="#DejaVuSans-32" x="127.246094"/>
       <use xlink:href="#DejaVuSans-32" x="190.869141"/>
       <use xlink:href="#DejaVuSans-2f" x="254.492188"/>
       <use xlink:href="#DejaVuSans-33" x="288.183594"/>
       <use xlink:href="#DejaVuSans-2f" x="351.806641"/>
       <use xlink:href="#DejaVuSans-32" x="385.498047"/>
       <use xlink:href="#DejaVuSans-36" x="449.121094"/>
      </g>
     </g>
    </g>
    <g id="xtick_18">
     <g id="line2d_18">
      <g>
       <use xlink:href="#m3420c91639" x="400.07326" y="343.449258" style="stroke: #000000; stroke-width: 0.8"/>
      </g>
     </g>
     <g id="text_18">
      <!-- 2022/4/9 -->
      <g transform="translate(386.841856 385.723556) rotate(-45) scale(0.095 -0.095)">
       <use xlink:href="#DejaVuSans-32"/>
       <use xlink:href="#DejaVuSans-30" x="63.623047"/>
       <use xlink:href="#DejaVuSans-32" x="127.246094"/>
       <use xlink:href="#DejaVuSans-32" x="190.869141"/>
       <use xlink:href="#DejaVuSans-2f" x="254.492188"/>
       <use xlink:href="#DejaVuSans-34" x="288.183594"/>
       <use xlink:href="#DejaVuSans-2f" x="351.806641"/>
       <use xlink:href="#DejaVuSans-39" x="385.498047"/>
      </g>
     </g>
    </g>
    <g id="xtick_19">
     <g id="line2d_19">
      <g>
       <use xlink:href="#m3420c91639" x="419.500726" y="343.449258" style="stroke: #000000; stroke-width: 0.8"/>
      </g>
     </g>
     <g id="text_19">
      <!-- 2022/4/23 -->
      <g transform="translate(404.132312 389.997574) rotate(-45) scale(0.095 -0.095)">
       <use xlink:href="#DejaVuSans-32"/>
       <use xlink:href="#DejaVuSans-30" x="63.623047"/>
       <use xlink:href="#DejaVuSans-32" x="127.246094"/>
       <use xlink:href="#DejaVuSans-32" x="190.869141"/>
       <use xlink:href="#DejaVuSans-2f" x="254.492188"/>
       <use xlink:href="#DejaVuSans-34" x="288.183594"/>
       <use xlink:href="#DejaVuSans-2f" x="351.806641"/>
       <use xlink:href="#DejaVuSans-32" x="385.498047"/>
       <use xlink:href="#DejaVuSans-33" x="449.121094"/>
      </g>
     </g>
    </g>
    <g id="xtick_20">
     <g id="line2d_20">
      <g>
       <use xlink:href="#m3420c91639" x="438.928192" y="343.449258" style="stroke: #000000; stroke-width: 0.8"/>
      </g>
     </g>
     <g id="text_20">
      <!-- 2022/5/7 -->
      <g transform="translate(425.696788 385.723556) rotate(-45) scale(0.095 -0.095)">
       <defs>
        <path id="DejaVuSans-37" d="M 525 4666 
L 3525 4666 
L 3525 4397 
L 1831 0 
L 1172 0 
L 2766 4134 
L 525 4134 
L 525 4666 
z
" transform="scale(0.015625)"/>
       </defs>
       <use xlink:href="#DejaVuSans-32"/>
       <use xlink:href="#DejaVuSans-30" x="63.623047"/>
       <use xlink:href="#DejaVuSans-32" x="127.246094"/>
       <use xlink:href="#DejaVuSans-32" x="190.869141"/>
       <use xlink:href="#DejaVuSans-2f" x="254.492188"/>
       <use xlink:href="#DejaVuSans-35" x="288.183594"/>
       <use xlink:href="#DejaVuSans-2f" x="351.806641"/>
       <use xlink:href="#DejaVuSans-37" x="385.498047"/>
      </g>
     </g>
    </g>
    <g id="xtick_21">
     <g id="line2d_21">
      <g>
       <use xlink:href="#m3420c91639" x="458.355658" y="343.449258" style="stroke: #000000; stroke-width: 0.8"/>
      </g>
     </g>
     <g id="text_21">
      <!-- 2022/5/21 -->
      <g transform="translate(442.987245 389.997574) rotate(-45) scale(0.095 -0.095)">
       <use xlink:href="#DejaVuSans-32"/>
       <use xlink:href="#DejaVuSans-30" x="63.623047"/>
       <use xlink:href="#DejaVuSans-32" x="127.246094"/>
       <use xlink:href="#DejaVuSans-32" x="190.869141"/>
       <use xlink:href="#DejaVuSans-2f" x="254.492188"/>
       <use xlink:href="#DejaVuSans-35" x="288.183594"/>
       <use xlink:href="#DejaVuSans-2f" x="351.806641"/>
       <use xlink:href="#DejaVuSans-32" x="385.498047"/>
       <use xlink:href="#DejaVuSans-31" x="449.121094"/>
      </g>
     </g>
    </g>
    <g id="xtick_22">
     <g id="line2d_22">
      <g>
       <use xlink:href="#m3420c91639" x="477.783124" y="343.449258" style="stroke: #000000; stroke-width: 0.8"/>
      </g>
     </g>
     <g id="text_22">
      <!-- 2022/6/4 -->
      <g transform="translate(464.55172 385.723556) rotate(-45) scale(0.095 -0.095)">
       <use xlink:href="#DejaVuSans-32"/>
       <use xlink:href="#DejaVuSans-30" x="63.623047"/>
       <use xlink:href="#DejaVuSans-32" x="127.246094"/>
       <use xlink:href="#DejaVuSans-32" x="190.869141"/>
       <use xlink:href="#DejaVuSans-2f" x="254.492188"/>
       <use xlink:href="#DejaVuSans-36" x="288.183594"/>
       <use xlink:href="#DejaVuSans-2f" x="351.806641"/>
       <use xlink:href="#DejaVuSans-34" x="385.498047"/>
      </g>
     </g>
    </g>
    <g id="xtick_23">
     <g id="line2d_23">
      <g>
       <use xlink:href="#m3420c91639" x="497.210591" y="343.449258" style="stroke: #000000; stroke-width: 0.8"/>
      </g>
     </g>
     <g id="text_23">
      <!-- 2022/6/18 -->
      <g transform="translate(481.842177 389.997574) rotate(-45) scale(0.095 -0.095)">
       <use xlink:href="#DejaVuSans-32"/>
       <use xlink:href="#DejaVuSans-30" x="63.623047"/>
       <use xlink:href="#DejaVuSans-32" x="127.246094"/>
       <use xlink:href="#DejaVuSans-32" x="190.869141"/>
       <use xlink:href="#DejaVuSans-2f" x="254.492188"/>
       <use xlink:href="#DejaVuSans-36" x="288.183594"/>
       <use xlink:href="#DejaVuSans-2f" x="351.806641"/>
       <use xlink:href="#DejaVuSans-31" x="385.498047"/>
       <use xlink:href="#DejaVuSans-38" x="449.121094"/>
      </g>
     </g>
    </g>
    <g id="xtick_24">
     <g id="line2d_24">
      <g>
       <use xlink:href="#m3420c91639" x="516.638057" y="343.449258" style="stroke: #000000; stroke-width: 0.8"/>
      </g>
     </g>
     <g id="text_24">
      <!-- 2022/7/2 -->
      <g transform="translate(503.406653 385.723556) rotate(-45) scale(0.095 -0.095)">
       <use xlink:href="#DejaVuSans-32"/>
       <use xlink:href="#DejaVuSans-30" x="63.623047"/>
       <use xlink:href="#DejaVuSans-32" x="127.246094"/>
       <use xlink:href="#DejaVuSans-32" x="190.869141"/>
       <use xlink:href="#DejaVuSans-2f" x="254.492188"/>
       <use xlink:href="#DejaVuSans-37" x="288.183594"/>
       <use xlink:href="#DejaVuSans-2f" x="351.806641"/>
       <use xlink:href="#DejaVuSans-32" x="385.498047"/>
      </g>
     </g>
    </g>
    <g id="text_25">
     <!-- Timepoint in 2021–22 (weeks) -->
     <g transform="translate(214.983516 408.026907) scale(0.11 -0.11)">
      <defs>
       <path id="DejaVuSans-54" d="M -19 4666 
L 3928 4666 
L 3928 4134 
L 2272 4134 
L 2272 0 
L 1638 0 
L 1638 4134 
L -19 4134 
L -19 4666 
z
" transform="scale(0.015625)"/>
       <path id="DejaVuSans-69" d="M 603 3500 
L 1178 3500 
L 1178 0 
L 603 0 
L 603 3500 
z
M 603 4863 
L 1178 4863 
L 1178 4134 
L 603 4134 
L 603 4863 
z
" transform="scale(0.015625)"/>
       <path id="DejaVuSans-6d" d="M 3328 2828 
Q 3544 3216 3844 3400 
Q 4144 3584 4550 3584 
Q 5097 3584 5394 3201 
Q 5691 2819 5691 2113 
L 5691 0 
L 5113 0 
L 5113 2094 
Q 5113 2597 4934 2840 
Q 4756 3084 4391 3084 
Q 3944 3084 3684 2787 
Q 3425 2491 3425 1978 
L 3425 0 
L 2847 0 
L 2847 2094 
Q 2847 2600 2669 2842 
Q 2491 3084 2119 3084 
Q 1678 3084 1418 2786 
Q 1159 2488 1159 1978 
L 1159 0 
L 581 0 
L 581 3500 
L 1159 3500 
L 1159 2956 
Q 1356 3278 1631 3431 
Q 1906 3584 2284 3584 
Q 2666 3584 2933 3390 
Q 3200 3197 3328 2828 
z
" transform="scale(0.015625)"/>
       <path id="DejaVuSans-65" d="M 3597 1894 
L 3597 1613 
L 953 1613 
Q 991 1019 1311 708 
Q 1631 397 2203 397 
Q 2534 397 2845 478 
Q 3156 559 3463 722 
L 3463 178 
Q 3153 47 2828 -22 
Q 2503 -91 2169 -91 
Q 1331 -91 842 396 
Q 353 884 353 1716 
Q 353 2575 817 3079 
Q 1281 3584 2069 3584 
Q 2775 3584 3186 3129 
Q 3597 2675 3597 1894 
z
M 3022 2063 
Q 3016 2534 2758 2815 
Q 2500 3097 2075 3097 
Q 1594 3097 1305 2825 
Q 1016 2553 972 2059 
L 3022 2063 
z
" transform="scale(0.015625)"/>
       <path id="DejaVuSans-70" d="M 1159 525 
L 1159 -1331 
L 581 -1331 
L 581 3500 
L 1159 3500 
L 1159 2969 
Q 1341 3281 1617 3432 
Q 1894 3584 2278 3584 
Q 2916 3584 3314 3078 
Q 3713 2572 3713 1747 
Q 3713 922 3314 415 
Q 2916 -91 2278 -91 
Q 1894 -91 1617 61 
Q 1341 213 1159 525 
z
M 3116 1747 
Q 3116 2381 2855 2742 
Q 2594 3103 2138 3103 
Q 1681 3103 1420 2742 
Q 1159 2381 1159 1747 
Q 1159 1113 1420 752 
Q 1681 391 2138 391 
Q 2594 391 2855 752 
Q 3116 1113 3116 1747 
z
" transform="scale(0.015625)"/>
       <path id="DejaVuSans-6f" d="M 1959 3097 
Q 1497 3097 1228 2736 
Q 959 2375 959 1747 
Q 959 1119 1226 758 
Q 1494 397 1959 397 
Q 2419 397 2687 759 
Q 2956 1122 2956 1747 
Q 2956 2369 2687 2733 
Q 2419 3097 1959 3097 
z
M 1959 3584 
Q 2709 3584 3137 3096 
Q 3566 2609 3566 1747 
Q 3566 888 3137 398 
Q 2709 -91 1959 -91 
Q 1206 -91 779 398 
Q 353 888 353 1747 
Q 353 2609 779 3096 
Q 1206 3584 1959 3584 
z
" transform="scale(0.015625)"/>
       <path id="DejaVuSans-6e" d="M 3513 2113 
L 3513 0 
L 2938 0 
L 2938 2094 
Q 2938 2591 2744 2837 
Q 2550 3084 2163 3084 
Q 1697 3084 1428 2787 
Q 1159 2491 1159 1978 
L 1159 0 
L 581 0 
L 581 3500 
L 1159 3500 
L 1159 2956 
Q 1366 3272 1645 3428 
Q 1925 3584 2291 3584 
Q 2894 3584 3203 3211 
Q 3513 2838 3513 2113 
z
" transform="scale(0.015625)"/>
       <path id="DejaVuSans-74" d="M 1172 4494 
L 1172 3500 
L 2356 3500 
L 2356 3053 
L 1172 3053 
L 1172 1153 
Q 1172 725 1289 603 
Q 1406 481 1766 481 
L 2356 481 
L 2356 0 
L 1766 0 
Q 1100 0 847 248 
Q 594 497 594 1153 
L 594 3053 
L 172 3053 
L 172 3500 
L 594 3500 
L 594 4494 
L 1172 4494 
z
" transform="scale(0.015625)"/>
       <path id="DejaVuSans-20" transform="scale(0.015625)"/>
       <path id="DejaVuSans-2013" d="M 313 1978 
L 2888 1978 
L 2888 1528 
L 313 1528 
L 313 1978 
z
" transform="scale(0.015625)"/>
       <path id="DejaVuSans-28" d="M 1984 4856 
Q 1566 4138 1362 3434 
Q 1159 2731 1159 2009 
Q 1159 1288 1364 580 
Q 1569 -128 1984 -844 
L 1484 -844 
Q 1016 -109 783 600 
Q 550 1309 550 2009 
Q 550 2706 781 3412 
Q 1013 4119 1484 4856 
L 1984 4856 
z
" transform="scale(0.015625)"/>
       <path id="DejaVuSans-77" d="M 269 3500 
L 844 3500 
L 1563 769 
L 2278 3500 
L 2956 3500 
L 3675 769 
L 4391 3500 
L 4966 3500 
L 4050 0 
L 3372 0 
L 2619 2869 
L 1863 0 
L 1184 0 
L 269 3500 
z
" transform="scale(0.015625)"/>
       <path id="DejaVuSans-6b" d="M 581 4863 
L 1159 4863 
L 1159 1991 
L 2875 3500 
L 3609 3500 
L 1753 1863 
L 3688 0 
L 2938 0 
L 1159 1709 
L 1159 0 
L 581 0 
L 581 4863 
z
" transform="scale(0.015625)"/>
       <path id="DejaVuSans-73" d="M 2834 3397 
L 2834 2853 
Q 2591 2978 2328 3040 
Q 2066 3103 1784 3103 
Q 1356 3103 1142 2972 
Q 928 2841 928 2578 
Q 928 2378 1081 2264 
Q 1234 2150 1697 2047 
L 1894 2003 
Q 2506 1872 2764 1633 
Q 3022 1394 3022 966 
Q 3022 478 2636 193 
Q 2250 -91 1575 -91 
Q 1294 -91 989 -36 
Q 684 19 347 128 
L 347 722 
Q 666 556 975 473 
Q 1284 391 1588 391 
Q 1994 391 2212 530 
Q 2431 669 2431 922 
Q 2431 1156 2273 1281 
Q 2116 1406 1581 1522 
L 1381 1569 
Q 847 1681 609 1914 
Q 372 2147 372 2553 
Q 372 3047 722 3315 
Q 1072 3584 1716 3584 
Q 2034 3584 2315 3537 
Q 2597 3491 2834 3397 
z
" transform="scale(0.015625)"/>
       <path id="DejaVuSans-29" d="M 513 4856 
L 1013 4856 
Q 1481 4119 1714 3412 
Q 1947 2706 1947 2009 
Q 1947 1309 1714 600 
Q 1481 -109 1013 -844 
L 513 -844 
Q 928 -128 1133 580 
Q 1338 1288 1338 2009 
Q 1338 2731 1133 3434 
Q 928 4138 513 4856 
z
" transform="scale(0.015625)"/>
      </defs>
      <use xlink:href="#DejaVuSans-54"/>
      <use xlink:href="#DejaVuSans-69" x="57.958984"/>
      <use xlink:href="#DejaVuSans-6d" x="85.742188"/>
      <use xlink:href="#DejaVuSans-65" x="183.154297"/>
      <use xlink:href="#DejaVuSans-70" x="244.677734"/>
      <use xlink:href="#DejaVuSans-6f" x="308.154297"/>
      <use xlink:href="#DejaVuSans-69" x="369.335938"/>
      <use xlink:href="#DejaVuSans-6e" x="397.119141"/>
      <use xlink:href="#DejaVuSans-74" x="460.498047"/>
      <use xlink:href="#DejaVuSans-20" x="499.707031"/>
      <use xlink:href="#DejaVuSans-69" x="531.494141"/>
      <use xlink:href="#DejaVuSans-6e" x="559.277344"/>
      <use xlink:href="#DejaVuSans-20" x="622.65625"/>
      <use xlink:href="#DejaVuSans-32" x="654.443359"/>
      <use xlink:href="#DejaVuSans-30" x="718.066406"/>
      <use xlink:href="#DejaVuSans-32" x="781.689453"/>
      <use xlink:href="#DejaVuSans-31" x="845.3125"/>
      <use xlink:href="#DejaVuSans-2013" x="908.935547"/>
      <use xlink:href="#DejaVuSans-32" x="958.935547"/>
      <use xlink:href="#DejaVuSans-32" x="1022.558594"/>
      <use xlink:href="#DejaVuSans-20" x="1086.181641"/>
      <use xlink:href="#DejaVuSans-28" x="1117.96875"/>
      <use xlink:href="#DejaVuSans-77" x="1156.982422"/>
      <use xlink:href="#DejaVuSans-65" x="1238.769531"/>
      <use xlink:href="#DejaVuSans-65" x="1300.292969"/>
      <use xlink:href="#DejaVuSans-6b" x="1361.816406"/>
      <use xlink:href="#DejaVuSans-73" x="1419.726562"/>
      <use xlink:href="#DejaVuSans-29" x="1471.826172"/>
     </g>
    </g>
   </g>
   <g id="matplotlib.axis_2">
    <g id="ytick_1">
     <g id="line2d_25">
      <defs>
       <path id="mc196aeacff" d="M 0 0 
L -3.5 0 
" style="stroke: #000000; stroke-width: 0.8"/>
      </defs>
      <g>
       <use xlink:href="#mc196aeacff" x="46.979063" y="335.336087" style="stroke: #000000; stroke-width: 0.8"/>
      </g>
     </g>
     <g id="text_26">
      <!-- 0 -->
      <g transform="translate(33.934688 338.945345) scale(0.095 -0.095)">
       <use xlink:href="#DejaVuSans-30"/>
      </g>
     </g>
    </g>
    <g id="ytick_2">
     <g id="line2d_26">
      <g>
       <use xlink:href="#mc196aeacff" x="46.979063" y="294.770233" style="stroke: #000000; stroke-width: 0.8"/>
      </g>
     </g>
     <g id="text_27">
      <!-- 50 -->
      <g transform="translate(27.890313 298.379491) scale(0.095 -0.095)">
       <use xlink:href="#DejaVuSans-35"/>
       <use xlink:href="#DejaVuSans-30" x="63.623047"/>
      </g>
     </g>
    </g>
    <g id="ytick_3">
     <g id="line2d_27">
      <g>
       <use xlink:href="#mc196aeacff" x="46.979063" y="254.20438" style="stroke: #000000; stroke-width: 0.8"/>
      </g>
     </g>
     <g id="text_28">
      <!-- 100 -->
      <g transform="translate(21.845938 257.813638) scale(0.095 -0.095)">
       <use xlink:href="#DejaVuSans-31"/>
       <use xlink:href="#DejaVuSans-30" x="63.623047"/>
       <use xlink:href="#DejaVuSans-30" x="127.246094"/>
      </g>
     </g>
    </g>
    <g id="ytick_4">
     <g id="line2d_28">
      <g>
       <use xlink:href="#mc196aeacff" x="46.979063" y="213.638526" style="stroke: #000000; stroke-width: 0.8"/>
      </g>
     </g>
     <g id="text_29">
      <!-- 150 -->
      <g transform="translate(21.845938 217.247784) scale(0.095 -0.095)">
       <use xlink:href="#DejaVuSans-31"/>
       <use xlink:href="#DejaVuSans-35" x="63.623047"/>
       <use xlink:href="#DejaVuSans-30" x="127.246094"/>
      </g>
     </g>
    </g>
    <g id="ytick_5">
     <g id="line2d_29">
      <g>
       <use xlink:href="#mc196aeacff" x="46.979063" y="173.072672" style="stroke: #000000; stroke-width: 0.8"/>
      </g>
     </g>
     <g id="text_30">
      <!-- 200 -->
      <g transform="translate(21.845938 176.68193) scale(0.095 -0.095)">
       <use xlink:href="#DejaVuSans-32"/>
       <use xlink:href="#DejaVuSans-30" x="63.623047"/>
       <use xlink:href="#DejaVuSans-30" x="127.246094"/>
      </g>
     </g>
    </g>
    <g id="ytick_6">
     <g id="line2d_30">
      <g>
       <use xlink:href="#mc196aeacff" x="46.979063" y="132.506819" style="stroke: #000000; stroke-width: 0.8"/>
      </g>
     </g>
     <g id="text_31">
      <!-- 250 -->
      <g transform="translate(21.845938 136.116077) scale(0.095 -0.095)">
       <use xlink:href="#DejaVuSans-32"/>
       <use xlink:href="#DejaVuSans-35" x="63.623047"/>
       <use xlink:href="#DejaVuSans-30" x="127.246094"/>
      </g>
     </g>
    </g>
    <g id="ytick_7">
     <g id="line2d_31">
      <g>
       <use xlink:href="#mc196aeacff" x="46.979063" y="91.940965" style="stroke: #000000; stroke-width: 0.8"/>
      </g>
     </g>
     <g id="text_32">
      <!-- 300 -->
      <g transform="translate(21.845938 95.550223) scale(0.095 -0.095)">
       <use xlink:href="#DejaVuSans-33"/>
       <use xlink:href="#DejaVuSans-30" x="63.623047"/>
       <use xlink:href="#DejaVuSans-30" x="127.246094"/>
      </g>
     </g>
    </g>
    <g id="ytick_8">
     <g id="line2d_32">
      <g>
       <use xlink:href="#mc196aeacff" x="46.979063" y="51.375111" style="stroke: #000000; stroke-width: 0.8"/>
      </g>
     </g>
     <g id="text_33">
      <!-- 350 -->
      <g transform="translate(21.845938 54.984369) scale(0.095 -0.095)">
       <use xlink:href="#DejaVuSans-33"/>
       <use xlink:href="#DejaVuSans-35" x="63.623047"/>
       <use xlink:href="#DejaVuSans-30" x="127.246094"/>
      </g>
     </g>
    </g>
    <g id="ytick_9">
     <g id="line2d_33">
      <g>
       <use xlink:href="#mc196aeacff" x="46.979063" y="10.809258" style="stroke: #000000; stroke-width: 0.8"/>
      </g>
     </g>
     <g id="text_34">
      <!-- 400 -->
      <g transform="translate(21.845938 14.418516) scale(0.095 -0.095)">
       <use xlink:href="#DejaVuSans-34"/>
       <use xlink:href="#DejaVuSans-30" x="63.623047"/>
       <use xlink:href="#DejaVuSans-30" x="127.246094"/>
      </g>
     </g>
    </g>
    <g id="text_35">
     <!-- Weekly COVID-19 Deaths -->
     <g transform="translate(15.558281 246.650117) rotate(-90) scale(0.11 -0.11)">
      <defs>
       <path id="DejaVuSans-57" d="M 213 4666 
L 850 4666 
L 1831 722 
L 2809 4666 
L 3519 4666 
L 4500 722 
L 5478 4666 
L 6119 4666 
L 4947 0 
L 4153 0 
L 3169 4050 
L 2175 0 
L 1381 0 
L 213 4666 
z
" transform="scale(0.015625)"/>
       <path id="DejaVuSans-6c" d="M 603 4863 
L 1178 4863 
L 1178 0 
L 603 0 
L 603 4863 
z
" transform="scale(0.015625)"/>
       <path id="DejaVuSans-79" d="M 2059 -325 
Q 1816 -950 1584 -1140 
Q 1353 -1331 966 -1331 
L 506 -1331 
L 506 -850 
L 844 -850 
Q 1081 -850 1212 -737 
Q 1344 -625 1503 -206 
L 1606 56 
L 191 3500 
L 800 3500 
L 1894 763 
L 2988 3500 
L 3597 3500 
L 2059 -325 
z
" transform="scale(0.015625)"/>
       <path id="DejaVuSans-43" d="M 4122 4306 
L 4122 3641 
Q 3803 3938 3442 4084 
Q 3081 4231 2675 4231 
Q 1875 4231 1450 3742 
Q 1025 3253 1025 2328 
Q 1025 1406 1450 917 
Q 1875 428 2675 428 
Q 3081 428 3442 575 
Q 3803 722 4122 1019 
L 4122 359 
Q 3791 134 3420 21 
Q 3050 -91 2638 -91 
Q 1578 -91 968 557 
Q 359 1206 359 2328 
Q 359 3453 968 4101 
Q 1578 4750 2638 4750 
Q 3056 4750 3426 4639 
Q 3797 4528 4122 4306 
z
" transform="scale(0.015625)"/>
       <path id="DejaVuSans-4f" d="M 2522 4238 
Q 1834 4238 1429 3725 
Q 1025 3213 1025 2328 
Q 1025 1447 1429 934 
Q 1834 422 2522 422 
Q 3209 422 3611 934 
Q 4013 1447 4013 2328 
Q 4013 3213 3611 3725 
Q 3209 4238 2522 4238 
z
M 2522 4750 
Q 3503 4750 4090 4092 
Q 4678 3434 4678 2328 
Q 4678 1225 4090 567 
Q 3503 -91 2522 -91 
Q 1538 -91 948 565 
Q 359 1222 359 2328 
Q 359 3434 948 4092 
Q 1538 4750 2522 4750 
z
" transform="scale(0.015625)"/>
       <path id="DejaVuSans-56" d="M 1831 0 
L 50 4666 
L 709 4666 
L 2188 738 
L 3669 4666 
L 4325 4666 
L 2547 0 
L 1831 0 
z
" transform="scale(0.015625)"/>
       <path id="DejaVuSans-49" d="M 628 4666 
L 1259 4666 
L 1259 0 
L 628 0 
L 628 4666 
z
" transform="scale(0.015625)"/>
       <path id="DejaVuSans-44" d="M 1259 4147 
L 1259 519 
L 2022 519 
Q 2988 519 3436 956 
Q 3884 1394 3884 2338 
Q 3884 3275 3436 3711 
Q 2988 4147 2022 4147 
L 1259 4147 
z
M 628 4666 
L 1925 4666 
Q 3281 4666 3915 4102 
Q 4550 3538 4550 2338 
Q 4550 1131 3912 565 
Q 3275 0 1925 0 
L 628 0 
L 628 4666 
z
" transform="scale(0.015625)"/>
       <path id="DejaVuSans-2d" d="M 313 2009 
L 1997 2009 
L 1997 1497 
L 313 1497 
L 313 2009 
z
" transform="scale(0.015625)"/>
       <path id="DejaVuSans-61" d="M 2194 1759 
Q 1497 1759 1228 1600 
Q 959 1441 959 1056 
Q 959 750 1161 570 
Q 1363 391 1709 391 
Q 2188 391 2477 730 
Q 2766 1069 2766 1631 
L 2766 1759 
L 2194 1759 
z
M 3341 1997 
L 3341 0 
L 2766 0 
L 2766 531 
Q 2569 213 2275 61 
Q 1981 -91 1556 -91 
Q 1019 -91 701 211 
Q 384 513 384 1019 
Q 384 1609 779 1909 
Q 1175 2209 1959 2209 
L 2766 2209 
L 2766 2266 
Q 2766 2663 2505 2880 
Q 2244 3097 1772 3097 
Q 1472 3097 1187 3025 
Q 903 2953 641 2809 
L 641 3341 
Q 956 3463 1253 3523 
Q 1550 3584 1831 3584 
Q 2591 3584 2966 3190 
Q 3341 2797 3341 1997 
z
" transform="scale(0.015625)"/>
       <path id="DejaVuSans-68" d="M 3513 2113 
L 3513 0 
L 2938 0 
L 2938 2094 
Q 2938 2591 2744 2837 
Q 2550 3084 2163 3084 
Q 1697 3084 1428 2787 
Q 1159 2491 1159 1978 
L 1159 0 
L 581 0 
L 581 4863 
L 1159 4863 
L 1159 2956 
Q 1366 3272 1645 3428 
Q 1925 3584 2291 3584 
Q 2894 3584 3203 3211 
Q 3513 2838 3513 2113 
z
" transform="scale(0.015625)"/>
      </defs>
      <use xlink:href="#DejaVuSans-57"/>
      <use xlink:href="#DejaVuSans-65" x="93.001953"/>
      <use xlink:href="#DejaVuSans-65" x="154.525391"/>
      <use xlink:href="#DejaVuSans-6b" x="216.048828"/>
      <use xlink:href="#DejaVuSans-6c" x="273.958984"/>
      <use xlink:href="#DejaVuSans-79" x="301.742188"/>
      <use xlink:href="#DejaVuSans-20" x="360.921875"/>
      <use xlink:href="#DejaVuSans-43" x="392.708984"/>
      <use xlink:href="#DejaVuSans-4f" x="462.533203"/>
      <use xlink:href="#DejaVuSans-56" x="539.494141"/>
      <use xlink:href="#DejaVuSans-49" x="607.902344"/>
      <use xlink:href="#DejaVuSans-44" x="637.394531"/>
      <use xlink:href="#DejaVuSans-2d" x="714.396484"/>
      <use xlink:href="#DejaVuSans-31" x="750.480469"/>
      <use xlink:href="#DejaVuSans-39" x="814.103516"/>
      <use xlink:href="#DejaVuSans-20" x="877.726562"/>
      <use xlink:href="#DejaVuSans-44" x="909.513672"/>
      <use xlink:href="#DejaVuSans-65" x="986.515625"/>
      <use xlink:href="#DejaVuSans-61" x="1048.039062"/>
      <use xlink:href="#DejaVuSans-74" x="1109.318359"/>
      <use xlink:href="#DejaVuSans-68" x="1148.527344"/>
      <use xlink:href="#DejaVuSans-73" x="1211.90625"/>
     </g>
    </g>
   </g>
   <g id="line2d_34">
    <path d="M 69.806335 319.109746 
L 79.520068 317.487111 
L 89.233801 319.921063 
L 98.947534 302.072087 
L 108.661268 298.015502 
L 118.375001 283.411794 
L 128.088734 289.091014 
L 137.802467 272.053355 
L 147.5162 282.600477 
L 157.229933 306.128672 
L 166.943666 311.807892 
L 176.657399 321.543697 
L 186.371132 315.05316 
L 196.084865 325.600282 
L 205.798598 326.411599 
L 215.512331 330.468185 
L 225.226064 332.090819 
L 234.939798 326.411599 
L 244.653531 332.090819 
L 254.367264 328.84555 
L 264.080997 317.487111 
L 273.79473 276.921258 
L 283.508463 219.317746 
L 293.222196 145.487892 
L 302.935929 30.280868 
L 312.649662 158.468965 
L 322.363395 198.223502 
L 332.077128 216.883794 
L 341.790861 286.657063 
L 351.504594 292.336282 
L 361.218327 296.392868 
L 370.932061 299.638136 
L 380.645794 306.128672 
L 390.359527 277.732575 
L 400.07326 276.921258 
L 409.786993 267.99677 
L 419.500726 272.053355 
L 429.214459 269.619404 
L 438.928192 253.393063 
L 448.641925 263.940185 
L 458.355658 266.374136 
L 468.069391 256.638331 
L 477.783124 267.99677 
L 487.496857 272.053355 
L 497.210591 274.487307 
L 506.924324 251.770429 
L 516.638057 244.468575 
L 526.35179 260.694916 
" clip-path="url(#pcb42a8c9eb)" style="fill: none; stroke: #000000; stroke-width: 1.5; stroke-linecap: square"/>
    <defs>
     <path id="m2bbf622745" d="M 0 1.5 
C 0.397805 1.5 0.77937 1.341951 1.06066 1.06066 
C 1.341951 0.77937 1.5 0.397805 1.5 0 
C 1.5 -0.397805 1.341951 -0.77937 1.06066 -1.06066 
C 0.77937 -1.341951 0.397805 -1.5 0 -1.5 
C -0.397805 -1.5 -0.77937 -1.341951 -1.06066 -1.06066 
C -1.341951 -0.77937 -1.5 -0.397805 -1.5 0 
C -1.5 0.397805 -1.341951 0.77937 -1.06066 1.06066 
C -0.77937 1.341951 -0.397805 1.5 0 1.5 
z
" style="stroke: #000000"/>
    </defs>
    <g clip-path="url(#pcb42a8c9eb)">
     <use xlink:href="#m2bbf622745" x="69.806335" y="319.109746" style="stroke: #000000"/>
     <use xlink:href="#m2bbf622745" x="79.520068" y="317.487111" style="stroke: #000000"/>
     <use xlink:href="#m2bbf622745" x="89.233801" y="319.921063" style="stroke: #000000"/>
     <use xlink:href="#m2bbf622745" x="98.947534" y="302.072087" style="stroke: #000000"/>
     <use xlink:href="#m2bbf622745" x="108.661268" y="298.015502" style="stroke: #000000"/>
     <use xlink:href="#m2bbf622745" x="118.375001" y="283.411794" style="stroke: #000000"/>
     <use xlink:href="#m2bbf622745" x="128.088734" y="289.091014" style="stroke: #000000"/>
     <use xlink:href="#m2bbf622745" x="137.802467" y="272.053355" style="stroke: #000000"/>
     <use xlink:href="#m2bbf622745" x="147.5162" y="282.600477" style="stroke: #000000"/>
     <use xlink:href="#m2bbf622745" x="157.229933" y="306.128672" style="stroke: #000000"/>
     <use xlink:href="#m2bbf622745" x="166.943666" y="311.807892" style="stroke: #000000"/>
     <use xlink:href="#m2bbf622745" x="176.657399" y="321.543697" style="stroke: #000000"/>
     <use xlink:href="#m2bbf622745" x="186.371132" y="315.05316" style="stroke: #000000"/>
     <use xlink:href="#m2bbf622745" x="196.084865" y="325.600282" style="stroke: #000000"/>
     <use xlink:href="#m2bbf622745" x="205.798598" y="326.411599" style="stroke: #000000"/>
     <use xlink:href="#m2bbf622745" x="215.512331" y="330.468185" style="stroke: #000000"/>
     <use xlink:href="#m2bbf622745" x="225.226064" y="332.090819" style="stroke: #000000"/>
     <use xlink:href="#m2bbf622745" x="234.939798" y="326.411599" style="stroke: #000000"/>
     <use xlink:href="#m2bbf622745" x="244.653531" y="332.090819" style="stroke: #000000"/>
     <use xlink:href="#m2bbf622745" x="254.367264" y="328.84555" style="stroke: #000000"/>
     <use xlink:href="#m2bbf622745" x="264.080997" y="317.487111" style="stroke: #000000"/>
     <use xlink:href="#m2bbf622745" x="273.79473" y="276.921258" style="stroke: #000000"/>
     <use xlink:href="#m2bbf622745" x="283.508463" y="219.317746" style="stroke: #000000"/>
     <use xlink:href="#m2bbf622745" x="293.222196" y="145.487892" style="stroke: #000000"/>
     <use xlink:href="#m2bbf622745" x="302.935929" y="30.280868" style="stroke: #000000"/>
     <use xlink:href="#m2bbf622745" x="312.649662" y="158.468965" style="stroke: #000000"/>
     <use xlink:href="#m2bbf622745" x="322.363395" y="198.223502" style="stroke: #000000"/>
     <use xlink:href="#m2bbf622745" x="332.077128" y="216.883794" style="stroke: #000000"/>
     <use xlink:href="#m2bbf622745" x="341.790861" y="286.657063" style="stroke: #000000"/>
     <use xlink:href="#m2bbf622745" x="351.504594" y="292.336282" style="stroke: #000000"/>
     <use xlink:href="#m2bbf622745" x="361.218327" y="296.392868" style="stroke: #000000"/>
     <use xlink:href="#m2bbf622745" x="370.932061" y="299.638136" style="stroke: #000000"/>
     <use xlink:href="#m2bbf622745" x="380.645794" y="306.128672" style="stroke: #000000"/>
     <use xlink:href="#m2bbf622745" x="390.359527" y="277.732575" style="stroke: #000000"/>
     <use xlink:href="#m2bbf622745" x="400.07326" y="276.921258" style="stroke: #000000"/>
     <use xlink:href="#m2bbf622745" x="409.786993" y="267.99677" style="stroke: #000000"/>
     <use xlink:href="#m2bbf622745" x="419.500726" y="272.053355" style="stroke: #000000"/>
     <use xlink:href="#m2bbf622745" x="429.214459" y="269.619404" style="stroke: #000000"/>
     <use xlink:href="#m2bbf622745" x="438.928192" y="253.393063" style="stroke: #000000"/>
     <use xlink:href="#m2bbf622745" x="448.641925" y="263.940185" style="stroke: #000000"/>
     <use xlink:href="#m2bbf622745" x="458.355658" y="266.374136" style="stroke: #000000"/>
     <use xlink:href="#m2bbf622745" x="468.069391" y="256.638331" style="stroke: #000000"/>
     <use xlink:href="#m2bbf622745" x="477.783124" y="267.99677" style="stroke: #000000"/>
     <use xlink:href="#m2bbf622745" x="487.496857" y="272.053355" style="stroke: #000000"/>
     <use xlink:href="#m2bbf622745" x="497.210591" y="274.487307" style="stroke: #000000"/>
     <use xlink:href="#m2bbf622745" x="506.924324" y="251.770429" style="stroke: #000000"/>
     <use xlink:href="#m2bbf622745" x="516.638057" y="244.468575" style="stroke: #000000"/>
     <use xlink:href="#m2bbf622745" x="526.35179" y="260.694916" style="stroke: #000000"/>
    </g>
   </g>
   <g id="line2d_35">
    <path d="M 69.806335 315.884462 
L 79.520068 329.949064 
L 89.233801 326.295981 
L 98.947534 321.799378 
L 108.661268 326.894189 
L 118.375001 327.706156 
L 128.088734 328.415914 
L 137.802467 323.928252 
L 147.5162 323.57978 
L 157.229933 323.237714 
L 166.943666 328.029297 
L 176.657399 329.435209 
L 186.371132 327.805004 
L 196.084865 333.508444 
L 205.798598 331.765986 
L 215.512331 335.336087 
L 225.226064 334.465113 
L 234.939798 330.14429 
L 244.653531 334.474731 
L 254.367264 329.325773 
L 264.080997 323.341539 
L 273.79473 288.218294 
L 283.508463 246.916047 
L 293.222196 181.629492 
L 302.935929 92.780285 
L 312.649662 185.413802 
L 322.363395 237.441201 
L 332.077128 245.651604 
L 341.790861 294.745116 
L 351.504594 299.140402 
L 361.218327 301.23083 
L 370.932061 310.133229 
L 380.645794 309.218068 
L 390.359527 290.11098 
L 400.07326 289.348599 
L 409.786993 284.370756 
L 419.500726 290.164737 
L 429.214459 279.434701 
L 438.928192 269.225252 
L 448.641925 274.630412 
L 458.355658 274.841585 
L 468.069391 265.149594 
L 477.783124 281.704503 
L 487.496857 279.353624 
L 497.210591 274.832987 
L 506.924324 259.836921 
L 516.638057 255.842926 
L 526.35179 269.566779 
" clip-path="url(#pcb42a8c9eb)" style="fill: none; stroke: #1d5f9b; stroke-width: 1.5; stroke-linecap: square"/>
    <defs>
     <path id="m53247d0a60" d="M -1.5 1.5 
L 1.5 1.5 
L 1.5 -1.5 
L -1.5 -1.5 
z
" style="stroke: #1d5f9b; stroke-linejoin: miter"/>
    </defs>
    <g clip-path="url(#pcb42a8c9eb)">
     <use xlink:href="#m53247d0a60" x="69.806335" y="315.884462" style="fill: #1d5f9b; stroke: #1d5f9b; stroke-linejoin: miter"/>
     <use xlink:href="#m53247d0a60" x="79.520068" y="329.949064" style="fill: #1d5f9b; stroke: #1d5f9b; stroke-linejoin: miter"/>
     <use xlink:href="#m53247d0a60" x="89.233801" y="326.295981" style="fill: #1d5f9b; stroke: #1d5f9b; stroke-linejoin: miter"/>
     <use xlink:href="#m53247d0a60" x="98.947534" y="321.799378" style="fill: #1d5f9b; stroke: #1d5f9b; stroke-linejoin: miter"/>
     <use xlink:href="#m53247d0a60" x="108.661268" y="326.894189" style="fill: #1d5f9b; stroke: #1d5f9b; stroke-linejoin: miter"/>
     <use xlink:href="#m53247d0a60" x="118.375001" y="327.706156" style="fill: #1d5f9b; stroke: #1d5f9b; stroke-linejoin: miter"/>
     <use xlink:href="#m53247d0a60" x="128.088734" y="328.415914" style="fill: #1d5f9b; stroke: #1d5f9b; stroke-linejoin: miter"/>
     <use xlink:href="#m53247d0a60" x="137.802467" y="323.928252" style="fill: #1d5f9b; stroke: #1d5f9b; stroke-linejoin: miter"/>
     <use xlink:href="#m53247d0a60" x="147.5162" y="323.57978" style="fill: #1d5f9b; stroke: #1d5f9b; stroke-linejoin: miter"/>
     <use xlink:href="#m53247d0a60" x="157.229933" y="323.237714" style="fill: #1d5f9b; stroke: #1d5f9b; stroke-linejoin: miter"/>
     <use xlink:href="#m53247d0a60" x="166.943666" y="328.029297" style="fill: #1d5f9b; stroke: #1d5f9b; stroke-linejoin: miter"/>
     <use xlink:href="#m53247d0a60" x="176.657399" y="329.435209" style="fill: #1d5f9b; stroke: #1d5f9b; stroke-linejoin: miter"/>
     <use xlink:href="#m53247d0a60" x="186.371132" y="327.805004" style="fill: #1d5f9b; stroke: #1d5f9b; stroke-linejoin: miter"/>
     <use xlink:href="#m53247d0a60" x="196.084865" y="333.508444" style="fill: #1d5f9b; stroke: #1d5f9b; stroke-linejoin: miter"/>
     <use xlink:href="#m53247d0a60" x="205.798598" y="331.765986" style="fill: #1d5f9b; stroke: #1d5f9b; stroke-linejoin: miter"/>
     <use xlink:href="#m53247d0a60" x="215.512331" y="335.336087" style="fill: #1d5f9b; stroke: #1d5f9b; stroke-linejoin: miter"/>
     <use xlink:href="#m53247d0a60" x="225.226064" y="334.465113" style="fill: #1d5f9b; stroke: #1d5f9b; stroke-linejoin: miter"/>
     <use xlink:href="#m53247d0a60" x="234.939798" y="330.14429" style="fill: #1d5f9b; stroke: #1d5f9b; stroke-linejoin: miter"/>
     <use xlink:href="#m53247d0a60" x="244.653531" y="334.474731" style="fill: #1d5f9b; stroke: #1d5f9b; stroke-linejoin: miter"/>
     <use xlink:href="#m53247d0a60" x="254.367264" y="329.325773" style="fill: #1d5f9b; stroke: #1d5f9b; stroke-linejoin: miter"/>
     <use xlink:href="#m53247d0a60" x="264.080997" y="323.341539" style="fill: #1d5f9b; stroke: #1d5f9b; stroke-linejoin: miter"/>
     <use xlink:href="#m53247d0a60" x="273.79473" y="288.218294" style="fill: #1d5f9b; stroke: #1d5f9b; stroke-linejoin: miter"/>
     <use xlink:href="#m53247d0a60" x="283.508463" y="246.916047" style="fill: #1d5f9b; stroke: #1d5f9b; stroke-linejoin: miter"/>
     <use xlink:href="#m53247d0a60" x="293.222196" y="181.629492" style="fill: #1d5f9b; stroke: #1d5f9b; stroke-linejoin: miter"/>
     <use xlink:href="#m53247d0a60" x="302.935929" y="92.780285" style="fill: #1d5f9b; stroke: #1d5f9b; stroke-linejoin: miter"/>
     <use xlink:href="#m53247d0a60" x="312.649662" y="185.413802" style="fill: #1d5f9b; stroke: #1d5f9b; stroke-linejoin: miter"/>
     <use xlink:href="#m53247d0a60" x="322.363395" y="237.441201" style="fill: #1d5f9b; stroke: #1d5f9b; stroke-linejoin: miter"/>
     <use xlink:href="#m53247d0a60" x="332.077128" y="245.651604" style="fill: #1d5f9b; stroke: #1d5f9b; stroke-linejoin: miter"/>
     <use xlink:href="#m53247d0a60" x="341.790861" y="294.745116" style="fill: #1d5f9b; stroke: #1d5f9b; stroke-linejoin: miter"/>
     <use xlink:href="#m53247d0a60" x="351.504594" y="299.140402" style="fill: #1d5f9b; stroke: #1d5f9b; stroke-linejoin: miter"/>
     <use xlink:href="#m53247d0a60" x="361.218327" y="301.23083" style="fill: #1d5f9b; stroke: #1d5f9b; stroke-linejoin: miter"/>
     <use xlink:href="#m53247d0a60" x="370.932061" y="310.133229" style="fill: #1d5f9b; stroke: #1d5f9b; stroke-linejoin: miter"/>
     <use xlink:href="#m53247d0a60" x="380.645794" y="309.218068" style="fill: #1d5f9b; stroke: #1d5f9b; stroke-linejoin: miter"/>
     <use xlink:href="#m53247d0a60" x="390.359527" y="290.11098" style="fill: #1d5f9b; stroke: #1d5f9b; stroke-linejoin: miter"/>
     <use xlink:href="#m53247d0a60" x="400.07326" y="289.348599" style="fill: #1d5f9b; stroke: #1d5f9b; stroke-linejoin: miter"/>
     <use xlink:href="#m53247d0a60" x="409.786993" y="284.370756" style="fill: #1d5f9b; stroke: #1d5f9b; stroke-linejoin: miter"/>
     <use xlink:href="#m53247d0a60" x="419.500726" y="290.164737" style="fill: #1d5f9b; stroke: #1d5f9b; stroke-linejoin: miter"/>
     <use xlink:href="#m53247d0a60" x="429.214459" y="279.434701" style="fill: #1d5f9b; stroke: #1d5f9b; stroke-linejoin: miter"/>
     <use xlink:href="#m53247d0a60" x="438.928192" y="269.225252" style="fill: #1d5f9b; stroke: #1d5f9b; stroke-linejoin: miter"/>
     <use xlink:href="#m53247d0a60" x="448.641925" y="274.630412" style="fill: #1d5f9b; stroke: #1d5f9b; stroke-linejoin: miter"/>
     <use xlink:href="#m53247d0a60" x="458.355658" y="274.841585" style="fill: #1d5f9b; stroke: #1d5f9b; stroke-linejoin: miter"/>
     <use xlink:href="#m53247d0a60" x="468.069391" y="265.149594" style="fill: #1d5f9b; stroke: #1d5f9b; stroke-linejoin: miter"/>
     <use xlink:href="#m53247d0a60" x="477.783124" y="281.704503" style="fill: #1d5f9b; stroke: #1d5f9b; stroke-linejoin: miter"/>
     <use xlink:href="#m53247d0a60" x="487.496857" y="279.353624" style="fill: #1d5f9b; stroke: #1d5f9b; stroke-linejoin: miter"/>
     <use xlink:href="#m53247d0a60" x="497.210591" y="274.832987" style="fill: #1d5f9b; stroke: #1d5f9b; stroke-linejoin: miter"/>
     <use xlink:href="#m53247d0a60" x="506.924324" y="259.836921" style="fill: #1d5f9b; stroke: #1d5f9b; stroke-linejoin: miter"/>
     <use xlink:href="#m53247d0a60" x="516.638057" y="255.842926" style="fill: #1d5f9b; stroke: #1d5f9b; stroke-linejoin: miter"/>
     <use xlink:href="#m53247d0a60" x="526.35179" y="269.566779" style="fill: #1d5f9b; stroke: #1d5f9b; stroke-linejoin: miter"/>
    </g>
   </g>
   <g id="line2d_36">
    <path d="M 69.806335 315.861768 
L 79.520068 329.961574 
L 89.233801 326.29855 
L 98.947534 321.802548 
L 108.661268 326.889554 
L 118.375001 327.134458 
L 128.088734 327.063452 
L 137.802467 321.129592 
L 147.5162 320.305116 
L 157.229933 321.380111 
L 166.943666 325.085331 
L 176.657399 327.307983 
L 186.371132 324.236199 
L 196.084865 329.569286 
L 205.798598 329.472431 
L 215.512331 330.468955 
L 225.226064 334.487531 
L 234.939798 328.264704 
L 244.653531 332.614743 
L 254.367264 329.504161 
L 264.080997 320.174283 
L 273.79473 279.125955 
L 283.508463 227.061037 
L 293.222196 155.122526 
L 302.935929 44.678581 
L 312.649662 162.569118 
L 322.363395 204.65392 
L 332.077128 222.058699 
L 341.790861 287.522633 
L 351.504594 294.635255 
L 361.218327 296.959694 
L 370.932061 302.524194 
L 380.645794 306.593476 
L 390.359527 280.816772 
L 400.07326 281.702779 
L 409.786993 271.249819 
L 419.500726 279.566484 
L 429.214459 272.361859 
L 438.928192 257.445494 
L 448.641925 265.489492 
L 458.355658 266.696943 
L 468.069391 256.742626 
L 477.783124 260.813726 
L 487.496857 271.368734 
L 497.210591 275.220705 
L 506.924324 249.612487 
L 516.638057 236.69064 
L 526.35179 258.828189 
" clip-path="url(#pcb42a8c9eb)" style="fill: none; stroke: #808080; stroke-width: 1.5; stroke-linecap: square"/>
    <defs>
     <path id="m71806bea2e" d="M 0 1.5 
C 0.397805 1.5 0.77937 1.341951 1.06066 1.06066 
C 1.341951 0.77937 1.5 0.397805 1.5 0 
C 1.5 -0.397805 1.341951 -0.77937 1.06066 -1.06066 
C 0.77937 -1.341951 0.397805 -1.5 0 -1.5 
C -0.397805 -1.5 -0.77937 -1.341951 -1.06066 -1.06066 
C -1.341951 -0.77937 -1.5 -0.397805 -1.5 0 
C -1.5 0.397805 -1.341951 0.77937 -1.06066 1.06066 
C -0.77937 1.341951 -0.397805 1.5 0 1.5 
z
" style="stroke: #808080"/>
    </defs>
    <g clip-path="url(#pcb42a8c9eb)">
     <use xlink:href="#m71806bea2e" x="69.806335" y="315.861768" style="fill: #808080; stroke: #808080"/>
     <use xlink:href="#m71806bea2e" x="79.520068" y="329.961574" style="fill: #808080; stroke: #808080"/>
     <use xlink:href="#m71806bea2e" x="89.233801" y="326.29855" style="fill: #808080; stroke: #808080"/>
     <use xlink:href="#m71806bea2e" x="98.947534" y="321.802548" style="fill: #808080; stroke: #808080"/>
     <use xlink:href="#m71806bea2e" x="108.661268" y="326.889554" style="fill: #808080; stroke: #808080"/>
     <use xlink:href="#m71806bea2e" x="118.375001" y="327.134458" style="fill: #808080; stroke: #808080"/>
     <use xlink:href="#m71806bea2e" x="128.088734" y="327.063452" style="fill: #808080; stroke: #808080"/>
     <use xlink:href="#m71806bea2e" x="137.802467" y="321.129592" style="fill: #808080; stroke: #808080"/>
     <use xlink:href="#m71806bea2e" x="147.5162" y="320.305116" style="fill: #808080; stroke: #808080"/>
     <use xlink:href="#m71806bea2e" x="157.229933" y="321.380111" style="fill: #808080; stroke: #808080"/>
     <use xlink:href="#m71806bea2e" x="166.943666" y="325.085331" style="fill: #808080; stroke: #808080"/>
     <use xlink:href="#m71806bea2e" x="176.657399" y="327.307983" style="fill: #808080; stroke: #808080"/>
     <use xlink:href="#m71806bea2e" x="186.371132" y="324.236199" style="fill: #808080; stroke: #808080"/>
     <use xlink:href="#m71806bea2e" x="196.084865" y="329.569286" style="fill: #808080; stroke: #808080"/>
     <use xlink:href="#m71806bea2e" x="205.798598" y="329.472431" style="fill: #808080; stroke: #808080"/>
     <use xlink:href="#m71806bea2e" x="215.512331" y="330.468955" style="fill: #808080; stroke: #808080"/>
     <use xlink:href="#m71806bea2e" x="225.226064" y="334.487531" style="fill: #808080; stroke: #808080"/>
     <use xlink:href="#m71806bea2e" x="234.939798" y="328.264704" style="fill: #808080; stroke: #808080"/>
     <use xlink:href="#m71806bea2e" x="244.653531" y="332.614743" style="fill: #808080; stroke: #808080"/>
     <use xlink:href="#m71806bea2e" x="254.367264" y="329.504161" style="fill: #808080; stroke: #808080"/>
     <use xlink:href="#m71806bea2e" x="264.080997" y="320.174283" style="fill: #808080; stroke: #808080"/>
     <use xlink:href="#m71806bea2e" x="273.79473" y="279.125955" style="fill: #808080; stroke: #808080"/>
     <use xlink:href="#m71806bea2e" x="283.508463" y="227.061037" style="fill: #808080; stroke: #808080"/>
     <use xlink:href="#m71806bea2e" x="293.222196" y="155.122526" style="fill: #808080; stroke: #808080"/>
     <use xlink:href="#m71806bea2e" x="302.935929" y="44.678581" style="fill: #808080; stroke: #808080"/>
     <use xlink:href="#m71806bea2e" x="312.649662" y="162.569118" style="fill: #808080; stroke: #808080"/>
     <use xlink:href="#m71806bea2e" x="322.363395" y="204.65392" style="fill: #808080; stroke: #808080"/>
     <use xlink:href="#m71806bea2e" x="332.077128" y="222.058699" style="fill: #808080; stroke: #808080"/>
     <use xlink:href="#m71806bea2e" x="341.790861" y="287.522633" style="fill: #808080; stroke: #808080"/>
     <use xlink:href="#m71806bea2e" x="351.504594" y="294.635255" style="fill: #808080; stroke: #808080"/>
     <use xlink:href="#m71806bea2e" x="361.218327" y="296.959694" style="fill: #808080; stroke: #808080"/>
     <use xlink:href="#m71806bea2e" x="370.932061" y="302.524194" style="fill: #808080; stroke: #808080"/>
     <use xlink:href="#m71806bea2e" x="380.645794" y="306.593476" style="fill: #808080; stroke: #808080"/>
     <use xlink:href="#m71806bea2e" x="390.359527" y="280.816772" style="fill: #808080; stroke: #808080"/>
     <use xlink:href="#m71806bea2e" x="400.07326" y="281.702779" style="fill: #808080; stroke: #808080"/>
     <use xlink:href="#m71806bea2e" x="409.786993" y="271.249819" style="fill: #808080; stroke: #808080"/>
     <use xlink:href="#m71806bea2e" x="419.500726" y="279.566484" style="fill: #808080; stroke: #808080"/>
     <use xlink:href="#m71806bea2e" x="429.214459" y="272.361859" style="fill: #808080; stroke: #808080"/>
     <use xlink:href="#m71806bea2e" x="438.928192" y="257.445494" style="fill: #808080; stroke: #808080"/>
     <use xlink:href="#m71806bea2e" x="448.641925" y="265.489492" style="fill: #808080; stroke: #808080"/>
     <use xlink:href="#m71806bea2e" x="458.355658" y="266.696943" style="fill: #808080; stroke: #808080"/>
     <use xlink:href="#m71806bea2e" x="468.069391" y="256.742626" style="fill: #808080; stroke: #808080"/>
     <use xlink:href="#m71806bea2e" x="477.783124" y="260.813726" style="fill: #808080; stroke: #808080"/>
     <use xlink:href="#m71806bea2e" x="487.496857" y="271.368734" style="fill: #808080; stroke: #808080"/>
     <use xlink:href="#m71806bea2e" x="497.210591" y="275.220705" style="fill: #808080; stroke: #808080"/>
     <use xlink:href="#m71806bea2e" x="506.924324" y="249.612487" style="fill: #808080; stroke: #808080"/>
     <use xlink:href="#m71806bea2e" x="516.638057" y="236.69064" style="fill: #808080; stroke: #808080"/>
     <use xlink:href="#m71806bea2e" x="526.35179" y="258.828189" style="fill: #808080; stroke: #808080"/>
    </g>
   </g>
   <g id="patch_3">
    <path d="M 46.979063 343.449258 
L 46.979063 10.809258 
" style="fill: none; stroke: #000000; stroke-width: 0.8; stroke-linejoin: miter; stroke-linecap: square"/>
   </g>
   <g id="patch_4">
    <path d="M 46.979063 343.449258 
L 549.179063 343.449258 
" style="fill: none; stroke: #000000; stroke-width: 0.8; stroke-linejoin: miter; stroke-linecap: square"/>
   </g>
   <g id="legend_1">
    <g id="line2d_37">
     <path d="M 390.030922 34.895173 
L 399.530922 34.895173 
L 409.030922 34.895173 
" style="fill: none; stroke: #000000; stroke-width: 1.5; stroke-linecap: square"/>
     <g>
      <use xlink:href="#m2bbf622745" x="399.530922" y="34.895173" style="stroke: #000000"/>
     </g>
    </g>
    <g id="text_36">
     <!-- actual -->
     <g transform="translate(416.630922 38.220173) scale(0.095 -0.095)">
      <defs>
       <path id="DejaVuSans-63" d="M 3122 3366 
L 3122 2828 
Q 2878 2963 2633 3030 
Q 2388 3097 2138 3097 
Q 1578 3097 1268 2742 
Q 959 2388 959 1747 
Q 959 1106 1268 751 
Q 1578 397 2138 397 
Q 2388 397 2633 464 
Q 2878 531 3122 666 
L 3122 134 
Q 2881 22 2623 -34 
Q 2366 -91 2075 -91 
Q 1284 -91 818 406 
Q 353 903 353 1747 
Q 353 2603 823 3093 
Q 1294 3584 2113 3584 
Q 2378 3584 2631 3529 
Q 2884 3475 3122 3366 
z
" transform="scale(0.015625)"/>
       <path id="DejaVuSans-75" d="M 544 1381 
L 544 3500 
L 1119 3500 
L 1119 1403 
Q 1119 906 1312 657 
Q 1506 409 1894 409 
Q 2359 409 2629 706 
Q 2900 1003 2900 1516 
L 2900 3500 
L 3475 3500 
L 3475 0 
L 2900 0 
L 2900 538 
Q 2691 219 2414 64 
Q 2138 -91 1772 -91 
Q 1169 -91 856 284 
Q 544 659 544 1381 
z
M 1991 3584 
L 1991 3584 
z
" transform="scale(0.015625)"/>
      </defs>
      <use xlink:href="#DejaVuSans-61"/>
      <use xlink:href="#DejaVuSans-63" x="61.279297"/>
      <use xlink:href="#DejaVuSans-74" x="116.259766"/>
      <use xlink:href="#DejaVuSans-75" x="155.46875"/>
      <use xlink:href="#DejaVuSans-61" x="218.847656"/>
      <use xlink:href="#DejaVuSans-6c" x="280.126953"/>
     </g>
    </g>
    <g id="line2d_38">
     <path d="M 390.030922 48.839392 
L 399.530922 48.839392 
L 409.030922 48.839392 
" style="fill: none; stroke: #1d5f9b; stroke-width: 1.5; stroke-linecap: square"/>
     <g>
      <use xlink:href="#m53247d0a60" x="399.530922" y="48.839392" style="fill: #1d5f9b; stroke: #1d5f9b; stroke-linejoin: miter"/>
     </g>
    </g>
    <g id="text_37">
     <!-- scenario I (simple) -->
     <g transform="translate(416.630922 52.164392) scale(0.095 -0.095)">
      <defs>
       <path id="DejaVuSans-72" d="M 2631 2963 
Q 2534 3019 2420 3045 
Q 2306 3072 2169 3072 
Q 1681 3072 1420 2755 
Q 1159 2438 1159 1844 
L 1159 0 
L 581 0 
L 581 3500 
L 1159 3500 
L 1159 2956 
Q 1341 3275 1631 3429 
Q 1922 3584 2338 3584 
Q 2397 3584 2469 3576 
Q 2541 3569 2628 3553 
L 2631 2963 
z
" transform="scale(0.015625)"/>
      </defs>
      <use xlink:href="#DejaVuSans-73"/>
      <use xlink:href="#DejaVuSans-63" x="52.099609"/>
      <use xlink:href="#DejaVuSans-65" x="107.080078"/>
      <use xlink:href="#DejaVuSans-6e" x="168.603516"/>
      <use xlink:href="#DejaVuSans-61" x="231.982422"/>
      <use xlink:href="#DejaVuSans-72" x="293.261719"/>
      <use xlink:href="#DejaVuSans-69" x="334.375"/>
      <use xlink:href="#DejaVuSans-6f" x="362.158203"/>
      <use xlink:href="#DejaVuSans-20" x="423.339844"/>
      <use xlink:href="#DejaVuSans-49" x="455.126953"/>
      <use xlink:href="#DejaVuSans-20" x="484.619141"/>
      <use xlink:href="#DejaVuSans-28" x="516.40625"/>
      <use xlink:href="#DejaVuSans-73" x="555.419922"/>
      <use xlink:href="#DejaVuSans-69" x="607.519531"/>
      <use xlink:href="#DejaVuSans-6d" x="635.302734"/>
      <use xlink:href="#DejaVuSans-70" x="732.714844"/>
      <use xlink:href="#DejaVuSans-6c" x="796.191406"/>
      <use xlink:href="#DejaVuSans-65" x="823.974609"/>
      <use xlink:href="#DejaVuSans-29" x="885.498047"/>
     </g>
    </g>
    <g id="line2d_39">
     <path d="M 390.030922 62.783611 
L 399.530922 62.783611 
L 409.030922 62.783611 
" style="fill: none; stroke: #808080; stroke-width: 1.5; stroke-linecap: square"/>
     <g>
      <use xlink:href="#m71806bea2e" x="399.530922" y="62.783611" style="fill: #808080; stroke: #808080"/>
     </g>
    </g>
    <g id="text_38">
     <!-- scenario I (improved) -->
     <g transform="translate(416.630922 66.108611) scale(0.095 -0.095)">
      <defs>
       <path id="DejaVuSans-76" d="M 191 3500 
L 800 3500 
L 1894 563 
L 2988 3500 
L 3597 3500 
L 2284 0 
L 1503 0 
L 191 3500 
z
" transform="scale(0.015625)"/>
       <path id="DejaVuSans-64" d="M 2906 2969 
L 2906 4863 
L 3481 4863 
L 3481 0 
L 2906 0 
L 2906 525 
Q 2725 213 2448 61 
Q 2172 -91 1784 -91 
Q 1150 -91 751 415 
Q 353 922 353 1747 
Q 353 2572 751 3078 
Q 1150 3584 1784 3584 
Q 2172 3584 2448 3432 
Q 2725 3281 2906 2969 
z
M 947 1747 
Q 947 1113 1208 752 
Q 1469 391 1925 391 
Q 2381 391 2643 752 
Q 2906 1113 2906 1747 
Q 2906 2381 2643 2742 
Q 2381 3103 1925 3103 
Q 1469 3103 1208 2742 
Q 947 2381 947 1747 
z
" transform="scale(0.015625)"/>
      </defs>
      <use xlink:href="#DejaVuSans-73"/>
      <use xlink:href="#DejaVuSans-63" x="52.099609"/>
      <use xlink:href="#DejaVuSans-65" x="107.080078"/>
      <use xlink:href="#DejaVuSans-6e" x="168.603516"/>
      <use xlink:href="#DejaVuSans-61" x="231.982422"/>
      <use xlink:href="#DejaVuSans-72" x="293.261719"/>
      <use xlink:href="#DejaVuSans-69" x="334.375"/>
      <use xlink:href="#DejaVuSans-6f" x="362.158203"/>
      <use xlink:href="#DejaVuSans-20" x="423.339844"/>
      <use xlink:href="#DejaVuSans-49" x="455.126953"/>
      <use xlink:href="#DejaVuSans-20" x="484.619141"/>
      <use xlink:href="#DejaVuSans-28" x="516.40625"/>
      <use xlink:href="#DejaVuSans-69" x="555.419922"/>
      <use xlink:href="#DejaVuSans-6d" x="583.203125"/>
      <use xlink:href="#DejaVuSans-70" x="680.615234"/>
      <use xlink:href="#DejaVuSans-72" x="744.091797"/>
      <use xlink:href="#DejaVuSans-6f" x="782.955078"/>
      <use xlink:href="#DejaVuSans-76" x="844.136719"/>
      <use xlink:href="#DejaVuSans-65" x="903.316406"/>
      <use xlink:href="#DejaVuSans-64" x="964.839844"/>
      <use xlink:href="#DejaVuSans-29" x="1028.316406"/>
     </g>
    </g>
   </g>
  </g>
 </g>
 <defs>
  <clipPath id="pcb42a8c9eb">
   <rect x="46.979063" y="10.809258" width="502.2" height="332.64"/>
  </clipPath>
 </defs>
</svg>
